<?xml version="1.0" encoding="utf-8"?>
<svg xmlns="http://www.w3.org/2000/svg" xmlns:xlink="http://www.w3.org/1999/xlink" width="672" height="480" viewBox="0 0 2688 1920">
<defs>
  <clipPath id="clip600">
    <rect x="0" y="0" width="2688" height="1920"/>
  </clipPath>
</defs>
<path clip-path="url(#clip600)" d="
M0 1920 L2688 1920 L2688 0 L0 0  Z
  " fill="#ffffff" fill-rule="evenodd" fill-opacity="1"/>
<defs>
  <clipPath id="clip601">
    <rect x="537" y="0" width="1883" height="1883"/>
  </clipPath>
</defs>
<path clip-path="url(#clip600)" d="
M216.487 1800.78 L2640.76 1800.78 L2640.76 47.2441 L216.487 47.2441  Z
  " fill="#ffffff" fill-rule="evenodd" fill-opacity="1"/>
<defs>
  <clipPath id="clip602">
    <rect x="216" y="47" width="2425" height="1755"/>
  </clipPath>
</defs>
<polyline clip-path="url(#clip602)" style="stroke:#000000; stroke-linecap:round; stroke-linejoin:round; stroke-width:2; stroke-opacity:0.1; fill:none" points="
  336.638,1800.78 336.638,47.2441 
  "/>
<polyline clip-path="url(#clip602)" style="stroke:#000000; stroke-linecap:round; stroke-linejoin:round; stroke-width:2; stroke-opacity:0.1; fill:none" points="
  700.632,1800.78 700.632,47.2441 
  "/>
<polyline clip-path="url(#clip602)" style="stroke:#000000; stroke-linecap:round; stroke-linejoin:round; stroke-width:2; stroke-opacity:0.1; fill:none" points="
  1064.63,1800.78 1064.63,47.2441 
  "/>
<polyline clip-path="url(#clip602)" style="stroke:#000000; stroke-linecap:round; stroke-linejoin:round; stroke-width:2; stroke-opacity:0.1; fill:none" points="
  1428.62,1800.78 1428.62,47.2441 
  "/>
<polyline clip-path="url(#clip602)" style="stroke:#000000; stroke-linecap:round; stroke-linejoin:round; stroke-width:2; stroke-opacity:0.1; fill:none" points="
  1792.62,1800.78 1792.62,47.2441 
  "/>
<polyline clip-path="url(#clip602)" style="stroke:#000000; stroke-linecap:round; stroke-linejoin:round; stroke-width:2; stroke-opacity:0.1; fill:none" points="
  2156.61,1800.78 2156.61,47.2441 
  "/>
<polyline clip-path="url(#clip602)" style="stroke:#000000; stroke-linecap:round; stroke-linejoin:round; stroke-width:2; stroke-opacity:0.1; fill:none" points="
  2520.61,1800.78 2520.61,47.2441 
  "/>
<polyline clip-path="url(#clip600)" style="stroke:#000000; stroke-linecap:round; stroke-linejoin:round; stroke-width:4; stroke-opacity:1; fill:none" points="
  216.487,1800.78 2640.76,1800.78 
  "/>
<polyline clip-path="url(#clip600)" style="stroke:#000000; stroke-linecap:round; stroke-linejoin:round; stroke-width:4; stroke-opacity:1; fill:none" points="
  336.638,1800.78 336.638,1781.88 
  "/>
<polyline clip-path="url(#clip600)" style="stroke:#000000; stroke-linecap:round; stroke-linejoin:round; stroke-width:4; stroke-opacity:1; fill:none" points="
  700.632,1800.78 700.632,1781.88 
  "/>
<polyline clip-path="url(#clip600)" style="stroke:#000000; stroke-linecap:round; stroke-linejoin:round; stroke-width:4; stroke-opacity:1; fill:none" points="
  1064.63,1800.78 1064.63,1781.88 
  "/>
<polyline clip-path="url(#clip600)" style="stroke:#000000; stroke-linecap:round; stroke-linejoin:round; stroke-width:4; stroke-opacity:1; fill:none" points="
  1428.62,1800.78 1428.62,1781.88 
  "/>
<polyline clip-path="url(#clip600)" style="stroke:#000000; stroke-linecap:round; stroke-linejoin:round; stroke-width:4; stroke-opacity:1; fill:none" points="
  1792.62,1800.78 1792.62,1781.88 
  "/>
<polyline clip-path="url(#clip600)" style="stroke:#000000; stroke-linecap:round; stroke-linejoin:round; stroke-width:4; stroke-opacity:1; fill:none" points="
  2156.61,1800.78 2156.61,1781.88 
  "/>
<polyline clip-path="url(#clip600)" style="stroke:#000000; stroke-linecap:round; stroke-linejoin:round; stroke-width:4; stroke-opacity:1; fill:none" points="
  2520.61,1800.78 2520.61,1781.88 
  "/>
<path clip-path="url(#clip600)" d="M290.701 1848.65 L320.376 1848.65 L320.376 1852.59 L290.701 1852.59 L290.701 1848.65 Z" fill="#000000" fill-rule="evenodd" fill-opacity="1" /><path clip-path="url(#clip600)" d="M344.635 1846.85 Q347.992 1847.57 349.867 1849.84 Q351.765 1852.1 351.765 1855.44 Q351.765 1860.55 348.247 1863.35 Q344.728 1866.15 338.247 1866.15 Q336.071 1866.15 333.756 1865.71 Q331.464 1865.3 329.011 1864.44 L329.011 1859.93 Q330.955 1861.06 333.27 1861.64 Q335.585 1862.22 338.108 1862.22 Q342.506 1862.22 344.797 1860.48 Q347.112 1858.75 347.112 1855.44 Q347.112 1852.38 344.96 1850.67 Q342.83 1848.93 339.01 1848.93 L334.983 1848.93 L334.983 1845.09 L339.196 1845.09 Q342.645 1845.09 344.473 1843.72 Q346.302 1842.34 346.302 1839.74 Q346.302 1837.08 344.404 1835.67 Q342.529 1834.23 339.01 1834.23 Q337.089 1834.23 334.89 1834.65 Q332.691 1835.07 330.052 1835.95 L330.052 1831.78 Q332.714 1831.04 335.029 1830.67 Q337.367 1830.3 339.427 1830.3 Q344.751 1830.3 347.853 1832.73 Q350.955 1835.14 350.955 1839.26 Q350.955 1842.13 349.311 1844.12 Q347.668 1846.09 344.635 1846.85 Z" fill="#000000" fill-rule="evenodd" fill-opacity="1" /><path clip-path="url(#clip600)" d="M370.631 1834 Q367.02 1834 365.191 1837.57 Q363.385 1841.11 363.385 1848.24 Q363.385 1855.34 365.191 1858.91 Q367.02 1862.45 370.631 1862.45 Q374.265 1862.45 376.07 1858.91 Q377.899 1855.34 377.899 1848.24 Q377.899 1841.11 376.07 1837.57 Q374.265 1834 370.631 1834 M370.631 1830.3 Q376.441 1830.3 379.496 1834.9 Q382.575 1839.49 382.575 1848.24 Q382.575 1856.96 379.496 1861.57 Q376.441 1866.15 370.631 1866.15 Q364.821 1866.15 361.742 1861.57 Q358.686 1856.96 358.686 1848.24 Q358.686 1839.49 361.742 1834.9 Q364.821 1830.3 370.631 1830.3 Z" fill="#000000" fill-rule="evenodd" fill-opacity="1" /><path clip-path="url(#clip600)" d="M654.695 1848.65 L684.371 1848.65 L684.371 1852.59 L654.695 1852.59 L654.695 1848.65 Z" fill="#000000" fill-rule="evenodd" fill-opacity="1" /><path clip-path="url(#clip600)" d="M698.491 1861.55 L714.811 1861.55 L714.811 1865.48 L692.866 1865.48 L692.866 1861.55 Q695.528 1858.79 700.112 1854.16 Q704.718 1849.51 705.899 1848.17 Q708.144 1845.65 709.024 1843.91 Q709.926 1842.15 709.926 1840.46 Q709.926 1837.71 707.982 1835.97 Q706.061 1834.23 702.959 1834.23 Q700.76 1834.23 698.306 1835 Q695.876 1835.76 693.098 1837.31 L693.098 1832.59 Q695.922 1831.46 698.376 1830.88 Q700.829 1830.3 702.866 1830.3 Q708.237 1830.3 711.431 1832.98 Q714.625 1835.67 714.625 1840.16 Q714.625 1842.29 713.815 1844.21 Q713.028 1846.11 710.922 1848.7 Q710.343 1849.37 707.241 1852.59 Q704.139 1855.78 698.491 1861.55 Z" fill="#000000" fill-rule="evenodd" fill-opacity="1" /><path clip-path="url(#clip600)" d="M734.625 1834 Q731.014 1834 729.186 1837.57 Q727.38 1841.11 727.38 1848.24 Q727.38 1855.34 729.186 1858.91 Q731.014 1862.45 734.625 1862.45 Q738.26 1862.45 740.065 1858.91 Q741.894 1855.34 741.894 1848.24 Q741.894 1841.11 740.065 1837.57 Q738.26 1834 734.625 1834 M734.625 1830.3 Q740.435 1830.3 743.491 1834.9 Q746.57 1839.49 746.57 1848.24 Q746.57 1856.96 743.491 1861.57 Q740.435 1866.15 734.625 1866.15 Q728.815 1866.15 725.736 1861.57 Q722.681 1856.96 722.681 1848.24 Q722.681 1839.49 725.736 1834.9 Q728.815 1830.3 734.625 1830.3 Z" fill="#000000" fill-rule="evenodd" fill-opacity="1" /><path clip-path="url(#clip600)" d="M1018.69 1848.65 L1048.37 1848.65 L1048.37 1852.59 L1018.69 1852.59 L1018.69 1848.65 Z" fill="#000000" fill-rule="evenodd" fill-opacity="1" /><path clip-path="url(#clip600)" d="M1059.27 1861.55 L1066.91 1861.55 L1066.91 1835.18 L1058.6 1836.85 L1058.6 1832.59 L1066.86 1830.92 L1071.54 1830.92 L1071.54 1861.55 L1079.18 1861.55 L1079.18 1865.48 L1059.27 1865.48 L1059.27 1861.55 Z" fill="#000000" fill-rule="evenodd" fill-opacity="1" /><path clip-path="url(#clip600)" d="M1098.62 1834 Q1095.01 1834 1093.18 1837.57 Q1091.37 1841.11 1091.37 1848.24 Q1091.37 1855.34 1093.18 1858.91 Q1095.01 1862.45 1098.62 1862.45 Q1102.25 1862.45 1104.06 1858.91 Q1105.89 1855.34 1105.89 1848.24 Q1105.89 1841.11 1104.06 1837.57 Q1102.25 1834 1098.62 1834 M1098.62 1830.3 Q1104.43 1830.3 1107.49 1834.9 Q1110.56 1839.49 1110.56 1848.24 Q1110.56 1856.96 1107.49 1861.57 Q1104.43 1866.15 1098.62 1866.15 Q1092.81 1866.15 1089.73 1861.57 Q1086.68 1856.96 1086.68 1848.24 Q1086.68 1839.49 1089.73 1834.9 Q1092.81 1830.3 1098.62 1830.3 Z" fill="#000000" fill-rule="evenodd" fill-opacity="1" /><path clip-path="url(#clip600)" d="M1428.62 1834 Q1425.01 1834 1423.18 1837.57 Q1421.38 1841.11 1421.38 1848.24 Q1421.38 1855.34 1423.18 1858.91 Q1425.01 1862.45 1428.62 1862.45 Q1432.26 1862.45 1434.06 1858.91 Q1435.89 1855.34 1435.89 1848.24 Q1435.89 1841.11 1434.06 1837.57 Q1432.26 1834 1428.62 1834 M1428.62 1830.3 Q1434.43 1830.3 1437.49 1834.9 Q1440.57 1839.49 1440.57 1848.24 Q1440.57 1856.96 1437.49 1861.57 Q1434.43 1866.15 1428.62 1866.15 Q1422.81 1866.15 1419.73 1861.57 Q1416.68 1856.96 1416.68 1848.24 Q1416.68 1839.49 1419.73 1834.9 Q1422.81 1830.3 1428.62 1830.3 Z" fill="#000000" fill-rule="evenodd" fill-opacity="1" /><path clip-path="url(#clip600)" d="M1767.3 1861.55 L1774.94 1861.55 L1774.94 1835.18 L1766.63 1836.85 L1766.63 1832.59 L1774.9 1830.92 L1779.57 1830.92 L1779.57 1861.55 L1787.21 1861.55 L1787.21 1865.48 L1767.3 1865.48 L1767.3 1861.55 Z" fill="#000000" fill-rule="evenodd" fill-opacity="1" /><path clip-path="url(#clip600)" d="M1806.66 1834 Q1803.04 1834 1801.22 1837.57 Q1799.41 1841.11 1799.41 1848.24 Q1799.41 1855.34 1801.22 1858.91 Q1803.04 1862.45 1806.66 1862.45 Q1810.29 1862.45 1812.1 1858.91 Q1813.92 1855.34 1813.92 1848.24 Q1813.92 1841.11 1812.1 1837.57 Q1810.29 1834 1806.66 1834 M1806.66 1830.3 Q1812.47 1830.3 1815.52 1834.9 Q1818.6 1839.49 1818.6 1848.24 Q1818.6 1856.96 1815.52 1861.57 Q1812.47 1866.15 1806.66 1866.15 Q1800.85 1866.15 1797.77 1861.57 Q1794.71 1856.96 1794.71 1848.24 Q1794.71 1839.49 1797.77 1834.9 Q1800.85 1830.3 1806.66 1830.3 Z" fill="#000000" fill-rule="evenodd" fill-opacity="1" /><path clip-path="url(#clip600)" d="M2135.38 1861.55 L2151.7 1861.55 L2151.7 1865.48 L2129.76 1865.48 L2129.76 1861.55 Q2132.42 1858.79 2137 1854.16 Q2141.61 1849.51 2142.79 1848.17 Q2145.04 1845.65 2145.92 1843.91 Q2146.82 1842.15 2146.82 1840.46 Q2146.82 1837.71 2144.87 1835.97 Q2142.95 1834.23 2139.85 1834.23 Q2137.65 1834.23 2135.2 1835 Q2132.77 1835.76 2129.99 1837.31 L2129.99 1832.59 Q2132.81 1831.46 2135.27 1830.88 Q2137.72 1830.3 2139.76 1830.3 Q2145.13 1830.3 2148.32 1832.98 Q2151.52 1835.67 2151.52 1840.16 Q2151.52 1842.29 2150.71 1844.21 Q2149.92 1846.11 2147.81 1848.7 Q2147.24 1849.37 2144.13 1852.59 Q2141.03 1855.78 2135.38 1861.55 Z" fill="#000000" fill-rule="evenodd" fill-opacity="1" /><path clip-path="url(#clip600)" d="M2171.52 1834 Q2167.91 1834 2166.08 1837.57 Q2164.27 1841.11 2164.27 1848.24 Q2164.27 1855.34 2166.08 1858.91 Q2167.91 1862.45 2171.52 1862.45 Q2175.15 1862.45 2176.96 1858.91 Q2178.79 1855.34 2178.79 1848.24 Q2178.79 1841.11 2176.96 1837.57 Q2175.15 1834 2171.52 1834 M2171.52 1830.3 Q2177.33 1830.3 2180.38 1834.9 Q2183.46 1839.49 2183.46 1848.24 Q2183.46 1856.96 2180.38 1861.57 Q2177.33 1866.15 2171.52 1866.15 Q2165.71 1866.15 2162.63 1861.57 Q2159.57 1856.96 2159.57 1848.24 Q2159.57 1839.49 2162.63 1834.9 Q2165.71 1830.3 2171.52 1830.3 Z" fill="#000000" fill-rule="evenodd" fill-opacity="1" /><path clip-path="url(#clip600)" d="M2509.45 1846.85 Q2512.8 1847.57 2514.68 1849.84 Q2516.58 1852.1 2516.58 1855.44 Q2516.58 1860.55 2513.06 1863.35 Q2509.54 1866.15 2503.06 1866.15 Q2500.88 1866.15 2498.57 1865.71 Q2496.28 1865.3 2493.82 1864.44 L2493.82 1859.93 Q2495.77 1861.06 2498.08 1861.64 Q2500.4 1862.22 2502.92 1862.22 Q2507.32 1862.22 2509.61 1860.48 Q2511.93 1858.75 2511.93 1855.44 Q2511.93 1852.38 2509.77 1850.67 Q2507.64 1848.93 2503.82 1848.93 L2499.8 1848.93 L2499.8 1845.09 L2504.01 1845.09 Q2507.46 1845.09 2509.29 1843.72 Q2511.11 1842.34 2511.11 1839.74 Q2511.11 1837.08 2509.22 1835.67 Q2507.34 1834.23 2503.82 1834.23 Q2501.9 1834.23 2499.7 1834.65 Q2497.5 1835.07 2494.86 1835.95 L2494.86 1831.78 Q2497.53 1831.04 2499.84 1830.67 Q2502.18 1830.3 2504.24 1830.3 Q2509.56 1830.3 2512.67 1832.73 Q2515.77 1835.14 2515.77 1839.26 Q2515.77 1842.13 2514.12 1844.12 Q2512.48 1846.09 2509.45 1846.85 Z" fill="#000000" fill-rule="evenodd" fill-opacity="1" /><path clip-path="url(#clip600)" d="M2535.44 1834 Q2531.83 1834 2530 1837.57 Q2528.2 1841.11 2528.2 1848.24 Q2528.2 1855.34 2530 1858.91 Q2531.83 1862.45 2535.44 1862.45 Q2539.08 1862.45 2540.88 1858.91 Q2542.71 1855.34 2542.71 1848.24 Q2542.71 1841.11 2540.88 1837.57 Q2539.08 1834 2535.44 1834 M2535.44 1830.3 Q2541.25 1830.3 2544.31 1834.9 Q2547.39 1839.49 2547.39 1848.24 Q2547.39 1856.96 2544.31 1861.57 Q2541.25 1866.15 2535.44 1866.15 Q2529.63 1866.15 2526.55 1861.57 Q2523.5 1856.96 2523.5 1848.24 Q2523.5 1839.49 2526.55 1834.9 Q2529.63 1830.3 2535.44 1830.3 Z" fill="#000000" fill-rule="evenodd" fill-opacity="1" /><polyline clip-path="url(#clip602)" style="stroke:#000000; stroke-linecap:round; stroke-linejoin:round; stroke-width:2; stroke-opacity:0.1; fill:none" points="
  216.487,1800.78 2640.76,1800.78 
  "/>
<polyline clip-path="url(#clip602)" style="stroke:#000000; stroke-linecap:round; stroke-linejoin:round; stroke-width:2; stroke-opacity:0.1; fill:none" points="
  216.487,1003.72 2640.76,1003.72 
  "/>
<polyline clip-path="url(#clip602)" style="stroke:#000000; stroke-linecap:round; stroke-linejoin:round; stroke-width:2; stroke-opacity:0.1; fill:none" points="
  216.487,206.656 2640.76,206.656 
  "/>
<polyline clip-path="url(#clip600)" style="stroke:#000000; stroke-linecap:round; stroke-linejoin:round; stroke-width:4; stroke-opacity:1; fill:none" points="
  216.487,1800.78 216.487,47.2441 
  "/>
<polyline clip-path="url(#clip600)" style="stroke:#000000; stroke-linecap:round; stroke-linejoin:round; stroke-width:4; stroke-opacity:1; fill:none" points="
  216.487,1800.78 235.385,1800.78 
  "/>
<polyline clip-path="url(#clip600)" style="stroke:#000000; stroke-linecap:round; stroke-linejoin:round; stroke-width:4; stroke-opacity:1; fill:none" points="
  216.487,1003.72 235.385,1003.72 
  "/>
<polyline clip-path="url(#clip600)" style="stroke:#000000; stroke-linecap:round; stroke-linejoin:round; stroke-width:4; stroke-opacity:1; fill:none" points="
  216.487,206.656 235.385,206.656 
  "/>
<path clip-path="url(#clip600)" d="M50.2234 1820.57 L57.8623 1820.57 L57.8623 1794.21 L49.5521 1795.87 L49.5521 1791.61 L57.816 1789.95 L62.4919 1789.95 L62.4919 1820.57 L70.1307 1820.57 L70.1307 1824.51 L50.2234 1824.51 L50.2234 1820.57 Z" fill="#000000" fill-rule="evenodd" fill-opacity="1" /><path clip-path="url(#clip600)" d="M89.5751 1793.03 Q85.964 1793.03 84.1353 1796.59 Q82.3297 1800.13 82.3297 1807.26 Q82.3297 1814.37 84.1353 1817.93 Q85.964 1821.47 89.5751 1821.47 Q93.2093 1821.47 95.0148 1817.93 Q96.8435 1814.37 96.8435 1807.26 Q96.8435 1800.13 95.0148 1796.59 Q93.2093 1793.03 89.5751 1793.03 M89.5751 1789.32 Q95.3852 1789.32 98.4408 1793.93 Q101.519 1798.51 101.519 1807.26 Q101.519 1815.99 98.4408 1820.59 Q95.3852 1825.18 89.5751 1825.18 Q83.7649 1825.18 80.6862 1820.59 Q77.6307 1815.99 77.6307 1807.26 Q77.6307 1798.51 80.6862 1793.93 Q83.7649 1789.32 89.5751 1789.32 Z" fill="#000000" fill-rule="evenodd" fill-opacity="1" /><path clip-path="url(#clip600)" d="M101.519 1783.42 L125.631 1783.42 L125.631 1786.62 L101.519 1786.62 L101.519 1783.42 Z" fill="#000000" fill-rule="evenodd" fill-opacity="1" /><path clip-path="url(#clip600)" d="M134.489 1793.9 L140.696 1793.9 L140.696 1772.48 L133.944 1773.83 L133.944 1770.37 L140.658 1769.02 L144.458 1769.02 L144.458 1793.9 L150.664 1793.9 L150.664 1797.1 L134.489 1797.1 L134.489 1793.9 Z" fill="#000000" fill-rule="evenodd" fill-opacity="1" /><path clip-path="url(#clip600)" d="M166.463 1771.52 Q163.529 1771.52 162.043 1774.41 Q160.576 1777.29 160.576 1783.08 Q160.576 1788.86 162.043 1791.76 Q163.529 1794.63 166.463 1794.63 Q169.415 1794.63 170.882 1791.76 Q172.368 1788.86 172.368 1783.08 Q172.368 1777.29 170.882 1774.41 Q169.415 1771.52 166.463 1771.52 M166.463 1768.51 Q171.183 1768.51 173.666 1772.25 Q176.167 1775.98 176.167 1783.08 Q176.167 1790.18 173.666 1793.92 Q171.183 1797.64 166.463 1797.64 Q161.742 1797.64 159.24 1793.92 Q156.758 1790.18 156.758 1783.08 Q156.758 1775.98 159.24 1772.25 Q161.742 1768.51 166.463 1768.51 Z" fill="#000000" fill-rule="evenodd" fill-opacity="1" /><path clip-path="url(#clip600)" d="M75.5387 1023.51 L83.1775 1023.51 L83.1775 997.145 L74.8674 998.811 L74.8674 994.552 L83.1312 992.885 L87.8071 992.885 L87.8071 1023.51 L95.446 1023.51 L95.446 1027.45 L75.5387 1027.45 L75.5387 1023.51 Z" fill="#000000" fill-rule="evenodd" fill-opacity="1" /><path clip-path="url(#clip600)" d="M114.89 995.964 Q111.279 995.964 109.451 999.529 Q107.645 1003.07 107.645 1010.2 Q107.645 1017.31 109.451 1020.87 Q111.279 1024.41 114.89 1024.41 Q118.525 1024.41 120.33 1020.87 Q122.159 1017.31 122.159 1010.2 Q122.159 1003.07 120.33 999.529 Q118.525 995.964 114.89 995.964 M114.89 992.26 Q120.7 992.26 123.756 996.867 Q126.835 1001.45 126.835 1010.2 Q126.835 1018.93 123.756 1023.53 Q120.7 1028.12 114.89 1028.12 Q109.08 1028.12 106.001 1023.53 Q102.946 1018.93 102.946 1010.2 Q102.946 1001.45 106.001 996.867 Q109.08 992.26 114.89 992.26 Z" fill="#000000" fill-rule="evenodd" fill-opacity="1" /><path clip-path="url(#clip600)" d="M126.835 986.362 L150.946 986.362 L150.946 989.559 L126.835 989.559 L126.835 986.362 Z" fill="#000000" fill-rule="evenodd" fill-opacity="1" /><path clip-path="url(#clip600)" d="M159.184 971.955 L174.099 971.955 L174.099 975.152 L162.663 975.152 L162.663 982.036 Q163.491 981.754 164.319 981.622 Q165.146 981.472 165.974 981.472 Q170.676 981.472 173.422 984.048 Q176.167 986.625 176.167 991.026 Q176.167 995.559 173.346 998.079 Q170.525 1000.58 165.391 1000.58 Q163.623 1000.58 161.78 1000.28 Q159.955 999.979 157.999 999.377 L157.999 995.559 Q159.692 996.48 161.497 996.932 Q163.303 997.383 165.315 997.383 Q168.569 997.383 170.469 995.672 Q172.368 993.96 172.368 991.026 Q172.368 988.092 170.469 986.381 Q168.569 984.669 165.315 984.669 Q163.792 984.669 162.269 985.008 Q160.764 985.346 159.184 986.061 L159.184 971.955 Z" fill="#000000" fill-rule="evenodd" fill-opacity="1" /><path clip-path="url(#clip600)" d="M105.462 226.449 L113.101 226.449 L113.101 200.083 L104.791 201.75 L104.791 197.491 L113.054 195.824 L117.73 195.824 L117.73 226.449 L125.369 226.449 L125.369 230.384 L105.462 230.384 L105.462 226.449 Z" fill="#000000" fill-rule="evenodd" fill-opacity="1" /><path clip-path="url(#clip600)" d="M144.813 198.903 Q141.202 198.903 139.374 202.467 Q137.568 206.009 137.568 213.139 Q137.568 220.245 139.374 223.81 Q141.202 227.352 144.813 227.352 Q148.448 227.352 150.253 223.81 Q152.082 220.245 152.082 213.139 Q152.082 206.009 150.253 202.467 Q148.448 198.903 144.813 198.903 M144.813 195.199 Q150.624 195.199 153.679 199.805 Q156.758 204.389 156.758 213.139 Q156.758 221.866 153.679 226.472 Q150.624 231.055 144.813 231.055 Q139.003 231.055 135.925 226.472 Q132.869 221.866 132.869 213.139 Q132.869 204.389 135.925 199.805 Q139.003 195.199 144.813 195.199 Z" fill="#000000" fill-rule="evenodd" fill-opacity="1" /><path clip-path="url(#clip600)" d="M166.463 177.395 Q163.529 177.395 162.043 180.291 Q160.576 183.169 160.576 188.962 Q160.576 194.736 162.043 197.632 Q163.529 200.51 166.463 200.51 Q169.415 200.51 170.882 197.632 Q172.368 194.736 172.368 188.962 Q172.368 183.169 170.882 180.291 Q169.415 177.395 166.463 177.395 M166.463 174.386 Q171.183 174.386 173.666 178.129 Q176.167 181.852 176.167 188.962 Q176.167 196.052 173.666 199.795 Q171.183 203.519 166.463 203.519 Q161.742 203.519 159.24 199.795 Q156.758 196.052 156.758 188.962 Q156.758 181.852 159.24 178.129 Q161.742 174.386 166.463 174.386 Z" fill="#000000" fill-rule="evenodd" fill-opacity="1" /><polyline clip-path="url(#clip602)" style="stroke:#009af9; stroke-linecap:round; stroke-linejoin:round; stroke-width:4; stroke-opacity:1; fill:none" points="
  285.099,206.656 287.388,206.656 289.678,206.656 291.967,206.656 294.256,206.656 296.546,206.656 298.835,206.656 301.124,206.656 303.414,206.656 305.703,206.656 
  307.992,206.656 310.282,206.656 312.571,206.656 314.86,206.656 317.15,206.656 319.439,206.656 321.728,206.656 324.018,206.656 326.307,206.656 328.596,206.656 
  330.886,206.656 333.175,206.656 335.464,206.656 337.754,206.656 340.043,206.656 342.332,206.656 344.622,206.656 346.911,206.656 349.2,206.656 351.49,206.656 
  353.779,206.656 356.068,206.656 358.358,206.656 360.647,206.656 362.936,206.656 365.226,206.656 367.515,206.656 369.804,206.656 372.094,206.656 374.383,206.656 
  376.672,206.656 378.962,206.656 381.251,206.656 383.54,206.656 385.83,206.656 388.119,206.656 390.408,206.656 392.698,206.656 394.987,206.656 397.276,206.656 
  399.566,206.656 401.855,206.656 404.144,206.656 406.434,206.656 408.723,206.656 411.012,206.656 413.302,206.656 415.591,206.656 417.88,206.656 420.17,206.656 
  422.459,206.656 424.748,206.656 427.038,206.656 429.327,206.656 431.616,206.656 433.906,206.656 436.195,206.656 438.484,206.656 440.774,206.656 443.063,206.656 
  445.352,206.656 447.642,206.656 449.931,206.656 452.22,206.656 454.51,206.656 456.799,206.656 459.088,206.656 461.378,206.656 463.667,206.656 465.956,206.656 
  468.246,206.656 470.535,206.656 472.824,206.656 475.114,206.656 477.403,206.656 479.692,206.656 481.982,206.656 484.271,206.656 486.56,206.656 488.85,206.656 
  491.139,206.656 493.428,206.656 495.718,206.656 498.007,206.656 500.296,206.656 502.586,206.656 504.875,206.656 507.164,206.656 509.454,206.656 511.743,206.656 
  514.032,206.656 516.322,206.656 518.611,206.656 520.9,206.656 523.19,206.656 525.479,206.656 527.768,206.656 530.058,206.656 532.347,206.656 534.636,206.656 
  536.926,206.656 539.215,206.656 541.504,206.656 543.794,206.656 546.083,206.656 548.372,206.656 550.662,206.656 552.951,206.656 555.24,206.656 557.53,206.656 
  559.819,206.656 562.108,206.656 564.398,206.656 566.687,206.656 568.976,206.656 571.266,206.656 573.555,206.656 575.844,206.656 578.134,206.656 580.423,206.656 
  582.712,206.656 585.002,206.656 587.291,206.656 589.58,206.656 591.87,206.656 594.159,206.656 596.448,206.656 598.738,206.656 601.027,206.656 603.316,206.656 
  605.606,206.656 607.895,206.656 610.184,206.656 612.474,206.656 614.763,206.656 617.052,206.656 619.342,206.656 621.631,206.656 623.92,206.656 626.21,206.656 
  628.499,206.656 630.788,206.656 633.078,206.656 635.367,206.656 637.656,206.656 639.946,206.656 642.235,206.656 644.524,206.656 646.814,206.656 649.103,206.656 
  651.392,206.656 653.682,206.656 655.971,206.656 658.26,206.656 660.55,206.656 662.839,206.656 665.128,206.656 667.418,206.656 669.707,206.656 671.996,206.656 
  674.286,206.656 676.575,206.656 678.864,206.656 681.154,206.656 683.443,206.656 685.732,206.656 688.022,206.656 690.311,206.656 692.6,206.656 694.89,206.656 
  697.179,206.656 699.468,206.656 701.758,206.656 704.047,206.656 706.336,206.656 708.626,206.656 710.915,206.656 713.204,206.656 715.494,206.656 717.783,206.656 
  720.073,206.656 722.362,206.656 724.651,206.656 726.941,206.656 729.23,206.656 731.519,206.656 733.809,206.656 736.098,206.656 738.387,206.656 740.677,206.656 
  742.966,206.656 745.255,206.656 747.545,206.656 749.834,206.656 752.123,206.656 754.413,206.656 756.702,206.656 758.991,206.656 761.281,206.656 763.57,206.656 
  765.859,206.656 768.149,206.656 770.438,206.656 772.727,206.656 775.017,206.656 777.306,206.656 779.595,206.656 781.885,206.656 784.174,206.656 786.463,206.656 
  788.753,206.656 791.042,206.656 793.331,206.656 795.621,206.656 797.91,206.656 800.199,206.656 802.489,206.656 804.778,206.656 807.067,206.656 809.357,206.656 
  811.646,206.656 813.935,206.656 816.225,206.656 818.514,206.656 820.803,206.656 823.093,206.656 825.382,206.656 827.671,206.656 829.961,206.656 832.25,206.656 
  834.539,206.656 836.829,206.656 839.118,206.656 841.407,206.656 843.697,206.656 845.986,206.656 848.275,206.656 850.565,206.656 852.854,206.656 855.143,206.656 
  857.433,206.656 859.722,206.656 862.011,206.656 864.301,206.657 866.59,206.657 868.879,206.657 871.169,206.657 873.458,206.657 875.747,206.657 878.037,206.657 
  880.326,206.657 882.615,206.657 884.905,206.657 887.194,206.657 889.483,206.657 891.773,206.657 894.062,206.657 896.351,206.657 898.641,206.657 900.93,206.658 
  903.219,206.658 905.509,206.658 907.798,206.658 910.087,206.658 912.377,206.658 914.666,206.658 916.955,206.658 919.245,206.658 921.534,206.658 923.823,206.658 
  926.113,206.658 928.402,206.658 930.691,206.658 932.981,206.658 935.27,206.658 937.559,206.658 939.849,206.658 942.138,206.658 944.427,206.658 946.717,206.658 
  949.006,206.658 951.295,206.658 953.585,206.658 955.874,206.658 958.163,206.658 960.453,206.658 962.742,206.657 965.031,206.657 967.321,206.657 969.61,206.657 
  971.899,206.656 974.189,206.656 976.478,206.656 978.767,206.655 981.057,206.655 983.346,206.654 985.635,206.654 987.925,206.653 990.214,206.653 992.503,206.652 
  994.793,206.651 997.082,206.651 999.371,206.65 1001.66,206.649 1003.95,206.648 1006.24,206.648 1008.53,206.647 1010.82,206.646 1013.11,206.645 1015.4,206.644 
  1017.69,206.643 1019.98,206.642 1022.26,206.641 1024.55,206.64 1026.84,206.639 1029.13,206.638 1031.42,206.637 1033.71,206.636 1036,206.635 1038.29,206.634 
  1040.58,206.633 1042.87,206.632 1045.16,206.631 1047.45,206.63 1049.74,206.63 1052.03,206.629 1054.32,206.629 1056.6,206.629 1058.89,206.629 1061.18,206.629 
  1063.47,206.63 1065.76,206.631 1068.05,206.632 1070.34,206.634 1072.63,206.636 1074.92,206.638 1077.21,206.641 1079.5,206.644 1081.79,206.648 1084.08,206.653 
  1086.37,206.658 1088.66,206.664 1090.94,206.671 1093.23,206.679 1095.52,206.688 1097.81,206.698 1100.1,206.709 1102.39,206.721 1104.68,206.735 1106.97,206.749 
  1109.26,206.766 1111.55,206.783 1113.84,206.803 1116.13,206.824 1118.42,206.847 1120.71,206.872 1123,206.898 1125.28,206.927 1127.57,206.958 1129.86,206.991 
  1132.15,207.026 1134.44,207.064 1136.73,207.104 1139.02,207.145 1141.31,207.19 1143.6,207.236 1145.89,207.284 1148.18,207.334 1150.47,207.385 1152.76,207.438 
  1155.05,207.491 1157.34,207.545 1159.62,207.599 1161.91,207.652 1164.2,207.703 1166.49,207.752 1168.78,207.796 1171.07,207.836 1173.36,207.868 1175.65,207.892 
  1177.94,207.904 1180.23,207.902 1182.52,207.883 1184.81,207.843 1187.1,207.777 1189.39,207.682 1191.68,207.55 1193.96,207.375 1196.25,207.149 1198.54,206.862 
  1200.83,206.504 1203.12,206.06 1205.41,205.516 1207.7,204.853 1209.99,204.049 1212.28,203.077 1214.57,201.905 1216.86,200.494 1219.15,198.795 1221.44,196.745 
  1223.73,194.266 1226.02,191.256 1228.3,187.577 1230.59,183.042 1232.88,177.382 1235.17,170.196 1237.46,160.842 1239.75,148.204 1242.04,130.05 1244.33,100.782 
  1246.62,36.6209 1248.91,16.7052 1251.2,106.746 1253.49,148.652 1255.78,177.562 1258.07,200.31 1260.36,219.455 1262.64,236.235 1264.93,251.342 1267.22,265.196 
  1269.51,278.073 1271.8,290.156 1274.09,301.571 1276.38,312.405 1278.67,322.715 1280.96,332.535 1283.25,341.877 1285.54,350.737 1287.83,359.087 1290.12,366.878 
  1292.41,374.032 1294.7,380.431 1296.98,385.899 1299.27,390.173 1301.56,392.845 1303.85,393.24 1306.14,390.151 1308.43,381.077 1310.72,359.396 1313.01,292.056 
  1315.3,324.793 1317.59,410.94 1319.88,460.843 1322.17,499.544 1324.46,532.813 1326.75,562.941 1329.04,591.078 1331.32,617.892 1333.61,643.805 1335.9,669.11 
  1338.19,694.016 1340.48,718.686 1342.77,743.246 1345.06,767.804 1347.35,792.45 1349.64,817.264 1351.93,842.321 1354.22,867.691 1356.51,893.439 1358.8,919.633 
  1361.09,946.34 1363.38,973.629 1365.66,1001.57 1367.95,1030.24 1370.24,1059.73 1372.53,1090.11 1374.82,1121.5 1377.11,1153.99 1379.4,1187.71 1381.69,1222.8 
  1383.98,1259.4 1386.27,1297.71 1388.56,1337.92 1390.85,1380.28 1393.14,1425.08 1395.43,1472.66 1397.72,1523.43 1400.01,1577.91 1402.29,1636.73 1404.58,1700.72 
  1406.87,1770.91 1409.16,1848.72 1411.45,1936.09 1413.74,2035.78 1416.03,2151.97 1418.32,2291.35 1420.61,2464.48 1422.9,2669.62 1425.19,3235.49 1427.48,2702.42 
  1429.77,2702.42 1432.06,3235.49 1434.35,2669.62 1436.63,2464.48 1438.92,2291.35 1441.21,2151.97 1443.5,2035.78 1445.79,1936.09 1448.08,1848.72 1450.37,1770.91 
  1452.66,1700.72 1454.95,1636.73 1457.24,1577.91 1459.53,1523.43 1461.82,1472.66 1464.11,1425.08 1466.4,1380.28 1468.69,1337.92 1470.97,1297.71 1473.26,1259.4 
  1475.55,1222.8 1477.84,1187.71 1480.13,1153.99 1482.42,1121.5 1484.71,1090.11 1487,1059.73 1489.29,1030.24 1491.58,1001.57 1493.87,973.629 1496.16,946.34 
  1498.45,919.633 1500.74,893.439 1503.03,867.691 1505.31,842.321 1507.6,817.264 1509.89,792.45 1512.18,767.804 1514.47,743.246 1516.76,718.686 1519.05,694.016 
  1521.34,669.11 1523.63,643.805 1525.92,617.892 1528.21,591.078 1530.5,562.941 1532.79,532.813 1535.08,499.544 1537.37,460.843 1539.65,410.94 1541.94,324.793 
  1544.23,292.056 1546.52,359.396 1548.81,381.077 1551.1,390.151 1553.39,393.24 1555.68,392.845 1557.97,390.173 1560.26,385.899 1562.55,380.431 1564.84,374.032 
  1567.13,366.878 1569.42,359.087 1571.71,350.737 1573.99,341.877 1576.28,332.535 1578.57,322.715 1580.86,312.405 1583.15,301.571 1585.44,290.156 1587.73,278.073 
  1590.02,265.196 1592.31,251.342 1594.6,236.235 1596.89,219.455 1599.18,200.31 1601.47,177.562 1603.76,148.652 1606.05,106.746 1608.33,16.7052 1610.62,36.6209 
  1612.91,100.782 1615.2,130.05 1617.49,148.204 1619.78,160.842 1622.07,170.196 1624.36,177.382 1626.65,183.042 1628.94,187.577 1631.23,191.256 1633.52,194.266 
  1635.81,196.745 1638.1,198.795 1640.39,200.494 1642.67,201.905 1644.96,203.077 1647.25,204.049 1649.54,204.853 1651.83,205.516 1654.12,206.06 1656.41,206.504 
  1658.7,206.862 1660.99,207.149 1663.28,207.375 1665.57,207.55 1667.86,207.682 1670.15,207.777 1672.44,207.843 1674.73,207.883 1677.01,207.902 1679.3,207.904 
  1681.59,207.892 1683.88,207.868 1686.17,207.836 1688.46,207.796 1690.75,207.752 1693.04,207.703 1695.33,207.652 1697.62,207.599 1699.91,207.545 1702.2,207.491 
  1704.49,207.438 1706.78,207.385 1709.07,207.334 1711.35,207.284 1713.64,207.236 1715.93,207.19 1718.22,207.145 1720.51,207.104 1722.8,207.064 1725.09,207.026 
  1727.38,206.991 1729.67,206.958 1731.96,206.927 1734.25,206.898 1736.54,206.872 1738.83,206.847 1741.12,206.824 1743.41,206.803 1745.69,206.783 1747.98,206.766 
  1750.27,206.749 1752.56,206.735 1754.85,206.721 1757.14,206.709 1759.43,206.698 1761.72,206.688 1764.01,206.679 1766.3,206.671 1768.59,206.664 1770.88,206.658 
  1773.17,206.653 1775.46,206.648 1777.75,206.644 1780.03,206.641 1782.32,206.638 1784.61,206.636 1786.9,206.634 1789.19,206.632 1791.48,206.631 1793.77,206.63 
  1796.06,206.629 1798.35,206.629 1800.64,206.629 1802.93,206.629 1805.22,206.629 1807.51,206.63 1809.8,206.63 1812.09,206.631 1814.37,206.632 1816.66,206.633 
  1818.95,206.634 1821.24,206.635 1823.53,206.636 1825.82,206.637 1828.11,206.638 1830.4,206.639 1832.69,206.64 1834.98,206.641 1837.27,206.642 1839.56,206.643 
  1841.85,206.644 1844.14,206.645 1846.43,206.646 1848.71,206.647 1851,206.648 1853.29,206.648 1855.58,206.649 1857.87,206.65 1860.16,206.651 1862.45,206.651 
  1864.74,206.652 1867.03,206.653 1869.32,206.653 1871.61,206.654 1873.9,206.654 1876.19,206.655 1878.48,206.655 1880.77,206.656 1883.05,206.656 1885.34,206.656 
  1887.63,206.657 1889.92,206.657 1892.21,206.657 1894.5,206.657 1896.79,206.658 1899.08,206.658 1901.37,206.658 1903.66,206.658 1905.95,206.658 1908.24,206.658 
  1910.53,206.658 1912.82,206.658 1915.11,206.658 1917.39,206.658 1919.68,206.658 1921.97,206.658 1924.26,206.658 1926.55,206.658 1928.84,206.658 1931.13,206.658 
  1933.42,206.658 1935.71,206.658 1938,206.658 1940.29,206.658 1942.58,206.658 1944.87,206.658 1947.16,206.658 1949.45,206.658 1951.73,206.658 1954.02,206.658 
  1956.31,206.658 1958.6,206.657 1960.89,206.657 1963.18,206.657 1965.47,206.657 1967.76,206.657 1970.05,206.657 1972.34,206.657 1974.63,206.657 1976.92,206.657 
  1979.21,206.657 1981.5,206.657 1983.79,206.657 1986.07,206.657 1988.36,206.657 1990.65,206.657 1992.94,206.657 1995.23,206.656 1997.52,206.656 1999.81,206.656 
  2002.1,206.656 2004.39,206.656 2006.68,206.656 2008.97,206.656 2011.26,206.656 2013.55,206.656 2015.84,206.656 2018.13,206.656 2020.41,206.656 2022.7,206.656 
  2024.99,206.656 2027.28,206.656 2029.57,206.656 2031.86,206.656 2034.15,206.656 2036.44,206.656 2038.73,206.656 2041.02,206.656 2043.31,206.656 2045.6,206.656 
  2047.89,206.656 2050.18,206.656 2052.47,206.656 2054.75,206.656 2057.04,206.656 2059.33,206.656 2061.62,206.656 2063.91,206.656 2066.2,206.656 2068.49,206.656 
  2070.78,206.656 2073.07,206.656 2075.36,206.656 2077.65,206.656 2079.94,206.656 2082.23,206.656 2084.52,206.656 2086.81,206.656 2089.09,206.656 2091.38,206.656 
  2093.67,206.656 2095.96,206.656 2098.25,206.656 2100.54,206.656 2102.83,206.656 2105.12,206.656 2107.41,206.656 2109.7,206.656 2111.99,206.656 2114.28,206.656 
  2116.57,206.656 2118.86,206.656 2121.15,206.656 2123.43,206.656 2125.72,206.656 2128.01,206.656 2130.3,206.656 2132.59,206.656 2134.88,206.656 2137.17,206.656 
  2139.46,206.656 2141.75,206.656 2144.04,206.656 2146.33,206.656 2148.62,206.656 2150.91,206.656 2153.2,206.656 2155.49,206.656 2157.77,206.656 2160.06,206.656 
  2162.35,206.656 2164.64,206.656 2166.93,206.656 2169.22,206.656 2171.51,206.656 2173.8,206.656 2176.09,206.656 2178.38,206.656 2180.67,206.656 2182.96,206.656 
  2185.25,206.656 2187.54,206.656 2189.83,206.656 2192.11,206.656 2194.4,206.656 2196.69,206.656 2198.98,206.656 2201.27,206.656 2203.56,206.656 2205.85,206.656 
  2208.14,206.656 2210.43,206.656 2212.72,206.656 2215.01,206.656 2217.3,206.656 2219.59,206.656 2221.88,206.656 2224.17,206.656 2226.45,206.656 2228.74,206.656 
  2231.03,206.656 2233.32,206.656 2235.61,206.656 2237.9,206.656 2240.19,206.656 2242.48,206.656 2244.77,206.656 2247.06,206.656 2249.35,206.656 2251.64,206.656 
  2253.93,206.656 2256.22,206.656 2258.51,206.656 2260.79,206.656 2263.08,206.656 2265.37,206.656 2267.66,206.656 2269.95,206.656 2272.24,206.656 2274.53,206.656 
  2276.82,206.656 2279.11,206.656 2281.4,206.656 2283.69,206.656 2285.98,206.656 2288.27,206.656 2290.56,206.656 2292.85,206.656 2295.13,206.656 2297.42,206.656 
  2299.71,206.656 2302,206.656 2304.29,206.656 2306.58,206.656 2308.87,206.656 2311.16,206.656 2313.45,206.656 2315.74,206.656 2318.03,206.656 2320.32,206.656 
  2322.61,206.656 2324.9,206.656 2327.19,206.656 2329.48,206.656 2331.76,206.656 2334.05,206.656 2336.34,206.656 2338.63,206.656 2340.92,206.656 2343.21,206.656 
  2345.5,206.656 2347.79,206.656 2350.08,206.656 2352.37,206.656 2354.66,206.656 2356.95,206.656 2359.24,206.656 2361.53,206.656 2363.82,206.656 2366.1,206.656 
  2368.39,206.656 2370.68,206.656 2372.97,206.656 2375.26,206.656 2377.55,206.656 2379.84,206.656 2382.13,206.656 2384.42,206.656 2386.71,206.656 2389,206.656 
  2391.29,206.656 2393.58,206.656 2395.87,206.656 2398.16,206.656 2400.44,206.656 2402.73,206.656 2405.02,206.656 2407.31,206.656 2409.6,206.656 2411.89,206.656 
  2414.18,206.656 2416.47,206.656 2418.76,206.656 2421.05,206.656 2423.34,206.656 2425.63,206.656 2427.92,206.656 2430.21,206.656 2432.5,206.656 2434.78,206.656 
  2437.07,206.656 2439.36,206.656 2441.65,206.656 2443.94,206.656 2446.23,206.656 2448.52,206.656 2450.81,206.656 2453.1,206.656 2455.39,206.656 2457.68,206.656 
  2459.97,206.656 2462.26,206.656 2464.55,206.656 2466.84,206.656 2469.12,206.656 2471.41,206.656 2473.7,206.656 2475.99,206.656 2478.28,206.656 2480.57,206.656 
  2482.86,206.656 2485.15,206.656 2487.44,206.656 2489.73,206.656 2492.02,206.656 2494.31,206.656 2496.6,206.656 2498.89,206.656 2501.18,206.656 2503.46,206.656 
  2505.75,206.656 2508.04,206.656 2510.33,206.656 2512.62,206.656 2514.91,206.656 2517.2,206.656 2519.49,206.656 2521.78,206.656 2524.07,206.656 2526.36,206.656 
  2528.65,206.656 2530.94,206.656 2533.23,206.656 2535.52,206.656 2537.8,206.656 2540.09,206.656 2542.38,206.656 2544.67,206.656 2546.96,206.656 2549.25,206.656 
  2551.54,206.656 2553.83,206.656 2556.12,206.656 2558.41,206.656 2560.7,206.656 2562.99,206.656 2565.28,206.656 2567.57,206.656 2569.86,206.656 2572.14,206.656 
  
  "/>
<path clip-path="url(#clip600)" d="
M2238.15 209.375 L2559.95 209.375 L2559.95 105.695 L2238.15 105.695  Z
  " fill="#ffffff" fill-rule="evenodd" fill-opacity="1"/>
<polyline clip-path="url(#clip600)" style="stroke:#000000; stroke-linecap:round; stroke-linejoin:round; stroke-width:4; stroke-opacity:1; fill:none" points="
  2238.15,209.375 2559.95,209.375 2559.95,105.695 2238.15,105.695 2238.15,209.375 
  "/>
<polyline clip-path="url(#clip600)" style="stroke:#009af9; stroke-linecap:round; stroke-linejoin:round; stroke-width:4; stroke-opacity:1; fill:none" points="
  2265.09,157.535 2426.71,157.535 
  "/>
<path clip-path="url(#clip600)" d="M2467.49 177.223 Q2465.68 181.852 2463.97 183.264 Q2462.26 184.676 2459.38 184.676 L2455.98 184.676 L2455.98 181.112 L2458.48 181.112 Q2460.24 181.112 2461.21 180.278 Q2462.19 179.445 2463.37 176.343 L2464.13 174.399 L2453.64 148.889 L2458.16 148.889 L2466.26 169.167 L2474.36 148.889 L2478.88 148.889 L2467.49 177.223 Z" fill="#000000" fill-rule="evenodd" fill-opacity="1" /><path clip-path="url(#clip600)" d="M2486.17 170.88 L2493.81 170.88 L2493.81 144.515 L2485.5 146.181 L2485.5 141.922 L2493.76 140.255 L2498.44 140.255 L2498.44 170.88 L2506.07 170.88 L2506.07 174.815 L2486.17 174.815 L2486.17 170.88 Z" fill="#000000" fill-rule="evenodd" fill-opacity="1" /></svg>
