<?xml version="1.0" encoding="utf-8"?>
<svg xmlns="http://www.w3.org/2000/svg" xmlns:xlink="http://www.w3.org/1999/xlink" width="672" height="480" viewBox="0 0 2688 1920">
<defs>
  <clipPath id="clip280">
    <rect x="0" y="0" width="2688" height="1920"/>
  </clipPath>
</defs>
<path clip-path="url(#clip280)" d="
M0 1920 L2688 1920 L2688 0 L0 0  Z
  " fill="#ffffff" fill-rule="evenodd" fill-opacity="1"/>
<defs>
  <clipPath id="clip281">
    <rect x="537" y="0" width="1883" height="1883"/>
  </clipPath>
</defs>
<defs>
  <clipPath id="clip282">
    <rect x="189" y="47" width="2453" height="1755"/>
  </clipPath>
</defs>
<path clip-path="url(#clip282)" d="
M-1145.27 2844.48 L-1145.27 1132.02 L-162.291 275.797 L1540.28 770.139 L1540.28 2482.59 L557.299 3338.82 L-1145.27 2844.48  Z
  " fill="#ffffff" fill-rule="evenodd" fill-opacity="1"/>
<polyline clip-path="url(#clip282)" style="stroke:#000000; stroke-linecap:round; stroke-linejoin:round; stroke-width:2; stroke-opacity:0.1; fill:none" points="
  726.456,1455.9 1232.66,1017.52 1232.66,140.748 
  "/>
<polyline clip-path="url(#clip282)" style="stroke:#000000; stroke-linecap:round; stroke-linejoin:round; stroke-width:2; stroke-opacity:0.1; fill:none" points="
  939.277,1517.34 1445.48,1078.95 1445.48,202.184 
  "/>
<polyline clip-path="url(#clip282)" style="stroke:#000000; stroke-linecap:round; stroke-linejoin:round; stroke-width:2; stroke-opacity:0.1; fill:none" points="
  1152.1,1578.77 1658.3,1140.39 1658.3,263.62 
  "/>
<polyline clip-path="url(#clip282)" style="stroke:#000000; stroke-linecap:round; stroke-linejoin:round; stroke-width:2; stroke-opacity:0.1; fill:none" points="
  1364.92,1640.21 1871.12,1201.82 1871.12,325.056 
  "/>
<polyline clip-path="url(#clip282)" style="stroke:#000000; stroke-linecap:round; stroke-linejoin:round; stroke-width:2; stroke-opacity:0.1; fill:none" points="
  1577.74,1701.64 2083.94,1263.26 2083.94,386.492 
  "/>
<polyline clip-path="url(#clip280)" style="stroke:#000000; stroke-linecap:round; stroke-linejoin:round; stroke-width:4; stroke-opacity:1; fill:none" points="
  723.47,1455.04 1600.24,1708.14 
  "/>
<polyline clip-path="url(#clip280)" style="stroke:#000000; stroke-linecap:round; stroke-linejoin:round; stroke-width:4; stroke-opacity:1; fill:none" points="
  726.456,1455.9 732.531,1450.64 
  "/>
<polyline clip-path="url(#clip280)" style="stroke:#000000; stroke-linecap:round; stroke-linejoin:round; stroke-width:4; stroke-opacity:1; fill:none" points="
  939.277,1517.34 945.352,1512.07 
  "/>
<polyline clip-path="url(#clip280)" style="stroke:#000000; stroke-linecap:round; stroke-linejoin:round; stroke-width:4; stroke-opacity:1; fill:none" points="
  1152.1,1578.77 1158.17,1573.51 
  "/>
<polyline clip-path="url(#clip280)" style="stroke:#000000; stroke-linecap:round; stroke-linejoin:round; stroke-width:4; stroke-opacity:1; fill:none" points="
  1364.92,1640.21 1370.99,1634.95 
  "/>
<polyline clip-path="url(#clip280)" style="stroke:#000000; stroke-linecap:round; stroke-linejoin:round; stroke-width:4; stroke-opacity:1; fill:none" points="
  1577.74,1701.64 1583.82,1696.38 
  "/>
<path clip-path="url(#clip280)" d="M630.125 1472.67 Q626.514 1472.67 624.685 1476.24 Q622.879 1479.78 622.879 1486.91 Q622.879 1494.02 624.685 1497.58 Q626.514 1501.12 630.125 1501.12 Q633.759 1501.12 635.564 1497.58 Q637.393 1494.02 637.393 1486.91 Q637.393 1479.78 635.564 1476.24 Q633.759 1472.67 630.125 1472.67 M630.125 1468.97 Q635.935 1468.97 638.99 1473.58 Q642.069 1478.16 642.069 1486.91 Q642.069 1495.64 638.99 1500.24 Q635.935 1504.83 630.125 1504.83 Q624.315 1504.83 621.236 1500.24 Q618.18 1495.64 618.18 1486.91 Q618.18 1478.16 621.236 1473.58 Q624.315 1468.97 630.125 1468.97 Z" fill="#000000" fill-rule="evenodd" fill-opacity="1" /><path clip-path="url(#clip280)" d="M650.287 1498.28 L655.171 1498.28 L655.171 1504.16 L650.287 1504.16 L650.287 1498.28 Z" fill="#000000" fill-rule="evenodd" fill-opacity="1" /><path clip-path="url(#clip280)" d="M675.356 1472.67 Q671.745 1472.67 669.916 1476.24 Q668.111 1479.78 668.111 1486.91 Q668.111 1494.02 669.916 1497.58 Q671.745 1501.12 675.356 1501.12 Q678.99 1501.12 680.796 1497.58 Q682.624 1494.02 682.624 1486.91 Q682.624 1479.78 680.796 1476.24 Q678.99 1472.67 675.356 1472.67 M675.356 1468.97 Q681.166 1468.97 684.222 1473.58 Q687.3 1478.16 687.3 1486.91 Q687.3 1495.64 684.222 1500.24 Q681.166 1504.83 675.356 1504.83 Q669.546 1504.83 666.467 1500.24 Q663.412 1495.64 663.412 1486.91 Q663.412 1478.16 666.467 1473.58 Q669.546 1468.97 675.356 1468.97 Z" fill="#000000" fill-rule="evenodd" fill-opacity="1" /><path clip-path="url(#clip280)" d="M705.518 1472.67 Q701.907 1472.67 700.078 1476.24 Q698.272 1479.78 698.272 1486.91 Q698.272 1494.02 700.078 1497.58 Q701.907 1501.12 705.518 1501.12 Q709.152 1501.12 710.958 1497.58 Q712.786 1494.02 712.786 1486.91 Q712.786 1479.78 710.958 1476.24 Q709.152 1472.67 705.518 1472.67 M705.518 1468.97 Q711.328 1468.97 714.383 1473.58 Q717.462 1478.16 717.462 1486.91 Q717.462 1495.64 714.383 1500.24 Q711.328 1504.83 705.518 1504.83 Q699.708 1504.83 696.629 1500.24 Q693.573 1495.64 693.573 1486.91 Q693.573 1478.16 696.629 1473.58 Q699.708 1468.97 705.518 1468.97 Z" fill="#000000" fill-rule="evenodd" fill-opacity="1" /><path clip-path="url(#clip280)" d="M843.941 1534.11 Q840.33 1534.11 838.501 1537.68 Q836.696 1541.22 836.696 1548.35 Q836.696 1555.45 838.501 1559.02 Q840.33 1562.56 843.941 1562.56 Q847.575 1562.56 849.381 1559.02 Q851.21 1555.45 851.21 1548.35 Q851.21 1541.22 849.381 1537.68 Q847.575 1534.11 843.941 1534.11 M843.941 1530.41 Q849.751 1530.41 852.807 1535.01 Q855.886 1539.6 855.886 1548.35 Q855.886 1557.07 852.807 1561.68 Q849.751 1566.26 843.941 1566.26 Q838.131 1566.26 835.052 1561.68 Q831.997 1557.07 831.997 1548.35 Q831.997 1539.6 835.052 1535.01 Q838.131 1530.41 843.941 1530.41 Z" fill="#000000" fill-rule="evenodd" fill-opacity="1" /><path clip-path="url(#clip280)" d="M864.103 1559.71 L868.987 1559.71 L868.987 1565.59 L864.103 1565.59 L864.103 1559.71 Z" fill="#000000" fill-rule="evenodd" fill-opacity="1" /><path clip-path="url(#clip280)" d="M883.2 1561.66 L899.52 1561.66 L899.52 1565.59 L877.575 1565.59 L877.575 1561.66 Q880.237 1558.9 884.821 1554.27 Q889.427 1549.62 890.608 1548.28 Q892.853 1545.75 893.733 1544.02 Q894.635 1542.26 894.635 1540.57 Q894.635 1537.81 892.691 1536.08 Q890.77 1534.34 887.668 1534.34 Q885.469 1534.34 883.015 1535.11 Q880.584 1535.87 877.807 1537.42 L877.807 1532.7 Q880.631 1531.56 883.084 1530.99 Q885.538 1530.41 887.575 1530.41 Q892.946 1530.41 896.14 1533.09 Q899.334 1535.78 899.334 1540.27 Q899.334 1542.4 898.524 1544.32 Q897.737 1546.22 895.631 1548.81 Q895.052 1549.48 891.95 1552.7 Q888.848 1555.89 883.2 1561.66 Z" fill="#000000" fill-rule="evenodd" fill-opacity="1" /><path clip-path="url(#clip280)" d="M909.381 1531.03 L927.737 1531.03 L927.737 1534.97 L913.663 1534.97 L913.663 1543.44 Q914.682 1543.09 915.7 1542.93 Q916.719 1542.74 917.737 1542.74 Q923.524 1542.74 926.904 1545.92 Q930.283 1549.09 930.283 1554.5 Q930.283 1560.08 926.811 1563.18 Q923.339 1566.26 917.019 1566.26 Q914.844 1566.26 912.575 1565.89 Q910.33 1565.52 907.922 1564.78 L907.922 1560.08 Q910.006 1561.22 912.228 1561.77 Q914.45 1562.33 916.927 1562.33 Q920.931 1562.33 923.269 1560.22 Q925.607 1558.11 925.607 1554.5 Q925.607 1550.89 923.269 1548.79 Q920.931 1546.68 916.927 1546.68 Q915.052 1546.68 913.177 1547.1 Q911.325 1547.51 909.381 1548.39 L909.381 1531.03 Z" fill="#000000" fill-rule="evenodd" fill-opacity="1" /><path clip-path="url(#clip280)" d="M1055.77 1595.55 Q1052.16 1595.55 1050.33 1599.11 Q1048.52 1602.65 1048.52 1609.78 Q1048.52 1616.89 1050.33 1620.45 Q1052.16 1624 1055.77 1624 Q1059.4 1624 1061.21 1620.45 Q1063.04 1616.89 1063.04 1609.78 Q1063.04 1602.65 1061.21 1599.11 Q1059.4 1595.55 1055.77 1595.55 M1055.77 1591.84 Q1061.58 1591.84 1064.63 1596.45 Q1067.71 1601.03 1067.71 1609.78 Q1067.71 1618.51 1064.63 1623.12 Q1061.58 1627.7 1055.77 1627.7 Q1049.96 1627.7 1046.88 1623.12 Q1043.82 1618.51 1043.82 1609.78 Q1043.82 1601.03 1046.88 1596.45 Q1049.96 1591.84 1055.77 1591.84 Z" fill="#000000" fill-rule="evenodd" fill-opacity="1" /><path clip-path="url(#clip280)" d="M1075.93 1621.15 L1080.81 1621.15 L1080.81 1627.03 L1075.93 1627.03 L1075.93 1621.15 Z" fill="#000000" fill-rule="evenodd" fill-opacity="1" /><path clip-path="url(#clip280)" d="M1091.04 1592.47 L1109.4 1592.47 L1109.4 1596.4 L1095.33 1596.4 L1095.33 1604.88 Q1096.35 1604.53 1097.36 1604.37 Q1098.38 1604.18 1099.4 1604.18 Q1105.19 1604.18 1108.57 1607.35 Q1111.95 1610.52 1111.95 1615.94 Q1111.95 1621.52 1108.47 1624.62 Q1105 1627.7 1098.68 1627.7 Q1096.51 1627.7 1094.24 1627.33 Q1091.99 1626.96 1089.59 1626.22 L1089.59 1621.52 Q1091.67 1622.65 1093.89 1623.21 Q1096.11 1623.76 1098.59 1623.76 Q1102.6 1623.76 1104.93 1621.66 Q1107.27 1619.55 1107.27 1615.94 Q1107.27 1612.33 1104.93 1610.22 Q1102.6 1608.12 1098.59 1608.12 Q1096.72 1608.12 1094.84 1608.53 Q1092.99 1608.95 1091.04 1609.83 L1091.04 1592.47 Z" fill="#000000" fill-rule="evenodd" fill-opacity="1" /><path clip-path="url(#clip280)" d="M1131.16 1595.55 Q1127.55 1595.55 1125.72 1599.11 Q1123.91 1602.65 1123.91 1609.78 Q1123.91 1616.89 1125.72 1620.45 Q1127.55 1624 1131.16 1624 Q1134.79 1624 1136.6 1620.45 Q1138.43 1616.89 1138.43 1609.78 Q1138.43 1602.65 1136.6 1599.11 Q1134.79 1595.55 1131.16 1595.55 M1131.16 1591.84 Q1136.97 1591.84 1140.03 1596.45 Q1143.1 1601.03 1143.1 1609.78 Q1143.1 1618.51 1140.03 1623.12 Q1136.97 1627.7 1131.16 1627.7 Q1125.35 1627.7 1122.27 1623.12 Q1119.22 1618.51 1119.22 1609.78 Q1119.22 1601.03 1122.27 1596.45 Q1125.35 1591.84 1131.16 1591.84 Z" fill="#000000" fill-rule="evenodd" fill-opacity="1" /><path clip-path="url(#clip280)" d="M1269.58 1656.98 Q1265.97 1656.98 1264.14 1660.55 Q1262.34 1664.09 1262.34 1671.22 Q1262.34 1678.33 1264.14 1681.89 Q1265.97 1685.43 1269.58 1685.43 Q1273.22 1685.43 1275.02 1681.89 Q1276.85 1678.33 1276.85 1671.22 Q1276.85 1664.09 1275.02 1660.55 Q1273.22 1656.98 1269.58 1656.98 M1269.58 1653.28 Q1275.39 1653.28 1278.45 1657.89 Q1281.53 1662.47 1281.53 1671.22 Q1281.53 1679.95 1278.45 1684.55 Q1275.39 1689.14 1269.58 1689.14 Q1263.77 1689.14 1260.69 1684.55 Q1257.64 1679.95 1257.64 1671.22 Q1257.64 1662.47 1260.69 1657.89 Q1263.77 1653.28 1269.58 1653.28 Z" fill="#000000" fill-rule="evenodd" fill-opacity="1" /><path clip-path="url(#clip280)" d="M1289.75 1682.58 L1294.63 1682.58 L1294.63 1688.46 L1289.75 1688.46 L1289.75 1682.58 Z" fill="#000000" fill-rule="evenodd" fill-opacity="1" /><path clip-path="url(#clip280)" d="M1303.63 1653.9 L1325.86 1653.9 L1325.86 1655.89 L1313.31 1688.46 L1308.43 1688.46 L1320.23 1657.84 L1303.63 1657.84 L1303.63 1653.9 Z" fill="#000000" fill-rule="evenodd" fill-opacity="1" /><path clip-path="url(#clip280)" d="M1335.02 1653.9 L1353.38 1653.9 L1353.38 1657.84 L1339.31 1657.84 L1339.31 1666.31 Q1340.32 1665.96 1341.34 1665.8 Q1342.36 1665.62 1343.38 1665.62 Q1349.17 1665.62 1352.55 1668.79 Q1355.93 1671.96 1355.93 1677.38 Q1355.93 1682.95 1352.45 1686.06 Q1348.98 1689.14 1342.66 1689.14 Q1340.49 1689.14 1338.22 1688.77 Q1335.97 1688.39 1333.56 1687.65 L1333.56 1682.95 Q1335.65 1684.09 1337.87 1684.64 Q1340.09 1685.2 1342.57 1685.2 Q1346.57 1685.2 1348.91 1683.09 Q1351.25 1680.99 1351.25 1677.38 Q1351.25 1673.77 1348.91 1671.66 Q1346.57 1669.55 1342.57 1669.55 Q1340.69 1669.55 1338.82 1669.97 Q1336.97 1670.39 1335.02 1671.27 L1335.02 1653.9 Z" fill="#000000" fill-rule="evenodd" fill-opacity="1" /><path clip-path="url(#clip280)" d="M1472.22 1745.97 L1479.86 1745.97 L1479.86 1719.6 L1471.55 1721.27 L1471.55 1717.01 L1479.81 1715.34 L1484.49 1715.34 L1484.49 1745.97 L1492.13 1745.97 L1492.13 1749.9 L1472.22 1749.9 L1472.22 1745.97 Z" fill="#000000" fill-rule="evenodd" fill-opacity="1" /><path clip-path="url(#clip280)" d="M1501.57 1744.02 L1506.46 1744.02 L1506.46 1749.9 L1501.57 1749.9 L1501.57 1744.02 Z" fill="#000000" fill-rule="evenodd" fill-opacity="1" /><path clip-path="url(#clip280)" d="M1526.64 1718.42 Q1523.03 1718.42 1521.2 1721.98 Q1519.39 1725.53 1519.39 1732.65 Q1519.39 1739.76 1521.2 1743.33 Q1523.03 1746.87 1526.64 1746.87 Q1530.27 1746.87 1532.08 1743.33 Q1533.91 1739.76 1533.91 1732.65 Q1533.91 1725.53 1532.08 1721.98 Q1530.27 1718.42 1526.64 1718.42 M1526.64 1714.72 Q1532.45 1714.72 1535.51 1719.32 Q1538.58 1723.91 1538.58 1732.65 Q1538.58 1741.38 1535.51 1745.99 Q1532.45 1750.57 1526.64 1750.57 Q1520.83 1750.57 1517.75 1745.99 Q1514.7 1741.38 1514.7 1732.65 Q1514.7 1723.91 1517.75 1719.32 Q1520.83 1714.72 1526.64 1714.72 Z" fill="#000000" fill-rule="evenodd" fill-opacity="1" /><path clip-path="url(#clip280)" d="M1556.8 1718.42 Q1553.19 1718.42 1551.36 1721.98 Q1549.56 1725.53 1549.56 1732.65 Q1549.56 1739.76 1551.36 1743.33 Q1553.19 1746.87 1556.8 1746.87 Q1560.44 1746.87 1562.24 1743.33 Q1564.07 1739.76 1564.07 1732.65 Q1564.07 1725.53 1562.24 1721.98 Q1560.44 1718.42 1556.8 1718.42 M1556.8 1714.72 Q1562.61 1714.72 1565.67 1719.32 Q1568.75 1723.91 1568.75 1732.65 Q1568.75 1741.38 1565.67 1745.99 Q1562.61 1750.57 1556.8 1750.57 Q1550.99 1750.57 1547.91 1745.99 Q1544.86 1741.38 1544.86 1732.65 Q1544.86 1723.91 1547.91 1719.32 Q1550.99 1714.72 1556.8 1714.72 Z" fill="#000000" fill-rule="evenodd" fill-opacity="1" /><polyline clip-path="url(#clip282)" style="stroke:#000000; stroke-linecap:round; stroke-linejoin:round; stroke-width:2; stroke-opacity:0.1; fill:none" points="
  1697.22,1624.15 820.454,1371.05 820.454,494.279 
  "/>
<polyline clip-path="url(#clip282)" style="stroke:#000000; stroke-linecap:round; stroke-linejoin:round; stroke-width:2; stroke-opacity:0.1; fill:none" points="
  1796.09,1538.52 919.323,1285.42 919.323,408.656 
  "/>
<polyline clip-path="url(#clip282)" style="stroke:#000000; stroke-linecap:round; stroke-linejoin:round; stroke-width:2; stroke-opacity:0.1; fill:none" points="
  1894.96,1452.9 1018.19,1199.8 1018.19,323.033 
  "/>
<polyline clip-path="url(#clip282)" style="stroke:#000000; stroke-linecap:round; stroke-linejoin:round; stroke-width:2; stroke-opacity:0.1; fill:none" points="
  1993.83,1367.28 1117.06,1114.18 1117.06,237.411 
  "/>
<polyline clip-path="url(#clip282)" style="stroke:#000000; stroke-linecap:round; stroke-linejoin:round; stroke-width:2; stroke-opacity:0.1; fill:none" points="
  2092.7,1281.66 1215.93,1028.56 1215.93,151.788 
  "/>
<polyline clip-path="url(#clip280)" style="stroke:#000000; stroke-linecap:round; stroke-linejoin:round; stroke-width:4; stroke-opacity:1; fill:none" points="
  1600.24,1708.14 2106.44,1269.75 
  "/>
<polyline clip-path="url(#clip280)" style="stroke:#000000; stroke-linecap:round; stroke-linejoin:round; stroke-width:4; stroke-opacity:1; fill:none" points="
  1697.22,1624.15 1686.7,1621.11 
  "/>
<polyline clip-path="url(#clip280)" style="stroke:#000000; stroke-linecap:round; stroke-linejoin:round; stroke-width:4; stroke-opacity:1; fill:none" points="
  1796.09,1538.52 1785.57,1535.49 
  "/>
<polyline clip-path="url(#clip280)" style="stroke:#000000; stroke-linecap:round; stroke-linejoin:round; stroke-width:4; stroke-opacity:1; fill:none" points="
  1894.96,1452.9 1884.44,1449.86 
  "/>
<polyline clip-path="url(#clip280)" style="stroke:#000000; stroke-linecap:round; stroke-linejoin:round; stroke-width:4; stroke-opacity:1; fill:none" points="
  1993.83,1367.28 1983.31,1364.24 
  "/>
<polyline clip-path="url(#clip280)" style="stroke:#000000; stroke-linecap:round; stroke-linejoin:round; stroke-width:4; stroke-opacity:1; fill:none" points="
  2092.7,1281.66 2082.17,1278.62 
  "/>
<path clip-path="url(#clip280)" d="M1730.35 1634.27 Q1726.74 1634.27 1724.91 1637.83 Q1723.11 1641.38 1723.11 1648.5 Q1723.11 1655.61 1724.91 1659.18 Q1726.74 1662.72 1730.35 1662.72 Q1733.99 1662.72 1735.79 1659.18 Q1737.62 1655.61 1737.62 1648.5 Q1737.62 1641.38 1735.79 1637.83 Q1733.99 1634.27 1730.35 1634.27 M1730.35 1630.56 Q1736.16 1630.56 1739.22 1635.17 Q1742.3 1639.75 1742.3 1648.5 Q1742.3 1657.23 1739.22 1661.84 Q1736.16 1666.42 1730.35 1666.42 Q1724.54 1666.42 1721.46 1661.84 Q1718.41 1657.23 1718.41 1648.5 Q1718.41 1639.75 1721.46 1635.17 Q1724.54 1630.56 1730.35 1630.56 Z" fill="#000000" fill-rule="evenodd" fill-opacity="1" /><path clip-path="url(#clip280)" d="M1750.51 1659.87 L1755.4 1659.87 L1755.4 1665.75 L1750.51 1665.75 L1750.51 1659.87 Z" fill="#000000" fill-rule="evenodd" fill-opacity="1" /><path clip-path="url(#clip280)" d="M1769.61 1661.81 L1785.93 1661.81 L1785.93 1665.75 L1763.99 1665.75 L1763.99 1661.81 Q1766.65 1659.06 1771.23 1654.43 Q1775.84 1649.78 1777.02 1648.44 Q1779.26 1645.91 1780.14 1644.18 Q1781.05 1642.42 1781.05 1640.73 Q1781.05 1637.97 1779.1 1636.24 Q1777.18 1634.5 1774.08 1634.5 Q1771.88 1634.5 1769.43 1635.26 Q1767 1636.03 1764.22 1637.58 L1764.22 1632.86 Q1767.04 1631.72 1769.5 1631.14 Q1771.95 1630.56 1773.99 1630.56 Q1779.36 1630.56 1782.55 1633.25 Q1785.75 1635.94 1785.75 1640.43 Q1785.75 1642.56 1784.94 1644.48 Q1784.15 1646.38 1782.04 1648.97 Q1781.46 1649.64 1778.36 1652.86 Q1775.26 1656.05 1769.61 1661.81 Z" fill="#000000" fill-rule="evenodd" fill-opacity="1" /><path clip-path="url(#clip280)" d="M1829.22 1548.65 Q1825.61 1548.65 1823.78 1552.21 Q1821.98 1555.75 1821.98 1562.88 Q1821.98 1569.99 1823.78 1573.55 Q1825.61 1577.09 1829.22 1577.09 Q1832.86 1577.09 1834.66 1573.55 Q1836.49 1569.99 1836.49 1562.88 Q1836.49 1555.75 1834.66 1552.21 Q1832.86 1548.65 1829.22 1548.65 M1829.22 1544.94 Q1835.03 1544.94 1838.09 1549.55 Q1841.17 1554.13 1841.17 1562.88 Q1841.17 1571.61 1838.09 1576.22 Q1835.03 1580.8 1829.22 1580.8 Q1823.41 1580.8 1820.33 1576.22 Q1817.28 1571.61 1817.28 1562.88 Q1817.28 1554.13 1820.33 1549.55 Q1823.41 1544.94 1829.22 1544.94 Z" fill="#000000" fill-rule="evenodd" fill-opacity="1" /><path clip-path="url(#clip280)" d="M1849.38 1574.25 L1854.27 1574.25 L1854.27 1580.13 L1849.38 1580.13 L1849.38 1574.25 Z" fill="#000000" fill-rule="evenodd" fill-opacity="1" /><path clip-path="url(#clip280)" d="M1877.3 1549.64 L1865.49 1568.09 L1877.3 1568.09 L1877.3 1549.64 M1876.07 1545.57 L1881.95 1545.57 L1881.95 1568.09 L1886.88 1568.09 L1886.88 1571.98 L1881.95 1571.98 L1881.95 1580.13 L1877.3 1580.13 L1877.3 1571.98 L1861.7 1571.98 L1861.7 1567.47 L1876.07 1545.57 Z" fill="#000000" fill-rule="evenodd" fill-opacity="1" /><path clip-path="url(#clip280)" d="M1928.09 1463.02 Q1924.48 1463.02 1922.65 1466.59 Q1920.84 1470.13 1920.84 1477.26 Q1920.84 1484.37 1922.65 1487.93 Q1924.48 1491.47 1928.09 1491.47 Q1931.72 1491.47 1933.53 1487.93 Q1935.36 1484.37 1935.36 1477.26 Q1935.36 1470.13 1933.53 1466.59 Q1931.72 1463.02 1928.09 1463.02 M1928.09 1459.32 Q1933.9 1459.32 1936.96 1463.93 Q1940.03 1468.51 1940.03 1477.26 Q1940.03 1485.99 1936.96 1490.59 Q1933.9 1495.18 1928.09 1495.18 Q1922.28 1495.18 1919.2 1490.59 Q1916.15 1485.99 1916.15 1477.26 Q1916.15 1468.51 1919.2 1463.93 Q1922.28 1459.32 1928.09 1459.32 Z" fill="#000000" fill-rule="evenodd" fill-opacity="1" /><path clip-path="url(#clip280)" d="M1948.25 1488.63 L1953.14 1488.63 L1953.14 1494.5 L1948.25 1494.5 L1948.25 1488.63 Z" fill="#000000" fill-rule="evenodd" fill-opacity="1" /><path clip-path="url(#clip280)" d="M1973.9 1475.36 Q1970.75 1475.36 1968.9 1477.51 Q1967.07 1479.67 1967.07 1483.42 Q1967.07 1487.14 1968.9 1489.32 Q1970.75 1491.47 1973.9 1491.47 Q1977.05 1491.47 1978.88 1489.32 Q1980.73 1487.14 1980.73 1483.42 Q1980.73 1479.67 1978.88 1477.51 Q1977.05 1475.36 1973.9 1475.36 M1983.18 1460.71 L1983.18 1464.97 Q1981.42 1464.13 1979.62 1463.69 Q1977.83 1463.25 1976.08 1463.25 Q1971.45 1463.25 1968.99 1466.38 Q1966.56 1469.5 1966.21 1475.82 Q1967.58 1473.81 1969.64 1472.75 Q1971.7 1471.66 1974.18 1471.66 Q1979.39 1471.66 1982.39 1474.83 Q1985.43 1477.98 1985.43 1483.42 Q1985.43 1488.74 1982.28 1491.96 Q1979.13 1495.18 1973.9 1495.18 Q1967.9 1495.18 1964.73 1490.59 Q1961.56 1485.99 1961.56 1477.26 Q1961.56 1469.06 1965.45 1464.2 Q1969.34 1459.32 1975.89 1459.32 Q1977.65 1459.32 1979.43 1459.67 Q1981.24 1460.01 1983.18 1460.71 Z" fill="#000000" fill-rule="evenodd" fill-opacity="1" /><path clip-path="url(#clip280)" d="M2026.96 1377.4 Q2023.35 1377.4 2021.52 1380.97 Q2019.71 1384.51 2019.71 1391.64 Q2019.71 1398.74 2021.52 1402.31 Q2023.35 1405.85 2026.96 1405.85 Q2030.59 1405.85 2032.4 1402.31 Q2034.23 1398.74 2034.23 1391.64 Q2034.23 1384.51 2032.4 1380.97 Q2030.59 1377.4 2026.96 1377.4 M2026.96 1373.7 Q2032.77 1373.7 2035.82 1378.3 Q2038.9 1382.89 2038.9 1391.64 Q2038.9 1400.36 2035.82 1404.97 Q2032.77 1409.55 2026.96 1409.55 Q2021.15 1409.55 2018.07 1404.97 Q2015.01 1400.36 2015.01 1391.64 Q2015.01 1382.89 2018.07 1378.3 Q2021.15 1373.7 2026.96 1373.7 Z" fill="#000000" fill-rule="evenodd" fill-opacity="1" /><path clip-path="url(#clip280)" d="M2047.12 1403 L2052 1403 L2052 1408.88 L2047.12 1408.88 L2047.12 1403 Z" fill="#000000" fill-rule="evenodd" fill-opacity="1" /><path clip-path="url(#clip280)" d="M2072.19 1392.47 Q2068.86 1392.47 2066.93 1394.25 Q2065.04 1396.03 2065.04 1399.16 Q2065.04 1402.28 2066.93 1404.07 Q2068.86 1405.85 2072.19 1405.85 Q2075.52 1405.85 2077.44 1404.07 Q2079.37 1402.26 2079.37 1399.16 Q2079.37 1396.03 2077.44 1394.25 Q2075.55 1392.47 2072.19 1392.47 M2067.51 1390.48 Q2064.5 1389.74 2062.81 1387.68 Q2061.15 1385.62 2061.15 1382.66 Q2061.15 1378.51 2064.09 1376.1 Q2067.05 1373.7 2072.19 1373.7 Q2077.35 1373.7 2080.29 1376.1 Q2083.23 1378.51 2083.23 1382.66 Q2083.23 1385.62 2081.54 1387.68 Q2079.87 1389.74 2076.89 1390.48 Q2080.27 1391.27 2082.14 1393.56 Q2084.04 1395.85 2084.04 1399.16 Q2084.04 1404.18 2080.96 1406.87 Q2077.91 1409.55 2072.19 1409.55 Q2066.47 1409.55 2063.39 1406.87 Q2060.34 1404.18 2060.34 1399.16 Q2060.34 1395.85 2062.24 1393.56 Q2064.13 1391.27 2067.51 1390.48 M2065.8 1383.1 Q2065.8 1385.78 2067.47 1387.28 Q2069.16 1388.79 2072.19 1388.79 Q2075.2 1388.79 2076.89 1387.28 Q2078.6 1385.78 2078.6 1383.1 Q2078.6 1380.41 2076.89 1378.91 Q2075.2 1377.4 2072.19 1377.4 Q2069.16 1377.4 2067.47 1378.91 Q2065.8 1380.41 2065.8 1383.1 Z" fill="#000000" fill-rule="evenodd" fill-opacity="1" /><path clip-path="url(#clip280)" d="M2114.55 1319.32 L2122.19 1319.32 L2122.19 1292.96 L2113.88 1294.63 L2113.88 1290.37 L2122.15 1288.7 L2126.82 1288.7 L2126.82 1319.32 L2134.46 1319.32 L2134.46 1323.26 L2114.55 1323.26 L2114.55 1319.32 Z" fill="#000000" fill-rule="evenodd" fill-opacity="1" /><path clip-path="url(#clip280)" d="M2143.91 1317.38 L2148.79 1317.38 L2148.79 1323.26 L2143.91 1323.26 L2143.91 1317.38 Z" fill="#000000" fill-rule="evenodd" fill-opacity="1" /><path clip-path="url(#clip280)" d="M2168.97 1291.78 Q2165.36 1291.78 2163.53 1295.34 Q2161.73 1298.88 2161.73 1306.01 Q2161.73 1313.12 2163.53 1316.69 Q2165.36 1320.23 2168.97 1320.23 Q2172.61 1320.23 2174.41 1316.69 Q2176.24 1313.12 2176.24 1306.01 Q2176.24 1298.88 2174.41 1295.34 Q2172.61 1291.78 2168.97 1291.78 M2168.97 1288.07 Q2174.78 1288.07 2177.84 1292.68 Q2180.92 1297.26 2180.92 1306.01 Q2180.92 1314.74 2177.84 1319.35 Q2174.78 1323.93 2168.97 1323.93 Q2163.16 1323.93 2160.09 1319.35 Q2157.03 1314.74 2157.03 1306.01 Q2157.03 1297.26 2160.09 1292.68 Q2163.16 1288.07 2168.97 1288.07 Z" fill="#000000" fill-rule="evenodd" fill-opacity="1" /><polyline clip-path="url(#clip282)" style="stroke:#000000; stroke-linecap:round; stroke-linejoin:round; stroke-width:2; stroke-opacity:0.1; fill:none" points="
  723.47,1431.58 1229.67,993.195 2106.44,1246.3 
  "/>
<polyline clip-path="url(#clip282)" style="stroke:#000000; stroke-linecap:round; stroke-linejoin:round; stroke-width:2; stroke-opacity:0.1; fill:none" points="
  723.47,1224 1229.67,785.617 2106.44,1038.72 
  "/>
<polyline clip-path="url(#clip282)" style="stroke:#000000; stroke-linecap:round; stroke-linejoin:round; stroke-width:2; stroke-opacity:0.1; fill:none" points="
  723.47,1016.42 1229.67,578.039 2106.44,831.14 
  "/>
<polyline clip-path="url(#clip282)" style="stroke:#000000; stroke-linecap:round; stroke-linejoin:round; stroke-width:2; stroke-opacity:0.1; fill:none" points="
  723.47,808.845 1229.67,370.461 2106.44,623.562 
  "/>
<polyline clip-path="url(#clip282)" style="stroke:#000000; stroke-linecap:round; stroke-linejoin:round; stroke-width:2; stroke-opacity:0.1; fill:none" points="
  723.47,601.267 1229.67,162.883 2106.44,415.985 
  "/>
<polyline clip-path="url(#clip280)" style="stroke:#000000; stroke-linecap:round; stroke-linejoin:round; stroke-width:4; stroke-opacity:1; fill:none" points="
  723.47,1455.04 723.47,578.269 
  "/>
<polyline clip-path="url(#clip280)" style="stroke:#000000; stroke-linecap:round; stroke-linejoin:round; stroke-width:4; stroke-opacity:1; fill:none" points="
  723.47,1431.58 729.545,1426.32 
  "/>
<polyline clip-path="url(#clip280)" style="stroke:#000000; stroke-linecap:round; stroke-linejoin:round; stroke-width:4; stroke-opacity:1; fill:none" points="
  723.47,1224 729.545,1218.74 
  "/>
<polyline clip-path="url(#clip280)" style="stroke:#000000; stroke-linecap:round; stroke-linejoin:round; stroke-width:4; stroke-opacity:1; fill:none" points="
  723.47,1016.42 729.545,1011.16 
  "/>
<polyline clip-path="url(#clip280)" style="stroke:#000000; stroke-linecap:round; stroke-linejoin:round; stroke-width:4; stroke-opacity:1; fill:none" points="
  723.47,808.845 729.545,803.585 
  "/>
<polyline clip-path="url(#clip280)" style="stroke:#000000; stroke-linecap:round; stroke-linejoin:round; stroke-width:4; stroke-opacity:1; fill:none" points="
  723.47,601.267 729.545,596.007 
  "/>
<path clip-path="url(#clip280)" d="M603.877 1417.38 Q600.266 1417.38 598.437 1420.94 Q596.631 1424.48 596.631 1431.61 Q596.631 1438.72 598.437 1442.28 Q600.266 1445.83 603.877 1445.83 Q607.511 1445.83 609.316 1442.28 Q611.145 1438.72 611.145 1431.61 Q611.145 1424.48 609.316 1420.94 Q607.511 1417.38 603.877 1417.38 M603.877 1413.67 Q609.687 1413.67 612.742 1418.28 Q615.821 1422.86 615.821 1431.61 Q615.821 1440.34 612.742 1444.95 Q609.687 1449.53 603.877 1449.53 Q598.066 1449.53 594.988 1444.95 Q591.932 1440.34 591.932 1431.61 Q591.932 1422.86 594.988 1418.28 Q598.066 1413.67 603.877 1413.67 Z" fill="#000000" fill-rule="evenodd" fill-opacity="1" /><path clip-path="url(#clip280)" d="M624.039 1442.98 L628.923 1442.98 L628.923 1448.86 L624.039 1448.86 L624.039 1442.98 Z" fill="#000000" fill-rule="evenodd" fill-opacity="1" /><path clip-path="url(#clip280)" d="M649.108 1417.38 Q645.497 1417.38 643.668 1420.94 Q641.863 1424.48 641.863 1431.61 Q641.863 1438.72 643.668 1442.28 Q645.497 1445.83 649.108 1445.83 Q652.742 1445.83 654.548 1442.28 Q656.376 1438.72 656.376 1431.61 Q656.376 1424.48 654.548 1420.94 Q652.742 1417.38 649.108 1417.38 M649.108 1413.67 Q654.918 1413.67 657.974 1418.28 Q661.052 1422.86 661.052 1431.61 Q661.052 1440.34 657.974 1444.95 Q654.918 1449.53 649.108 1449.53 Q643.298 1449.53 640.219 1444.95 Q637.164 1440.34 637.164 1431.61 Q637.164 1422.86 640.219 1418.28 Q643.298 1413.67 649.108 1413.67 Z" fill="#000000" fill-rule="evenodd" fill-opacity="1" /><path clip-path="url(#clip280)" d="M679.27 1417.38 Q675.659 1417.38 673.83 1420.94 Q672.024 1424.48 672.024 1431.61 Q672.024 1438.72 673.83 1442.28 Q675.659 1445.83 679.27 1445.83 Q682.904 1445.83 684.71 1442.28 Q686.538 1438.72 686.538 1431.61 Q686.538 1424.48 684.71 1420.94 Q682.904 1417.38 679.27 1417.38 M679.27 1413.67 Q685.08 1413.67 688.135 1418.28 Q691.214 1422.86 691.214 1431.61 Q691.214 1440.34 688.135 1444.95 Q685.08 1449.53 679.27 1449.53 Q673.46 1449.53 670.381 1444.95 Q667.325 1440.34 667.325 1431.61 Q667.325 1422.86 670.381 1418.28 Q673.46 1413.67 679.27 1413.67 Z" fill="#000000" fill-rule="evenodd" fill-opacity="1" /><path clip-path="url(#clip280)" d="M604.872 1209.8 Q601.261 1209.8 599.432 1213.36 Q597.627 1216.91 597.627 1224.04 Q597.627 1231.14 599.432 1234.71 Q601.261 1238.25 604.872 1238.25 Q608.506 1238.25 610.312 1234.71 Q612.14 1231.14 612.14 1224.04 Q612.14 1216.91 610.312 1213.36 Q608.506 1209.8 604.872 1209.8 M604.872 1206.1 Q610.682 1206.1 613.738 1210.7 Q616.816 1215.29 616.816 1224.04 Q616.816 1232.76 613.738 1237.37 Q610.682 1241.95 604.872 1241.95 Q599.062 1241.95 595.983 1237.37 Q592.928 1232.76 592.928 1224.04 Q592.928 1215.29 595.983 1210.7 Q599.062 1206.1 604.872 1206.1 Z" fill="#000000" fill-rule="evenodd" fill-opacity="1" /><path clip-path="url(#clip280)" d="M625.034 1235.4 L629.918 1235.4 L629.918 1241.28 L625.034 1241.28 L625.034 1235.4 Z" fill="#000000" fill-rule="evenodd" fill-opacity="1" /><path clip-path="url(#clip280)" d="M644.131 1237.35 L660.45 1237.35 L660.45 1241.28 L638.506 1241.28 L638.506 1237.35 Q641.168 1234.59 645.751 1229.96 Q650.358 1225.31 651.538 1223.97 Q653.784 1221.44 654.663 1219.71 Q655.566 1217.95 655.566 1216.26 Q655.566 1213.5 653.622 1211.77 Q651.7 1210.03 648.599 1210.03 Q646.4 1210.03 643.946 1210.79 Q641.515 1211.56 638.738 1213.11 L638.738 1208.39 Q641.562 1207.25 644.015 1206.67 Q646.469 1206.1 648.506 1206.1 Q653.876 1206.1 657.071 1208.78 Q660.265 1211.47 660.265 1215.96 Q660.265 1218.09 659.455 1220.01 Q658.668 1221.91 656.562 1224.5 Q655.983 1225.17 652.881 1228.39 Q649.779 1231.58 644.131 1237.35 Z" fill="#000000" fill-rule="evenodd" fill-opacity="1" /><path clip-path="url(#clip280)" d="M670.311 1206.72 L688.668 1206.72 L688.668 1210.66 L674.594 1210.66 L674.594 1219.13 Q675.612 1218.78 676.631 1218.62 Q677.649 1218.43 678.668 1218.43 Q684.455 1218.43 687.835 1221.61 Q691.214 1224.78 691.214 1230.19 Q691.214 1235.77 687.742 1238.87 Q684.27 1241.95 677.95 1241.95 Q675.774 1241.95 673.506 1241.58 Q671.261 1241.21 668.853 1240.47 L668.853 1235.77 Q670.936 1236.91 673.159 1237.46 Q675.381 1238.02 677.858 1238.02 Q681.862 1238.02 684.2 1235.91 Q686.538 1233.8 686.538 1230.19 Q686.538 1226.58 684.2 1224.48 Q681.862 1222.37 677.858 1222.37 Q675.983 1222.37 674.108 1222.79 Q672.256 1223.2 670.311 1224.08 L670.311 1206.72 Z" fill="#000000" fill-rule="evenodd" fill-opacity="1" /><path clip-path="url(#clip280)" d="M603.877 1002.22 Q600.266 1002.22 598.437 1005.79 Q596.631 1009.33 596.631 1016.46 Q596.631 1023.56 598.437 1027.13 Q600.266 1030.67 603.877 1030.67 Q607.511 1030.67 609.316 1027.13 Q611.145 1023.56 611.145 1016.46 Q611.145 1009.33 609.316 1005.79 Q607.511 1002.22 603.877 1002.22 M603.877 998.518 Q609.687 998.518 612.742 1003.12 Q615.821 1007.71 615.821 1016.46 Q615.821 1025.18 612.742 1029.79 Q609.687 1034.37 603.877 1034.37 Q598.066 1034.37 594.988 1029.79 Q591.932 1025.18 591.932 1016.46 Q591.932 1007.71 594.988 1003.12 Q598.066 998.518 603.877 998.518 Z" fill="#000000" fill-rule="evenodd" fill-opacity="1" /><path clip-path="url(#clip280)" d="M624.039 1027.82 L628.923 1027.82 L628.923 1033.7 L624.039 1033.7 L624.039 1027.82 Z" fill="#000000" fill-rule="evenodd" fill-opacity="1" /><path clip-path="url(#clip280)" d="M639.154 999.143 L657.511 999.143 L657.511 1003.08 L643.437 1003.08 L643.437 1011.55 Q644.455 1011.2 645.474 1011.04 Q646.492 1010.86 647.511 1010.86 Q653.298 1010.86 656.677 1014.03 Q660.057 1017.2 660.057 1022.62 Q660.057 1028.19 656.585 1031.3 Q653.112 1034.37 646.793 1034.37 Q644.617 1034.37 642.349 1034 Q640.103 1033.63 637.696 1032.89 L637.696 1028.19 Q639.779 1029.33 642.001 1029.88 Q644.224 1030.44 646.7 1030.44 Q650.705 1030.44 653.043 1028.33 Q655.381 1026.23 655.381 1022.62 Q655.381 1019 653.043 1016.9 Q650.705 1014.79 646.7 1014.79 Q644.826 1014.79 642.951 1015.21 Q641.099 1015.62 639.154 1016.5 L639.154 999.143 Z" fill="#000000" fill-rule="evenodd" fill-opacity="1" /><path clip-path="url(#clip280)" d="M679.27 1002.22 Q675.659 1002.22 673.83 1005.79 Q672.024 1009.33 672.024 1016.46 Q672.024 1023.56 673.83 1027.13 Q675.659 1030.67 679.27 1030.67 Q682.904 1030.67 684.71 1027.13 Q686.538 1023.56 686.538 1016.46 Q686.538 1009.33 684.71 1005.79 Q682.904 1002.22 679.27 1002.22 M679.27 998.518 Q685.08 998.518 688.135 1003.12 Q691.214 1007.71 691.214 1016.46 Q691.214 1025.18 688.135 1029.79 Q685.08 1034.37 679.27 1034.37 Q673.46 1034.37 670.381 1029.79 Q667.325 1025.18 667.325 1016.46 Q667.325 1007.71 670.381 1003.12 Q673.46 998.518 679.27 998.518 Z" fill="#000000" fill-rule="evenodd" fill-opacity="1" /><path clip-path="url(#clip280)" d="M604.872 794.644 Q601.261 794.644 599.432 798.209 Q597.627 801.75 597.627 808.88 Q597.627 815.986 599.432 819.551 Q601.261 823.093 604.872 823.093 Q608.506 823.093 610.312 819.551 Q612.14 815.986 612.14 808.88 Q612.14 801.75 610.312 798.209 Q608.506 794.644 604.872 794.644 M604.872 790.94 Q610.682 790.94 613.738 795.547 Q616.816 800.13 616.816 808.88 Q616.816 817.607 613.738 822.213 Q610.682 826.796 604.872 826.796 Q599.062 826.796 595.983 822.213 Q592.928 817.607 592.928 808.88 Q592.928 800.13 595.983 795.547 Q599.062 790.94 604.872 790.94 Z" fill="#000000" fill-rule="evenodd" fill-opacity="1" /><path clip-path="url(#clip280)" d="M625.034 820.246 L629.918 820.246 L629.918 826.125 L625.034 826.125 L625.034 820.246 Z" fill="#000000" fill-rule="evenodd" fill-opacity="1" /><path clip-path="url(#clip280)" d="M638.923 791.565 L661.145 791.565 L661.145 793.556 L648.599 826.125 L643.714 826.125 L655.52 795.5 L638.923 795.5 L638.923 791.565 Z" fill="#000000" fill-rule="evenodd" fill-opacity="1" /><path clip-path="url(#clip280)" d="M670.311 791.565 L688.668 791.565 L688.668 795.5 L674.594 795.5 L674.594 803.973 Q675.612 803.625 676.631 803.463 Q677.649 803.278 678.668 803.278 Q684.455 803.278 687.835 806.449 Q691.214 809.621 691.214 815.037 Q691.214 820.616 687.742 823.718 Q684.27 826.796 677.95 826.796 Q675.774 826.796 673.506 826.426 Q671.261 826.056 668.853 825.315 L668.853 820.616 Q670.936 821.75 673.159 822.306 Q675.381 822.861 677.858 822.861 Q681.862 822.861 684.2 820.755 Q686.538 818.648 686.538 815.037 Q686.538 811.426 684.2 809.32 Q681.862 807.213 677.858 807.213 Q675.983 807.213 674.108 807.63 Q672.256 808.047 670.311 808.926 L670.311 791.565 Z" fill="#000000" fill-rule="evenodd" fill-opacity="1" /><path clip-path="url(#clip280)" d="M594.687 614.612 L602.326 614.612 L602.326 588.247 L594.016 589.913 L594.016 585.654 L602.279 583.987 L606.955 583.987 L606.955 614.612 L614.594 614.612 L614.594 618.547 L594.687 618.547 L594.687 614.612 Z" fill="#000000" fill-rule="evenodd" fill-opacity="1" /><path clip-path="url(#clip280)" d="M624.039 612.668 L628.923 612.668 L628.923 618.547 L624.039 618.547 L624.039 612.668 Z" fill="#000000" fill-rule="evenodd" fill-opacity="1" /><path clip-path="url(#clip280)" d="M649.108 587.066 Q645.497 587.066 643.668 590.631 Q641.863 594.172 641.863 601.302 Q641.863 608.408 643.668 611.973 Q645.497 615.515 649.108 615.515 Q652.742 615.515 654.548 611.973 Q656.376 608.408 656.376 601.302 Q656.376 594.172 654.548 590.631 Q652.742 587.066 649.108 587.066 M649.108 583.362 Q654.918 583.362 657.974 587.969 Q661.052 592.552 661.052 601.302 Q661.052 610.029 657.974 614.635 Q654.918 619.219 649.108 619.219 Q643.298 619.219 640.219 614.635 Q637.164 610.029 637.164 601.302 Q637.164 592.552 640.219 587.969 Q643.298 583.362 649.108 583.362 Z" fill="#000000" fill-rule="evenodd" fill-opacity="1" /><path clip-path="url(#clip280)" d="M679.27 587.066 Q675.659 587.066 673.83 590.631 Q672.024 594.172 672.024 601.302 Q672.024 608.408 673.83 611.973 Q675.659 615.515 679.27 615.515 Q682.904 615.515 684.71 611.973 Q686.538 608.408 686.538 601.302 Q686.538 594.172 684.71 590.631 Q682.904 587.066 679.27 587.066 M679.27 583.362 Q685.08 583.362 688.135 587.969 Q691.214 592.552 691.214 601.302 Q691.214 610.029 688.135 614.635 Q685.08 619.219 679.27 619.219 Q673.46 619.219 670.381 614.635 Q667.325 610.029 667.325 601.302 Q667.325 592.552 670.381 587.969 Q673.46 583.362 679.27 583.362 Z" fill="#000000" fill-rule="evenodd" fill-opacity="1" /><circle clip-path="url(#clip282)" cx="1436.22" cy="738.811" r="14.4" fill="#009af9" fill-rule="evenodd" fill-opacity="1" stroke="#000000" stroke-opacity="1" stroke-width="3.84"/>
<circle clip-path="url(#clip282)" cx="1573.72" cy="772.379" r="14.4" fill="#009af9" fill-rule="evenodd" fill-opacity="1" stroke="#000000" stroke-opacity="1" stroke-width="3.84"/>
<circle clip-path="url(#clip282)" cx="1769.36" cy="818.203" r="14.4" fill="#009af9" fill-rule="evenodd" fill-opacity="1" stroke="#000000" stroke-opacity="1" stroke-width="3.84"/>
<circle clip-path="url(#clip282)" cx="1799.82" cy="1142.23" r="14.4" fill="#009af9" fill-rule="evenodd" fill-opacity="1" stroke="#000000" stroke-opacity="1" stroke-width="3.84"/>
<circle clip-path="url(#clip282)" cx="812.196" cy="1033.5" r="14.4" fill="#009af9" fill-rule="evenodd" fill-opacity="1" stroke="#000000" stroke-opacity="1" stroke-width="3.84"/>
<circle clip-path="url(#clip282)" cx="1582.3" cy="909.038" r="14.4" fill="#009af9" fill-rule="evenodd" fill-opacity="1" stroke="#000000" stroke-opacity="1" stroke-width="3.84"/>
<circle clip-path="url(#clip282)" cx="1555.16" cy="706.386" r="14.4" fill="#009af9" fill-rule="evenodd" fill-opacity="1" stroke="#000000" stroke-opacity="1" stroke-width="3.84"/>
<circle clip-path="url(#clip282)" cx="1829.24" cy="690.58" r="14.4" fill="#009af9" fill-rule="evenodd" fill-opacity="1" stroke="#000000" stroke-opacity="1" stroke-width="3.84"/>
<circle clip-path="url(#clip282)" cx="1320.47" cy="562.303" r="14.4" fill="#009af9" fill-rule="evenodd" fill-opacity="1" stroke="#000000" stroke-opacity="1" stroke-width="3.84"/>
<circle clip-path="url(#clip282)" cx="1678.42" cy="526.002" r="14.4" fill="#009af9" fill-rule="evenodd" fill-opacity="1" stroke="#000000" stroke-opacity="1" stroke-width="3.84"/>
<circle clip-path="url(#clip282)" cx="1273.35" cy="286.684" r="14.4" fill="#009af9" fill-rule="evenodd" fill-opacity="1" stroke="#000000" stroke-opacity="1" stroke-width="3.84"/>
<circle clip-path="url(#clip282)" cx="1324.44" cy="884.864" r="14.4" fill="#009af9" fill-rule="evenodd" fill-opacity="1" stroke="#000000" stroke-opacity="1" stroke-width="3.84"/>
<circle clip-path="url(#clip282)" cx="1708.12" cy="523.489" r="14.4" fill="#009af9" fill-rule="evenodd" fill-opacity="1" stroke="#000000" stroke-opacity="1" stroke-width="3.84"/>
<circle clip-path="url(#clip282)" cx="954.106" cy="1176.2" r="14.4" fill="#009af9" fill-rule="evenodd" fill-opacity="1" stroke="#000000" stroke-opacity="1" stroke-width="3.84"/>
<circle clip-path="url(#clip282)" cx="1657.9" cy="618.656" r="14.4" fill="#009af9" fill-rule="evenodd" fill-opacity="1" stroke="#000000" stroke-opacity="1" stroke-width="3.84"/>
<circle clip-path="url(#clip282)" cx="1606.64" cy="454.85" r="14.4" fill="#009af9" fill-rule="evenodd" fill-opacity="1" stroke="#000000" stroke-opacity="1" stroke-width="3.84"/>
<circle clip-path="url(#clip282)" cx="1174.74" cy="1047.21" r="14.4" fill="#009af9" fill-rule="evenodd" fill-opacity="1" stroke="#000000" stroke-opacity="1" stroke-width="3.84"/>
<circle clip-path="url(#clip282)" cx="1638.64" cy="1196.71" r="14.4" fill="#009af9" fill-rule="evenodd" fill-opacity="1" stroke="#000000" stroke-opacity="1" stroke-width="3.84"/>
<circle clip-path="url(#clip282)" cx="1597.31" cy="938.171" r="14.4" fill="#009af9" fill-rule="evenodd" fill-opacity="1" stroke="#000000" stroke-opacity="1" stroke-width="3.84"/>
<circle clip-path="url(#clip282)" cx="1145.14" cy="1067.65" r="14.4" fill="#009af9" fill-rule="evenodd" fill-opacity="1" stroke="#000000" stroke-opacity="1" stroke-width="3.84"/>
<circle clip-path="url(#clip282)" cx="1796.17" cy="1136.11" r="14.4" fill="#009af9" fill-rule="evenodd" fill-opacity="1" stroke="#000000" stroke-opacity="1" stroke-width="3.84"/>
<circle clip-path="url(#clip282)" cx="1825.4" cy="717.063" r="14.4" fill="#009af9" fill-rule="evenodd" fill-opacity="1" stroke="#000000" stroke-opacity="1" stroke-width="3.84"/>
<circle clip-path="url(#clip282)" cx="1453.04" cy="1156.57" r="14.4" fill="#009af9" fill-rule="evenodd" fill-opacity="1" stroke="#000000" stroke-opacity="1" stroke-width="3.84"/>
<circle clip-path="url(#clip282)" cx="1067.82" cy="998.467" r="14.4" fill="#009af9" fill-rule="evenodd" fill-opacity="1" stroke="#000000" stroke-opacity="1" stroke-width="3.84"/>
<circle clip-path="url(#clip282)" cx="1097.61" cy="905.358" r="14.4" fill="#009af9" fill-rule="evenodd" fill-opacity="1" stroke="#000000" stroke-opacity="1" stroke-width="3.84"/>
<circle clip-path="url(#clip282)" cx="1429.65" cy="927.318" r="14.4" fill="#009af9" fill-rule="evenodd" fill-opacity="1" stroke="#000000" stroke-opacity="1" stroke-width="3.84"/>
<circle clip-path="url(#clip282)" cx="1273.15" cy="977.537" r="14.4" fill="#009af9" fill-rule="evenodd" fill-opacity="1" stroke="#000000" stroke-opacity="1" stroke-width="3.84"/>
<circle clip-path="url(#clip282)" cx="1410.33" cy="954.977" r="14.4" fill="#009af9" fill-rule="evenodd" fill-opacity="1" stroke="#000000" stroke-opacity="1" stroke-width="3.84"/>
<circle clip-path="url(#clip282)" cx="1396.25" cy="1243.88" r="14.4" fill="#009af9" fill-rule="evenodd" fill-opacity="1" stroke="#000000" stroke-opacity="1" stroke-width="3.84"/>
<circle clip-path="url(#clip282)" cx="1554.22" cy="1169.61" r="14.4" fill="#009af9" fill-rule="evenodd" fill-opacity="1" stroke="#000000" stroke-opacity="1" stroke-width="3.84"/>
<circle clip-path="url(#clip282)" cx="1520.65" cy="830.281" r="14.4" fill="#009af9" fill-rule="evenodd" fill-opacity="1" stroke="#000000" stroke-opacity="1" stroke-width="3.84"/>
<circle clip-path="url(#clip282)" cx="1278.4" cy="707.018" r="14.4" fill="#009af9" fill-rule="evenodd" fill-opacity="1" stroke="#000000" stroke-opacity="1" stroke-width="3.84"/>
<circle clip-path="url(#clip282)" cx="1375.71" cy="792.65" r="14.4" fill="#009af9" fill-rule="evenodd" fill-opacity="1" stroke="#000000" stroke-opacity="1" stroke-width="3.84"/>
<circle clip-path="url(#clip282)" cx="1275.84" cy="705.761" r="14.4" fill="#009af9" fill-rule="evenodd" fill-opacity="1" stroke="#000000" stroke-opacity="1" stroke-width="3.84"/>
<circle clip-path="url(#clip282)" cx="885.302" cy="594.12" r="14.4" fill="#009af9" fill-rule="evenodd" fill-opacity="1" stroke="#000000" stroke-opacity="1" stroke-width="3.84"/>
<circle clip-path="url(#clip282)" cx="1222.25" cy="703.149" r="14.4" fill="#009af9" fill-rule="evenodd" fill-opacity="1" stroke="#000000" stroke-opacity="1" stroke-width="3.84"/>
<circle clip-path="url(#clip282)" cx="1885.84" cy="1266.98" r="14.4" fill="#009af9" fill-rule="evenodd" fill-opacity="1" stroke="#000000" stroke-opacity="1" stroke-width="3.84"/>
<circle clip-path="url(#clip282)" cx="1358.71" cy="712.986" r="14.4" fill="#009af9" fill-rule="evenodd" fill-opacity="1" stroke="#000000" stroke-opacity="1" stroke-width="3.84"/>
<circle clip-path="url(#clip282)" cx="1304.53" cy="768.024" r="14.4" fill="#009af9" fill-rule="evenodd" fill-opacity="1" stroke="#000000" stroke-opacity="1" stroke-width="3.84"/>
<circle clip-path="url(#clip282)" cx="977.38" cy="1053.62" r="14.4" fill="#009af9" fill-rule="evenodd" fill-opacity="1" stroke="#000000" stroke-opacity="1" stroke-width="3.84"/>
<circle clip-path="url(#clip282)" cx="1303.08" cy="1132.66" r="14.4" fill="#009af9" fill-rule="evenodd" fill-opacity="1" stroke="#000000" stroke-opacity="1" stroke-width="3.84"/>
<circle clip-path="url(#clip282)" cx="1599.11" cy="697.235" r="14.4" fill="#009af9" fill-rule="evenodd" fill-opacity="1" stroke="#000000" stroke-opacity="1" stroke-width="3.84"/>
<circle clip-path="url(#clip282)" cx="1940.87" cy="777.182" r="14.4" fill="#009af9" fill-rule="evenodd" fill-opacity="1" stroke="#000000" stroke-opacity="1" stroke-width="3.84"/>
<circle clip-path="url(#clip282)" cx="1681.78" cy="851.335" r="14.4" fill="#009af9" fill-rule="evenodd" fill-opacity="1" stroke="#000000" stroke-opacity="1" stroke-width="3.84"/>
<circle clip-path="url(#clip282)" cx="1568.45" cy="1334.8" r="14.4" fill="#009af9" fill-rule="evenodd" fill-opacity="1" stroke="#000000" stroke-opacity="1" stroke-width="3.84"/>
<circle clip-path="url(#clip282)" cx="1109.66" cy="951.122" r="14.4" fill="#009af9" fill-rule="evenodd" fill-opacity="1" stroke="#000000" stroke-opacity="1" stroke-width="3.84"/>
<circle clip-path="url(#clip282)" cx="1685.64" cy="913.698" r="14.4" fill="#009af9" fill-rule="evenodd" fill-opacity="1" stroke="#000000" stroke-opacity="1" stroke-width="3.84"/>
<circle clip-path="url(#clip282)" cx="1538.35" cy="761.178" r="14.4" fill="#009af9" fill-rule="evenodd" fill-opacity="1" stroke="#000000" stroke-opacity="1" stroke-width="3.84"/>
<circle clip-path="url(#clip282)" cx="1543.78" cy="840.299" r="14.4" fill="#009af9" fill-rule="evenodd" fill-opacity="1" stroke="#000000" stroke-opacity="1" stroke-width="3.84"/>
<circle clip-path="url(#clip282)" cx="1213.12" cy="368.364" r="14.4" fill="#009af9" fill-rule="evenodd" fill-opacity="1" stroke="#000000" stroke-opacity="1" stroke-width="3.84"/>
<circle clip-path="url(#clip282)" cx="1605.92" cy="1163.31" r="14.4" fill="#009af9" fill-rule="evenodd" fill-opacity="1" stroke="#000000" stroke-opacity="1" stroke-width="3.84"/>
<circle clip-path="url(#clip282)" cx="1106.98" cy="928.64" r="14.4" fill="#009af9" fill-rule="evenodd" fill-opacity="1" stroke="#000000" stroke-opacity="1" stroke-width="3.84"/>
<circle clip-path="url(#clip282)" cx="1942.63" cy="576.602" r="14.4" fill="#009af9" fill-rule="evenodd" fill-opacity="1" stroke="#000000" stroke-opacity="1" stroke-width="3.84"/>
<circle clip-path="url(#clip282)" cx="1740.39" cy="987.54" r="14.4" fill="#009af9" fill-rule="evenodd" fill-opacity="1" stroke="#000000" stroke-opacity="1" stroke-width="3.84"/>
<circle clip-path="url(#clip282)" cx="1149.59" cy="551.61" r="14.4" fill="#009af9" fill-rule="evenodd" fill-opacity="1" stroke="#000000" stroke-opacity="1" stroke-width="3.84"/>
<circle clip-path="url(#clip282)" cx="1185.6" cy="656.156" r="14.4" fill="#009af9" fill-rule="evenodd" fill-opacity="1" stroke="#000000" stroke-opacity="1" stroke-width="3.84"/>
<circle clip-path="url(#clip282)" cx="1757.74" cy="547.548" r="14.4" fill="#009af9" fill-rule="evenodd" fill-opacity="1" stroke="#000000" stroke-opacity="1" stroke-width="3.84"/>
<circle clip-path="url(#clip282)" cx="1532.57" cy="1025.16" r="14.4" fill="#009af9" fill-rule="evenodd" fill-opacity="1" stroke="#000000" stroke-opacity="1" stroke-width="3.84"/>
<circle clip-path="url(#clip282)" cx="1552.72" cy="698.56" r="14.4" fill="#009af9" fill-rule="evenodd" fill-opacity="1" stroke="#000000" stroke-opacity="1" stroke-width="3.84"/>
<circle clip-path="url(#clip282)" cx="1624.25" cy="558.135" r="14.4" fill="#009af9" fill-rule="evenodd" fill-opacity="1" stroke="#000000" stroke-opacity="1" stroke-width="3.84"/>
<circle clip-path="url(#clip282)" cx="1286.19" cy="891.676" r="14.4" fill="#009af9" fill-rule="evenodd" fill-opacity="1" stroke="#000000" stroke-opacity="1" stroke-width="3.84"/>
<circle clip-path="url(#clip282)" cx="1797.76" cy="1429.42" r="14.4" fill="#009af9" fill-rule="evenodd" fill-opacity="1" stroke="#000000" stroke-opacity="1" stroke-width="3.84"/>
<circle clip-path="url(#clip282)" cx="1674.97" cy="497.046" r="14.4" fill="#009af9" fill-rule="evenodd" fill-opacity="1" stroke="#000000" stroke-opacity="1" stroke-width="3.84"/>
<circle clip-path="url(#clip282)" cx="1154.84" cy="775.976" r="14.4" fill="#009af9" fill-rule="evenodd" fill-opacity="1" stroke="#000000" stroke-opacity="1" stroke-width="3.84"/>
<circle clip-path="url(#clip282)" cx="908.935" cy="1239.38" r="14.4" fill="#009af9" fill-rule="evenodd" fill-opacity="1" stroke="#000000" stroke-opacity="1" stroke-width="3.84"/>
<circle clip-path="url(#clip282)" cx="1405.62" cy="1198.96" r="14.4" fill="#009af9" fill-rule="evenodd" fill-opacity="1" stroke="#000000" stroke-opacity="1" stroke-width="3.84"/>
<circle clip-path="url(#clip282)" cx="1518.36" cy="1214.84" r="14.4" fill="#009af9" fill-rule="evenodd" fill-opacity="1" stroke="#000000" stroke-opacity="1" stroke-width="3.84"/>
<circle clip-path="url(#clip282)" cx="1166.66" cy="1132.05" r="14.4" fill="#009af9" fill-rule="evenodd" fill-opacity="1" stroke="#000000" stroke-opacity="1" stroke-width="3.84"/>
<circle clip-path="url(#clip282)" cx="1749.82" cy="1314.39" r="14.4" fill="#009af9" fill-rule="evenodd" fill-opacity="1" stroke="#000000" stroke-opacity="1" stroke-width="3.84"/>
<circle clip-path="url(#clip282)" cx="1035.19" cy="1272.12" r="14.4" fill="#009af9" fill-rule="evenodd" fill-opacity="1" stroke="#000000" stroke-opacity="1" stroke-width="3.84"/>
<circle clip-path="url(#clip282)" cx="1209.62" cy="1319.52" r="14.4" fill="#009af9" fill-rule="evenodd" fill-opacity="1" stroke="#000000" stroke-opacity="1" stroke-width="3.84"/>
<circle clip-path="url(#clip282)" cx="1714.32" cy="649.372" r="14.4" fill="#009af9" fill-rule="evenodd" fill-opacity="1" stroke="#000000" stroke-opacity="1" stroke-width="3.84"/>
<circle clip-path="url(#clip282)" cx="1623.28" cy="1437.06" r="14.4" fill="#009af9" fill-rule="evenodd" fill-opacity="1" stroke="#000000" stroke-opacity="1" stroke-width="3.84"/>
<circle clip-path="url(#clip282)" cx="1977.78" cy="584.097" r="14.4" fill="#009af9" fill-rule="evenodd" fill-opacity="1" stroke="#000000" stroke-opacity="1" stroke-width="3.84"/>
<circle clip-path="url(#clip282)" cx="1226.18" cy="1297.49" r="14.4" fill="#009af9" fill-rule="evenodd" fill-opacity="1" stroke="#000000" stroke-opacity="1" stroke-width="3.84"/>
<circle clip-path="url(#clip282)" cx="1332.43" cy="476.079" r="14.4" fill="#009af9" fill-rule="evenodd" fill-opacity="1" stroke="#000000" stroke-opacity="1" stroke-width="3.84"/>
<circle clip-path="url(#clip282)" cx="1157.52" cy="913.324" r="14.4" fill="#009af9" fill-rule="evenodd" fill-opacity="1" stroke="#000000" stroke-opacity="1" stroke-width="3.84"/>
<circle clip-path="url(#clip282)" cx="1446.45" cy="1181.32" r="14.4" fill="#009af9" fill-rule="evenodd" fill-opacity="1" stroke="#000000" stroke-opacity="1" stroke-width="3.84"/>
<circle clip-path="url(#clip282)" cx="1532.18" cy="432.064" r="14.4" fill="#009af9" fill-rule="evenodd" fill-opacity="1" stroke="#000000" stroke-opacity="1" stroke-width="3.84"/>
<circle clip-path="url(#clip282)" cx="1839.96" cy="540.721" r="14.4" fill="#009af9" fill-rule="evenodd" fill-opacity="1" stroke="#000000" stroke-opacity="1" stroke-width="3.84"/>
<circle clip-path="url(#clip282)" cx="1259.3" cy="1372.9" r="14.4" fill="#009af9" fill-rule="evenodd" fill-opacity="1" stroke="#000000" stroke-opacity="1" stroke-width="3.84"/>
<circle clip-path="url(#clip282)" cx="1121.73" cy="946.699" r="14.4" fill="#009af9" fill-rule="evenodd" fill-opacity="1" stroke="#000000" stroke-opacity="1" stroke-width="3.84"/>
<circle clip-path="url(#clip282)" cx="1130.94" cy="1204.66" r="14.4" fill="#009af9" fill-rule="evenodd" fill-opacity="1" stroke="#000000" stroke-opacity="1" stroke-width="3.84"/>
<circle clip-path="url(#clip282)" cx="968.703" cy="1007.02" r="14.4" fill="#009af9" fill-rule="evenodd" fill-opacity="1" stroke="#000000" stroke-opacity="1" stroke-width="3.84"/>
<circle clip-path="url(#clip282)" cx="1629.6" cy="678.749" r="14.4" fill="#009af9" fill-rule="evenodd" fill-opacity="1" stroke="#000000" stroke-opacity="1" stroke-width="3.84"/>
<circle clip-path="url(#clip282)" cx="1159.71" cy="1103.77" r="14.4" fill="#009af9" fill-rule="evenodd" fill-opacity="1" stroke="#000000" stroke-opacity="1" stroke-width="3.84"/>
<circle clip-path="url(#clip282)" cx="1262.54" cy="958.59" r="14.4" fill="#009af9" fill-rule="evenodd" fill-opacity="1" stroke="#000000" stroke-opacity="1" stroke-width="3.84"/>
<circle clip-path="url(#clip282)" cx="1483.39" cy="1082.67" r="14.4" fill="#009af9" fill-rule="evenodd" fill-opacity="1" stroke="#000000" stroke-opacity="1" stroke-width="3.84"/>
<circle clip-path="url(#clip282)" cx="1373.38" cy="780.414" r="14.4" fill="#009af9" fill-rule="evenodd" fill-opacity="1" stroke="#000000" stroke-opacity="1" stroke-width="3.84"/>
<circle clip-path="url(#clip282)" cx="1525.38" cy="983.682" r="14.4" fill="#009af9" fill-rule="evenodd" fill-opacity="1" stroke="#000000" stroke-opacity="1" stroke-width="3.84"/>
<circle clip-path="url(#clip282)" cx="1242.52" cy="934.427" r="14.4" fill="#009af9" fill-rule="evenodd" fill-opacity="1" stroke="#000000" stroke-opacity="1" stroke-width="3.84"/>
<circle clip-path="url(#clip282)" cx="1781.96" cy="1361.07" r="14.4" fill="#009af9" fill-rule="evenodd" fill-opacity="1" stroke="#000000" stroke-opacity="1" stroke-width="3.84"/>
<circle clip-path="url(#clip282)" cx="1526.65" cy="764.108" r="14.4" fill="#009af9" fill-rule="evenodd" fill-opacity="1" stroke="#000000" stroke-opacity="1" stroke-width="3.84"/>
<circle clip-path="url(#clip282)" cx="1014.53" cy="1091.81" r="14.4" fill="#009af9" fill-rule="evenodd" fill-opacity="1" stroke="#000000" stroke-opacity="1" stroke-width="3.84"/>
<circle clip-path="url(#clip282)" cx="1607.87" cy="1528.4" r="14.4" fill="#009af9" fill-rule="evenodd" fill-opacity="1" stroke="#000000" stroke-opacity="1" stroke-width="3.84"/>
<circle clip-path="url(#clip282)" cx="1456.69" cy="460.101" r="14.4" fill="#009af9" fill-rule="evenodd" fill-opacity="1" stroke="#000000" stroke-opacity="1" stroke-width="3.84"/>
<circle clip-path="url(#clip282)" cx="1229.6" cy="594.609" r="14.4" fill="#009af9" fill-rule="evenodd" fill-opacity="1" stroke="#000000" stroke-opacity="1" stroke-width="3.84"/>
<circle clip-path="url(#clip282)" cx="1199.47" cy="671.426" r="14.4" fill="#009af9" fill-rule="evenodd" fill-opacity="1" stroke="#000000" stroke-opacity="1" stroke-width="3.84"/>
<circle clip-path="url(#clip282)" cx="1148.16" cy="904.197" r="14.4" fill="#009af9" fill-rule="evenodd" fill-opacity="1" stroke="#000000" stroke-opacity="1" stroke-width="3.84"/>
<circle clip-path="url(#clip282)" cx="962.533" cy="821.414" r="14.4" fill="#009af9" fill-rule="evenodd" fill-opacity="1" stroke="#000000" stroke-opacity="1" stroke-width="3.84"/>
<path clip-path="url(#clip280)" d="
M2234.21 209.375 L2559.04 209.375 L2559.04 105.695 L2234.21 105.695  Z
  " fill="#ffffff" fill-rule="evenodd" fill-opacity="1"/>
<polyline clip-path="url(#clip280)" style="stroke:#000000; stroke-linecap:round; stroke-linejoin:round; stroke-width:4; stroke-opacity:1; fill:none" points="
  2234.21,209.375 2559.04,209.375 2559.04,105.695 2234.21,105.695 2234.21,209.375 
  "/>
<circle clip-path="url(#clip280)" cx="2343.17" cy="157.535" r="23.04" fill="#009af9" fill-rule="evenodd" fill-opacity="1" stroke="#000000" stroke-opacity="1" stroke-width="6.144"/>
<path clip-path="url(#clip280)" d="M2465.97 177.223 Q2464.16 181.852 2462.45 183.264 Q2460.74 184.676 2457.87 184.676 L2454.46 184.676 L2454.46 181.112 L2456.96 181.112 Q2458.72 181.112 2459.69 180.278 Q2460.67 179.445 2461.85 176.343 L2462.61 174.399 L2452.13 148.889 L2456.64 148.889 L2464.74 169.167 L2472.84 148.889 L2477.36 148.889 L2465.97 177.223 Z" fill="#000000" fill-rule="evenodd" fill-opacity="1" /><path clip-path="url(#clip280)" d="M2484.65 170.88 L2492.29 170.88 L2492.29 144.515 L2483.98 146.181 L2483.98 141.922 L2492.24 140.255 L2496.92 140.255 L2496.92 170.88 L2504.56 170.88 L2504.56 174.815 L2484.65 174.815 L2484.65 170.88 Z" fill="#000000" fill-rule="evenodd" fill-opacity="1" /></svg>
