<?xml version="1.0" encoding="utf-8"?>
<svg xmlns="http://www.w3.org/2000/svg" xmlns:xlink="http://www.w3.org/1999/xlink" width="672" height="480" viewBox="0 0 2688 1920">
<defs>
  <clipPath id="clip950">
    <rect x="0" y="0" width="2688" height="1920"/>
  </clipPath>
</defs>
<path clip-path="url(#clip950)" d="M0 1920 L2688 1920 L2688 0 L0 0  Z" fill="#ffffff" fill-rule="evenodd" fill-opacity="1"/>
<defs>
  <clipPath id="clip951">
    <rect x="537" y="0" width="1883" height="1883"/>
  </clipPath>
</defs>
<path clip-path="url(#clip950)" d="M196.816 1800.78 L2640.76 1800.78 L2640.76 127.792 L196.816 127.792  Z" fill="#ffffff" fill-rule="evenodd" fill-opacity="1"/>
<defs>
  <clipPath id="clip952">
    <rect x="196" y="127" width="2445" height="1674"/>
  </clipPath>
</defs>
<path clip-path="url(#clip950)" d="M285.748 72.576 L262.658 12.096 L271.205 12.096 L290.366 63.0159 L309.567 12.096 L318.074 12.096 L295.025 72.576 L285.748 72.576 Z" fill="#000000" fill-rule="nonzero" fill-opacity="1" /><path clip-path="url(#clip950)" d="M337.721 32.4315 Q331.726 32.4315 328.242 37.1306 Q324.758 41.7891 324.758 49.9314 Q324.758 58.0738 328.202 62.7728 Q331.685 67.4314 337.721 67.4314 Q343.676 67.4314 347.16 62.7323 Q350.644 58.0333 350.644 49.9314 Q350.644 41.8701 347.16 37.1711 Q343.676 32.4315 337.721 32.4315 M337.721 26.1121 Q347.443 26.1121 352.993 32.4315 Q358.543 38.7509 358.543 49.9314 Q358.543 61.0714 352.993 67.4314 Q347.443 73.7508 337.721 73.7508 Q327.958 73.7508 322.409 67.4314 Q316.899 61.0714 316.899 49.9314 Q316.899 38.7509 322.409 32.4315 Q327.958 26.1121 337.721 26.1121 Z" fill="#000000" fill-rule="nonzero" fill-opacity="1" /><path clip-path="url(#clip950)" d="M370.898 9.54393 L378.352 9.54393 L378.352 72.576 L370.898 72.576 L370.898 9.54393 Z" fill="#000000" fill-rule="nonzero" fill-opacity="1" /><path clip-path="url(#clip950)" d="M393.178 54.671 L393.178 27.2059 L400.632 27.2059 L400.632 54.3874 Q400.632 60.8284 403.143 64.0691 Q405.655 67.2693 410.678 67.2693 Q416.714 67.2693 420.198 63.421 Q423.722 59.5726 423.722 52.9291 L423.722 27.2059 L431.176 27.2059 L431.176 72.576 L423.722 72.576 L423.722 65.6084 Q421.008 69.7404 417.402 71.7658 Q413.838 73.7508 409.098 73.7508 Q401.28 73.7508 397.229 68.8897 Q393.178 64.0286 393.178 54.671 M411.934 26.1121 L411.934 26.1121 Z" fill="#000000" fill-rule="nonzero" fill-opacity="1" /><path clip-path="url(#clip950)" d="M481.852 35.9153 Q484.647 30.8922 488.536 28.5022 Q492.425 26.1121 497.691 26.1121 Q504.78 26.1121 508.629 31.0947 Q512.477 36.0368 512.477 45.1919 L512.477 72.576 L504.983 72.576 L504.983 45.4349 Q504.983 38.913 502.674 35.7533 Q500.365 32.5936 495.625 32.5936 Q489.833 32.5936 486.47 36.4419 Q483.108 40.2903 483.108 46.9338 L483.108 72.576 L475.614 72.576 L475.614 45.4349 Q475.614 38.8725 473.305 35.7533 Q470.996 32.5936 466.175 32.5936 Q460.464 32.5936 457.101 36.4824 Q453.739 40.3308 453.739 46.9338 L453.739 72.576 L446.245 72.576 L446.245 27.2059 L453.739 27.2059 L453.739 34.2544 Q456.291 30.082 459.856 28.0971 Q463.421 26.1121 468.322 26.1121 Q473.264 26.1121 476.708 28.6237 Q480.191 31.1352 481.852 35.9153 Z" fill="#000000" fill-rule="nonzero" fill-opacity="1" /><path clip-path="url(#clip950)" d="M566.152 48.0275 L566.152 51.6733 L531.881 51.6733 Q532.367 59.3701 536.499 63.421 Q540.671 67.4314 548.085 67.4314 Q552.379 67.4314 556.389 66.3781 Q560.44 65.3249 564.41 63.2184 L564.41 70.267 Q560.399 71.9684 556.186 72.8596 Q551.973 73.7508 547.639 73.7508 Q536.783 73.7508 530.423 67.4314 Q524.103 61.1119 524.103 50.3365 Q524.103 39.1965 530.099 32.6746 Q536.134 26.1121 546.343 26.1121 Q555.498 26.1121 560.804 32.0264 Q566.152 37.9003 566.152 48.0275 M558.698 45.84 Q558.617 39.7232 555.255 36.0774 Q551.933 32.4315 546.424 32.4315 Q540.185 32.4315 536.418 35.9558 Q532.691 39.4801 532.124 45.8805 L558.698 45.84 Z" fill="#000000" fill-rule="nonzero" fill-opacity="1" /><path clip-path="url(#clip950)" d="M631.047 34.1734 Q629.791 33.4443 628.293 33.1202 Q626.834 32.7556 625.052 32.7556 Q618.732 32.7556 615.33 36.8875 Q611.967 40.9789 611.967 48.6757 L611.967 72.576 L604.473 72.576 L604.473 27.2059 L611.967 27.2059 L611.967 34.2544 Q614.317 30.1225 618.084 28.1376 Q621.852 26.1121 627.239 26.1121 Q628.009 26.1121 628.941 26.2337 Q629.872 26.3147 631.007 26.5172 L631.047 34.1734 Z" fill="#000000" fill-rule="nonzero" fill-opacity="1" /><path clip-path="url(#clip950)" d="M659.484 49.7694 Q650.451 49.7694 646.967 51.8354 Q643.483 53.9013 643.483 58.8839 Q643.483 62.8538 646.076 65.2034 Q648.709 67.5124 653.206 67.5124 Q659.403 67.5124 663.13 63.1374 Q666.898 58.7219 666.898 51.4303 L666.898 49.7694 L659.484 49.7694 M674.351 46.6907 L674.351 72.576 L666.898 72.576 L666.898 65.6895 Q664.346 69.8214 660.538 71.8063 Q656.73 73.7508 651.221 73.7508 Q644.253 73.7508 640.121 69.8619 Q636.03 65.9325 636.03 59.3701 Q636.03 51.7138 641.134 47.825 Q646.279 43.9361 656.446 43.9361 L666.898 43.9361 L666.898 43.2069 Q666.898 38.0623 663.495 35.2672 Q660.133 32.4315 654.016 32.4315 Q650.127 32.4315 646.441 33.3632 Q642.754 34.295 639.351 36.1584 L639.351 29.2718 Q643.443 27.692 647.291 26.9223 Q651.14 26.1121 654.785 26.1121 Q664.629 26.1121 669.49 31.2163 Q674.351 36.3204 674.351 46.6907 Z" fill="#000000" fill-rule="nonzero" fill-opacity="1" /><path clip-path="url(#clip950)" d="M697.077 14.324 L697.077 27.2059 L712.43 27.2059 L712.43 32.9987 L697.077 32.9987 L697.077 57.6282 Q697.077 63.1779 698.576 64.7578 Q700.115 66.3376 704.774 66.3376 L712.43 66.3376 L712.43 72.576 L704.774 72.576 Q696.145 72.576 692.864 69.3758 Q689.583 66.1351 689.583 57.6282 L689.583 32.9987 L684.114 32.9987 L684.114 27.2059 L689.583 27.2059 L689.583 14.324 L697.077 14.324 Z" fill="#000000" fill-rule="nonzero" fill-opacity="1" /><path clip-path="url(#clip950)" d="M722.233 27.2059 L729.687 27.2059 L729.687 72.576 L722.233 72.576 L722.233 27.2059 M722.233 9.54393 L729.687 9.54393 L729.687 18.9825 L722.233 18.9825 L722.233 9.54393 Z" fill="#000000" fill-rule="nonzero" fill-opacity="1" /><path clip-path="url(#clip950)" d="M762.864 32.4315 Q756.868 32.4315 753.384 37.1306 Q749.901 41.7891 749.901 49.9314 Q749.901 58.0738 753.344 62.7728 Q756.828 67.4314 762.864 67.4314 Q768.818 67.4314 772.302 62.7323 Q775.786 58.0333 775.786 49.9314 Q775.786 41.8701 772.302 37.1711 Q768.818 32.4315 762.864 32.4315 M762.864 26.1121 Q772.586 26.1121 778.135 32.4315 Q783.685 38.7509 783.685 49.9314 Q783.685 61.0714 778.135 67.4314 Q772.586 73.7508 762.864 73.7508 Q753.101 73.7508 747.551 67.4314 Q742.042 61.0714 742.042 49.9314 Q742.042 38.7509 747.551 32.4315 Q753.101 26.1121 762.864 26.1121 Z" fill="#000000" fill-rule="nonzero" fill-opacity="1" /><path clip-path="url(#clip950)" d="M839.993 32.4315 Q833.997 32.4315 830.514 37.1306 Q827.03 41.7891 827.03 49.9314 Q827.03 58.0738 830.473 62.7728 Q833.957 67.4314 839.993 67.4314 Q845.948 67.4314 849.431 62.7323 Q852.915 58.0333 852.915 49.9314 Q852.915 41.8701 849.431 37.1711 Q845.948 32.4315 839.993 32.4315 M839.993 26.1121 Q849.715 26.1121 855.265 32.4315 Q860.814 38.7509 860.814 49.9314 Q860.814 61.0714 855.265 67.4314 Q849.715 73.7508 839.993 73.7508 Q830.23 73.7508 824.68 67.4314 Q819.171 61.0714 819.171 49.9314 Q819.171 38.7509 824.68 32.4315 Q830.23 26.1121 839.993 26.1121 Z" fill="#000000" fill-rule="nonzero" fill-opacity="1" /><path clip-path="url(#clip950)" d="M896.138 9.54393 L896.138 15.7418 L889.009 15.7418 Q884.998 15.7418 883.418 17.3622 Q881.879 18.9825 881.879 23.1955 L881.879 27.2059 L894.153 27.2059 L894.153 32.9987 L881.879 32.9987 L881.879 72.576 L874.385 72.576 L874.385 32.9987 L867.255 32.9987 L867.255 27.2059 L874.385 27.2059 L874.385 24.0462 Q874.385 16.471 877.909 13.0277 Q881.434 9.54393 889.09 9.54393 L896.138 9.54393 Z" fill="#000000" fill-rule="nonzero" fill-opacity="1" /><path clip-path="url(#clip950)" d="M949.367 49.7694 Q940.334 49.7694 936.85 51.8354 Q933.366 53.9013 933.366 58.8839 Q933.366 62.8538 935.959 65.2034 Q938.592 67.5124 943.088 67.5124 Q949.286 67.5124 953.013 63.1374 Q956.78 58.7219 956.78 51.4303 L956.78 49.7694 L949.367 49.7694 M964.234 46.6907 L964.234 72.576 L956.78 72.576 L956.78 65.6895 Q954.228 69.8214 950.42 71.8063 Q946.613 73.7508 941.103 73.7508 Q934.136 73.7508 930.004 69.8619 Q925.912 65.9325 925.912 59.3701 Q925.912 51.7138 931.017 47.825 Q936.161 43.9361 946.329 43.9361 L956.78 43.9361 L956.78 43.2069 Q956.78 38.0623 953.378 35.2672 Q950.015 32.4315 943.898 32.4315 Q940.01 32.4315 936.323 33.3632 Q932.637 34.295 929.234 36.1584 L929.234 29.2718 Q933.326 27.692 937.174 26.9223 Q941.022 26.1121 944.668 26.1121 Q954.512 26.1121 959.373 31.2163 Q964.234 36.3204 964.234 46.6907 Z" fill="#000000" fill-rule="nonzero" fill-opacity="1" /><path clip-path="url(#clip950)" d="M986.96 14.324 L986.96 27.2059 L1002.31 27.2059 L1002.31 32.9987 L986.96 32.9987 L986.96 57.6282 Q986.96 63.1779 988.458 64.7578 Q989.998 66.3376 994.656 66.3376 L1002.31 66.3376 L1002.31 72.576 L994.656 72.576 Q986.028 72.576 982.747 69.3758 Q979.465 66.1351 979.465 57.6282 L979.465 32.9987 L973.997 32.9987 L973.997 27.2059 L979.465 27.2059 L979.465 14.324 L986.96 14.324 Z" fill="#000000" fill-rule="nonzero" fill-opacity="1" /><path clip-path="url(#clip950)" d="M1047.44 35.9153 Q1050.23 30.8922 1054.12 28.5022 Q1058.01 26.1121 1063.28 26.1121 Q1070.37 26.1121 1074.22 31.0947 Q1078.06 36.0368 1078.06 45.1919 L1078.06 72.576 L1070.57 72.576 L1070.57 45.4349 Q1070.57 38.913 1068.26 35.7533 Q1065.95 32.5936 1061.21 32.5936 Q1055.42 32.5936 1052.06 36.4419 Q1048.7 40.2903 1048.7 46.9338 L1048.7 72.576 L1041.2 72.576 L1041.2 45.4349 Q1041.2 38.8725 1038.89 35.7533 Q1036.58 32.5936 1031.76 32.5936 Q1026.05 32.5936 1022.69 36.4824 Q1019.33 40.3308 1019.33 46.9338 L1019.33 72.576 L1011.83 72.576 L1011.83 27.2059 L1019.33 27.2059 L1019.33 34.2544 Q1021.88 30.082 1025.44 28.0971 Q1029.01 26.1121 1033.91 26.1121 Q1038.85 26.1121 1042.29 28.6237 Q1045.78 31.1352 1047.44 35.9153 Z" fill="#000000" fill-rule="nonzero" fill-opacity="1" /><path clip-path="url(#clip950)" d="M1110.51 32.4315 Q1104.52 32.4315 1101.03 37.1306 Q1097.55 41.7891 1097.55 49.9314 Q1097.55 58.0738 1100.99 62.7728 Q1104.48 67.4314 1110.51 67.4314 Q1116.47 67.4314 1119.95 62.7323 Q1123.43 58.0333 1123.43 49.9314 Q1123.43 41.8701 1119.95 37.1711 Q1116.47 32.4315 1110.51 32.4315 M1110.51 26.1121 Q1120.23 26.1121 1125.78 32.4315 Q1131.33 38.7509 1131.33 49.9314 Q1131.33 61.0714 1125.78 67.4314 Q1120.23 73.7508 1110.51 73.7508 Q1100.75 73.7508 1095.2 67.4314 Q1089.69 61.0714 1089.69 49.9314 Q1089.69 38.7509 1095.2 32.4315 Q1100.75 26.1121 1110.51 26.1121 Z" fill="#000000" fill-rule="nonzero" fill-opacity="1" /><path clip-path="url(#clip950)" d="M1172.61 28.5427 L1172.61 35.5912 Q1169.45 33.9709 1166.05 33.1607 Q1162.65 32.3505 1159 32.3505 Q1153.45 32.3505 1150.66 34.0519 Q1147.9 35.7533 1147.9 39.156 Q1147.9 41.7486 1149.89 43.2475 Q1151.87 44.7058 1157.87 46.0426 L1160.42 46.6097 Q1168.36 48.3111 1171.68 51.4303 Q1175.04 54.509 1175.04 60.0587 Q1175.04 66.3781 1170.02 70.0644 Q1165.04 73.7508 1156.29 73.7508 Q1152.64 73.7508 1148.67 73.0216 Q1144.74 72.3329 1140.37 70.9151 L1140.37 63.2184 Q1144.5 65.3654 1148.51 66.4591 Q1152.52 67.5124 1156.45 67.5124 Q1161.72 67.5124 1164.55 65.73 Q1167.39 63.9071 1167.39 60.6258 Q1167.39 57.5877 1165.32 55.9673 Q1163.3 54.3469 1156.37 52.8481 L1153.78 52.2405 Q1146.85 50.7821 1143.77 47.7845 Q1140.69 44.7463 1140.69 39.4801 Q1140.69 33.0797 1145.23 29.5959 Q1149.77 26.1121 1158.11 26.1121 Q1162.24 26.1121 1165.89 26.7198 Q1169.53 27.3274 1172.61 28.5427 Z" fill="#000000" fill-rule="nonzero" fill-opacity="1" /><path clip-path="url(#clip950)" d="M1194.12 65.7705 L1194.12 89.8329 L1186.63 89.8329 L1186.63 27.2059 L1194.12 27.2059 L1194.12 34.0924 Q1196.47 30.0415 1200.04 28.0971 Q1203.64 26.1121 1208.63 26.1121 Q1216.89 26.1121 1222.03 32.6746 Q1227.22 39.2371 1227.22 49.9314 Q1227.22 60.6258 1222.03 67.1883 Q1216.89 73.7508 1208.63 73.7508 Q1203.64 73.7508 1200.04 71.8063 Q1196.47 69.8214 1194.12 65.7705 M1219.48 49.9314 Q1219.48 41.7081 1216.08 37.0496 Q1212.72 32.3505 1206.8 32.3505 Q1200.89 32.3505 1197.49 37.0496 Q1194.12 41.7081 1194.12 49.9314 Q1194.12 58.1548 1197.49 62.8538 Q1200.89 67.5124 1206.8 67.5124 Q1212.72 67.5124 1216.08 62.8538 Q1219.48 58.1548 1219.48 49.9314 Z" fill="#000000" fill-rule="nonzero" fill-opacity="1" /><path clip-path="url(#clip950)" d="M1277.29 45.1919 L1277.29 72.576 L1269.83 72.576 L1269.83 45.4349 Q1269.83 38.994 1267.32 35.7938 Q1264.81 32.5936 1259.79 32.5936 Q1253.75 32.5936 1250.27 36.4419 Q1246.78 40.2903 1246.78 46.9338 L1246.78 72.576 L1239.29 72.576 L1239.29 9.54393 L1246.78 9.54393 L1246.78 34.2544 Q1249.46 30.163 1253.06 28.1376 Q1256.71 26.1121 1261.45 26.1121 Q1269.27 26.1121 1273.28 30.9732 Q1277.29 35.7938 1277.29 45.1919 Z" fill="#000000" fill-rule="nonzero" fill-opacity="1" /><path clip-path="url(#clip950)" d="M1330.96 48.0275 L1330.96 51.6733 L1296.69 51.6733 Q1297.18 59.3701 1301.31 63.421 Q1305.48 67.4314 1312.9 67.4314 Q1317.19 67.4314 1321.2 66.3781 Q1325.25 65.3249 1329.22 63.2184 L1329.22 70.267 Q1325.21 71.9684 1321 72.8596 Q1316.78 73.7508 1312.45 73.7508 Q1301.59 73.7508 1295.23 67.4314 Q1288.91 61.1119 1288.91 50.3365 Q1288.91 39.1965 1294.91 32.6746 Q1300.95 26.1121 1311.15 26.1121 Q1320.31 26.1121 1325.62 32.0264 Q1330.96 37.9003 1330.96 48.0275 M1323.51 45.84 Q1323.43 39.7232 1320.07 36.0774 Q1316.74 32.4315 1311.23 32.4315 Q1305 32.4315 1301.23 35.9558 Q1297.5 39.4801 1296.93 45.8805 L1323.51 45.84 Z" fill="#000000" fill-rule="nonzero" fill-opacity="1" /><path clip-path="url(#clip950)" d="M1369.49 34.1734 Q1368.23 33.4443 1366.73 33.1202 Q1365.27 32.7556 1363.49 32.7556 Q1357.17 32.7556 1353.77 36.8875 Q1350.41 40.9789 1350.41 48.6757 L1350.41 72.576 L1342.91 72.576 L1342.91 27.2059 L1350.41 27.2059 L1350.41 34.2544 Q1352.76 30.1225 1356.52 28.1376 Q1360.29 26.1121 1365.68 26.1121 Q1366.45 26.1121 1367.38 26.2337 Q1368.31 26.3147 1369.45 26.5172 L1369.49 34.1734 Z" fill="#000000" fill-rule="nonzero" fill-opacity="1" /><path clip-path="url(#clip950)" d="M1377.3 27.2059 L1384.76 27.2059 L1384.76 72.576 L1377.3 72.576 L1377.3 27.2059 M1377.3 9.54393 L1384.76 9.54393 L1384.76 18.9825 L1377.3 18.9825 L1377.3 9.54393 Z" fill="#000000" fill-rule="nonzero" fill-opacity="1" /><path clip-path="url(#clip950)" d="M1433 28.9478 L1433 35.9153 Q1429.84 34.1734 1426.64 33.3227 Q1423.49 32.4315 1420.24 32.4315 Q1412.99 32.4315 1408.98 37.0496 Q1404.97 41.6271 1404.97 49.9314 Q1404.97 58.2358 1408.98 62.8538 Q1412.99 67.4314 1420.24 67.4314 Q1423.49 67.4314 1426.64 66.5807 Q1429.84 65.6895 1433 63.9476 L1433 70.8341 Q1429.89 72.2924 1426.52 73.0216 Q1423.2 73.7508 1419.43 73.7508 Q1409.19 73.7508 1403.15 67.3098 Q1397.11 60.8689 1397.11 49.9314 Q1397.11 38.832 1403.19 32.472 Q1409.31 26.1121 1419.92 26.1121 Q1423.36 26.1121 1426.64 26.8413 Q1429.93 27.5299 1433 28.9478 Z" fill="#000000" fill-rule="nonzero" fill-opacity="1" /><path clip-path="url(#clip950)" d="M1504.99 28.9478 L1504.99 35.9153 Q1501.83 34.1734 1498.63 33.3227 Q1495.47 32.4315 1492.23 32.4315 Q1484.98 32.4315 1480.97 37.0496 Q1476.96 41.6271 1476.96 49.9314 Q1476.96 58.2358 1480.97 62.8538 Q1484.98 67.4314 1492.23 67.4314 Q1495.47 67.4314 1498.63 66.5807 Q1501.83 65.6895 1504.99 63.9476 L1504.99 70.8341 Q1501.87 72.2924 1498.51 73.0216 Q1495.19 73.7508 1491.42 73.7508 Q1481.17 73.7508 1475.13 67.3098 Q1469.1 60.8689 1469.1 49.9314 Q1469.1 38.832 1475.17 32.472 Q1481.29 26.1121 1491.9 26.1121 Q1495.35 26.1121 1498.63 26.8413 Q1501.91 27.5299 1504.99 28.9478 Z" fill="#000000" fill-rule="nonzero" fill-opacity="1" /><path clip-path="url(#clip950)" d="M1535.53 32.4315 Q1529.54 32.4315 1526.05 37.1306 Q1522.57 41.7891 1522.57 49.9314 Q1522.57 58.0738 1526.01 62.7728 Q1529.5 67.4314 1535.53 67.4314 Q1541.49 67.4314 1544.97 62.7323 Q1548.46 58.0333 1548.46 49.9314 Q1548.46 41.8701 1544.97 37.1711 Q1541.49 32.4315 1535.53 32.4315 M1535.53 26.1121 Q1545.26 26.1121 1550.8 32.4315 Q1556.35 38.7509 1556.35 49.9314 Q1556.35 61.0714 1550.8 67.4314 Q1545.26 73.7508 1535.53 73.7508 Q1525.77 73.7508 1520.22 67.4314 Q1514.71 61.0714 1514.71 49.9314 Q1514.71 38.7509 1520.22 32.4315 Q1525.77 26.1121 1535.53 26.1121 Z" fill="#000000" fill-rule="nonzero" fill-opacity="1" /><path clip-path="url(#clip950)" d="M1604.03 35.9153 Q1606.83 30.8922 1610.72 28.5022 Q1614.61 26.1121 1619.87 26.1121 Q1626.96 26.1121 1630.81 31.0947 Q1634.66 36.0368 1634.66 45.1919 L1634.66 72.576 L1627.16 72.576 L1627.16 45.4349 Q1627.16 38.913 1624.86 35.7533 Q1622.55 32.5936 1617.81 32.5936 Q1612.01 32.5936 1608.65 36.4419 Q1605.29 40.2903 1605.29 46.9338 L1605.29 72.576 L1597.8 72.576 L1597.8 45.4349 Q1597.8 38.8725 1595.49 35.7533 Q1593.18 32.5936 1588.36 32.5936 Q1582.65 32.5936 1579.28 36.4824 Q1575.92 40.3308 1575.92 46.9338 L1575.92 72.576 L1568.43 72.576 L1568.43 27.2059 L1575.92 27.2059 L1575.92 34.2544 Q1578.47 30.082 1582.04 28.0971 Q1585.6 26.1121 1590.5 26.1121 Q1595.45 26.1121 1598.89 28.6237 Q1602.37 31.1352 1604.03 35.9153 Z" fill="#000000" fill-rule="nonzero" fill-opacity="1" /><path clip-path="url(#clip950)" d="M1656.74 65.7705 L1656.74 89.8329 L1649.24 89.8329 L1649.24 27.2059 L1656.74 27.2059 L1656.74 34.0924 Q1659.09 30.0415 1662.65 28.0971 Q1666.26 26.1121 1671.24 26.1121 Q1679.5 26.1121 1684.65 32.6746 Q1689.83 39.2371 1689.83 49.9314 Q1689.83 60.6258 1684.65 67.1883 Q1679.5 73.7508 1671.24 73.7508 Q1666.26 73.7508 1662.65 71.8063 Q1659.09 69.8214 1656.74 65.7705 M1682.09 49.9314 Q1682.09 41.7081 1678.69 37.0496 Q1675.33 32.3505 1669.42 32.3505 Q1663.5 32.3505 1660.1 37.0496 Q1656.74 41.7081 1656.74 49.9314 Q1656.74 58.1548 1660.1 62.8538 Q1663.5 67.5124 1669.42 67.5124 Q1675.33 67.5124 1678.69 62.8538 Q1682.09 58.1548 1682.09 49.9314 Z" fill="#000000" fill-rule="nonzero" fill-opacity="1" /><path clip-path="url(#clip950)" d="M1719.77 32.4315 Q1713.77 32.4315 1710.29 37.1306 Q1706.81 41.7891 1706.81 49.9314 Q1706.81 58.0738 1710.25 62.7728 Q1713.73 67.4314 1719.77 67.4314 Q1725.72 67.4314 1729.21 62.7323 Q1732.69 58.0333 1732.69 49.9314 Q1732.69 41.8701 1729.21 37.1711 Q1725.72 32.4315 1719.77 32.4315 M1719.77 26.1121 Q1729.49 26.1121 1735.04 32.4315 Q1740.59 38.7509 1740.59 49.9314 Q1740.59 61.0714 1735.04 67.4314 Q1729.49 73.7508 1719.77 73.7508 Q1710.01 73.7508 1704.46 67.4314 Q1698.95 61.0714 1698.95 49.9314 Q1698.95 38.7509 1704.46 32.4315 Q1710.01 26.1121 1719.77 26.1121 Z" fill="#000000" fill-rule="nonzero" fill-opacity="1" /><path clip-path="url(#clip950)" d="M1781.87 28.5427 L1781.87 35.5912 Q1778.71 33.9709 1775.31 33.1607 Q1771.9 32.3505 1768.26 32.3505 Q1762.71 32.3505 1759.91 34.0519 Q1757.16 35.7533 1757.16 39.156 Q1757.16 41.7486 1759.14 43.2475 Q1761.13 44.7058 1767.12 46.0426 L1769.68 46.6097 Q1777.62 48.3111 1780.94 51.4303 Q1784.3 54.509 1784.3 60.0587 Q1784.3 66.3781 1779.28 70.0644 Q1774.29 73.7508 1765.54 73.7508 Q1761.9 73.7508 1757.93 73.0216 Q1754 72.3329 1749.62 70.9151 L1749.62 63.2184 Q1753.76 65.3654 1757.77 66.4591 Q1761.78 67.5124 1765.71 67.5124 Q1770.97 67.5124 1773.81 65.73 Q1776.64 63.9071 1776.64 60.6258 Q1776.64 57.5877 1774.58 55.9673 Q1772.55 54.3469 1765.62 52.8481 L1763.03 52.2405 Q1756.1 50.7821 1753.03 47.7845 Q1749.95 44.7463 1749.95 39.4801 Q1749.95 33.0797 1754.48 29.5959 Q1759.02 26.1121 1767.37 26.1121 Q1771.5 26.1121 1775.14 26.7198 Q1778.79 27.3274 1781.87 28.5427 Z" fill="#000000" fill-rule="nonzero" fill-opacity="1" /><path clip-path="url(#clip950)" d="M1796.17 27.2059 L1803.62 27.2059 L1803.62 72.576 L1796.17 72.576 L1796.17 27.2059 M1796.17 9.54393 L1803.62 9.54393 L1803.62 18.9825 L1796.17 18.9825 L1796.17 9.54393 Z" fill="#000000" fill-rule="nonzero" fill-opacity="1" /><path clip-path="url(#clip950)" d="M1826.59 14.324 L1826.59 27.2059 L1841.94 27.2059 L1841.94 32.9987 L1826.59 32.9987 L1826.59 57.6282 Q1826.59 63.1779 1828.09 64.7578 Q1829.63 66.3376 1834.29 66.3376 L1841.94 66.3376 L1841.94 72.576 L1834.29 72.576 Q1825.66 72.576 1822.38 69.3758 Q1819.1 66.1351 1819.1 57.6282 L1819.1 32.9987 L1813.63 32.9987 L1813.63 27.2059 L1819.1 27.2059 L1819.1 14.324 L1826.59 14.324 Z" fill="#000000" fill-rule="nonzero" fill-opacity="1" /><path clip-path="url(#clip950)" d="M1851.75 27.2059 L1859.2 27.2059 L1859.2 72.576 L1851.75 72.576 L1851.75 27.2059 M1851.75 9.54393 L1859.2 9.54393 L1859.2 18.9825 L1851.75 18.9825 L1851.75 9.54393 Z" fill="#000000" fill-rule="nonzero" fill-opacity="1" /><path clip-path="url(#clip950)" d="M1892.38 32.4315 Q1886.38 32.4315 1882.9 37.1306 Q1879.41 41.7891 1879.41 49.9314 Q1879.41 58.0738 1882.86 62.7728 Q1886.34 67.4314 1892.38 67.4314 Q1898.33 67.4314 1901.82 62.7323 Q1905.3 58.0333 1905.3 49.9314 Q1905.3 41.8701 1901.82 37.1711 Q1898.33 32.4315 1892.38 32.4315 M1892.38 26.1121 Q1902.1 26.1121 1907.65 32.4315 Q1913.2 38.7509 1913.2 49.9314 Q1913.2 61.0714 1907.65 67.4314 Q1902.1 73.7508 1892.38 73.7508 Q1882.61 73.7508 1877.06 67.4314 Q1871.56 61.0714 1871.56 49.9314 Q1871.56 38.7509 1877.06 32.4315 Q1882.61 26.1121 1892.38 26.1121 Z" fill="#000000" fill-rule="nonzero" fill-opacity="1" /><path clip-path="url(#clip950)" d="M1963.27 45.1919 L1963.27 72.576 L1955.81 72.576 L1955.81 45.4349 Q1955.81 38.994 1953.3 35.7938 Q1950.79 32.5936 1945.77 32.5936 Q1939.73 32.5936 1936.25 36.4419 Q1932.76 40.2903 1932.76 46.9338 L1932.76 72.576 L1925.27 72.576 L1925.27 27.2059 L1932.76 27.2059 L1932.76 34.2544 Q1935.44 30.163 1939.04 28.1376 Q1942.69 26.1121 1947.43 26.1121 Q1955.25 26.1121 1959.26 30.9732 Q1963.27 35.7938 1963.27 45.1919 Z" fill="#000000" fill-rule="nonzero" fill-opacity="1" /><path clip-path="url(#clip950)" d="M2022.09 32.4315 Q2016.09 32.4315 2012.61 37.1306 Q2009.12 41.7891 2009.12 49.9314 Q2009.12 58.0738 2012.57 62.7728 Q2016.05 67.4314 2022.09 67.4314 Q2028.04 67.4314 2031.53 62.7323 Q2035.01 58.0333 2035.01 49.9314 Q2035.01 41.8701 2031.53 37.1711 Q2028.04 32.4315 2022.09 32.4315 M2022.09 26.1121 Q2031.81 26.1121 2037.36 32.4315 Q2042.91 38.7509 2042.91 49.9314 Q2042.91 61.0714 2037.36 67.4314 Q2031.81 73.7508 2022.09 73.7508 Q2012.32 73.7508 2006.77 67.4314 Q2001.27 61.0714 2001.27 49.9314 Q2001.27 38.7509 2006.77 32.4315 Q2012.32 26.1121 2022.09 26.1121 Z" fill="#000000" fill-rule="nonzero" fill-opacity="1" /><path clip-path="url(#clip950)" d="M2092.98 45.1919 L2092.98 72.576 L2085.52 72.576 L2085.52 45.4349 Q2085.52 38.994 2083.01 35.7938 Q2080.5 32.5936 2075.48 32.5936 Q2069.44 32.5936 2065.96 36.4419 Q2062.47 40.2903 2062.47 46.9338 L2062.47 72.576 L2054.98 72.576 L2054.98 27.2059 L2062.47 27.2059 L2062.47 34.2544 Q2065.15 30.163 2068.75 28.1376 Q2072.4 26.1121 2077.14 26.1121 Q2084.96 26.1121 2088.97 30.9732 Q2092.98 35.7938 2092.98 45.1919 Z" fill="#000000" fill-rule="nonzero" fill-opacity="1" /><path clip-path="url(#clip950)" d="M2141.59 14.324 L2141.59 27.2059 L2156.94 27.2059 L2156.94 32.9987 L2141.59 32.9987 L2141.59 57.6282 Q2141.59 63.1779 2143.09 64.7578 Q2144.63 66.3376 2149.29 66.3376 L2156.94 66.3376 L2156.94 72.576 L2149.29 72.576 Q2140.66 72.576 2137.38 69.3758 Q2134.09 66.1351 2134.09 57.6282 L2134.09 32.9987 L2128.63 32.9987 L2128.63 27.2059 L2134.09 27.2059 L2134.09 14.324 L2141.59 14.324 Z" fill="#000000" fill-rule="nonzero" fill-opacity="1" /><path clip-path="url(#clip950)" d="M2204.46 45.1919 L2204.46 72.576 L2197.01 72.576 L2197.01 45.4349 Q2197.01 38.994 2194.49 35.7938 Q2191.98 32.5936 2186.96 32.5936 Q2180.92 32.5936 2177.44 36.4419 Q2173.96 40.2903 2173.96 46.9338 L2173.96 72.576 L2166.46 72.576 L2166.46 9.54393 L2173.96 9.54393 L2173.96 34.2544 Q2176.63 30.163 2180.23 28.1376 Q2183.88 26.1121 2188.62 26.1121 Q2196.44 26.1121 2200.45 30.9732 Q2204.46 35.7938 2204.46 45.1919 Z" fill="#000000" fill-rule="nonzero" fill-opacity="1" /><path clip-path="url(#clip950)" d="M2258.13 48.0275 L2258.13 51.6733 L2223.86 51.6733 Q2224.35 59.3701 2228.48 63.421 Q2232.65 67.4314 2240.07 67.4314 Q2244.36 67.4314 2248.37 66.3781 Q2252.42 65.3249 2256.39 63.2184 L2256.39 70.267 Q2252.38 71.9684 2248.17 72.8596 Q2243.96 73.7508 2239.62 73.7508 Q2228.76 73.7508 2222.4 67.4314 Q2216.08 61.1119 2216.08 50.3365 Q2216.08 39.1965 2222.08 32.6746 Q2228.12 26.1121 2238.32 26.1121 Q2247.48 26.1121 2252.79 32.0264 Q2258.13 37.9003 2258.13 48.0275 M2250.68 45.84 Q2250.6 39.7232 2247.24 36.0774 Q2243.91 32.4315 2238.41 32.4315 Q2232.17 32.4315 2228.4 35.9558 Q2224.67 39.4801 2224.11 45.8805 L2250.68 45.84 Z" fill="#000000" fill-rule="nonzero" fill-opacity="1" /><path clip-path="url(#clip950)" d="M2326.59 49.3643 Q2326.59 41.2625 2323.23 36.8065 Q2319.91 32.3505 2313.87 32.3505 Q2307.88 32.3505 2304.52 36.8065 Q2301.19 41.2625 2301.19 49.3643 Q2301.19 57.4256 2304.52 61.8816 Q2307.88 66.3376 2313.87 66.3376 Q2319.91 66.3376 2323.23 61.8816 Q2326.59 57.4256 2326.59 49.3643 M2334.05 66.9452 Q2334.05 78.5308 2328.9 84.1616 Q2323.76 89.8329 2313.14 89.8329 Q2309.22 89.8329 2305.73 89.2252 Q2302.25 88.6581 2298.97 87.4428 L2298.97 80.1917 Q2302.25 81.9741 2305.45 82.8248 Q2308.65 83.6755 2311.97 83.6755 Q2319.3 83.6755 2322.95 79.8271 Q2326.59 76.0193 2326.59 68.282 L2326.59 64.5957 Q2324.28 68.6061 2320.68 70.5911 Q2317.07 72.576 2312.05 72.576 Q2303.71 72.576 2298.6 66.2161 Q2293.5 59.8562 2293.5 49.3643 Q2293.5 38.832 2298.6 32.472 Q2303.71 26.1121 2312.05 26.1121 Q2317.07 26.1121 2320.68 28.0971 Q2324.28 30.082 2326.59 34.0924 L2326.59 27.2059 L2334.05 27.2059 L2334.05 66.9452 Z" fill="#000000" fill-rule="nonzero" fill-opacity="1" /><path clip-path="url(#clip950)" d="M2375.69 34.1734 Q2374.43 33.4443 2372.94 33.1202 Q2371.48 32.7556 2369.7 32.7556 Q2363.38 32.7556 2359.97 36.8875 Q2356.61 40.9789 2356.61 48.6757 L2356.61 72.576 L2349.12 72.576 L2349.12 27.2059 L2356.61 27.2059 L2356.61 34.2544 Q2358.96 30.1225 2362.73 28.1376 Q2366.49 26.1121 2371.88 26.1121 Q2372.65 26.1121 2373.58 26.2337 Q2374.52 26.3147 2375.65 26.5172 L2375.69 34.1734 Z" fill="#000000" fill-rule="nonzero" fill-opacity="1" /><path clip-path="url(#clip950)" d="M2399.27 32.4315 Q2393.27 32.4315 2389.79 37.1306 Q2386.3 41.7891 2386.3 49.9314 Q2386.3 58.0738 2389.75 62.7728 Q2393.23 67.4314 2399.27 67.4314 Q2405.22 67.4314 2408.71 62.7323 Q2412.19 58.0333 2412.19 49.9314 Q2412.19 41.8701 2408.71 37.1711 Q2405.22 32.4315 2399.27 32.4315 M2399.27 26.1121 Q2408.99 26.1121 2414.54 32.4315 Q2420.09 38.7509 2420.09 49.9314 Q2420.09 61.0714 2414.54 67.4314 Q2408.99 73.7508 2399.27 73.7508 Q2389.5 73.7508 2383.95 67.4314 Q2378.45 61.0714 2378.45 49.9314 Q2378.45 38.7509 2383.95 32.4315 Q2389.5 26.1121 2399.27 26.1121 Z" fill="#000000" fill-rule="nonzero" fill-opacity="1" /><path clip-path="url(#clip950)" d="M2431.67 54.671 L2431.67 27.2059 L2439.13 27.2059 L2439.13 54.3874 Q2439.13 60.8284 2441.64 64.0691 Q2444.15 67.2693 2449.17 67.2693 Q2455.21 67.2693 2458.69 63.421 Q2462.22 59.5726 2462.22 52.9291 L2462.22 27.2059 L2469.67 27.2059 L2469.67 72.576 L2462.22 72.576 L2462.22 65.6084 Q2459.5 69.7404 2455.9 71.7658 Q2452.33 73.7508 2447.59 73.7508 Q2439.78 73.7508 2435.72 68.8897 Q2431.67 64.0286 2431.67 54.671 M2450.43 26.1121 L2450.43 26.1121 Z" fill="#000000" fill-rule="nonzero" fill-opacity="1" /><path clip-path="url(#clip950)" d="M2522.74 45.1919 L2522.74 72.576 L2515.28 72.576 L2515.28 45.4349 Q2515.28 38.994 2512.77 35.7938 Q2510.26 32.5936 2505.24 32.5936 Q2499.2 32.5936 2495.72 36.4419 Q2492.24 40.2903 2492.24 46.9338 L2492.24 72.576 L2484.74 72.576 L2484.74 27.2059 L2492.24 27.2059 L2492.24 34.2544 Q2494.91 30.163 2498.51 28.1376 Q2502.16 26.1121 2506.9 26.1121 Q2514.72 26.1121 2518.73 30.9732 Q2522.74 35.7938 2522.74 45.1919 Z" fill="#000000" fill-rule="nonzero" fill-opacity="1" /><path clip-path="url(#clip950)" d="M2567.46 34.0924 L2567.46 9.54393 L2574.91 9.54393 L2574.91 72.576 L2567.46 72.576 L2567.46 65.7705 Q2565.11 69.8214 2561.51 71.8063 Q2557.94 73.7508 2552.92 73.7508 Q2544.69 73.7508 2539.51 67.1883 Q2534.36 60.6258 2534.36 49.9314 Q2534.36 39.2371 2539.51 32.6746 Q2544.69 26.1121 2552.92 26.1121 Q2557.94 26.1121 2561.51 28.0971 Q2565.11 30.0415 2567.46 34.0924 M2542.06 49.9314 Q2542.06 58.1548 2545.42 62.8538 Q2548.83 67.5124 2554.74 67.5124 Q2560.65 67.5124 2564.06 62.8538 Q2567.46 58.1548 2567.46 49.9314 Q2567.46 41.7081 2564.06 37.0496 Q2560.65 32.3505 2554.74 32.3505 Q2548.83 32.3505 2545.42 37.0496 Q2542.06 41.7081 2542.06 49.9314 Z" fill="#000000" fill-rule="nonzero" fill-opacity="1" /><path clip-path="url(#clip952)" d="M1418.51 964.102 L2207.85 964.102 L2203.9 885.201 L2192.08 807.09 L2172.51 730.552 L2145.39 656.354 L2110.98 585.238 L2069.65 517.917 L2021.79 455.065 L1967.88 397.312 L1908.48 345.236 L1844.16 299.359 L1775.58 260.141 L1703.43 227.974 L1628.42 203.18 L1551.31 186.009 L1472.87 176.631 L1393.88 175.141 L1315.14 181.553 L1237.44 195.805 L1161.55 217.751 L1088.23 247.174 L1018.22 283.778 L952.225 327.197 L890.896 376.995 L834.853 432.674 L784.656 493.676 L740.808 559.39 L703.748 629.157 L673.847 702.28 L651.406 778.026 L636.648 855.635 L629.721 934.331 L630.696 1013.32 L639.562 1091.83 L656.23 1169.05 L680.533 1244.22 L712.229 1316.58 L750.999 1385.41 L796.455 1450.02 L848.142 1509.77 L905.542 1564.05 L968.08 1612.32 L1035.13 1654.09 L1106.02 1688.96 L1180.04 1716.57 L1256.45 1736.63 L1334.48 1748.96 L1413.35 1753.43 L1492.28 1749.99 L1570.47 1738.68 L1418.51 964.102  Z" fill="#009af9" fill-rule="evenodd" fill-opacity="1"/>
<polyline clip-path="url(#clip952)" style="stroke:#000000; stroke-linecap:round; stroke-linejoin:round; stroke-width:4; stroke-opacity:0.5; fill:none" points="1418.51,964.102 2207.85,964.102 2203.9,885.201 2192.08,807.09 2172.51,730.552 2145.39,656.354 2110.98,585.238 2069.65,517.917 2021.79,455.065 1967.88,397.312 1908.48,345.236 1844.16,299.359 1775.58,260.141 1703.43,227.974 1628.42,203.18 1551.31,186.009 1472.87,176.631 1393.88,175.141 1315.14,181.553 1237.44,195.805 1161.55,217.751 1088.23,247.174 1018.22,283.778 952.225,327.197 890.896,376.995 834.853,432.674 784.656,493.676 740.808,559.39 703.748,629.157 673.847,702.28 651.406,778.026 636.648,855.635 629.721,934.331 630.696,1013.32 639.562,1091.83 656.23,1169.05 680.533,1244.22 712.229,1316.58 750.999,1385.41 796.455,1450.02 848.142,1509.77 905.542,1564.05 968.08,1612.32 1035.13,1654.09 1106.02,1688.96 1180.04,1716.57 1256.45,1736.63 1334.48,1748.96 1413.35,1753.43 1492.28,1749.99 1570.47,1738.68 1418.51,964.102 "/>
<path clip-path="url(#clip952)" d="M1418.51 964.102 L1570.47 1738.68 L1591.22 1734.32 L1611.85 1729.4 L1632.34 1723.93 L1652.67 1717.91 L1672.84 1711.35 L1692.82 1704.25 L1712.61 1696.61 L1732.18 1688.45 L1751.52 1679.76 L1770.63 1670.55 L1789.48 1660.84 L1808.06 1650.62 L1826.37 1639.91 L1844.37 1628.71 L1862.07 1617.03 L1879.45 1604.88 L1896.5 1592.26 L1913.2 1579.19 L1929.55 1565.68 L1945.53 1551.74 L1961.12 1537.37 L1976.33 1522.58 L1991.13 1507.4 L2005.52 1491.82 L2019.48 1475.86 L2033.01 1459.53 L2046.1 1442.84 L2058.73 1425.81 L2070.91 1408.44 L2082.61 1390.76 L2093.83 1372.76 L2104.57 1354.47 L2114.8 1335.9 L2124.54 1317.06 L2133.77 1297.97 L2142.48 1278.63 L2150.67 1259.07 L2158.33 1239.29 L2165.45 1219.32 L2172.04 1199.16 L2178.08 1178.83 L2183.58 1158.35 L2188.52 1137.73 L2192.91 1116.98 L2196.73 1096.12 L2200 1075.16 L2202.7 1054.13 L2204.84 1033.03 L2206.4 1011.88 L1418.51 964.102  Z" fill="#e26f46" fill-rule="evenodd" fill-opacity="1"/>
<polyline clip-path="url(#clip952)" style="stroke:#000000; stroke-linecap:round; stroke-linejoin:round; stroke-width:4; stroke-opacity:0.5; fill:none" points="1418.51,964.102 1570.47,1738.68 1591.22,1734.32 1611.85,1729.4 1632.34,1723.93 1652.67,1717.91 1672.84,1711.35 1692.82,1704.25 1712.61,1696.61 1732.18,1688.45 1751.52,1679.76 1770.63,1670.55 1789.48,1660.84 1808.06,1650.62 1826.37,1639.91 1844.37,1628.71 1862.07,1617.03 1879.45,1604.88 1896.5,1592.26 1913.2,1579.19 1929.55,1565.68 1945.53,1551.74 1961.12,1537.37 1976.33,1522.58 1991.13,1507.4 2005.52,1491.82 2019.48,1475.86 2033.01,1459.53 2046.1,1442.84 2058.73,1425.81 2070.91,1408.44 2082.61,1390.76 2093.83,1372.76 2104.57,1354.47 2114.8,1335.9 2124.54,1317.06 2133.77,1297.97 2142.48,1278.63 2150.67,1259.07 2158.33,1239.29 2165.45,1219.32 2172.04,1199.16 2178.08,1178.83 2183.58,1158.35 2188.52,1137.73 2192.91,1116.98 2196.73,1096.12 2200,1075.16 2202.7,1054.13 2204.84,1033.03 2206.4,1011.88 1418.51,964.102 "/>
<path clip-path="url(#clip952)" d="M1418.51 964.102 L2206.4 1011.88 L2206.46 1010.94 L2206.52 1009.99 L2206.57 1009.05 L2206.62 1008.11 L2206.68 1007.16 L2206.73 1006.22 L2206.78 1005.28 L2206.82 1004.33 L2206.87 1003.39 L2206.92 1002.44 L2206.96 1001.5 L2207.01 1000.55 L2207.05 999.61 L2207.09 998.665 L2207.13 997.721 L2207.17 996.776 L2207.21 995.832 L2207.25 994.887 L2207.29 993.943 L2207.32 992.998 L2207.36 992.053 L2207.39 991.108 L2207.42 990.164 L2207.45 989.219 L2207.48 988.274 L2207.51 987.329 L2207.54 986.384 L2207.56 985.439 L2207.59 984.494 L2207.61 983.549 L2207.63 982.604 L2207.66 981.659 L2207.68 980.714 L2207.7 979.768 L2207.71 978.823 L2207.73 977.878 L2207.75 976.933 L2207.76 975.988 L2207.77 975.042 L2207.79 974.097 L2207.8 973.152 L2207.81 972.207 L2207.82 971.261 L2207.83 970.316 L2207.83 969.371 L2207.84 968.425 L2207.84 967.48 L2207.85 966.535 L2207.85 965.589 L1418.51 964.102  Z" fill="#3da44d" fill-rule="evenodd" fill-opacity="1"/>
<polyline clip-path="url(#clip952)" style="stroke:#000000; stroke-linecap:round; stroke-linejoin:round; stroke-width:4; stroke-opacity:0.5; fill:none" points="1418.51,964.102 2206.4,1011.88 2206.46,1010.94 2206.52,1009.99 2206.57,1009.05 2206.62,1008.11 2206.68,1007.16 2206.73,1006.22 2206.78,1005.28 2206.82,1004.33 2206.87,1003.39 2206.92,1002.44 2206.96,1001.5 2207.01,1000.55 2207.05,999.61 2207.09,998.665 2207.13,997.721 2207.17,996.776 2207.21,995.832 2207.25,994.887 2207.29,993.943 2207.32,992.998 2207.36,992.053 2207.39,991.108 2207.42,990.164 2207.45,989.219 2207.48,988.274 2207.51,987.329 2207.54,986.384 2207.56,985.439 2207.59,984.494 2207.61,983.549 2207.63,982.604 2207.66,981.659 2207.68,980.714 2207.7,979.768 2207.71,978.823 2207.73,977.878 2207.75,976.933 2207.76,975.988 2207.77,975.042 2207.79,974.097 2207.8,973.152 2207.81,972.207 2207.82,971.261 2207.83,970.316 2207.83,969.371 2207.84,968.425 2207.84,967.48 2207.85,966.535 2207.85,965.589 1418.51,964.102 "/>
<path clip-path="url(#clip952)" d="M1418.51 964.102 L2207.85 965.589 L2207.85 965.559 L2207.85 965.529 L2207.85 965.498 L2207.85 965.468 L2207.85 965.438 L2207.85 965.407 L2207.85 965.377 L2207.85 965.347 L2207.85 965.316 L2207.85 965.286 L2207.85 965.256 L2207.85 965.225 L2207.85 965.195 L2207.85 965.164 L2207.85 965.134 L2207.85 965.104 L2207.85 965.073 L2207.85 965.043 L2207.85 965.013 L2207.85 964.982 L2207.85 964.952 L2207.85 964.922 L2207.85 964.891 L2207.85 964.861 L2207.85 964.831 L2207.85 964.8 L2207.85 964.77 L2207.85 964.739 L2207.85 964.709 L2207.85 964.679 L2207.85 964.648 L2207.85 964.618 L2207.85 964.588 L2207.85 964.557 L2207.85 964.527 L2207.85 964.497 L2207.85 964.466 L2207.85 964.436 L2207.85 964.406 L2207.85 964.375 L2207.85 964.345 L2207.85 964.315 L2207.85 964.284 L2207.85 964.254 L2207.85 964.223 L2207.85 964.193 L2207.85 964.163 L2207.85 964.132 L2207.85 964.102 L1418.51 964.102  Z" fill="#c271d2" fill-rule="evenodd" fill-opacity="1"/>
<polyline clip-path="url(#clip952)" style="stroke:#000000; stroke-linecap:round; stroke-linejoin:round; stroke-width:4; stroke-opacity:0.5; fill:none" points="1418.51,964.102 2207.85,965.589 2207.85,965.559 2207.85,965.529 2207.85,965.498 2207.85,965.468 2207.85,965.438 2207.85,965.407 2207.85,965.377 2207.85,965.347 2207.85,965.316 2207.85,965.286 2207.85,965.256 2207.85,965.225 2207.85,965.195 2207.85,965.164 2207.85,965.134 2207.85,965.104 2207.85,965.073 2207.85,965.043 2207.85,965.013 2207.85,964.982 2207.85,964.952 2207.85,964.922 2207.85,964.891 2207.85,964.861 2207.85,964.831 2207.85,964.8 2207.85,964.77 2207.85,964.739 2207.85,964.709 2207.85,964.679 2207.85,964.648 2207.85,964.618 2207.85,964.588 2207.85,964.557 2207.85,964.527 2207.85,964.497 2207.85,964.466 2207.85,964.436 2207.85,964.406 2207.85,964.375 2207.85,964.345 2207.85,964.315 2207.85,964.284 2207.85,964.254 2207.85,964.223 2207.85,964.193 2207.85,964.163 2207.85,964.132 2207.85,964.102 1418.51,964.102 "/>
<path clip-path="url(#clip950)" d="M1870.8 442.758 L2559.29 442.758 L2559.29 183.558 L1870.8 183.558  Z" fill="#ffffff" fill-rule="evenodd" fill-opacity="1"/>
<polyline clip-path="url(#clip950)" style="stroke:#000000; stroke-linecap:round; stroke-linejoin:round; stroke-width:4; stroke-opacity:1; fill:none" points="1870.8,442.758 2559.29,442.758 2559.29,183.558 1870.8,183.558 1870.8,442.758 "/>
<path clip-path="url(#clip950)" d="M1897.96 256.134 L2060.89 256.134 L2060.89 214.662 L1897.96 214.662 L1897.96 256.134  Z" fill="#009af9" fill-rule="evenodd" fill-opacity="1"/>
<polyline clip-path="url(#clip950)" style="stroke:#000000; stroke-linecap:round; stroke-linejoin:round; stroke-width:4; stroke-opacity:1; fill:none" points="1897.96,256.134 2060.89,256.134 2060.89,214.662 1897.96,214.662 1897.96,256.134 "/>
<path clip-path="url(#clip950)" d="M2109.75 237.03 L2109.75 252.678 L2105.5 252.678 L2105.5 237.169 Q2105.5 233.489 2104.06 231.66 Q2102.62 229.831 2099.75 229.831 Q2096.31 229.831 2094.31 232.03 Q2092.32 234.229 2092.32 238.026 L2092.32 252.678 L2088.04 252.678 L2088.04 226.753 L2092.32 226.753 L2092.32 230.78 Q2093.85 228.442 2095.91 227.285 Q2098 226.128 2100.7 226.128 Q2105.17 226.128 2107.46 228.905 Q2109.75 231.66 2109.75 237.03 Z" fill="#000000" fill-rule="nonzero" fill-opacity="1" /><path clip-path="url(#clip950)" d="M2118.25 226.753 L2122.51 226.753 L2122.51 252.678 L2118.25 252.678 L2118.25 226.753 M2118.25 216.66 L2122.51 216.66 L2122.51 222.054 L2118.25 222.054 L2118.25 216.66 Z" fill="#000000" fill-rule="nonzero" fill-opacity="1" /><path clip-path="url(#clip950)" d="M2135.63 219.392 L2135.63 226.753 L2144.41 226.753 L2144.41 230.063 L2135.63 230.063 L2135.63 244.137 Q2135.63 247.308 2136.49 248.211 Q2137.37 249.114 2140.03 249.114 L2144.41 249.114 L2144.41 252.678 L2140.03 252.678 Q2135.1 252.678 2133.23 250.85 Q2131.35 248.998 2131.35 244.137 L2131.35 230.063 L2128.23 230.063 L2128.23 226.753 L2131.35 226.753 L2131.35 219.392 L2135.63 219.392 Z" fill="#000000" fill-rule="nonzero" fill-opacity="1" /><path clip-path="url(#clip950)" d="M2165.03 230.734 Q2164.31 230.317 2163.46 230.132 Q2162.62 229.924 2161.61 229.924 Q2157.99 229.924 2156.05 232.285 Q2154.13 234.623 2154.13 239.021 L2154.13 252.678 L2149.85 252.678 L2149.85 226.753 L2154.13 226.753 L2154.13 230.78 Q2155.47 228.419 2157.62 227.285 Q2159.78 226.128 2162.86 226.128 Q2163.3 226.128 2163.83 226.197 Q2164.36 226.243 2165.01 226.359 L2165.03 230.734 Z" fill="#000000" fill-rule="nonzero" fill-opacity="1" /><path clip-path="url(#clip950)" d="M2178.5 229.739 Q2175.08 229.739 2173.09 232.424 Q2171.1 235.086 2171.1 239.739 Q2171.1 244.391 2173.06 247.077 Q2175.05 249.739 2178.5 249.739 Q2181.91 249.739 2183.9 247.053 Q2185.89 244.368 2185.89 239.739 Q2185.89 235.132 2183.9 232.447 Q2181.91 229.739 2178.5 229.739 M2178.5 226.128 Q2184.06 226.128 2187.23 229.739 Q2190.4 233.35 2190.4 239.739 Q2190.4 246.104 2187.23 249.739 Q2184.06 253.35 2178.5 253.35 Q2172.93 253.35 2169.75 249.739 Q2166.61 246.104 2166.61 239.739 Q2166.61 233.35 2169.75 229.739 Q2172.93 226.128 2178.5 226.128 Z" fill="#000000" fill-rule="nonzero" fill-opacity="1" /><path clip-path="url(#clip950)" d="M2214.52 239.415 Q2214.52 234.785 2212.6 232.239 Q2210.7 229.692 2207.25 229.692 Q2203.83 229.692 2201.91 232.239 Q2200.01 234.785 2200.01 239.415 Q2200.01 244.021 2201.91 246.567 Q2203.83 249.114 2207.25 249.114 Q2210.7 249.114 2212.6 246.567 Q2214.52 244.021 2214.52 239.415 M2218.78 249.461 Q2218.78 256.081 2215.84 259.299 Q2212.9 262.539 2206.84 262.539 Q2204.59 262.539 2202.6 262.192 Q2200.61 261.868 2198.74 261.174 L2198.74 257.03 Q2200.61 258.049 2202.44 258.535 Q2204.27 259.021 2206.17 259.021 Q2210.36 259.021 2212.44 256.822 Q2214.52 254.646 2214.52 250.225 L2214.52 248.118 Q2213.2 250.41 2211.14 251.544 Q2209.08 252.678 2206.21 252.678 Q2201.44 252.678 2198.53 249.044 Q2195.61 245.41 2195.61 239.415 Q2195.61 233.396 2198.53 229.762 Q2201.44 226.128 2206.21 226.128 Q2209.08 226.128 2211.14 227.262 Q2213.2 228.396 2214.52 230.688 L2214.52 226.753 L2218.78 226.753 L2218.78 249.461 Z" fill="#000000" fill-rule="nonzero" fill-opacity="1" /><path clip-path="url(#clip950)" d="M2249.73 238.651 L2249.73 240.734 L2230.15 240.734 Q2230.43 245.132 2232.79 247.447 Q2235.17 249.739 2239.41 249.739 Q2241.86 249.739 2244.15 249.137 Q2246.47 248.535 2248.74 247.331 L2248.74 251.359 Q2246.44 252.331 2244.04 252.84 Q2241.63 253.35 2239.15 253.35 Q2232.95 253.35 2229.31 249.739 Q2225.7 246.127 2225.7 239.97 Q2225.7 233.604 2229.13 229.878 Q2232.58 226.128 2238.41 226.128 Q2243.64 226.128 2246.67 229.507 Q2249.73 232.864 2249.73 238.651 M2245.47 237.401 Q2245.42 233.905 2243.5 231.822 Q2241.61 229.739 2238.46 229.739 Q2234.89 229.739 2232.74 231.753 Q2230.61 233.766 2230.29 237.424 L2245.47 237.401 Z" fill="#000000" fill-rule="nonzero" fill-opacity="1" /><path clip-path="url(#clip950)" d="M2278.27 237.03 L2278.27 252.678 L2274.01 252.678 L2274.01 237.169 Q2274.01 233.489 2272.58 231.66 Q2271.14 229.831 2268.27 229.831 Q2264.82 229.831 2262.83 232.03 Q2260.84 234.229 2260.84 238.026 L2260.84 252.678 L2256.56 252.678 L2256.56 226.753 L2260.84 226.753 L2260.84 230.78 Q2262.37 228.442 2264.43 227.285 Q2266.51 226.128 2269.22 226.128 Q2273.69 226.128 2275.98 228.905 Q2278.27 231.66 2278.27 237.03 Z" fill="#000000" fill-rule="nonzero" fill-opacity="1" /><path clip-path="url(#clip950)" d="M1897.96 307.974 L2060.89 307.974 L2060.89 266.502 L1897.96 266.502 L1897.96 307.974  Z" fill="#e26f46" fill-rule="evenodd" fill-opacity="1"/>
<polyline clip-path="url(#clip950)" style="stroke:#000000; stroke-linecap:round; stroke-linejoin:round; stroke-width:4; stroke-opacity:1; fill:none" points="1897.96,307.974 2060.89,307.974 2060.89,266.502 1897.96,266.502 1897.96,307.974 "/>
<path clip-path="url(#clip950)" d="M2099.94 281.579 Q2096.51 281.579 2094.52 284.264 Q2092.53 286.926 2092.53 291.579 Q2092.53 296.231 2094.5 298.917 Q2096.49 301.579 2099.94 301.579 Q2103.34 301.579 2105.33 298.893 Q2107.32 296.208 2107.32 291.579 Q2107.32 286.972 2105.33 284.287 Q2103.34 281.579 2099.94 281.579 M2099.94 277.968 Q2105.5 277.968 2108.67 281.579 Q2111.84 285.19 2111.84 291.579 Q2111.84 297.944 2108.67 301.579 Q2105.5 305.19 2099.94 305.19 Q2094.36 305.19 2091.19 301.579 Q2088.04 297.944 2088.04 291.579 Q2088.04 285.19 2091.19 281.579 Q2094.36 277.968 2099.94 277.968 Z" fill="#000000" fill-rule="nonzero" fill-opacity="1" /><path clip-path="url(#clip950)" d="M2138.99 278.593 L2129.62 291.208 L2139.48 304.518 L2134.45 304.518 L2126.91 294.333 L2119.36 304.518 L2114.34 304.518 L2124.41 290.954 L2115.19 278.593 L2120.22 278.593 L2127.09 287.829 L2133.97 278.593 L2138.99 278.593 Z" fill="#000000" fill-rule="nonzero" fill-opacity="1" /><path clip-path="url(#clip950)" d="M2156.28 306.926 Q2154.48 311.555 2152.76 312.967 Q2151.05 314.379 2148.18 314.379 L2144.78 314.379 L2144.78 310.815 L2147.28 310.815 Q2149.04 310.815 2150.01 309.981 Q2150.98 309.148 2152.16 306.046 L2152.93 304.102 L2142.44 278.593 L2146.95 278.593 L2155.06 298.87 L2163.16 278.593 L2167.67 278.593 L2156.28 306.926 Z" fill="#000000" fill-rule="nonzero" fill-opacity="1" /><path clip-path="url(#clip950)" d="M2190.61 291.255 Q2190.61 286.625 2188.69 284.079 Q2186.79 281.532 2183.34 281.532 Q2179.92 281.532 2177.99 284.079 Q2176.1 286.625 2176.1 291.255 Q2176.1 295.861 2177.99 298.407 Q2179.92 300.954 2183.34 300.954 Q2186.79 300.954 2188.69 298.407 Q2190.61 295.861 2190.61 291.255 M2194.87 301.301 Q2194.87 307.921 2191.93 311.139 Q2188.99 314.379 2182.93 314.379 Q2180.68 314.379 2178.69 314.032 Q2176.7 313.708 2174.82 313.014 L2174.82 308.87 Q2176.7 309.889 2178.53 310.375 Q2180.36 310.861 2182.25 310.861 Q2186.44 310.861 2188.53 308.662 Q2190.61 306.486 2190.61 302.065 L2190.61 299.958 Q2189.29 302.25 2187.23 303.384 Q2185.17 304.518 2182.3 304.518 Q2177.53 304.518 2174.62 300.884 Q2171.7 297.25 2171.7 291.255 Q2171.7 285.236 2174.62 281.602 Q2177.53 277.968 2182.3 277.968 Q2185.17 277.968 2187.23 279.102 Q2189.29 280.236 2190.61 282.528 L2190.61 278.593 L2194.87 278.593 L2194.87 301.301 Z" fill="#000000" fill-rule="nonzero" fill-opacity="1" /><path clip-path="url(#clip950)" d="M2225.82 290.491 L2225.82 292.574 L2206.24 292.574 Q2206.51 296.972 2208.87 299.287 Q2211.26 301.579 2215.49 301.579 Q2217.95 301.579 2220.24 300.977 Q2222.55 300.375 2224.82 299.171 L2224.82 303.199 Q2222.53 304.171 2220.12 304.68 Q2217.72 305.19 2215.24 305.19 Q2209.04 305.19 2205.4 301.579 Q2201.79 297.967 2201.79 291.81 Q2201.79 285.444 2205.22 281.718 Q2208.67 277.968 2214.5 277.968 Q2219.73 277.968 2222.76 281.347 Q2225.82 284.704 2225.82 290.491 M2221.56 289.241 Q2221.51 285.745 2219.59 283.662 Q2217.69 281.579 2214.55 281.579 Q2210.98 281.579 2208.83 283.593 Q2206.7 285.606 2206.37 289.264 L2221.56 289.241 Z" fill="#000000" fill-rule="nonzero" fill-opacity="1" /><path clip-path="url(#clip950)" d="M2254.36 288.87 L2254.36 304.518 L2250.1 304.518 L2250.1 289.009 Q2250.1 285.329 2248.67 283.5 Q2247.23 281.671 2244.36 281.671 Q2240.91 281.671 2238.92 283.87 Q2236.93 286.069 2236.93 289.866 L2236.93 304.518 L2232.65 304.518 L2232.65 278.593 L2236.93 278.593 L2236.93 282.62 Q2238.46 280.282 2240.52 279.125 Q2242.6 277.968 2245.31 277.968 Q2249.78 277.968 2252.07 280.745 Q2254.36 283.5 2254.36 288.87 Z" fill="#000000" fill-rule="nonzero" fill-opacity="1" /><path clip-path="url(#clip950)" d="M1897.96 359.814 L2060.89 359.814 L2060.89 318.342 L1897.96 318.342 L1897.96 359.814  Z" fill="#3da44d" fill-rule="evenodd" fill-opacity="1"/>
<polyline clip-path="url(#clip950)" style="stroke:#000000; stroke-linecap:round; stroke-linejoin:round; stroke-width:4; stroke-opacity:1; fill:none" points="1897.96,359.814 2060.89,359.814 2060.89,318.342 1897.96,318.342 1897.96,359.814 "/>
<path clip-path="url(#clip950)" d="M2101.44 343.326 Q2096.28 343.326 2094.29 344.507 Q2092.3 345.687 2092.3 348.534 Q2092.3 350.803 2093.78 352.145 Q2095.29 353.465 2097.86 353.465 Q2101.4 353.465 2103.53 350.965 Q2105.68 348.442 2105.68 344.275 L2105.68 343.326 L2101.44 343.326 M2109.94 341.567 L2109.94 356.358 L2105.68 356.358 L2105.68 352.423 Q2104.22 354.784 2102.05 355.919 Q2099.87 357.03 2096.72 357.03 Q2092.74 357.03 2090.38 354.807 Q2088.04 352.562 2088.04 348.812 Q2088.04 344.437 2090.96 342.215 Q2093.9 339.993 2099.71 339.993 L2105.68 339.993 L2105.68 339.576 Q2105.68 336.636 2103.74 335.039 Q2101.81 333.419 2098.32 333.419 Q2096.1 333.419 2093.99 333.951 Q2091.88 334.483 2089.94 335.548 L2089.94 331.613 Q2092.28 330.71 2094.48 330.271 Q2096.68 329.808 2098.76 329.808 Q2104.38 329.808 2107.16 332.724 Q2109.94 335.641 2109.94 341.567 Z" fill="#000000" fill-rule="nonzero" fill-opacity="1" /><path clip-path="url(#clip950)" d="M2133.74 334.414 Q2133.02 333.997 2132.16 333.812 Q2131.33 333.604 2130.31 333.604 Q2126.7 333.604 2124.75 335.965 Q2122.83 338.303 2122.83 342.701 L2122.83 356.358 L2118.55 356.358 L2118.55 330.433 L2122.83 330.433 L2122.83 334.46 Q2124.18 332.099 2126.33 330.965 Q2128.48 329.808 2131.56 329.808 Q2132 329.808 2132.53 329.877 Q2133.06 329.923 2133.71 330.039 L2133.74 334.414 Z" fill="#000000" fill-rule="nonzero" fill-opacity="1" /><path clip-path="url(#clip950)" d="M2154.43 343.095 Q2154.43 338.465 2152.51 335.919 Q2150.61 333.372 2147.16 333.372 Q2143.74 333.372 2141.81 335.919 Q2139.92 338.465 2139.92 343.095 Q2139.92 347.701 2141.81 350.247 Q2143.74 352.794 2147.16 352.794 Q2150.61 352.794 2152.51 350.247 Q2154.43 347.701 2154.43 343.095 M2158.69 353.141 Q2158.69 359.761 2155.75 362.979 Q2152.81 366.219 2146.74 366.219 Q2144.5 366.219 2142.51 365.872 Q2140.52 365.548 2138.64 364.854 L2138.64 360.71 Q2140.52 361.729 2142.35 362.215 Q2144.18 362.701 2146.07 362.701 Q2150.26 362.701 2152.35 360.502 Q2154.43 358.326 2154.43 353.905 L2154.43 351.798 Q2153.11 354.09 2151.05 355.224 Q2148.99 356.358 2146.12 356.358 Q2141.35 356.358 2138.43 352.724 Q2135.52 349.09 2135.52 343.095 Q2135.52 337.076 2138.43 333.442 Q2141.35 329.808 2146.12 329.808 Q2148.99 329.808 2151.05 330.942 Q2153.11 332.076 2154.43 334.368 L2154.43 330.433 L2158.69 330.433 L2158.69 353.141 Z" fill="#000000" fill-rule="nonzero" fill-opacity="1" /><path clip-path="url(#clip950)" d="M2177.51 333.419 Q2174.08 333.419 2172.09 336.104 Q2170.1 338.766 2170.1 343.419 Q2170.1 348.071 2172.07 350.757 Q2174.06 353.419 2177.51 353.419 Q2180.91 353.419 2182.9 350.733 Q2184.89 348.048 2184.89 343.419 Q2184.89 338.812 2182.9 336.127 Q2180.91 333.419 2177.51 333.419 M2177.51 329.808 Q2183.06 329.808 2186.24 333.419 Q2189.41 337.03 2189.41 343.419 Q2189.41 349.784 2186.24 353.419 Q2183.06 357.03 2177.51 357.03 Q2171.93 357.03 2168.76 353.419 Q2165.61 349.784 2165.61 343.419 Q2165.61 337.03 2168.76 333.419 Q2171.93 329.808 2177.51 329.808 Z" fill="#000000" fill-rule="nonzero" fill-opacity="1" /><path clip-path="url(#clip950)" d="M2218.02 340.71 L2218.02 356.358 L2213.76 356.358 L2213.76 340.849 Q2213.76 337.169 2212.32 335.34 Q2210.89 333.511 2208.02 333.511 Q2204.57 333.511 2202.58 335.71 Q2200.59 337.909 2200.59 341.706 L2200.59 356.358 L2196.3 356.358 L2196.3 330.433 L2200.59 330.433 L2200.59 334.46 Q2202.11 332.122 2204.18 330.965 Q2206.26 329.808 2208.97 329.808 Q2213.43 329.808 2215.73 332.585 Q2218.02 335.34 2218.02 340.71 Z" fill="#000000" fill-rule="nonzero" fill-opacity="1" /><path clip-path="url(#clip950)" d="M1897.96 411.654 L2060.89 411.654 L2060.89 370.182 L1897.96 370.182 L1897.96 411.654  Z" fill="#c271d2" fill-rule="evenodd" fill-opacity="1"/>
<polyline clip-path="url(#clip950)" style="stroke:#000000; stroke-linecap:round; stroke-linejoin:round; stroke-width:4; stroke-opacity:1; fill:none" points="1897.96,411.654 2060.89,411.654 2060.89,370.182 1897.96,370.182 1897.96,411.654 "/>
<path clip-path="url(#clip950)" d="M2108.55 383.268 L2108.55 387.249 Q2106.75 386.254 2104.92 385.768 Q2103.11 385.259 2101.26 385.259 Q2097.12 385.259 2094.82 387.898 Q2092.53 390.513 2092.53 395.259 Q2092.53 400.004 2094.82 402.643 Q2097.12 405.259 2101.26 405.259 Q2103.11 405.259 2104.92 404.772 Q2106.75 404.263 2108.55 403.268 L2108.55 407.203 Q2106.77 408.036 2104.85 408.453 Q2102.95 408.87 2100.8 408.87 Q2094.94 408.87 2091.49 405.189 Q2088.04 401.509 2088.04 395.259 Q2088.04 388.916 2091.51 385.282 Q2095.01 381.648 2101.07 381.648 Q2103.04 381.648 2104.92 382.064 Q2106.79 382.458 2108.55 383.268 Z" fill="#000000" fill-rule="nonzero" fill-opacity="1" /><path clip-path="url(#clip950)" d="M2127.74 395.166 Q2122.58 395.166 2120.59 396.347 Q2118.6 397.527 2118.6 400.374 Q2118.6 402.643 2120.08 403.985 Q2121.58 405.305 2124.15 405.305 Q2127.69 405.305 2129.82 402.805 Q2131.98 400.282 2131.98 396.115 L2131.98 395.166 L2127.74 395.166 M2136.24 393.407 L2136.24 408.198 L2131.98 408.198 L2131.98 404.263 Q2130.52 406.624 2128.34 407.759 Q2126.17 408.87 2123.02 408.87 Q2119.04 408.87 2116.68 406.647 Q2114.34 404.402 2114.34 400.652 Q2114.34 396.277 2117.25 394.055 Q2120.19 391.833 2126 391.833 L2131.98 391.833 L2131.98 391.416 Q2131.98 388.476 2130.03 386.879 Q2128.11 385.259 2124.62 385.259 Q2122.39 385.259 2120.29 385.791 Q2118.18 386.323 2116.24 387.388 L2116.24 383.453 Q2118.57 382.55 2120.77 382.111 Q2122.97 381.648 2125.06 381.648 Q2130.68 381.648 2133.46 384.564 Q2136.24 387.481 2136.24 393.407 Z" fill="#000000" fill-rule="nonzero" fill-opacity="1" /><path clip-path="url(#clip950)" d="M2160.03 386.254 Q2159.31 385.837 2158.46 385.652 Q2157.62 385.444 2156.61 385.444 Q2152.99 385.444 2151.05 387.805 Q2149.13 390.143 2149.13 394.541 L2149.13 408.198 L2144.85 408.198 L2144.85 382.273 L2149.13 382.273 L2149.13 386.3 Q2150.47 383.939 2152.62 382.805 Q2154.78 381.648 2157.86 381.648 Q2158.3 381.648 2158.83 381.717 Q2159.36 381.763 2160.01 381.879 L2160.03 386.254 Z" fill="#000000" fill-rule="nonzero" fill-opacity="1" /><path clip-path="url(#clip950)" d="M2183.11 395.259 Q2183.11 390.56 2181.17 387.898 Q2179.24 385.212 2175.87 385.212 Q2172.49 385.212 2170.54 387.898 Q2168.62 390.56 2168.62 395.259 Q2168.62 399.958 2170.54 402.643 Q2172.49 405.305 2175.87 405.305 Q2179.24 405.305 2181.17 402.643 Q2183.11 399.958 2183.11 395.259 M2168.62 386.208 Q2169.96 383.893 2172 382.782 Q2174.06 381.648 2176.91 381.648 Q2181.63 381.648 2184.57 385.398 Q2187.53 389.148 2187.53 395.259 Q2187.53 401.37 2184.57 405.12 Q2181.63 408.87 2176.91 408.87 Q2174.06 408.87 2172 407.759 Q2169.96 406.624 2168.62 404.309 L2168.62 408.198 L2164.34 408.198 L2164.34 372.18 L2168.62 372.18 L2168.62 386.208 Z" fill="#000000" fill-rule="nonzero" fill-opacity="1" /><path clip-path="url(#clip950)" d="M2204.64 385.259 Q2201.21 385.259 2199.22 387.944 Q2197.23 390.606 2197.23 395.259 Q2197.23 399.911 2199.2 402.597 Q2201.19 405.259 2204.64 405.259 Q2208.04 405.259 2210.03 402.573 Q2212.02 399.888 2212.02 395.259 Q2212.02 390.652 2210.03 387.967 Q2208.04 385.259 2204.64 385.259 M2204.64 381.648 Q2210.19 381.648 2213.36 385.259 Q2216.54 388.87 2216.54 395.259 Q2216.54 401.624 2213.36 405.259 Q2210.19 408.87 2204.64 408.87 Q2199.06 408.87 2195.89 405.259 Q2192.74 401.624 2192.74 395.259 Q2192.74 388.87 2195.89 385.259 Q2199.06 381.648 2204.64 381.648 Z" fill="#000000" fill-rule="nonzero" fill-opacity="1" /><path clip-path="url(#clip950)" d="M2245.15 392.55 L2245.15 408.198 L2240.89 408.198 L2240.89 392.689 Q2240.89 389.009 2239.45 387.18 Q2238.02 385.351 2235.15 385.351 Q2231.7 385.351 2229.71 387.55 Q2227.72 389.749 2227.72 393.546 L2227.72 408.198 L2223.43 408.198 L2223.43 382.273 L2227.72 382.273 L2227.72 386.3 Q2229.24 383.962 2231.3 382.805 Q2233.39 381.648 2236.1 381.648 Q2240.56 381.648 2242.86 384.425 Q2245.15 387.18 2245.15 392.55 Z" fill="#000000" fill-rule="nonzero" fill-opacity="1" /><path clip-path="url(#clip950)" d="M2285.77 386.208 L2285.77 372.18 L2290.03 372.18 L2290.03 408.198 L2285.77 408.198 L2285.77 404.309 Q2284.43 406.624 2282.37 407.759 Q2280.33 408.87 2277.46 408.87 Q2272.76 408.87 2269.8 405.12 Q2266.86 401.37 2266.86 395.259 Q2266.86 389.148 2269.8 385.398 Q2272.76 381.648 2277.46 381.648 Q2280.33 381.648 2282.37 382.782 Q2284.43 383.893 2285.77 386.208 M2271.26 395.259 Q2271.26 399.958 2273.18 402.643 Q2275.12 405.305 2278.5 405.305 Q2281.88 405.305 2283.83 402.643 Q2285.77 399.958 2285.77 395.259 Q2285.77 390.56 2283.83 387.898 Q2281.88 385.212 2278.5 385.212 Q2275.12 385.212 2273.18 387.898 Q2271.26 390.56 2271.26 395.259 Z" fill="#000000" fill-rule="nonzero" fill-opacity="1" /><path clip-path="url(#clip950)" d="M2298.8 382.273 L2303.06 382.273 L2303.06 408.198 L2298.8 408.198 L2298.8 382.273 M2298.8 372.18 L2303.06 372.18 L2303.06 377.574 L2298.8 377.574 L2298.8 372.18 Z" fill="#000000" fill-rule="nonzero" fill-opacity="1" /><path clip-path="url(#clip950)" d="M2322.02 385.259 Q2318.6 385.259 2316.61 387.944 Q2314.61 390.606 2314.61 395.259 Q2314.61 399.911 2316.58 402.597 Q2318.57 405.259 2322.02 405.259 Q2325.42 405.259 2327.42 402.573 Q2329.41 399.888 2329.41 395.259 Q2329.41 390.652 2327.42 387.967 Q2325.42 385.259 2322.02 385.259 M2322.02 381.648 Q2327.58 381.648 2330.75 385.259 Q2333.92 388.87 2333.92 395.259 Q2333.92 401.624 2330.75 405.259 Q2327.58 408.87 2322.02 408.87 Q2316.44 408.87 2313.27 405.259 Q2310.12 401.624 2310.12 395.259 Q2310.12 388.87 2313.27 385.259 Q2316.44 381.648 2322.02 381.648 Z" fill="#000000" fill-rule="nonzero" fill-opacity="1" /><path clip-path="url(#clip950)" d="M2361.07 382.273 L2351.7 394.888 L2361.56 408.198 L2356.54 408.198 L2348.99 398.013 L2341.44 408.198 L2336.42 408.198 L2346.49 394.634 L2337.28 382.273 L2342.3 382.273 L2349.17 391.509 L2356.05 382.273 L2361.07 382.273 Z" fill="#000000" fill-rule="nonzero" fill-opacity="1" /><path clip-path="url(#clip950)" d="M2367.58 382.273 L2371.84 382.273 L2371.84 408.198 L2367.58 408.198 L2367.58 382.273 M2367.58 372.18 L2371.84 372.18 L2371.84 377.574 L2367.58 377.574 L2367.58 372.18 Z" fill="#000000" fill-rule="nonzero" fill-opacity="1" /><path clip-path="url(#clip950)" d="M2397.81 386.208 L2397.81 372.18 L2402.07 372.18 L2402.07 408.198 L2397.81 408.198 L2397.81 404.309 Q2396.47 406.624 2394.41 407.759 Q2392.37 408.87 2389.5 408.87 Q2384.8 408.87 2381.84 405.12 Q2378.9 401.37 2378.9 395.259 Q2378.9 389.148 2381.84 385.398 Q2384.8 381.648 2389.5 381.648 Q2392.37 381.648 2394.41 382.782 Q2396.47 383.893 2397.81 386.208 M2383.29 395.259 Q2383.29 399.958 2385.22 402.643 Q2387.16 405.305 2390.54 405.305 Q2393.92 405.305 2395.86 402.643 Q2397.81 399.958 2397.81 395.259 Q2397.81 390.56 2395.86 387.898 Q2393.92 385.212 2390.54 385.212 Q2387.16 385.212 2385.22 387.898 Q2383.29 390.56 2383.29 395.259 Z" fill="#000000" fill-rule="nonzero" fill-opacity="1" /><path clip-path="url(#clip950)" d="M2433.02 394.171 L2433.02 396.254 L2413.43 396.254 Q2413.71 400.652 2416.07 402.967 Q2418.46 405.259 2422.69 405.259 Q2425.15 405.259 2427.44 404.657 Q2429.75 404.055 2432.02 402.851 L2432.02 406.879 Q2429.73 407.851 2427.32 408.36 Q2424.91 408.87 2422.44 408.87 Q2416.23 408.87 2412.6 405.259 Q2408.99 401.647 2408.99 395.49 Q2408.99 389.124 2412.41 385.398 Q2415.86 381.648 2421.7 381.648 Q2426.93 381.648 2429.96 385.027 Q2433.02 388.384 2433.02 394.171 M2428.76 392.921 Q2428.71 389.425 2426.79 387.342 Q2424.89 385.259 2421.74 385.259 Q2418.18 385.259 2416.03 387.273 Q2413.9 389.286 2413.57 392.944 L2428.76 392.921 Z" fill="#000000" fill-rule="nonzero" fill-opacity="1" /><path clip-path="url(#clip950)" d="M2472.14 394.935 Q2472.14 390.305 2470.22 387.759 Q2468.32 385.212 2464.87 385.212 Q2461.44 385.212 2459.52 387.759 Q2457.62 390.305 2457.62 394.935 Q2457.62 399.541 2459.52 402.087 Q2461.44 404.634 2464.87 404.634 Q2468.32 404.634 2470.22 402.087 Q2472.14 399.541 2472.14 394.935 M2476.4 404.981 Q2476.4 411.601 2473.46 414.819 Q2470.52 418.059 2464.45 418.059 Q2462.21 418.059 2460.22 417.712 Q2458.22 417.388 2456.35 416.694 L2456.35 412.55 Q2458.22 413.569 2460.05 414.055 Q2461.88 414.541 2463.78 414.541 Q2467.97 414.541 2470.05 412.342 Q2472.14 410.166 2472.14 405.745 L2472.14 403.638 Q2470.82 405.93 2468.76 407.064 Q2466.7 408.198 2463.83 408.198 Q2459.06 408.198 2456.14 404.564 Q2453.22 400.93 2453.22 394.935 Q2453.22 388.916 2456.14 385.282 Q2459.06 381.648 2463.83 381.648 Q2466.7 381.648 2468.76 382.782 Q2470.82 383.916 2472.14 386.208 L2472.14 382.273 L2476.4 382.273 L2476.4 404.981 Z" fill="#000000" fill-rule="nonzero" fill-opacity="1" /><path clip-path="url(#clip950)" d="M2496.95 395.166 Q2491.79 395.166 2489.8 396.347 Q2487.81 397.527 2487.81 400.374 Q2487.81 402.643 2489.29 403.985 Q2490.79 405.305 2493.36 405.305 Q2496.91 405.305 2499.03 402.805 Q2501.19 400.282 2501.19 396.115 L2501.19 395.166 L2496.95 395.166 M2505.45 393.407 L2505.45 408.198 L2501.19 408.198 L2501.19 404.263 Q2499.73 406.624 2497.55 407.759 Q2495.38 408.87 2492.23 408.87 Q2488.25 408.87 2485.89 406.647 Q2483.55 404.402 2483.55 400.652 Q2483.55 396.277 2486.47 394.055 Q2489.41 391.833 2495.22 391.833 L2501.19 391.833 L2501.19 391.416 Q2501.19 388.476 2499.24 386.879 Q2497.32 385.259 2493.83 385.259 Q2491.6 385.259 2489.5 385.791 Q2487.39 386.323 2485.45 387.388 L2485.45 383.453 Q2487.78 382.55 2489.98 382.111 Q2492.18 381.648 2494.27 381.648 Q2499.89 381.648 2502.67 384.564 Q2505.45 387.481 2505.45 393.407 Z" fill="#000000" fill-rule="nonzero" fill-opacity="1" /><path clip-path="url(#clip950)" d="M2530.75 383.036 L2530.75 387.064 Q2528.94 386.138 2527 385.675 Q2525.05 385.212 2522.97 385.212 Q2519.8 385.212 2518.2 386.185 Q2516.63 387.157 2516.63 389.101 Q2516.63 390.583 2517.76 391.439 Q2518.9 392.273 2522.32 393.036 L2523.78 393.36 Q2528.32 394.333 2530.22 396.115 Q2532.14 397.874 2532.14 401.046 Q2532.14 404.657 2529.27 406.763 Q2526.42 408.87 2521.42 408.87 Q2519.34 408.87 2517.07 408.453 Q2514.82 408.059 2512.32 407.249 L2512.32 402.851 Q2514.68 404.078 2516.97 404.703 Q2519.27 405.305 2521.51 405.305 Q2524.52 405.305 2526.14 404.286 Q2527.76 403.245 2527.76 401.37 Q2527.76 399.634 2526.58 398.708 Q2525.42 397.782 2521.47 396.925 L2519.98 396.578 Q2516.03 395.745 2514.27 394.032 Q2512.51 392.296 2512.51 389.286 Q2512.51 385.629 2515.1 383.638 Q2517.69 381.648 2522.46 381.648 Q2524.82 381.648 2526.9 381.995 Q2528.99 382.342 2530.75 383.036 Z" fill="#000000" fill-rule="nonzero" fill-opacity="1" /></svg>
