<?xml version="1.0" encoding="utf-8"?>
<svg xmlns="http://www.w3.org/2000/svg" xmlns:xlink="http://www.w3.org/1999/xlink" width="672" height="480" viewBox="0 0 2688 1920">
<defs>
  <clipPath id="clip560">
    <rect x="0" y="0" width="2688" height="1920"/>
  </clipPath>
</defs>
<path clip-path="url(#clip560)" d="
M0 1920 L2688 1920 L2688 0 L0 0  Z
  " fill="#ffffff" fill-rule="evenodd" fill-opacity="1"/>
<defs>
  <clipPath id="clip561">
    <rect x="537" y="0" width="1883" height="1883"/>
  </clipPath>
</defs>
<path clip-path="url(#clip560)" d="
M249.351 1814.67 L2640.76 1814.67 L2640.76 127.792 L249.351 127.792  Z
  " fill="#ffffff" fill-rule="evenodd" fill-opacity="1"/>
<defs>
  <clipPath id="clip562">
    <rect x="249" y="127" width="2392" height="1688"/>
  </clipPath>
</defs>
<polyline clip-path="url(#clip562)" style="stroke:#000000; stroke-linecap:round; stroke-linejoin:round; stroke-width:2; stroke-opacity:0.1; fill:none" points="
  249.351,1814.67 249.351,127.792 
  "/>
<polyline clip-path="url(#clip562)" style="stroke:#000000; stroke-linecap:round; stroke-linejoin:round; stroke-width:2; stroke-opacity:0.1; fill:none" points="
  847.202,1814.67 847.202,127.792 
  "/>
<polyline clip-path="url(#clip562)" style="stroke:#000000; stroke-linecap:round; stroke-linejoin:round; stroke-width:2; stroke-opacity:0.1; fill:none" points="
  1445.05,1814.67 1445.05,127.792 
  "/>
<polyline clip-path="url(#clip562)" style="stroke:#000000; stroke-linecap:round; stroke-linejoin:round; stroke-width:2; stroke-opacity:0.1; fill:none" points="
  2042.9,1814.67 2042.9,127.792 
  "/>
<polyline clip-path="url(#clip562)" style="stroke:#000000; stroke-linecap:round; stroke-linejoin:round; stroke-width:2; stroke-opacity:0.1; fill:none" points="
  2640.76,1814.67 2640.76,127.792 
  "/>
<polyline clip-path="url(#clip560)" style="stroke:#000000; stroke-linecap:round; stroke-linejoin:round; stroke-width:4; stroke-opacity:1; fill:none" points="
  249.351,1814.67 2640.76,1814.67 
  "/>
<polyline clip-path="url(#clip560)" style="stroke:#000000; stroke-linecap:round; stroke-linejoin:round; stroke-width:4; stroke-opacity:1; fill:none" points="
  249.351,127.792 2640.76,127.792 
  "/>
<polyline clip-path="url(#clip560)" style="stroke:#000000; stroke-linecap:round; stroke-linejoin:round; stroke-width:4; stroke-opacity:1; fill:none" points="
  249.351,1814.67 249.351,1795.77 
  "/>
<polyline clip-path="url(#clip560)" style="stroke:#000000; stroke-linecap:round; stroke-linejoin:round; stroke-width:4; stroke-opacity:1; fill:none" points="
  847.202,1814.67 847.202,1795.77 
  "/>
<polyline clip-path="url(#clip560)" style="stroke:#000000; stroke-linecap:round; stroke-linejoin:round; stroke-width:4; stroke-opacity:1; fill:none" points="
  1445.05,1814.67 1445.05,1795.77 
  "/>
<polyline clip-path="url(#clip560)" style="stroke:#000000; stroke-linecap:round; stroke-linejoin:round; stroke-width:4; stroke-opacity:1; fill:none" points="
  2042.9,1814.67 2042.9,1795.77 
  "/>
<polyline clip-path="url(#clip560)" style="stroke:#000000; stroke-linecap:round; stroke-linejoin:round; stroke-width:4; stroke-opacity:1; fill:none" points="
  2640.76,1814.67 2640.76,1795.77 
  "/>
<path clip-path="url(#clip560)" d="M220.64 1852.65 L239.188 1852.65 L239.188 1855.11 L220.64 1855.11 L220.64 1852.65 Z" fill="#000000" fill-rule="evenodd" fill-opacity="1" /><path clip-path="url(#clip560)" d="M246.002 1860.71 L250.776 1860.71 L250.776 1844.23 L245.582 1845.27 L245.582 1842.61 L250.747 1841.57 L253.67 1841.57 L253.67 1860.71 L258.444 1860.71 L258.444 1863.17 L246.002 1863.17 L246.002 1860.71 Z" fill="#000000" fill-rule="evenodd" fill-opacity="1" /><path clip-path="url(#clip560)" d="M270.597 1843.49 Q268.34 1843.49 267.197 1845.72 Q266.068 1847.93 266.068 1852.39 Q266.068 1856.83 267.197 1859.06 Q268.34 1861.27 270.597 1861.27 Q272.868 1861.27 273.997 1859.06 Q275.14 1856.83 275.14 1852.39 Q275.14 1847.93 273.997 1845.72 Q272.868 1843.49 270.597 1843.49 M270.597 1841.18 Q274.228 1841.18 276.138 1844.06 Q278.062 1846.92 278.062 1852.39 Q278.062 1857.84 276.138 1860.72 Q274.228 1863.59 270.597 1863.59 Q266.965 1863.59 265.041 1860.72 Q263.131 1857.84 263.131 1852.39 Q263.131 1846.92 265.041 1844.06 Q266.965 1841.18 270.597 1841.18 Z" fill="#000000" fill-rule="evenodd" fill-opacity="1" /><path clip-path="url(#clip560)" d="M828.228 1852.65 L846.776 1852.65 L846.776 1855.11 L828.228 1855.11 L828.228 1852.65 Z" fill="#000000" fill-rule="evenodd" fill-opacity="1" /><path clip-path="url(#clip560)" d="M853.112 1841.57 L864.585 1841.57 L864.585 1844.03 L855.789 1844.03 L855.789 1849.32 Q856.425 1849.11 857.062 1849.01 Q857.699 1848.89 858.335 1848.89 Q861.952 1848.89 864.064 1850.87 Q866.176 1852.85 866.176 1856.24 Q866.176 1859.73 864.006 1861.66 Q861.836 1863.59 857.887 1863.59 Q856.527 1863.59 855.109 1863.36 Q853.705 1863.13 852.201 1862.66 L852.201 1859.73 Q853.503 1860.43 854.892 1860.78 Q856.281 1861.13 857.829 1861.13 Q860.332 1861.13 861.793 1859.81 Q863.254 1858.5 863.254 1856.24 Q863.254 1853.98 861.793 1852.67 Q860.332 1851.35 857.829 1851.35 Q856.657 1851.35 855.485 1851.61 Q854.328 1851.87 853.112 1852.42 L853.112 1841.57 Z" fill="#000000" fill-rule="evenodd" fill-opacity="1" /><path clip-path="url(#clip560)" d="M1445.05 1843.49 Q1442.8 1843.49 1441.65 1845.72 Q1440.53 1847.93 1440.53 1852.39 Q1440.53 1856.83 1441.65 1859.06 Q1442.8 1861.27 1445.05 1861.27 Q1447.32 1861.27 1448.45 1859.06 Q1449.6 1856.83 1449.6 1852.39 Q1449.6 1847.93 1448.45 1845.72 Q1447.32 1843.49 1445.05 1843.49 M1445.05 1841.18 Q1448.68 1841.18 1450.59 1844.06 Q1452.52 1846.92 1452.52 1852.39 Q1452.52 1857.84 1450.59 1860.72 Q1448.68 1863.59 1445.05 1863.59 Q1441.42 1863.59 1439.5 1860.72 Q1437.59 1857.84 1437.59 1852.39 Q1437.59 1846.92 1439.5 1844.06 Q1441.42 1841.18 1445.05 1841.18 Z" fill="#000000" fill-rule="evenodd" fill-opacity="1" /><path clip-path="url(#clip560)" d="M2036.83 1841.57 L2048.3 1841.57 L2048.3 1844.03 L2039.5 1844.03 L2039.5 1849.32 Q2040.14 1849.11 2040.78 1849.01 Q2041.41 1848.89 2042.05 1848.89 Q2045.67 1848.89 2047.78 1850.87 Q2049.89 1852.85 2049.89 1856.24 Q2049.89 1859.73 2047.72 1861.66 Q2045.55 1863.59 2041.6 1863.59 Q2040.24 1863.59 2038.82 1863.36 Q2037.42 1863.13 2035.92 1862.66 L2035.92 1859.73 Q2037.22 1860.43 2038.61 1860.78 Q2040 1861.13 2041.54 1861.13 Q2044.05 1861.13 2045.51 1859.81 Q2046.97 1858.5 2046.97 1856.24 Q2046.97 1853.98 2045.51 1852.67 Q2044.05 1851.35 2041.54 1851.35 Q2040.37 1851.35 2039.2 1851.61 Q2038.04 1851.87 2036.83 1852.42 L2036.83 1841.57 Z" fill="#000000" fill-rule="evenodd" fill-opacity="1" /><path clip-path="url(#clip560)" d="M2624.94 1860.71 L2629.71 1860.71 L2629.71 1844.23 L2624.52 1845.27 L2624.52 1842.61 L2629.68 1841.57 L2632.6 1841.57 L2632.6 1860.71 L2637.38 1860.71 L2637.38 1863.17 L2624.94 1863.17 L2624.94 1860.71 Z" fill="#000000" fill-rule="evenodd" fill-opacity="1" /><path clip-path="url(#clip560)" d="M2649.53 1843.49 Q2647.27 1843.49 2646.13 1845.72 Q2645 1847.93 2645 1852.39 Q2645 1856.83 2646.13 1859.06 Q2647.27 1861.27 2649.53 1861.27 Q2651.8 1861.27 2652.93 1859.06 Q2654.07 1856.83 2654.07 1852.39 Q2654.07 1847.93 2652.93 1845.72 Q2651.8 1843.49 2649.53 1843.49 M2649.53 1841.18 Q2653.16 1841.18 2655.07 1844.06 Q2657 1846.92 2657 1852.39 Q2657 1857.84 2655.07 1860.72 Q2653.16 1863.59 2649.53 1863.59 Q2645.9 1863.59 2643.97 1860.72 Q2642.07 1857.84 2642.07 1852.39 Q2642.07 1846.92 2643.97 1844.06 Q2645.9 1841.18 2649.53 1841.18 Z" fill="#000000" fill-rule="evenodd" fill-opacity="1" /><polyline clip-path="url(#clip562)" style="stroke:#000000; stroke-linecap:round; stroke-linejoin:round; stroke-width:2; stroke-opacity:0.1; fill:none" points="
  249.351,1661.31 2640.76,1661.31 
  "/>
<polyline clip-path="url(#clip562)" style="stroke:#000000; stroke-linecap:round; stroke-linejoin:round; stroke-width:2; stroke-opacity:0.1; fill:none" points="
  249.351,1594.71 2640.76,1594.71 
  "/>
<polyline clip-path="url(#clip562)" style="stroke:#000000; stroke-linecap:round; stroke-linejoin:round; stroke-width:2; stroke-opacity:0.1; fill:none" points="
  249.351,1394.91 2640.76,1394.91 
  "/>
<polyline clip-path="url(#clip562)" style="stroke:#000000; stroke-linecap:round; stroke-linejoin:round; stroke-width:2; stroke-opacity:0.1; fill:none" points="
  249.351,1061.91 2640.76,1061.91 
  "/>
<polyline clip-path="url(#clip562)" style="stroke:#000000; stroke-linecap:round; stroke-linejoin:round; stroke-width:2; stroke-opacity:0.1; fill:none" points="
  249.351,595.714 2640.76,595.714 
  "/>
<polyline clip-path="url(#clip560)" style="stroke:#000000; stroke-linecap:round; stroke-linejoin:round; stroke-width:4; stroke-opacity:1; fill:none" points="
  249.351,1814.67 249.351,127.792 
  "/>
<polyline clip-path="url(#clip560)" style="stroke:#000000; stroke-linecap:round; stroke-linejoin:round; stroke-width:4; stroke-opacity:1; fill:none" points="
  2640.76,1814.67 2640.76,127.792 
  "/>
<polyline clip-path="url(#clip560)" style="stroke:#000000; stroke-linecap:round; stroke-linejoin:round; stroke-width:4; stroke-opacity:1; fill:none" points="
  249.351,1661.31 268.249,1661.31 
  "/>
<polyline clip-path="url(#clip560)" style="stroke:#000000; stroke-linecap:round; stroke-linejoin:round; stroke-width:4; stroke-opacity:1; fill:none" points="
  249.351,1594.71 268.249,1594.71 
  "/>
<polyline clip-path="url(#clip560)" style="stroke:#000000; stroke-linecap:round; stroke-linejoin:round; stroke-width:4; stroke-opacity:1; fill:none" points="
  249.351,1394.91 268.249,1394.91 
  "/>
<polyline clip-path="url(#clip560)" style="stroke:#000000; stroke-linecap:round; stroke-linejoin:round; stroke-width:4; stroke-opacity:1; fill:none" points="
  249.351,1061.91 268.249,1061.91 
  "/>
<polyline clip-path="url(#clip560)" style="stroke:#000000; stroke-linecap:round; stroke-linejoin:round; stroke-width:4; stroke-opacity:1; fill:none" points="
  249.351,595.714 268.249,595.714 
  "/>
<path clip-path="url(#clip560)" d="M49.9717 1673.68 L54.746 1673.68 L54.746 1657.2 L49.5521 1658.25 L49.5521 1655.58 L54.717 1654.54 L57.6395 1654.54 L57.6395 1673.68 L62.4137 1673.68 L62.4137 1676.14 L49.9717 1676.14 L49.9717 1673.68 Z" fill="#000000" fill-rule="evenodd" fill-opacity="1" /><path clip-path="url(#clip560)" d="M74.5665 1656.47 Q72.3095 1656.47 71.1666 1658.69 Q70.0381 1660.91 70.0381 1665.36 Q70.0381 1669.81 71.1666 1672.03 Q72.3095 1674.25 74.5665 1674.25 Q76.8379 1674.25 77.9663 1672.03 Q79.1093 1669.81 79.1093 1665.36 Q79.1093 1660.91 77.9663 1658.69 Q76.8379 1656.47 74.5665 1656.47 M74.5665 1654.15 Q78.1978 1654.15 80.1075 1657.03 Q82.0317 1659.9 82.0317 1665.36 Q82.0317 1670.82 80.1075 1673.7 Q78.1978 1676.56 74.5665 1676.56 Q70.9351 1676.56 69.0109 1673.7 Q67.1012 1670.82 67.1012 1665.36 Q67.1012 1659.9 69.0109 1657.03 Q70.9351 1654.15 74.5665 1654.15 Z" fill="#000000" fill-rule="evenodd" fill-opacity="1" /><path clip-path="url(#clip560)" d="M88.0972 1643.02 Q86.2634 1643.02 85.3348 1644.83 Q84.4179 1646.63 84.4179 1650.25 Q84.4179 1653.86 85.3348 1655.67 Q86.2634 1657.47 88.0972 1657.47 Q89.9427 1657.47 90.8596 1655.67 Q91.7882 1653.86 91.7882 1650.25 Q91.7882 1646.63 90.8596 1644.83 Q89.9427 1643.02 88.0972 1643.02 M88.0972 1641.14 Q91.0477 1641.14 92.5993 1643.48 Q94.1627 1645.81 94.1627 1650.25 Q94.1627 1654.69 92.5993 1657.02 Q91.0477 1659.35 88.0972 1659.35 Q85.1467 1659.35 83.5833 1657.02 Q82.0317 1654.69 82.0317 1650.25 Q82.0317 1645.81 83.5833 1643.48 Q85.1467 1641.14 88.0972 1641.14 Z" fill="#000000" fill-rule="evenodd" fill-opacity="1" /><path clip-path="url(#clip560)" d="M98.3357 1656.03 L100.816 1656.03 L100.816 1659.01 L98.3357 1659.01 L98.3357 1656.03 Z" fill="#000000" fill-rule="evenodd" fill-opacity="1" /><path clip-path="url(#clip560)" d="M111.066 1643.02 Q109.232 1643.02 108.304 1644.83 Q107.387 1646.63 107.387 1650.25 Q107.387 1653.86 108.304 1655.67 Q109.232 1657.47 111.066 1657.47 Q112.912 1657.47 113.829 1655.67 Q114.757 1653.86 114.757 1650.25 Q114.757 1646.63 113.829 1644.83 Q112.912 1643.02 111.066 1643.02 M111.066 1641.14 Q114.017 1641.14 115.568 1643.48 Q117.132 1645.81 117.132 1650.25 Q117.132 1654.69 115.568 1657.02 Q114.017 1659.35 111.066 1659.35 Q108.116 1659.35 106.552 1657.02 Q105.001 1654.69 105.001 1650.25 Q105.001 1645.81 106.552 1643.48 Q108.116 1641.14 111.066 1641.14 Z" fill="#000000" fill-rule="evenodd" fill-opacity="1" /><path clip-path="url(#clip560)" d="M126.383 1643.02 Q124.549 1643.02 123.62 1644.83 Q122.703 1646.63 122.703 1650.25 Q122.703 1653.86 123.62 1655.67 Q124.549 1657.47 126.383 1657.47 Q128.228 1657.47 129.145 1655.67 Q130.074 1653.86 130.074 1650.25 Q130.074 1646.63 129.145 1644.83 Q128.228 1643.02 126.383 1643.02 M126.383 1641.14 Q129.333 1641.14 130.885 1643.48 Q132.448 1645.81 132.448 1650.25 Q132.448 1654.69 130.885 1657.02 Q129.333 1659.35 126.383 1659.35 Q123.432 1659.35 121.869 1657.02 Q120.317 1654.69 120.317 1650.25 Q120.317 1645.81 121.869 1643.48 Q123.432 1641.14 126.383 1641.14 Z" fill="#000000" fill-rule="evenodd" fill-opacity="1" /><path clip-path="url(#clip560)" d="M141.699 1643.02 Q139.866 1643.02 138.937 1644.83 Q138.02 1646.63 138.02 1650.25 Q138.02 1653.86 138.937 1655.67 Q139.866 1657.47 141.699 1657.47 Q143.545 1657.47 144.462 1655.67 Q145.39 1653.86 145.39 1650.25 Q145.39 1646.63 144.462 1644.83 Q143.545 1643.02 141.699 1643.02 M141.699 1641.14 Q144.65 1641.14 146.201 1643.48 Q147.765 1645.81 147.765 1650.25 Q147.765 1654.69 146.201 1657.02 Q144.65 1659.35 141.699 1659.35 Q138.749 1659.35 137.185 1657.02 Q135.634 1654.69 135.634 1650.25 Q135.634 1645.81 137.185 1643.48 Q138.749 1641.14 141.699 1641.14 Z" fill="#000000" fill-rule="evenodd" fill-opacity="1" /><path clip-path="url(#clip560)" d="M157.016 1643.02 Q155.182 1643.02 154.254 1644.83 Q153.337 1646.63 153.337 1650.25 Q153.337 1653.86 154.254 1655.67 Q155.182 1657.47 157.016 1657.47 Q158.861 1657.47 159.778 1655.67 Q160.707 1653.86 160.707 1650.25 Q160.707 1646.63 159.778 1644.83 Q158.861 1643.02 157.016 1643.02 M157.016 1641.14 Q159.966 1641.14 161.518 1643.48 Q163.081 1645.81 163.081 1650.25 Q163.081 1654.69 161.518 1657.02 Q159.966 1659.35 157.016 1659.35 Q154.065 1659.35 152.502 1657.02 Q150.95 1654.69 150.95 1650.25 Q150.95 1645.81 152.502 1643.48 Q154.065 1641.14 157.016 1641.14 Z" fill="#000000" fill-rule="evenodd" fill-opacity="1" /><path clip-path="url(#clip560)" d="M172.333 1643.02 Q170.499 1643.02 169.57 1644.83 Q168.653 1646.63 168.653 1650.25 Q168.653 1653.86 169.57 1655.67 Q170.499 1657.47 172.333 1657.47 Q174.178 1657.47 175.095 1655.67 Q176.024 1653.86 176.024 1650.25 Q176.024 1646.63 175.095 1644.83 Q174.178 1643.02 172.333 1643.02 M172.333 1641.14 Q175.283 1641.14 176.835 1643.48 Q178.398 1645.81 178.398 1650.25 Q178.398 1654.69 176.835 1657.02 Q175.283 1659.35 172.333 1659.35 Q169.382 1659.35 167.819 1657.02 Q166.267 1654.69 166.267 1650.25 Q166.267 1645.81 167.819 1643.48 Q169.382 1641.14 172.333 1641.14 Z" fill="#000000" fill-rule="evenodd" fill-opacity="1" /><path clip-path="url(#clip560)" d="M187.649 1643.02 Q185.815 1643.02 184.887 1644.83 Q183.97 1646.63 183.97 1650.25 Q183.97 1653.86 184.887 1655.67 Q185.815 1657.47 187.649 1657.47 Q189.495 1657.47 190.411 1655.67 Q191.34 1653.86 191.34 1650.25 Q191.34 1646.63 190.411 1644.83 Q189.495 1643.02 187.649 1643.02 M187.649 1641.14 Q190.6 1641.14 192.151 1643.48 Q193.715 1645.81 193.715 1650.25 Q193.715 1654.69 192.151 1657.02 Q190.6 1659.35 187.649 1659.35 Q184.699 1659.35 183.135 1657.02 Q181.584 1654.69 181.584 1650.25 Q181.584 1645.81 183.135 1643.48 Q184.699 1641.14 187.649 1641.14 Z" fill="#000000" fill-rule="evenodd" fill-opacity="1" /><path clip-path="url(#clip560)" d="M202.966 1643.02 Q201.132 1643.02 200.203 1644.83 Q199.286 1646.63 199.286 1650.25 Q199.286 1653.86 200.203 1655.67 Q201.132 1657.47 202.966 1657.47 Q204.811 1657.47 205.728 1655.67 Q206.657 1653.86 206.657 1650.25 Q206.657 1646.63 205.728 1644.83 Q204.811 1643.02 202.966 1643.02 M202.966 1641.14 Q205.916 1641.14 207.468 1643.48 Q209.031 1645.81 209.031 1650.25 Q209.031 1654.69 207.468 1657.02 Q205.916 1659.35 202.966 1659.35 Q200.015 1659.35 198.452 1657.02 Q196.9 1654.69 196.9 1650.25 Q196.9 1645.81 198.452 1643.48 Q200.015 1641.14 202.966 1641.14 Z" fill="#000000" fill-rule="evenodd" fill-opacity="1" /><path clip-path="url(#clip560)" d="M50.4771 1607.08 L55.2514 1607.08 L55.2514 1590.6 L50.0576 1591.65 L50.0576 1588.98 L55.2225 1587.94 L58.1449 1587.94 L58.1449 1607.08 L62.9192 1607.08 L62.9192 1609.54 L50.4771 1609.54 L50.4771 1607.08 Z" fill="#000000" fill-rule="evenodd" fill-opacity="1" /><path clip-path="url(#clip560)" d="M75.0719 1589.87 Q72.815 1589.87 71.6721 1592.09 Q70.5436 1594.31 70.5436 1598.76 Q70.5436 1603.21 71.6721 1605.43 Q72.815 1607.65 75.0719 1607.65 Q77.3433 1607.65 78.4718 1605.43 Q79.6147 1603.21 79.6147 1598.76 Q79.6147 1594.31 78.4718 1592.09 Q77.3433 1589.87 75.0719 1589.87 M75.0719 1587.55 Q78.7033 1587.55 80.613 1590.43 Q82.5372 1593.3 82.5372 1598.76 Q82.5372 1604.22 80.613 1607.1 Q78.7033 1609.96 75.0719 1609.96 Q71.4406 1609.96 69.5164 1607.1 Q67.6067 1604.22 67.6067 1598.76 Q67.6067 1593.3 69.5164 1590.43 Q71.4406 1587.55 75.0719 1587.55 Z" fill="#000000" fill-rule="evenodd" fill-opacity="1" /><path clip-path="url(#clip560)" d="M88.6027 1576.42 Q86.7689 1576.42 85.8403 1578.23 Q84.9234 1580.03 84.9234 1583.65 Q84.9234 1587.26 85.8403 1589.07 Q86.7689 1590.87 88.6027 1590.87 Q90.4482 1590.87 91.3651 1589.07 Q92.2937 1587.26 92.2937 1583.65 Q92.2937 1580.03 91.3651 1578.23 Q90.4482 1576.42 88.6027 1576.42 M88.6027 1574.54 Q91.5531 1574.54 93.1048 1576.88 Q94.6682 1579.21 94.6682 1583.65 Q94.6682 1588.09 93.1048 1590.42 Q91.5531 1592.75 88.6027 1592.75 Q85.6522 1592.75 84.0888 1590.42 Q82.5372 1588.09 82.5372 1583.65 Q82.5372 1579.21 84.0888 1576.88 Q85.6522 1574.54 88.6027 1574.54 Z" fill="#000000" fill-rule="evenodd" fill-opacity="1" /><path clip-path="url(#clip560)" d="M98.8411 1589.43 L101.321 1589.43 L101.321 1592.41 L98.8411 1592.41 L98.8411 1589.43 Z" fill="#000000" fill-rule="evenodd" fill-opacity="1" /><path clip-path="url(#clip560)" d="M113.017 1576.93 L107.023 1586.3 L113.017 1586.3 L113.017 1576.93 M112.394 1574.86 L115.38 1574.86 L115.38 1586.3 L117.884 1586.3 L117.884 1588.27 L115.38 1588.27 L115.38 1592.41 L113.017 1592.41 L113.017 1588.27 L105.095 1588.27 L105.095 1585.98 L112.394 1574.86 Z" fill="#000000" fill-rule="evenodd" fill-opacity="1" /><path clip-path="url(#clip560)" d="M129.004 1582.95 Q130.709 1583.31 131.661 1584.46 Q132.625 1585.62 132.625 1587.31 Q132.625 1589.91 130.838 1591.33 Q129.051 1592.75 125.76 1592.75 Q124.655 1592.75 123.479 1592.53 Q122.316 1592.32 121.07 1591.88 L121.07 1589.59 Q122.057 1590.17 123.232 1590.46 Q124.408 1590.75 125.689 1590.75 Q127.923 1590.75 129.086 1589.87 Q130.262 1588.99 130.262 1587.31 Q130.262 1585.76 129.169 1584.89 Q128.087 1584.01 126.148 1584.01 L124.102 1584.01 L124.102 1582.06 L126.242 1582.06 Q127.993 1582.06 128.922 1581.36 Q129.85 1580.66 129.85 1579.34 Q129.85 1577.99 128.887 1577.27 Q127.934 1576.54 126.148 1576.54 Q125.172 1576.54 124.055 1576.75 Q122.939 1576.97 121.599 1577.41 L121.599 1575.3 Q122.95 1574.92 124.126 1574.73 Q125.313 1574.54 126.359 1574.54 Q129.063 1574.54 130.638 1575.78 Q132.213 1577 132.213 1579.09 Q132.213 1580.55 131.379 1581.56 Q130.544 1582.56 129.004 1582.95 Z" fill="#000000" fill-rule="evenodd" fill-opacity="1" /><path clip-path="url(#clip560)" d="M143.651 1576.93 L137.656 1586.3 L143.651 1586.3 L143.651 1576.93 M143.028 1574.86 L146.013 1574.86 L146.013 1586.3 L148.517 1586.3 L148.517 1588.27 L146.013 1588.27 L146.013 1592.41 L143.651 1592.41 L143.651 1588.27 L135.728 1588.27 L135.728 1585.98 L143.028 1574.86 Z" fill="#000000" fill-rule="evenodd" fill-opacity="1" /><path clip-path="url(#clip560)" d="M154.489 1590.41 L162.776 1590.41 L162.776 1592.41 L151.632 1592.41 L151.632 1590.41 Q152.984 1589.01 155.311 1586.66 Q157.651 1584.3 158.25 1583.62 Q159.39 1582.34 159.837 1581.46 Q160.296 1580.56 160.296 1579.7 Q160.296 1578.31 159.308 1577.42 Q158.332 1576.54 156.757 1576.54 Q155.641 1576.54 154.395 1576.93 Q153.16 1577.32 151.75 1578.11 L151.75 1575.71 Q153.184 1575.13 154.43 1574.84 Q155.676 1574.54 156.71 1574.54 Q159.437 1574.54 161.06 1575.91 Q162.682 1577.27 162.682 1579.55 Q162.682 1580.63 162.27 1581.61 Q161.871 1582.57 160.801 1583.89 Q160.507 1584.23 158.932 1585.86 Q157.357 1587.49 154.489 1590.41 Z" fill="#000000" fill-rule="evenodd" fill-opacity="1" /><path clip-path="url(#clip560)" d="M167.83 1592.05 L167.83 1589.88 Q168.724 1590.31 169.641 1590.53 Q170.558 1590.75 171.439 1590.75 Q173.79 1590.75 175.024 1589.18 Q176.27 1587.59 176.447 1584.37 Q175.765 1585.38 174.719 1585.92 Q173.673 1586.46 172.403 1586.46 Q169.77 1586.46 168.23 1584.88 Q166.702 1583.28 166.702 1580.52 Q166.702 1577.81 168.301 1576.18 Q169.899 1574.54 172.556 1574.54 Q175.6 1574.54 177.199 1576.88 Q178.809 1579.21 178.809 1583.65 Q178.809 1587.8 176.835 1590.28 Q174.872 1592.75 171.545 1592.75 Q170.652 1592.75 169.735 1592.58 Q168.818 1592.4 167.83 1592.05 M172.556 1584.61 Q174.155 1584.61 175.083 1583.51 Q176.024 1582.42 176.024 1580.52 Q176.024 1578.62 175.083 1577.53 Q174.155 1576.42 172.556 1576.42 Q170.957 1576.42 170.017 1577.53 Q169.088 1578.62 169.088 1580.52 Q169.088 1582.42 170.017 1583.51 Q170.957 1584.61 172.556 1584.61 Z" fill="#000000" fill-rule="evenodd" fill-opacity="1" /><path clip-path="url(#clip560)" d="M189.6 1576.93 L183.605 1586.3 L189.6 1586.3 L189.6 1576.93 M188.977 1574.86 L191.963 1574.86 L191.963 1586.3 L194.467 1586.3 L194.467 1588.27 L191.963 1588.27 L191.963 1592.41 L189.6 1592.41 L189.6 1588.27 L181.678 1588.27 L181.678 1585.98 L188.977 1574.86 Z" fill="#000000" fill-rule="evenodd" fill-opacity="1" /><path clip-path="url(#clip560)" d="M198.417 1574.86 L207.738 1574.86 L207.738 1576.86 L200.591 1576.86 L200.591 1581.16 Q201.108 1580.99 201.626 1580.9 Q202.143 1580.81 202.66 1580.81 Q205.599 1580.81 207.315 1582.42 Q209.031 1584.03 209.031 1586.78 Q209.031 1589.61 207.268 1591.19 Q205.505 1592.75 202.296 1592.75 Q201.191 1592.75 200.039 1592.56 Q198.898 1592.38 197.676 1592 L197.676 1589.61 Q198.734 1590.19 199.862 1590.47 Q200.991 1590.75 202.249 1590.75 Q204.282 1590.75 205.469 1589.68 Q206.657 1588.61 206.657 1586.78 Q206.657 1584.95 205.469 1583.88 Q204.282 1582.81 202.249 1582.81 Q201.296 1582.81 200.344 1583.02 Q199.404 1583.23 198.417 1583.68 L198.417 1574.86 Z" fill="#000000" fill-rule="evenodd" fill-opacity="1" /><path clip-path="url(#clip560)" d="M51.1237 1407.28 L55.8979 1407.28 L55.8979 1390.8 L50.7041 1391.85 L50.7041 1389.18 L55.869 1388.14 L58.7914 1388.14 L58.7914 1407.28 L63.5657 1407.28 L63.5657 1409.74 L51.1237 1409.74 L51.1237 1407.28 Z" fill="#000000" fill-rule="evenodd" fill-opacity="1" /><path clip-path="url(#clip560)" d="M75.7184 1390.07 Q73.4615 1390.07 72.3186 1392.3 Q71.1901 1394.51 71.1901 1398.96 Q71.1901 1403.41 72.3186 1405.63 Q73.4615 1407.85 75.7184 1407.85 Q77.9898 1407.85 79.1183 1405.63 Q80.2612 1403.41 80.2612 1398.96 Q80.2612 1394.51 79.1183 1392.3 Q77.9898 1390.07 75.7184 1390.07 M75.7184 1387.75 Q79.3498 1387.75 81.2595 1390.63 Q83.1837 1393.5 83.1837 1398.96 Q83.1837 1404.42 81.2595 1407.3 Q79.3498 1410.16 75.7184 1410.16 Q72.0871 1410.16 70.1629 1407.3 Q68.2532 1404.42 68.2532 1398.96 Q68.2532 1393.5 70.1629 1390.63 Q72.0871 1387.75 75.7184 1387.75 Z" fill="#000000" fill-rule="evenodd" fill-opacity="1" /><path clip-path="url(#clip560)" d="M83.5246 1390.61 L87.4037 1390.61 L87.4037 1377.22 L83.1837 1378.07 L83.1837 1375.91 L87.3802 1375.06 L89.7546 1375.06 L89.7546 1390.61 L93.6337 1390.61 L93.6337 1392.61 L83.5246 1392.61 L83.5246 1390.61 Z" fill="#000000" fill-rule="evenodd" fill-opacity="1" /><path clip-path="url(#clip560)" d="M98.4297 1389.63 L100.91 1389.63 L100.91 1392.61 L98.4297 1392.61 L98.4297 1389.63 Z" fill="#000000" fill-rule="evenodd" fill-opacity="1" /><path clip-path="url(#clip560)" d="M105.483 1375.06 L116.767 1375.06 L116.767 1376.07 L110.396 1392.61 L107.916 1392.61 L113.911 1377.06 L105.483 1377.06 L105.483 1375.06 Z" fill="#000000" fill-rule="evenodd" fill-opacity="1" /><path clip-path="url(#clip560)" d="M128.593 1383.15 Q130.297 1383.51 131.249 1384.67 Q132.213 1385.82 132.213 1387.51 Q132.213 1390.11 130.426 1391.53 Q128.64 1392.95 125.348 1392.95 Q124.243 1392.95 123.068 1392.73 Q121.904 1392.52 120.658 1392.08 L120.658 1389.79 Q121.646 1390.37 122.821 1390.66 Q123.997 1390.95 125.278 1390.95 Q127.511 1390.95 128.675 1390.07 Q129.85 1389.19 129.85 1387.51 Q129.85 1385.96 128.757 1385.09 Q127.676 1384.21 125.736 1384.21 L123.691 1384.21 L123.691 1382.26 L125.83 1382.26 Q127.582 1382.26 128.51 1381.56 Q129.439 1380.86 129.439 1379.54 Q129.439 1378.19 128.475 1377.47 Q127.523 1376.74 125.736 1376.74 Q124.761 1376.74 123.644 1376.95 Q122.527 1377.17 121.187 1377.61 L121.187 1375.5 Q122.539 1375.12 123.714 1374.93 Q124.902 1374.74 125.948 1374.74 Q128.651 1374.74 130.227 1375.98 Q131.802 1377.2 131.802 1379.29 Q131.802 1380.75 130.967 1381.76 Q130.133 1382.76 128.593 1383.15 Z" fill="#000000" fill-rule="evenodd" fill-opacity="1" /><path clip-path="url(#clip560)" d="M136.116 1375.06 L147.4 1375.06 L147.4 1376.07 L141.029 1392.61 L138.549 1392.61 L144.544 1377.06 L136.116 1377.06 L136.116 1375.06 Z" fill="#000000" fill-rule="evenodd" fill-opacity="1" /><path clip-path="url(#clip560)" d="M152.443 1390.61 L156.322 1390.61 L156.322 1377.22 L152.102 1378.07 L152.102 1375.91 L156.299 1375.06 L158.673 1375.06 L158.673 1390.61 L162.552 1390.61 L162.552 1392.61 L152.443 1392.61 L152.443 1390.61 Z" fill="#000000" fill-rule="evenodd" fill-opacity="1" /><path clip-path="url(#clip560)" d="M166.749 1375.06 L178.034 1375.06 L178.034 1376.07 L171.662 1392.61 L169.182 1392.61 L175.177 1377.06 L166.749 1377.06 L166.749 1375.06 Z" fill="#000000" fill-rule="evenodd" fill-opacity="1" /><path clip-path="url(#clip560)" d="M182.066 1375.06 L193.35 1375.06 L193.35 1376.07 L186.979 1392.61 L184.499 1392.61 L190.494 1377.06 L182.066 1377.06 L182.066 1375.06 Z" fill="#000000" fill-rule="evenodd" fill-opacity="1" /><path clip-path="url(#clip560)" d="M198.052 1392.25 L198.052 1390.08 Q198.945 1390.51 199.862 1390.73 Q200.779 1390.95 201.661 1390.95 Q204.012 1390.95 205.246 1389.38 Q206.492 1387.79 206.668 1384.57 Q205.987 1385.58 204.94 1386.12 Q203.894 1386.66 202.625 1386.66 Q199.992 1386.66 198.452 1385.08 Q196.924 1383.48 196.924 1380.72 Q196.924 1378.01 198.522 1376.38 Q200.121 1374.74 202.778 1374.74 Q205.822 1374.74 207.421 1377.08 Q209.031 1379.41 209.031 1383.85 Q209.031 1388 207.056 1390.48 Q205.093 1392.95 201.767 1392.95 Q200.873 1392.95 199.956 1392.78 Q199.04 1392.6 198.052 1392.25 M202.778 1384.81 Q204.376 1384.81 205.305 1383.71 Q206.245 1382.62 206.245 1380.72 Q206.245 1378.82 205.305 1377.73 Q204.376 1376.62 202.778 1376.62 Q201.179 1376.62 200.239 1377.73 Q199.31 1378.82 199.31 1380.72 Q199.31 1382.62 200.239 1383.71 Q201.179 1384.81 202.778 1384.81 Z" fill="#000000" fill-rule="evenodd" fill-opacity="1" /><path clip-path="url(#clip560)" d="M50.5477 1074.28 L55.322 1074.28 L55.322 1057.81 L50.1281 1058.85 L50.1281 1056.18 L55.293 1055.14 L58.2155 1055.14 L58.2155 1074.28 L62.9897 1074.28 L62.9897 1076.74 L50.5477 1076.74 L50.5477 1074.28 Z" fill="#000000" fill-rule="evenodd" fill-opacity="1" /><path clip-path="url(#clip560)" d="M75.1424 1057.07 Q72.8855 1057.07 71.7426 1059.3 Q70.6141 1061.51 70.6141 1065.96 Q70.6141 1070.41 71.7426 1072.63 Q72.8855 1074.85 75.1424 1074.85 Q77.4138 1074.85 78.5423 1072.63 Q79.6852 1070.41 79.6852 1065.96 Q79.6852 1061.51 78.5423 1059.3 Q77.4138 1057.07 75.1424 1057.07 M75.1424 1054.75 Q78.7738 1054.75 80.6835 1057.63 Q82.6077 1060.5 82.6077 1065.96 Q82.6077 1071.42 80.6835 1074.3 Q78.7738 1077.16 75.1424 1077.16 Q71.5111 1077.16 69.5869 1074.3 Q67.6772 1071.42 67.6772 1065.96 Q67.6772 1060.5 69.5869 1057.63 Q71.5111 1054.75 75.1424 1054.75 Z" fill="#000000" fill-rule="evenodd" fill-opacity="1" /><path clip-path="url(#clip560)" d="M90.5422 1050.15 Q92.2467 1050.51 93.1988 1051.67 Q94.1627 1052.82 94.1627 1054.51 Q94.1627 1057.11 92.376 1058.53 Q90.5892 1059.95 87.2979 1059.95 Q86.1929 1059.95 85.0174 1059.73 Q83.8537 1059.52 82.6077 1059.08 L82.6077 1056.79 Q83.5951 1057.37 84.7706 1057.66 Q85.9461 1057.95 87.2273 1057.95 Q89.4608 1057.95 90.6245 1057.07 Q91.8 1056.19 91.8 1054.51 Q91.8 1052.96 90.7068 1052.09 Q89.6253 1051.21 87.6858 1051.21 L85.6404 1051.21 L85.6404 1049.26 L87.7798 1049.26 Q89.5313 1049.26 90.4599 1048.56 Q91.3886 1047.86 91.3886 1046.54 Q91.3886 1045.19 90.4247 1044.47 Q89.4725 1043.74 87.6858 1043.74 Q86.7101 1043.74 85.5934 1043.95 Q84.4767 1044.17 83.1367 1044.61 L83.1367 1042.5 Q84.4885 1042.12 85.6639 1041.93 Q86.8512 1041.74 87.8974 1041.74 Q90.601 1041.74 92.1761 1042.98 Q93.7513 1044.2 93.7513 1046.29 Q93.7513 1047.75 92.9167 1048.76 Q92.0821 1049.76 90.5422 1050.15 Z" fill="#000000" fill-rule="evenodd" fill-opacity="1" /><path clip-path="url(#clip560)" d="M98.6648 1056.63 L101.145 1056.63 L101.145 1059.61 L98.6648 1059.61 L98.6648 1056.63 Z" fill="#000000" fill-rule="evenodd" fill-opacity="1" /><path clip-path="url(#clip560)" d="M106.388 1059.25 L106.388 1057.08 Q107.281 1057.51 108.198 1057.73 Q109.115 1057.95 109.996 1057.95 Q112.347 1057.95 113.582 1056.38 Q114.828 1054.79 115.004 1051.57 Q114.322 1052.58 113.276 1053.12 Q112.23 1053.66 110.96 1053.66 Q108.327 1053.66 106.787 1052.08 Q105.259 1050.48 105.259 1047.72 Q105.259 1045.01 106.858 1043.38 Q108.457 1041.74 111.113 1041.74 Q114.158 1041.74 115.756 1044.08 Q117.367 1046.41 117.367 1050.85 Q117.367 1055 115.392 1057.48 Q113.429 1059.95 110.102 1059.95 Q109.209 1059.95 108.292 1059.78 Q107.375 1059.6 106.388 1059.25 M111.113 1051.81 Q112.712 1051.81 113.641 1050.71 Q114.581 1049.62 114.581 1047.72 Q114.581 1045.82 113.641 1044.73 Q112.712 1043.62 111.113 1043.62 Q109.515 1043.62 108.574 1044.73 Q107.646 1045.82 107.646 1047.72 Q107.646 1049.62 108.574 1050.71 Q109.515 1051.81 111.113 1051.81 Z" fill="#000000" fill-rule="evenodd" fill-opacity="1" /><path clip-path="url(#clip560)" d="M126.712 1043.62 Q124.878 1043.62 123.95 1045.44 Q123.033 1047.23 123.033 1050.85 Q123.033 1054.46 123.95 1056.27 Q124.878 1058.07 126.712 1058.07 Q128.557 1058.07 129.474 1056.27 Q130.403 1054.46 130.403 1050.85 Q130.403 1047.23 129.474 1045.44 Q128.557 1043.62 126.712 1043.62 M126.712 1041.74 Q129.662 1041.74 131.214 1044.08 Q132.777 1046.41 132.777 1050.85 Q132.777 1055.29 131.214 1057.62 Q129.662 1059.95 126.712 1059.95 Q123.761 1059.95 122.198 1057.62 Q120.646 1055.29 120.646 1050.85 Q120.646 1046.41 122.198 1044.08 Q123.761 1041.74 126.712 1041.74 Z" fill="#000000" fill-rule="evenodd" fill-opacity="1" /><path clip-path="url(#clip560)" d="M142.028 1051.28 Q140.336 1051.28 139.36 1052.18 Q138.396 1053.09 138.396 1054.67 Q138.396 1056.26 139.36 1057.17 Q140.336 1058.07 142.028 1058.07 Q143.721 1058.07 144.697 1057.17 Q145.672 1056.25 145.672 1054.67 Q145.672 1053.09 144.697 1052.18 Q143.733 1051.28 142.028 1051.28 M139.654 1050.27 Q138.126 1049.89 137.268 1048.84 Q136.421 1047.8 136.421 1046.29 Q136.421 1044.19 137.914 1042.97 Q139.419 1041.74 142.028 1041.74 Q144.65 1041.74 146.143 1042.97 Q147.636 1044.19 147.636 1046.29 Q147.636 1047.8 146.777 1048.84 Q145.931 1049.89 144.415 1050.27 Q146.131 1050.67 147.083 1051.83 Q148.047 1052.99 148.047 1054.67 Q148.047 1057.23 146.484 1058.59 Q144.932 1059.95 142.028 1059.95 Q139.125 1059.95 137.562 1058.59 Q136.01 1057.23 136.01 1054.67 Q136.01 1052.99 136.974 1051.83 Q137.938 1050.67 139.654 1050.27 M138.784 1046.52 Q138.784 1047.88 139.63 1048.64 Q140.489 1049.41 142.028 1049.41 Q143.557 1049.41 144.415 1048.64 Q145.285 1047.88 145.285 1046.52 Q145.285 1045.15 144.415 1044.39 Q143.557 1043.62 142.028 1043.62 Q140.489 1043.62 139.63 1044.39 Q138.784 1045.15 138.784 1046.52 Z" fill="#000000" fill-rule="evenodd" fill-opacity="1" /><path clip-path="url(#clip560)" d="M157.639 1049.89 Q156.04 1049.89 155.1 1050.98 Q154.171 1052.08 154.171 1053.98 Q154.171 1055.87 155.1 1056.98 Q156.04 1058.07 157.639 1058.07 Q159.238 1058.07 160.166 1056.98 Q161.107 1055.87 161.107 1053.98 Q161.107 1052.08 160.166 1050.98 Q159.238 1049.89 157.639 1049.89 M162.353 1042.45 L162.353 1044.61 Q161.459 1044.19 160.542 1043.97 Q159.637 1043.74 158.744 1043.74 Q156.393 1043.74 155.147 1045.33 Q153.913 1046.92 153.736 1050.13 Q154.43 1049.1 155.476 1048.56 Q156.522 1048.01 157.78 1048.01 Q160.425 1048.01 161.953 1049.62 Q163.493 1051.22 163.493 1053.98 Q163.493 1056.68 161.894 1058.32 Q160.296 1059.95 157.639 1059.95 Q154.594 1059.95 152.984 1057.62 Q151.374 1055.29 151.374 1050.85 Q151.374 1046.69 153.348 1044.22 Q155.323 1041.74 158.65 1041.74 Q159.543 1041.74 160.448 1041.92 Q161.365 1042.1 162.353 1042.45 Z" fill="#000000" fill-rule="evenodd" fill-opacity="1" /><path clip-path="url(#clip560)" d="M167.607 1042.06 L176.929 1042.06 L176.929 1044.06 L169.782 1044.06 L169.782 1048.36 Q170.299 1048.19 170.816 1048.1 Q171.333 1048.01 171.851 1048.01 Q174.789 1048.01 176.505 1049.62 Q178.222 1051.23 178.222 1053.98 Q178.222 1056.81 176.458 1058.39 Q174.695 1059.95 171.486 1059.95 Q170.381 1059.95 169.229 1059.76 Q168.089 1059.58 166.866 1059.2 L166.866 1056.81 Q167.924 1057.39 169.053 1057.67 Q170.181 1057.95 171.439 1057.95 Q173.473 1057.95 174.66 1056.88 Q175.847 1055.81 175.847 1053.98 Q175.847 1052.15 174.66 1051.08 Q173.473 1050.01 171.439 1050.01 Q170.487 1050.01 169.535 1050.22 Q168.594 1050.43 167.607 1050.88 L167.607 1042.06 Z" fill="#000000" fill-rule="evenodd" fill-opacity="1" /><path clip-path="url(#clip560)" d="M187.978 1043.62 Q186.144 1043.62 185.216 1045.44 Q184.299 1047.23 184.299 1050.85 Q184.299 1054.46 185.216 1056.27 Q186.144 1058.07 187.978 1058.07 Q189.824 1058.07 190.741 1056.27 Q191.669 1054.46 191.669 1050.85 Q191.669 1047.23 190.741 1045.44 Q189.824 1043.62 187.978 1043.62 M187.978 1041.74 Q190.929 1041.74 192.48 1044.08 Q194.044 1046.41 194.044 1050.85 Q194.044 1055.29 192.48 1057.62 Q190.929 1059.95 187.978 1059.95 Q185.028 1059.95 183.464 1057.62 Q181.913 1055.29 181.913 1050.85 Q181.913 1046.41 183.464 1044.08 Q185.028 1041.74 187.978 1041.74 Z" fill="#000000" fill-rule="evenodd" fill-opacity="1" /><path clip-path="url(#clip560)" d="M205.411 1050.15 Q207.115 1050.51 208.067 1051.67 Q209.031 1052.82 209.031 1054.51 Q209.031 1057.11 207.244 1058.53 Q205.458 1059.95 202.166 1059.95 Q201.061 1059.95 199.886 1059.73 Q198.722 1059.52 197.476 1059.08 L197.476 1056.79 Q198.464 1057.37 199.639 1057.66 Q200.815 1057.95 202.096 1057.95 Q204.329 1057.95 205.493 1057.07 Q206.668 1056.19 206.668 1054.51 Q206.668 1052.96 205.575 1052.09 Q204.494 1051.21 202.554 1051.21 L200.509 1051.21 L200.509 1049.26 L202.648 1049.26 Q204.4 1049.26 205.328 1048.56 Q206.257 1047.86 206.257 1046.54 Q206.257 1045.19 205.293 1044.47 Q204.341 1043.74 202.554 1043.74 Q201.579 1043.74 200.462 1043.95 Q199.345 1044.17 198.005 1044.61 L198.005 1042.5 Q199.357 1042.12 200.532 1041.93 Q201.72 1041.74 202.766 1041.74 Q205.469 1041.74 207.045 1042.98 Q208.62 1044.2 208.62 1046.29 Q208.62 1047.75 207.785 1048.76 Q206.951 1049.76 205.411 1050.15 Z" fill="#000000" fill-rule="evenodd" fill-opacity="1" /><path clip-path="url(#clip560)" d="M50.5242 608.084 L55.2984 608.084 L55.2984 591.605 L50.1046 592.647 L50.1046 589.985 L55.2695 588.943 L58.1919 588.943 L58.1919 608.084 L62.9662 608.084 L62.9662 610.543 L50.5242 610.543 L50.5242 608.084 Z" fill="#000000" fill-rule="evenodd" fill-opacity="1" /><path clip-path="url(#clip560)" d="M75.1189 590.867 Q72.862 590.867 71.7191 593.095 Q70.5906 595.309 70.5906 599.765 Q70.5906 604.207 71.7191 606.435 Q72.862 608.648 75.1189 608.648 Q77.3903 608.648 78.5188 606.435 Q79.6617 604.207 79.6617 599.765 Q79.6617 595.309 78.5188 593.095 Q77.3903 590.867 75.1189 590.867 M75.1189 588.553 Q78.7503 588.553 80.66 591.432 Q82.5842 594.296 82.5842 599.765 Q82.5842 605.219 80.66 608.098 Q78.7503 610.963 75.1189 610.963 Q71.4876 610.963 69.5634 608.098 Q67.6537 605.219 67.6537 599.765 Q67.6537 594.296 69.5634 591.432 Q71.4876 588.553 75.1189 588.553 Z" fill="#000000" fill-rule="evenodd" fill-opacity="1" /><path clip-path="url(#clip560)" d="M88.8495 583.691 Q87.2509 583.691 86.3105 584.784 Q85.3818 585.877 85.3818 587.781 Q85.3818 589.674 86.3105 590.779 Q87.2509 591.872 88.8495 591.872 Q90.4482 591.872 91.3768 590.779 Q92.3172 589.674 92.3172 587.781 Q92.3172 585.877 91.3768 584.784 Q90.4482 583.691 88.8495 583.691 M93.5632 576.25 L93.5632 578.413 Q92.6698 577.989 91.753 577.766 Q90.8478 577.543 89.9545 577.543 Q87.6035 577.543 86.3575 579.13 Q85.1232 580.717 84.9469 583.926 Q85.6404 582.903 86.6866 582.362 Q87.7328 581.81 88.9906 581.81 Q91.6354 581.81 93.1635 583.42 Q94.7034 585.019 94.7034 587.781 Q94.7034 590.485 93.1048 592.119 Q91.5061 593.753 88.8495 593.753 Q85.805 593.753 84.1946 591.425 Q82.5842 589.086 82.5842 584.654 Q82.5842 580.493 84.559 578.025 Q86.5338 575.544 89.8604 575.544 Q90.7538 575.544 91.6589 575.721 Q92.5758 575.897 93.5632 576.25 Z" fill="#000000" fill-rule="evenodd" fill-opacity="1" /><path clip-path="url(#clip560)" d="M98.7941 590.426 L101.274 590.426 L101.274 593.412 L98.7941 593.412 L98.7941 590.426 Z" fill="#000000" fill-rule="evenodd" fill-opacity="1" /><path clip-path="url(#clip560)" d="M106.517 593.047 L106.517 590.884 Q107.41 591.308 108.327 591.531 Q109.244 591.754 110.126 591.754 Q112.477 591.754 113.711 590.179 Q114.957 588.592 115.133 585.371 Q114.452 586.382 113.405 586.923 Q112.359 587.464 111.09 587.464 Q108.457 587.464 106.917 585.877 Q105.389 584.278 105.389 581.516 Q105.389 578.812 106.987 577.178 Q108.586 575.544 111.243 575.544 Q114.287 575.544 115.886 577.884 Q117.496 580.211 117.496 584.654 Q117.496 588.804 115.521 591.284 Q113.558 593.753 110.232 593.753 Q109.338 593.753 108.421 593.576 Q107.504 593.4 106.517 593.047 M111.243 585.607 Q112.841 585.607 113.77 584.513 Q114.71 583.42 114.71 581.516 Q114.71 579.623 113.77 578.53 Q112.841 577.425 111.243 577.425 Q109.644 577.425 108.703 578.53 Q107.775 579.623 107.775 581.516 Q107.775 583.42 108.703 584.513 Q109.644 585.607 111.243 585.607 Z" fill="#000000" fill-rule="evenodd" fill-opacity="1" /><path clip-path="url(#clip560)" d="M128.287 577.931 L122.292 587.299 L128.287 587.299 L128.287 577.931 M127.664 575.862 L130.65 575.862 L130.65 587.299 L133.154 587.299 L133.154 589.274 L130.65 589.274 L130.65 593.412 L128.287 593.412 L128.287 589.274 L120.364 589.274 L120.364 586.982 L127.664 575.862 Z" fill="#000000" fill-rule="evenodd" fill-opacity="1" /><path clip-path="url(#clip560)" d="M142.158 585.078 Q140.465 585.078 139.489 585.983 Q138.526 586.888 138.526 588.475 Q138.526 590.062 139.489 590.967 Q140.465 591.872 142.158 591.872 Q143.85 591.872 144.826 590.967 Q145.802 590.05 145.802 588.475 Q145.802 586.888 144.826 585.983 Q143.862 585.078 142.158 585.078 M139.783 584.067 Q138.255 583.691 137.397 582.644 Q136.551 581.598 136.551 580.094 Q136.551 577.989 138.044 576.767 Q139.548 575.544 142.158 575.544 Q144.779 575.544 146.272 576.767 Q147.765 577.989 147.765 580.094 Q147.765 581.598 146.907 582.644 Q146.06 583.691 144.544 584.067 Q146.26 584.466 147.212 585.63 Q148.176 586.794 148.176 588.475 Q148.176 591.026 146.613 592.389 Q145.061 593.753 142.158 593.753 Q139.254 593.753 137.691 592.389 Q136.139 591.026 136.139 588.475 Q136.139 586.794 137.103 585.63 Q138.067 584.466 139.783 584.067 M138.913 580.317 Q138.913 581.68 139.76 582.445 Q140.618 583.209 142.158 583.209 Q143.686 583.209 144.544 582.445 Q145.414 581.68 145.414 580.317 Q145.414 578.953 144.544 578.189 Q143.686 577.425 142.158 577.425 Q140.618 577.425 139.76 578.189 Q138.913 578.953 138.913 580.317 Z" fill="#000000" fill-rule="evenodd" fill-opacity="1" /><path clip-path="url(#clip560)" d="M151.797 575.862 L163.081 575.862 L163.081 576.873 L156.71 593.412 L154.23 593.412 L160.225 577.86 L151.797 577.86 L151.797 575.862 Z" fill="#000000" fill-rule="evenodd" fill-opacity="1" /><path clip-path="url(#clip560)" d="M168.124 591.413 L172.003 591.413 L172.003 578.025 L167.783 578.871 L167.783 576.708 L171.98 575.862 L174.354 575.862 L174.354 591.413 L178.233 591.413 L178.233 593.412 L168.124 593.412 L168.124 591.413 Z" fill="#000000" fill-rule="evenodd" fill-opacity="1" /><path clip-path="url(#clip560)" d="M183.441 591.413 L187.32 591.413 L187.32 578.025 L183.1 578.871 L183.1 576.708 L187.296 575.862 L189.671 575.862 L189.671 591.413 L193.55 591.413 L193.55 593.412 L183.441 593.412 L183.441 591.413 Z" fill="#000000" fill-rule="evenodd" fill-opacity="1" /><path clip-path="url(#clip560)" d="M197.746 575.862 L209.031 575.862 L209.031 576.873 L202.66 593.412 L200.18 593.412 L206.175 577.86 L197.746 577.86 L197.746 575.862 Z" fill="#000000" fill-rule="evenodd" fill-opacity="1" /><path clip-path="url(#clip560)" d="M1239.63 12.096 L1290.8 12.096 L1290.8 18.9825 L1269.33 18.9825 L1269.33 72.576 L1261.1 72.576 L1261.1 18.9825 L1239.63 18.9825 L1239.63 12.096 Z" fill="#000000" fill-rule="evenodd" fill-opacity="1" /><path clip-path="url(#clip560)" d="M1336.08 45.1919 L1336.08 72.576 L1328.63 72.576 L1328.63 45.4349 Q1328.63 38.994 1326.12 35.7938 Q1323.61 32.5936 1318.58 32.5936 Q1312.55 32.5936 1309.06 36.4419 Q1305.58 40.2903 1305.58 46.9338 L1305.58 72.576 L1298.09 72.576 L1298.09 9.54393 L1305.58 9.54393 L1305.58 34.2544 Q1308.25 30.163 1311.86 28.1376 Q1315.51 26.1121 1320.25 26.1121 Q1328.06 26.1121 1332.07 30.9732 Q1336.08 35.7938 1336.08 45.1919 Z" fill="#000000" fill-rule="evenodd" fill-opacity="1" /><path clip-path="url(#clip560)" d="M1350.95 27.2059 L1358.4 27.2059 L1358.4 72.576 L1350.95 72.576 L1350.95 27.2059 M1350.95 9.54393 L1358.4 9.54393 L1358.4 18.9825 L1350.95 18.9825 L1350.95 9.54393 Z" fill="#000000" fill-rule="evenodd" fill-opacity="1" /><path clip-path="url(#clip560)" d="M1402.92 28.5427 L1402.92 35.5912 Q1399.76 33.9709 1396.36 33.1607 Q1392.96 32.3505 1389.31 32.3505 Q1383.76 32.3505 1380.97 34.0519 Q1378.21 35.7533 1378.21 39.156 Q1378.21 41.7486 1380.2 43.2475 Q1382.18 44.7058 1388.18 46.0426 L1390.73 46.6097 Q1398.67 48.3111 1401.99 51.4303 Q1405.35 54.509 1405.35 60.0587 Q1405.35 66.3781 1400.33 70.0644 Q1395.35 73.7508 1386.6 73.7508 Q1382.95 73.7508 1378.98 73.0216 Q1375.05 72.3329 1370.68 70.9151 L1370.68 63.2184 Q1374.81 65.3654 1378.82 66.4591 Q1382.83 67.5124 1386.76 67.5124 Q1392.03 67.5124 1394.86 65.73 Q1397.7 63.9071 1397.7 60.6258 Q1397.7 57.5877 1395.63 55.9673 Q1393.61 54.3469 1386.68 52.8481 L1384.09 52.2405 Q1377.16 50.7821 1374.08 47.7845 Q1371 44.7463 1371 39.4801 Q1371 33.0797 1375.54 29.5959 Q1380.08 26.1121 1388.42 26.1121 Q1392.55 26.1121 1396.2 26.7198 Q1399.85 27.3274 1402.92 28.5427 Z" fill="#000000" fill-rule="evenodd" fill-opacity="1" /><path clip-path="url(#clip560)" d="M1417.55 12.096 L1425.73 12.096 L1425.73 72.576 L1417.55 72.576 L1417.55 12.096 Z" fill="#000000" fill-rule="evenodd" fill-opacity="1" /><path clip-path="url(#clip560)" d="M1470.61 28.5427 L1470.61 35.5912 Q1467.46 33.9709 1464.05 33.1607 Q1460.65 32.3505 1457 32.3505 Q1451.45 32.3505 1448.66 34.0519 Q1445.9 35.7533 1445.9 39.156 Q1445.9 41.7486 1447.89 43.2475 Q1449.87 44.7058 1455.87 46.0426 L1458.42 46.6097 Q1466.36 48.3111 1469.68 51.4303 Q1473.05 54.509 1473.05 60.0587 Q1473.05 66.3781 1468.02 70.0644 Q1463.04 73.7508 1454.29 73.7508 Q1450.64 73.7508 1446.67 73.0216 Q1442.74 72.3329 1438.37 70.9151 L1438.37 63.2184 Q1442.5 65.3654 1446.51 66.4591 Q1450.52 67.5124 1454.45 67.5124 Q1459.72 67.5124 1462.55 65.73 Q1465.39 63.9071 1465.39 60.6258 Q1465.39 57.5877 1463.32 55.9673 Q1461.3 54.3469 1454.37 52.8481 L1451.78 52.2405 Q1444.85 50.7821 1441.77 47.7845 Q1438.69 44.7463 1438.69 39.4801 Q1438.69 33.0797 1443.23 29.5959 Q1447.77 26.1121 1456.11 26.1121 Q1460.24 26.1121 1463.89 26.7198 Q1467.54 27.3274 1470.61 28.5427 Z" fill="#000000" fill-rule="evenodd" fill-opacity="1" /><path clip-path="url(#clip560)" d="M1476.85 12.096 L1528.02 12.096 L1528.02 18.9825 L1506.55 18.9825 L1506.55 72.576 L1498.32 72.576 L1498.32 18.9825 L1476.85 18.9825 L1476.85 12.096 Z" fill="#000000" fill-rule="evenodd" fill-opacity="1" /><path clip-path="url(#clip560)" d="M1533.04 27.2059 L1540.49 27.2059 L1540.49 72.576 L1533.04 72.576 L1533.04 27.2059 M1533.04 9.54393 L1540.49 9.54393 L1540.49 18.9825 L1533.04 18.9825 L1533.04 9.54393 Z" fill="#000000" fill-rule="evenodd" fill-opacity="1" /><path clip-path="url(#clip560)" d="M1563.46 14.324 L1563.46 27.2059 L1578.81 27.2059 L1578.81 32.9987 L1563.46 32.9987 L1563.46 57.6282 Q1563.46 63.1779 1564.96 64.7578 Q1566.5 66.3376 1571.16 66.3376 L1578.81 66.3376 L1578.81 72.576 L1571.16 72.576 Q1562.53 72.576 1559.25 69.3758 Q1555.97 66.1351 1555.97 57.6282 L1555.97 32.9987 L1550.5 32.9987 L1550.5 27.2059 L1555.97 27.2059 L1555.97 14.324 L1563.46 14.324 Z" fill="#000000" fill-rule="evenodd" fill-opacity="1" /><path clip-path="url(#clip560)" d="M1588.62 9.54393 L1596.07 9.54393 L1596.07 72.576 L1588.62 72.576 L1588.62 9.54393 Z" fill="#000000" fill-rule="evenodd" fill-opacity="1" /><path clip-path="url(#clip560)" d="M1650.47 48.0275 L1650.47 51.6733 L1616.2 51.6733 Q1616.69 59.3701 1620.82 63.421 Q1624.99 67.4314 1632.41 67.4314 Q1636.7 67.4314 1640.71 66.3781 Q1644.76 65.3249 1648.73 63.2184 L1648.73 70.267 Q1644.72 71.9684 1640.51 72.8596 Q1636.3 73.7508 1631.96 73.7508 Q1621.11 73.7508 1614.75 67.4314 Q1608.43 61.1119 1608.43 50.3365 Q1608.43 39.1965 1614.42 32.6746 Q1620.46 26.1121 1630.67 26.1121 Q1639.82 26.1121 1645.13 32.0264 Q1650.47 37.9003 1650.47 48.0275 M1643.02 45.84 Q1642.94 39.7232 1639.58 36.0774 Q1636.26 32.4315 1630.75 32.4315 Q1624.51 32.4315 1620.74 35.9558 Q1617.01 39.4801 1616.45 45.8805 L1643.02 45.84 Z" fill="#000000" fill-rule="evenodd" fill-opacity="1" /><polyline clip-path="url(#clip562)" style="stroke:#ff0000; stroke-linecap:round; stroke-linejoin:round; stroke-width:8; stroke-opacity:1; fill:none" points="
  249.351,-4998.68 249.594,-4995.97 249.838,-4993.26 250.081,-4990.56 250.324,-4987.85 250.568,-4985.14 250.811,-4982.43 251.054,-4979.73 251.297,-4977.02 251.541,-4974.32 
  251.784,-4971.61 252.027,-4968.91 252.27,-4966.2 252.514,-4963.5 252.757,-4960.8 253,-4958.1 253.243,-4955.39 253.487,-4952.69 253.73,-4949.99 253.973,-4947.29 
  254.217,-4944.59 254.46,-4941.89 254.703,-4939.2 254.946,-4936.5 255.19,-4933.8 255.676,-4928.41 256.163,-4923.02 256.649,-4917.63 257.136,-4912.25 257.622,-4906.86 
  258.109,-4901.48 258.595,-4896.1 259.082,-4890.72 259.569,-4885.35 260.055,-4879.98 260.542,-4874.61 261.028,-4869.24 261.515,-4863.87 262.001,-4858.51 262.488,-4853.15 
  262.974,-4847.79 263.461,-4842.43 263.947,-4837.07 264.191,-4834.4 264.434,-4831.72 264.677,-4829.05 264.921,-4826.37 266.045,-4814.01 267.17,-4801.66 268.295,-4789.33 
  269.419,-4777 270.544,-4764.69 271.669,-4752.39 272.793,-4740.1 273.918,-4727.82 276.167,-4703.3 278.417,-4678.83 280.666,-4654.4 282.916,-4630.03 287.414,-4581.41 
  291.913,-4532.99 296.412,-4484.75 300.911,-4436.7 318.906,-4246.39 336.901,-4059.09 372.891,-3693.56 408.882,-3340.09 452.139,-2931.21 495.396,-2539.77 531.97,-2222.42 
  568.543,-1917.52 648.001,-1298.07 721.255,-779.1 799.79,-278.24 890.781,230.199 971.643,617.306 1042.55,906.633 1119.86,1168.7 1197.63,1376.14 1283.61,1539.9 
  1365.43,1631.78 1450.49,1661.18 1522.1,1633.66 1609.52,1535.31 1689.6,1382.72 1763.57,1188.72 1838.49,940.23 1922.46,599.595 1998.55,234.193 2085.67,-250.4 
  2166.33,-762.133 2245.86,-1325.98 2323.07,-1929.81 2362.64,-2260.84 2402.22,-2606.46 2445.58,-3001.88 2488.94,-3414.81 2520.43,-3725.72 2551.92,-4045.87 2567.67,-4209.41 
  2583.42,-4375.26 2591.29,-4459.06 2599.17,-4543.42 2603.1,-4585.83 2607.04,-4628.37 2610.98,-4671.06 2614.91,-4713.9 2615.72,-4722.7 2616.53,-4731.51 2617.33,-4740.33 
  2618.14,-4749.15 2619.76,-4766.82 2621.37,-4784.51 2622.18,-4793.36 2622.99,-4802.22 2623.8,-4811.09 2624.6,-4819.96 2625.41,-4828.84 2626.22,-4837.72 2627.03,-4846.62 
  2627.83,-4855.51 2628.64,-4864.41 2629.45,-4873.32 2629.85,-4877.78 2630.26,-4882.24 2630.66,-4886.7 2631.06,-4891.16 2631.47,-4895.62 2631.87,-4900.09 2632.28,-4904.55 
  2632.68,-4909.02 2633.08,-4913.49 2633.49,-4917.96 2633.89,-4922.43 2634.29,-4926.9 2634.7,-4931.38 2635.1,-4935.85 2635.51,-4940.33 2635.91,-4944.81 2636.31,-4949.29 
  2636.72,-4953.78 2637.12,-4958.26 2637.53,-4962.74 2637.73,-4964.99 2637.93,-4967.23 2638.13,-4969.48 2638.33,-4971.72 2638.53,-4973.96 2638.74,-4976.21 2638.94,-4978.46 
  2639.14,-4980.7 2639.34,-4982.95 2639.54,-4985.19 2639.75,-4987.44 2639.95,-4989.69 2640.15,-4991.94 2640.35,-4994.19 2640.55,-4996.43 2640.76,-4998.68 
  "/>
<line clip-path="url(#clip562)" x1="890.781" y1="230.199" x2="874.781" y2="214.199" style="stroke:#009af9; stroke-width:3.84; stroke-opacity:1"/>
<line clip-path="url(#clip562)" x1="890.781" y1="230.199" x2="874.781" y2="246.199" style="stroke:#009af9; stroke-width:3.84; stroke-opacity:1"/>
<line clip-path="url(#clip562)" x1="890.781" y1="230.199" x2="906.781" y2="246.199" style="stroke:#009af9; stroke-width:3.84; stroke-opacity:1"/>
<line clip-path="url(#clip562)" x1="890.781" y1="230.199" x2="906.781" y2="214.199" style="stroke:#009af9; stroke-width:3.84; stroke-opacity:1"/>
<line clip-path="url(#clip562)" x1="971.643" y1="617.306" x2="955.643" y2="601.306" style="stroke:#009af9; stroke-width:3.84; stroke-opacity:1"/>
<line clip-path="url(#clip562)" x1="971.643" y1="617.306" x2="955.643" y2="633.306" style="stroke:#009af9; stroke-width:3.84; stroke-opacity:1"/>
<line clip-path="url(#clip562)" x1="971.643" y1="617.306" x2="987.643" y2="633.306" style="stroke:#009af9; stroke-width:3.84; stroke-opacity:1"/>
<line clip-path="url(#clip562)" x1="971.643" y1="617.306" x2="987.643" y2="601.306" style="stroke:#009af9; stroke-width:3.84; stroke-opacity:1"/>
<line clip-path="url(#clip562)" x1="1042.55" y1="906.633" x2="1026.55" y2="890.633" style="stroke:#009af9; stroke-width:3.84; stroke-opacity:1"/>
<line clip-path="url(#clip562)" x1="1042.55" y1="906.633" x2="1026.55" y2="922.633" style="stroke:#009af9; stroke-width:3.84; stroke-opacity:1"/>
<line clip-path="url(#clip562)" x1="1042.55" y1="906.633" x2="1058.55" y2="922.633" style="stroke:#009af9; stroke-width:3.84; stroke-opacity:1"/>
<line clip-path="url(#clip562)" x1="1042.55" y1="906.633" x2="1058.55" y2="890.633" style="stroke:#009af9; stroke-width:3.84; stroke-opacity:1"/>
<line clip-path="url(#clip562)" x1="1119.86" y1="1168.7" x2="1103.86" y2="1152.7" style="stroke:#009af9; stroke-width:3.84; stroke-opacity:1"/>
<line clip-path="url(#clip562)" x1="1119.86" y1="1168.7" x2="1103.86" y2="1184.7" style="stroke:#009af9; stroke-width:3.84; stroke-opacity:1"/>
<line clip-path="url(#clip562)" x1="1119.86" y1="1168.7" x2="1135.86" y2="1184.7" style="stroke:#009af9; stroke-width:3.84; stroke-opacity:1"/>
<line clip-path="url(#clip562)" x1="1119.86" y1="1168.7" x2="1135.86" y2="1152.7" style="stroke:#009af9; stroke-width:3.84; stroke-opacity:1"/>
<line clip-path="url(#clip562)" x1="1197.63" y1="1376.14" x2="1181.63" y2="1360.14" style="stroke:#009af9; stroke-width:3.84; stroke-opacity:1"/>
<line clip-path="url(#clip562)" x1="1197.63" y1="1376.14" x2="1181.63" y2="1392.14" style="stroke:#009af9; stroke-width:3.84; stroke-opacity:1"/>
<line clip-path="url(#clip562)" x1="1197.63" y1="1376.14" x2="1213.63" y2="1392.14" style="stroke:#009af9; stroke-width:3.84; stroke-opacity:1"/>
<line clip-path="url(#clip562)" x1="1197.63" y1="1376.14" x2="1213.63" y2="1360.14" style="stroke:#009af9; stroke-width:3.84; stroke-opacity:1"/>
<line clip-path="url(#clip562)" x1="1283.61" y1="1539.9" x2="1267.61" y2="1523.9" style="stroke:#009af9; stroke-width:3.84; stroke-opacity:1"/>
<line clip-path="url(#clip562)" x1="1283.61" y1="1539.9" x2="1267.61" y2="1555.9" style="stroke:#009af9; stroke-width:3.84; stroke-opacity:1"/>
<line clip-path="url(#clip562)" x1="1283.61" y1="1539.9" x2="1299.61" y2="1555.9" style="stroke:#009af9; stroke-width:3.84; stroke-opacity:1"/>
<line clip-path="url(#clip562)" x1="1283.61" y1="1539.9" x2="1299.61" y2="1523.9" style="stroke:#009af9; stroke-width:3.84; stroke-opacity:1"/>
<line clip-path="url(#clip562)" x1="1365.43" y1="1631.78" x2="1349.43" y2="1615.78" style="stroke:#009af9; stroke-width:3.84; stroke-opacity:1"/>
<line clip-path="url(#clip562)" x1="1365.43" y1="1631.78" x2="1349.43" y2="1647.78" style="stroke:#009af9; stroke-width:3.84; stroke-opacity:1"/>
<line clip-path="url(#clip562)" x1="1365.43" y1="1631.78" x2="1381.43" y2="1647.78" style="stroke:#009af9; stroke-width:3.84; stroke-opacity:1"/>
<line clip-path="url(#clip562)" x1="1365.43" y1="1631.78" x2="1381.43" y2="1615.78" style="stroke:#009af9; stroke-width:3.84; stroke-opacity:1"/>
<line clip-path="url(#clip562)" x1="1450.49" y1="1661.18" x2="1434.49" y2="1645.18" style="stroke:#009af9; stroke-width:3.84; stroke-opacity:1"/>
<line clip-path="url(#clip562)" x1="1450.49" y1="1661.18" x2="1434.49" y2="1677.18" style="stroke:#009af9; stroke-width:3.84; stroke-opacity:1"/>
<line clip-path="url(#clip562)" x1="1450.49" y1="1661.18" x2="1466.49" y2="1677.18" style="stroke:#009af9; stroke-width:3.84; stroke-opacity:1"/>
<line clip-path="url(#clip562)" x1="1450.49" y1="1661.18" x2="1466.49" y2="1645.18" style="stroke:#009af9; stroke-width:3.84; stroke-opacity:1"/>
<line clip-path="url(#clip562)" x1="1522.1" y1="1633.66" x2="1506.1" y2="1617.66" style="stroke:#009af9; stroke-width:3.84; stroke-opacity:1"/>
<line clip-path="url(#clip562)" x1="1522.1" y1="1633.66" x2="1506.1" y2="1649.66" style="stroke:#009af9; stroke-width:3.84; stroke-opacity:1"/>
<line clip-path="url(#clip562)" x1="1522.1" y1="1633.66" x2="1538.1" y2="1649.66" style="stroke:#009af9; stroke-width:3.84; stroke-opacity:1"/>
<line clip-path="url(#clip562)" x1="1522.1" y1="1633.66" x2="1538.1" y2="1617.66" style="stroke:#009af9; stroke-width:3.84; stroke-opacity:1"/>
<line clip-path="url(#clip562)" x1="1609.52" y1="1535.31" x2="1593.52" y2="1519.31" style="stroke:#009af9; stroke-width:3.84; stroke-opacity:1"/>
<line clip-path="url(#clip562)" x1="1609.52" y1="1535.31" x2="1593.52" y2="1551.31" style="stroke:#009af9; stroke-width:3.84; stroke-opacity:1"/>
<line clip-path="url(#clip562)" x1="1609.52" y1="1535.31" x2="1625.52" y2="1551.31" style="stroke:#009af9; stroke-width:3.84; stroke-opacity:1"/>
<line clip-path="url(#clip562)" x1="1609.52" y1="1535.31" x2="1625.52" y2="1519.31" style="stroke:#009af9; stroke-width:3.84; stroke-opacity:1"/>
<line clip-path="url(#clip562)" x1="1689.6" y1="1382.72" x2="1673.6" y2="1366.72" style="stroke:#009af9; stroke-width:3.84; stroke-opacity:1"/>
<line clip-path="url(#clip562)" x1="1689.6" y1="1382.72" x2="1673.6" y2="1398.72" style="stroke:#009af9; stroke-width:3.84; stroke-opacity:1"/>
<line clip-path="url(#clip562)" x1="1689.6" y1="1382.72" x2="1705.6" y2="1398.72" style="stroke:#009af9; stroke-width:3.84; stroke-opacity:1"/>
<line clip-path="url(#clip562)" x1="1689.6" y1="1382.72" x2="1705.6" y2="1366.72" style="stroke:#009af9; stroke-width:3.84; stroke-opacity:1"/>
<line clip-path="url(#clip562)" x1="1763.57" y1="1188.72" x2="1747.57" y2="1172.72" style="stroke:#009af9; stroke-width:3.84; stroke-opacity:1"/>
<line clip-path="url(#clip562)" x1="1763.57" y1="1188.72" x2="1747.57" y2="1204.72" style="stroke:#009af9; stroke-width:3.84; stroke-opacity:1"/>
<line clip-path="url(#clip562)" x1="1763.57" y1="1188.72" x2="1779.57" y2="1204.72" style="stroke:#009af9; stroke-width:3.84; stroke-opacity:1"/>
<line clip-path="url(#clip562)" x1="1763.57" y1="1188.72" x2="1779.57" y2="1172.72" style="stroke:#009af9; stroke-width:3.84; stroke-opacity:1"/>
<line clip-path="url(#clip562)" x1="1838.49" y1="940.23" x2="1822.49" y2="924.23" style="stroke:#009af9; stroke-width:3.84; stroke-opacity:1"/>
<line clip-path="url(#clip562)" x1="1838.49" y1="940.23" x2="1822.49" y2="956.23" style="stroke:#009af9; stroke-width:3.84; stroke-opacity:1"/>
<line clip-path="url(#clip562)" x1="1838.49" y1="940.23" x2="1854.49" y2="956.23" style="stroke:#009af9; stroke-width:3.84; stroke-opacity:1"/>
<line clip-path="url(#clip562)" x1="1838.49" y1="940.23" x2="1854.49" y2="924.23" style="stroke:#009af9; stroke-width:3.84; stroke-opacity:1"/>
<line clip-path="url(#clip562)" x1="1922.46" y1="599.595" x2="1906.46" y2="583.595" style="stroke:#009af9; stroke-width:3.84; stroke-opacity:1"/>
<line clip-path="url(#clip562)" x1="1922.46" y1="599.595" x2="1906.46" y2="615.595" style="stroke:#009af9; stroke-width:3.84; stroke-opacity:1"/>
<line clip-path="url(#clip562)" x1="1922.46" y1="599.595" x2="1938.46" y2="615.595" style="stroke:#009af9; stroke-width:3.84; stroke-opacity:1"/>
<line clip-path="url(#clip562)" x1="1922.46" y1="599.595" x2="1938.46" y2="583.595" style="stroke:#009af9; stroke-width:3.84; stroke-opacity:1"/>
<line clip-path="url(#clip562)" x1="1998.55" y1="234.193" x2="1982.55" y2="218.193" style="stroke:#009af9; stroke-width:3.84; stroke-opacity:1"/>
<line clip-path="url(#clip562)" x1="1998.55" y1="234.193" x2="1982.55" y2="250.193" style="stroke:#009af9; stroke-width:3.84; stroke-opacity:1"/>
<line clip-path="url(#clip562)" x1="1998.55" y1="234.193" x2="2014.55" y2="250.193" style="stroke:#009af9; stroke-width:3.84; stroke-opacity:1"/>
<line clip-path="url(#clip562)" x1="1998.55" y1="234.193" x2="2014.55" y2="218.193" style="stroke:#009af9; stroke-width:3.84; stroke-opacity:1"/>
<path clip-path="url(#clip560)" d="
M2080.61 287.701 L2561.04 287.701 L2561.04 184.021 L2080.61 184.021  Z
  " fill="#ffffff" fill-rule="evenodd" fill-opacity="1"/>
<polyline clip-path="url(#clip560)" style="stroke:#000000; stroke-linecap:round; stroke-linejoin:round; stroke-width:4; stroke-opacity:1; fill:none" points="
  2080.61,287.701 2561.04,287.701 2561.04,184.021 2080.61,184.021 2080.61,287.701 
  "/>
<polyline clip-path="url(#clip560)" style="stroke:#ff0000; stroke-linecap:round; stroke-linejoin:round; stroke-width:4; stroke-opacity:1; fill:none" points="
  2107.18,235.861 2266.61,235.861 
  "/>
<line clip-path="url(#clip560)" x1="2186.89" y1="235.861" x2="2162.29" y2="211.258" style="stroke:#009af9; stroke-width:6.144; stroke-opacity:1"/>
<line clip-path="url(#clip560)" x1="2186.89" y1="235.861" x2="2162.29" y2="260.464" style="stroke:#009af9; stroke-width:6.144; stroke-opacity:1"/>
<line clip-path="url(#clip560)" x1="2186.89" y1="235.861" x2="2211.5" y2="260.464" style="stroke:#009af9; stroke-width:6.144; stroke-opacity:1"/>
<line clip-path="url(#clip560)" x1="2186.89" y1="235.861" x2="2211.5" y2="211.258" style="stroke:#009af9; stroke-width:6.144; stroke-opacity:1"/>
<path clip-path="url(#clip560)" d="M2317.21 239.114 L2317.21 241.197 L2297.62 241.197 Q2297.9 245.595 2300.26 247.91 Q2302.65 250.201 2306.88 250.201 Q2309.34 250.201 2311.63 249.6 Q2313.94 248.998 2316.21 247.794 L2316.21 251.822 Q2313.92 252.794 2311.51 253.303 Q2309.1 253.813 2306.63 253.813 Q2300.42 253.813 2296.79 250.201 Q2293.18 246.59 2293.18 240.433 Q2293.18 234.067 2296.6 230.34 Q2300.05 226.59 2305.89 226.59 Q2311.12 226.59 2314.15 229.97 Q2317.21 233.327 2317.21 239.114 M2312.95 237.864 Q2312.9 234.368 2310.98 232.285 Q2309.08 230.202 2305.93 230.202 Q2302.37 230.202 2300.22 232.215 Q2298.09 234.229 2297.76 237.887 L2312.95 237.864 Z" fill="#000000" fill-rule="evenodd" fill-opacity="1" /><path clip-path="url(#clip560)" d="M2344.91 227.215 L2335.54 239.831 L2345.4 253.141 L2340.38 253.141 L2332.83 242.956 L2325.29 253.141 L2320.26 253.141 L2330.33 239.576 L2321.12 227.215 L2326.14 227.215 L2333.02 236.451 L2339.89 227.215 L2344.91 227.215 Z" fill="#000000" fill-rule="evenodd" fill-opacity="1" /><path clip-path="url(#clip560)" d="M2355.54 249.252 L2355.54 263.002 L2351.26 263.002 L2351.26 227.215 L2355.54 227.215 L2355.54 231.151 Q2356.88 228.836 2358.92 227.725 Q2360.98 226.59 2363.83 226.59 Q2368.55 226.59 2371.49 230.34 Q2374.45 234.09 2374.45 240.201 Q2374.45 246.313 2371.49 250.063 Q2368.55 253.813 2363.83 253.813 Q2360.98 253.813 2358.92 252.701 Q2356.88 251.567 2355.54 249.252 M2370.03 240.201 Q2370.03 235.502 2368.09 232.84 Q2366.16 230.155 2362.79 230.155 Q2359.41 230.155 2357.46 232.84 Q2355.54 235.502 2355.54 240.201 Q2355.54 244.901 2357.46 247.586 Q2359.41 250.248 2362.79 250.248 Q2366.16 250.248 2368.09 247.586 Q2370.03 244.901 2370.03 240.201 Z" fill="#000000" fill-rule="evenodd" fill-opacity="1" /><path clip-path="url(#clip560)" d="M2391.74 217.169 Q2388.64 222.493 2387.14 227.702 Q2385.63 232.91 2385.63 238.257 Q2385.63 243.604 2387.14 248.859 Q2388.66 254.09 2391.74 259.391 L2388.04 259.391 Q2384.57 253.951 2382.83 248.697 Q2381.12 243.442 2381.12 238.257 Q2381.12 233.095 2382.83 227.864 Q2384.54 222.632 2388.04 217.169 L2391.74 217.169 Z" fill="#000000" fill-rule="evenodd" fill-opacity="1" /><path clip-path="url(#clip560)" d="M2421.56 227.215 L2412.18 239.831 L2422.04 253.141 L2417.02 253.141 L2409.47 242.956 L2401.93 253.141 L2396.91 253.141 L2406.97 239.576 L2397.76 227.215 L2402.78 227.215 L2409.66 236.451 L2416.53 227.215 L2421.56 227.215 Z" fill="#000000" fill-rule="evenodd" fill-opacity="1" /><path clip-path="url(#clip560)" d="M2445.72 218.581 L2458.29 231.475 L2453.64 231.475 L2443.46 222.331 L2433.27 231.475 L2428.62 231.475 L2441.19 218.581 L2445.72 218.581 Z" fill="#000000" fill-rule="evenodd" fill-opacity="1" /><path clip-path="url(#clip560)" d="M2472.41 249.206 L2488.73 249.206 L2488.73 253.141 L2466.79 253.141 L2466.79 249.206 Q2469.45 246.451 2474.03 241.822 Q2478.64 237.169 2479.82 235.827 Q2482.07 233.303 2482.95 231.567 Q2483.85 229.808 2483.85 228.118 Q2483.85 225.364 2481.9 223.627 Q2479.98 221.891 2476.88 221.891 Q2474.68 221.891 2472.23 222.655 Q2469.8 223.419 2467.02 224.97 L2467.02 220.248 Q2469.84 219.114 2472.3 218.535 Q2474.75 217.956 2476.79 217.956 Q2482.16 217.956 2485.35 220.641 Q2488.55 223.327 2488.55 227.817 Q2488.55 229.947 2487.74 231.868 Q2486.95 233.766 2484.84 236.359 Q2484.27 237.03 2481.16 240.248 Q2478.06 243.442 2472.41 249.206 Z" fill="#000000" fill-rule="evenodd" fill-opacity="1" /><path clip-path="url(#clip560)" d="M2497.28 217.169 L2500.98 217.169 Q2504.45 222.632 2506.16 227.864 Q2507.9 233.095 2507.9 238.257 Q2507.9 243.442 2506.16 248.697 Q2504.45 253.951 2500.98 259.391 L2497.28 259.391 Q2500.35 254.09 2501.86 248.859 Q2503.39 243.604 2503.39 238.257 Q2503.39 232.91 2501.86 227.702 Q2500.35 222.493 2497.28 217.169 Z" fill="#000000" fill-rule="evenodd" fill-opacity="1" /></svg>
