<?xml version="1.0" encoding="utf-8"?>
<svg xmlns="http://www.w3.org/2000/svg" xmlns:xlink="http://www.w3.org/1999/xlink" width="672" height="480" viewBox="0 0 2688 1920">
<defs>
  <clipPath id="clip480">
    <rect x="0" y="0" width="2688" height="1920"/>
  </clipPath>
</defs>
<path clip-path="url(#clip480)" d="
M0 1920 L2688 1920 L2688 0 L0 0  Z
  " fill="#ffffff" fill-rule="evenodd" fill-opacity="1"/>
<defs>
  <clipPath id="clip481">
    <rect x="537" y="0" width="1883" height="1883"/>
  </clipPath>
</defs>
<path clip-path="url(#clip480)" d="
M196.816 1800.78 L2640.76 1800.78 L2640.76 127.792 L196.816 127.792  Z
  " fill="#ffffff" fill-rule="evenodd" fill-opacity="1"/>
<defs>
  <clipPath id="clip482">
    <rect x="196" y="127" width="2445" height="1674"/>
  </clipPath>
</defs>
<path clip-path="url(#clip480)" d="M285.748 72.576 L262.658 12.096 L271.205 12.096 L290.366 63.0159 L309.567 12.096 L318.074 12.096 L295.025 72.576 L285.748 72.576 Z" fill="#000000" fill-rule="evenodd" fill-opacity="1" /><path clip-path="url(#clip480)" d="M337.721 32.4315 Q331.726 32.4315 328.242 37.1306 Q324.758 41.7891 324.758 49.9314 Q324.758 58.0738 328.202 62.7728 Q331.685 67.4314 337.721 67.4314 Q343.676 67.4314 347.16 62.7323 Q350.644 58.0333 350.644 49.9314 Q350.644 41.8701 347.16 37.1711 Q343.676 32.4315 337.721 32.4315 M337.721 26.1121 Q347.443 26.1121 352.993 32.4315 Q358.543 38.7509 358.543 49.9314 Q358.543 61.0714 352.993 67.4314 Q347.443 73.7508 337.721 73.7508 Q327.958 73.7508 322.409 67.4314 Q316.899 61.0714 316.899 49.9314 Q316.899 38.7509 322.409 32.4315 Q327.958 26.1121 337.721 26.1121 Z" fill="#000000" fill-rule="evenodd" fill-opacity="1" /><path clip-path="url(#clip480)" d="M370.898 9.54393 L378.352 9.54393 L378.352 72.576 L370.898 72.576 L370.898 9.54393 Z" fill="#000000" fill-rule="evenodd" fill-opacity="1" /><path clip-path="url(#clip480)" d="M393.178 54.671 L393.178 27.2059 L400.632 27.2059 L400.632 54.3874 Q400.632 60.8284 403.143 64.0691 Q405.655 67.2693 410.678 67.2693 Q416.714 67.2693 420.198 63.421 Q423.722 59.5726 423.722 52.9291 L423.722 27.2059 L431.176 27.2059 L431.176 72.576 L423.722 72.576 L423.722 65.6084 Q421.008 69.7404 417.402 71.7658 Q413.838 73.7508 409.098 73.7508 Q401.28 73.7508 397.229 68.8897 Q393.178 64.0286 393.178 54.671 M411.934 26.1121 L411.934 26.1121 Z" fill="#000000" fill-rule="evenodd" fill-opacity="1" /><path clip-path="url(#clip480)" d="M481.852 35.9153 Q484.647 30.8922 488.536 28.5022 Q492.425 26.1121 497.691 26.1121 Q504.78 26.1121 508.629 31.0947 Q512.477 36.0368 512.477 45.1919 L512.477 72.576 L504.983 72.576 L504.983 45.4349 Q504.983 38.913 502.674 35.7533 Q500.365 32.5936 495.625 32.5936 Q489.833 32.5936 486.47 36.4419 Q483.108 40.2903 483.108 46.9338 L483.108 72.576 L475.614 72.576 L475.614 45.4349 Q475.614 38.8725 473.305 35.7533 Q470.996 32.5936 466.175 32.5936 Q460.464 32.5936 457.101 36.4824 Q453.739 40.3308 453.739 46.9338 L453.739 72.576 L446.245 72.576 L446.245 27.2059 L453.739 27.2059 L453.739 34.2544 Q456.291 30.082 459.856 28.0971 Q463.421 26.1121 468.322 26.1121 Q473.264 26.1121 476.708 28.6237 Q480.191 31.1352 481.852 35.9153 Z" fill="#000000" fill-rule="evenodd" fill-opacity="1" /><path clip-path="url(#clip480)" d="M566.152 48.0275 L566.152 51.6733 L531.881 51.6733 Q532.367 59.3701 536.499 63.421 Q540.671 67.4314 548.085 67.4314 Q552.379 67.4314 556.389 66.3781 Q560.44 65.3249 564.41 63.2184 L564.41 70.267 Q560.399 71.9684 556.186 72.8596 Q551.973 73.7508 547.639 73.7508 Q536.783 73.7508 530.423 67.4314 Q524.103 61.1119 524.103 50.3365 Q524.103 39.1965 530.099 32.6746 Q536.134 26.1121 546.343 26.1121 Q555.498 26.1121 560.804 32.0264 Q566.152 37.9003 566.152 48.0275 M558.698 45.84 Q558.617 39.7232 555.255 36.0774 Q551.933 32.4315 546.424 32.4315 Q540.185 32.4315 536.418 35.9558 Q532.691 39.4801 532.124 45.8805 L558.698 45.84 Z" fill="#000000" fill-rule="evenodd" fill-opacity="1" /><path clip-path="url(#clip480)" d="M631.047 34.1734 Q629.791 33.4443 628.293 33.1202 Q626.834 32.7556 625.052 32.7556 Q618.732 32.7556 615.33 36.8875 Q611.967 40.9789 611.967 48.6757 L611.967 72.576 L604.473 72.576 L604.473 27.2059 L611.967 27.2059 L611.967 34.2544 Q614.317 30.1225 618.084 28.1376 Q621.852 26.1121 627.239 26.1121 Q628.009 26.1121 628.941 26.2337 Q629.872 26.3147 631.007 26.5172 L631.047 34.1734 Z" fill="#000000" fill-rule="evenodd" fill-opacity="1" /><path clip-path="url(#clip480)" d="M659.484 49.7694 Q650.451 49.7694 646.967 51.8354 Q643.483 53.9013 643.483 58.8839 Q643.483 62.8538 646.076 65.2034 Q648.709 67.5124 653.206 67.5124 Q659.403 67.5124 663.13 63.1374 Q666.898 58.7219 666.898 51.4303 L666.898 49.7694 L659.484 49.7694 M674.351 46.6907 L674.351 72.576 L666.898 72.576 L666.898 65.6895 Q664.346 69.8214 660.538 71.8063 Q656.73 73.7508 651.221 73.7508 Q644.253 73.7508 640.121 69.8619 Q636.03 65.9325 636.03 59.3701 Q636.03 51.7138 641.134 47.825 Q646.279 43.9361 656.446 43.9361 L666.898 43.9361 L666.898 43.2069 Q666.898 38.0623 663.495 35.2672 Q660.133 32.4315 654.016 32.4315 Q650.127 32.4315 646.441 33.3632 Q642.754 34.295 639.351 36.1584 L639.351 29.2718 Q643.443 27.692 647.291 26.9223 Q651.14 26.1121 654.785 26.1121 Q664.629 26.1121 669.49 31.2163 Q674.351 36.3204 674.351 46.6907 Z" fill="#000000" fill-rule="evenodd" fill-opacity="1" /><path clip-path="url(#clip480)" d="M697.077 14.324 L697.077 27.2059 L712.43 27.2059 L712.43 32.9987 L697.077 32.9987 L697.077 57.6282 Q697.077 63.1779 698.576 64.7578 Q700.115 66.3376 704.774 66.3376 L712.43 66.3376 L712.43 72.576 L704.774 72.576 Q696.145 72.576 692.864 69.3758 Q689.583 66.1351 689.583 57.6282 L689.583 32.9987 L684.114 32.9987 L684.114 27.2059 L689.583 27.2059 L689.583 14.324 L697.077 14.324 Z" fill="#000000" fill-rule="evenodd" fill-opacity="1" /><path clip-path="url(#clip480)" d="M722.233 27.2059 L729.687 27.2059 L729.687 72.576 L722.233 72.576 L722.233 27.2059 M722.233 9.54393 L729.687 9.54393 L729.687 18.9825 L722.233 18.9825 L722.233 9.54393 Z" fill="#000000" fill-rule="evenodd" fill-opacity="1" /><path clip-path="url(#clip480)" d="M762.864 32.4315 Q756.868 32.4315 753.384 37.1306 Q749.901 41.7891 749.901 49.9314 Q749.901 58.0738 753.344 62.7728 Q756.828 67.4314 762.864 67.4314 Q768.818 67.4314 772.302 62.7323 Q775.786 58.0333 775.786 49.9314 Q775.786 41.8701 772.302 37.1711 Q768.818 32.4315 762.864 32.4315 M762.864 26.1121 Q772.586 26.1121 778.135 32.4315 Q783.685 38.7509 783.685 49.9314 Q783.685 61.0714 778.135 67.4314 Q772.586 73.7508 762.864 73.7508 Q753.101 73.7508 747.551 67.4314 Q742.042 61.0714 742.042 49.9314 Q742.042 38.7509 747.551 32.4315 Q753.101 26.1121 762.864 26.1121 Z" fill="#000000" fill-rule="evenodd" fill-opacity="1" /><path clip-path="url(#clip480)" d="M839.993 32.4315 Q833.997 32.4315 830.514 37.1306 Q827.03 41.7891 827.03 49.9314 Q827.03 58.0738 830.473 62.7728 Q833.957 67.4314 839.993 67.4314 Q845.948 67.4314 849.431 62.7323 Q852.915 58.0333 852.915 49.9314 Q852.915 41.8701 849.431 37.1711 Q845.948 32.4315 839.993 32.4315 M839.993 26.1121 Q849.715 26.1121 855.265 32.4315 Q860.814 38.7509 860.814 49.9314 Q860.814 61.0714 855.265 67.4314 Q849.715 73.7508 839.993 73.7508 Q830.23 73.7508 824.68 67.4314 Q819.171 61.0714 819.171 49.9314 Q819.171 38.7509 824.68 32.4315 Q830.23 26.1121 839.993 26.1121 Z" fill="#000000" fill-rule="evenodd" fill-opacity="1" /><path clip-path="url(#clip480)" d="M896.138 9.54393 L896.138 15.7418 L889.009 15.7418 Q884.998 15.7418 883.418 17.3622 Q881.879 18.9825 881.879 23.1955 L881.879 27.2059 L894.153 27.2059 L894.153 32.9987 L881.879 32.9987 L881.879 72.576 L874.385 72.576 L874.385 32.9987 L867.255 32.9987 L867.255 27.2059 L874.385 27.2059 L874.385 24.0462 Q874.385 16.471 877.909 13.0277 Q881.434 9.54393 889.09 9.54393 L896.138 9.54393 Z" fill="#000000" fill-rule="evenodd" fill-opacity="1" /><path clip-path="url(#clip480)" d="M949.367 49.7694 Q940.334 49.7694 936.85 51.8354 Q933.366 53.9013 933.366 58.8839 Q933.366 62.8538 935.959 65.2034 Q938.592 67.5124 943.088 67.5124 Q949.286 67.5124 953.013 63.1374 Q956.78 58.7219 956.78 51.4303 L956.78 49.7694 L949.367 49.7694 M964.234 46.6907 L964.234 72.576 L956.78 72.576 L956.78 65.6895 Q954.228 69.8214 950.42 71.8063 Q946.613 73.7508 941.103 73.7508 Q934.136 73.7508 930.004 69.8619 Q925.912 65.9325 925.912 59.3701 Q925.912 51.7138 931.017 47.825 Q936.161 43.9361 946.329 43.9361 L956.78 43.9361 L956.78 43.2069 Q956.78 38.0623 953.378 35.2672 Q950.015 32.4315 943.898 32.4315 Q940.01 32.4315 936.323 33.3632 Q932.637 34.295 929.234 36.1584 L929.234 29.2718 Q933.326 27.692 937.174 26.9223 Q941.022 26.1121 944.668 26.1121 Q954.512 26.1121 959.373 31.2163 Q964.234 36.3204 964.234 46.6907 Z" fill="#000000" fill-rule="evenodd" fill-opacity="1" /><path clip-path="url(#clip480)" d="M986.96 14.324 L986.96 27.2059 L1002.31 27.2059 L1002.31 32.9987 L986.96 32.9987 L986.96 57.6282 Q986.96 63.1779 988.458 64.7578 Q989.998 66.3376 994.656 66.3376 L1002.31 66.3376 L1002.31 72.576 L994.656 72.576 Q986.028 72.576 982.747 69.3758 Q979.465 66.1351 979.465 57.6282 L979.465 32.9987 L973.997 32.9987 L973.997 27.2059 L979.465 27.2059 L979.465 14.324 L986.96 14.324 Z" fill="#000000" fill-rule="evenodd" fill-opacity="1" /><path clip-path="url(#clip480)" d="M1047.44 35.9153 Q1050.23 30.8922 1054.12 28.5022 Q1058.01 26.1121 1063.28 26.1121 Q1070.37 26.1121 1074.22 31.0947 Q1078.06 36.0368 1078.06 45.1919 L1078.06 72.576 L1070.57 72.576 L1070.57 45.4349 Q1070.57 38.913 1068.26 35.7533 Q1065.95 32.5936 1061.21 32.5936 Q1055.42 32.5936 1052.06 36.4419 Q1048.7 40.2903 1048.7 46.9338 L1048.7 72.576 L1041.2 72.576 L1041.2 45.4349 Q1041.2 38.8725 1038.89 35.7533 Q1036.58 32.5936 1031.76 32.5936 Q1026.05 32.5936 1022.69 36.4824 Q1019.33 40.3308 1019.33 46.9338 L1019.33 72.576 L1011.83 72.576 L1011.83 27.2059 L1019.33 27.2059 L1019.33 34.2544 Q1021.88 30.082 1025.44 28.0971 Q1029.01 26.1121 1033.91 26.1121 Q1038.85 26.1121 1042.29 28.6237 Q1045.78 31.1352 1047.44 35.9153 Z" fill="#000000" fill-rule="evenodd" fill-opacity="1" /><path clip-path="url(#clip480)" d="M1110.51 32.4315 Q1104.52 32.4315 1101.03 37.1306 Q1097.55 41.7891 1097.55 49.9314 Q1097.55 58.0738 1100.99 62.7728 Q1104.48 67.4314 1110.51 67.4314 Q1116.47 67.4314 1119.95 62.7323 Q1123.43 58.0333 1123.43 49.9314 Q1123.43 41.8701 1119.95 37.1711 Q1116.47 32.4315 1110.51 32.4315 M1110.51 26.1121 Q1120.23 26.1121 1125.78 32.4315 Q1131.33 38.7509 1131.33 49.9314 Q1131.33 61.0714 1125.78 67.4314 Q1120.23 73.7508 1110.51 73.7508 Q1100.75 73.7508 1095.2 67.4314 Q1089.69 61.0714 1089.69 49.9314 Q1089.69 38.7509 1095.2 32.4315 Q1100.75 26.1121 1110.51 26.1121 Z" fill="#000000" fill-rule="evenodd" fill-opacity="1" /><path clip-path="url(#clip480)" d="M1172.61 28.5427 L1172.61 35.5912 Q1169.45 33.9709 1166.05 33.1607 Q1162.65 32.3505 1159 32.3505 Q1153.45 32.3505 1150.66 34.0519 Q1147.9 35.7533 1147.9 39.156 Q1147.9 41.7486 1149.89 43.2475 Q1151.87 44.7058 1157.87 46.0426 L1160.42 46.6097 Q1168.36 48.3111 1171.68 51.4303 Q1175.04 54.509 1175.04 60.0587 Q1175.04 66.3781 1170.02 70.0644 Q1165.04 73.7508 1156.29 73.7508 Q1152.64 73.7508 1148.67 73.0216 Q1144.74 72.3329 1140.37 70.9151 L1140.37 63.2184 Q1144.5 65.3654 1148.51 66.4591 Q1152.52 67.5124 1156.45 67.5124 Q1161.72 67.5124 1164.55 65.73 Q1167.39 63.9071 1167.39 60.6258 Q1167.39 57.5877 1165.32 55.9673 Q1163.3 54.3469 1156.37 52.8481 L1153.78 52.2405 Q1146.85 50.7821 1143.77 47.7845 Q1140.69 44.7463 1140.69 39.4801 Q1140.69 33.0797 1145.23 29.5959 Q1149.77 26.1121 1158.11 26.1121 Q1162.24 26.1121 1165.89 26.7198 Q1169.53 27.3274 1172.61 28.5427 Z" fill="#000000" fill-rule="evenodd" fill-opacity="1" /><path clip-path="url(#clip480)" d="M1194.12 65.7705 L1194.12 89.8329 L1186.63 89.8329 L1186.63 27.2059 L1194.12 27.2059 L1194.12 34.0924 Q1196.47 30.0415 1200.04 28.0971 Q1203.64 26.1121 1208.63 26.1121 Q1216.89 26.1121 1222.03 32.6746 Q1227.22 39.2371 1227.22 49.9314 Q1227.22 60.6258 1222.03 67.1883 Q1216.89 73.7508 1208.63 73.7508 Q1203.64 73.7508 1200.04 71.8063 Q1196.47 69.8214 1194.12 65.7705 M1219.48 49.9314 Q1219.48 41.7081 1216.08 37.0496 Q1212.72 32.3505 1206.8 32.3505 Q1200.89 32.3505 1197.49 37.0496 Q1194.12 41.7081 1194.12 49.9314 Q1194.12 58.1548 1197.49 62.8538 Q1200.89 67.5124 1206.8 67.5124 Q1212.72 67.5124 1216.08 62.8538 Q1219.48 58.1548 1219.48 49.9314 Z" fill="#000000" fill-rule="evenodd" fill-opacity="1" /><path clip-path="url(#clip480)" d="M1277.29 45.1919 L1277.29 72.576 L1269.83 72.576 L1269.83 45.4349 Q1269.83 38.994 1267.32 35.7938 Q1264.81 32.5936 1259.79 32.5936 Q1253.75 32.5936 1250.27 36.4419 Q1246.78 40.2903 1246.78 46.9338 L1246.78 72.576 L1239.29 72.576 L1239.29 9.54393 L1246.78 9.54393 L1246.78 34.2544 Q1249.46 30.163 1253.06 28.1376 Q1256.71 26.1121 1261.45 26.1121 Q1269.27 26.1121 1273.28 30.9732 Q1277.29 35.7938 1277.29 45.1919 Z" fill="#000000" fill-rule="evenodd" fill-opacity="1" /><path clip-path="url(#clip480)" d="M1330.96 48.0275 L1330.96 51.6733 L1296.69 51.6733 Q1297.18 59.3701 1301.31 63.421 Q1305.48 67.4314 1312.9 67.4314 Q1317.19 67.4314 1321.2 66.3781 Q1325.25 65.3249 1329.22 63.2184 L1329.22 70.267 Q1325.21 71.9684 1321 72.8596 Q1316.78 73.7508 1312.45 73.7508 Q1301.59 73.7508 1295.23 67.4314 Q1288.91 61.1119 1288.91 50.3365 Q1288.91 39.1965 1294.91 32.6746 Q1300.95 26.1121 1311.15 26.1121 Q1320.31 26.1121 1325.62 32.0264 Q1330.96 37.9003 1330.96 48.0275 M1323.51 45.84 Q1323.43 39.7232 1320.07 36.0774 Q1316.74 32.4315 1311.23 32.4315 Q1305 32.4315 1301.23 35.9558 Q1297.5 39.4801 1296.93 45.8805 L1323.51 45.84 Z" fill="#000000" fill-rule="evenodd" fill-opacity="1" /><path clip-path="url(#clip480)" d="M1369.49 34.1734 Q1368.23 33.4443 1366.73 33.1202 Q1365.27 32.7556 1363.49 32.7556 Q1357.17 32.7556 1353.77 36.8875 Q1350.41 40.9789 1350.41 48.6757 L1350.41 72.576 L1342.91 72.576 L1342.91 27.2059 L1350.41 27.2059 L1350.41 34.2544 Q1352.76 30.1225 1356.52 28.1376 Q1360.29 26.1121 1365.68 26.1121 Q1366.45 26.1121 1367.38 26.2337 Q1368.31 26.3147 1369.45 26.5172 L1369.49 34.1734 Z" fill="#000000" fill-rule="evenodd" fill-opacity="1" /><path clip-path="url(#clip480)" d="M1377.3 27.2059 L1384.76 27.2059 L1384.76 72.576 L1377.3 72.576 L1377.3 27.2059 M1377.3 9.54393 L1384.76 9.54393 L1384.76 18.9825 L1377.3 18.9825 L1377.3 9.54393 Z" fill="#000000" fill-rule="evenodd" fill-opacity="1" /><path clip-path="url(#clip480)" d="M1433 28.9478 L1433 35.9153 Q1429.84 34.1734 1426.64 33.3227 Q1423.49 32.4315 1420.24 32.4315 Q1412.99 32.4315 1408.98 37.0496 Q1404.97 41.6271 1404.97 49.9314 Q1404.97 58.2358 1408.98 62.8538 Q1412.99 67.4314 1420.24 67.4314 Q1423.49 67.4314 1426.64 66.5807 Q1429.84 65.6895 1433 63.9476 L1433 70.8341 Q1429.89 72.2924 1426.52 73.0216 Q1423.2 73.7508 1419.43 73.7508 Q1409.19 73.7508 1403.15 67.3098 Q1397.11 60.8689 1397.11 49.9314 Q1397.11 38.832 1403.19 32.472 Q1409.31 26.1121 1419.92 26.1121 Q1423.36 26.1121 1426.64 26.8413 Q1429.93 27.5299 1433 28.9478 Z" fill="#000000" fill-rule="evenodd" fill-opacity="1" /><path clip-path="url(#clip480)" d="M1504.99 28.9478 L1504.99 35.9153 Q1501.83 34.1734 1498.63 33.3227 Q1495.47 32.4315 1492.23 32.4315 Q1484.98 32.4315 1480.97 37.0496 Q1476.96 41.6271 1476.96 49.9314 Q1476.96 58.2358 1480.97 62.8538 Q1484.98 67.4314 1492.23 67.4314 Q1495.47 67.4314 1498.63 66.5807 Q1501.83 65.6895 1504.99 63.9476 L1504.99 70.8341 Q1501.87 72.2924 1498.51 73.0216 Q1495.19 73.7508 1491.42 73.7508 Q1481.17 73.7508 1475.13 67.3098 Q1469.1 60.8689 1469.1 49.9314 Q1469.1 38.832 1475.17 32.472 Q1481.29 26.1121 1491.9 26.1121 Q1495.35 26.1121 1498.63 26.8413 Q1501.91 27.5299 1504.99 28.9478 Z" fill="#000000" fill-rule="evenodd" fill-opacity="1" /><path clip-path="url(#clip480)" d="M1535.53 32.4315 Q1529.54 32.4315 1526.05 37.1306 Q1522.57 41.7891 1522.57 49.9314 Q1522.57 58.0738 1526.01 62.7728 Q1529.5 67.4314 1535.53 67.4314 Q1541.49 67.4314 1544.97 62.7323 Q1548.46 58.0333 1548.46 49.9314 Q1548.46 41.8701 1544.97 37.1711 Q1541.49 32.4315 1535.53 32.4315 M1535.53 26.1121 Q1545.26 26.1121 1550.8 32.4315 Q1556.35 38.7509 1556.35 49.9314 Q1556.35 61.0714 1550.8 67.4314 Q1545.26 73.7508 1535.53 73.7508 Q1525.77 73.7508 1520.22 67.4314 Q1514.71 61.0714 1514.71 49.9314 Q1514.71 38.7509 1520.22 32.4315 Q1525.77 26.1121 1535.53 26.1121 Z" fill="#000000" fill-rule="evenodd" fill-opacity="1" /><path clip-path="url(#clip480)" d="M1604.03 35.9153 Q1606.83 30.8922 1610.72 28.5022 Q1614.61 26.1121 1619.87 26.1121 Q1626.96 26.1121 1630.81 31.0947 Q1634.66 36.0368 1634.66 45.1919 L1634.66 72.576 L1627.16 72.576 L1627.16 45.4349 Q1627.16 38.913 1624.86 35.7533 Q1622.55 32.5936 1617.81 32.5936 Q1612.01 32.5936 1608.65 36.4419 Q1605.29 40.2903 1605.29 46.9338 L1605.29 72.576 L1597.8 72.576 L1597.8 45.4349 Q1597.8 38.8725 1595.49 35.7533 Q1593.18 32.5936 1588.36 32.5936 Q1582.65 32.5936 1579.28 36.4824 Q1575.92 40.3308 1575.92 46.9338 L1575.92 72.576 L1568.43 72.576 L1568.43 27.2059 L1575.92 27.2059 L1575.92 34.2544 Q1578.47 30.082 1582.04 28.0971 Q1585.6 26.1121 1590.5 26.1121 Q1595.45 26.1121 1598.89 28.6237 Q1602.37 31.1352 1604.03 35.9153 Z" fill="#000000" fill-rule="evenodd" fill-opacity="1" /><path clip-path="url(#clip480)" d="M1656.74 65.7705 L1656.74 89.8329 L1649.24 89.8329 L1649.24 27.2059 L1656.74 27.2059 L1656.74 34.0924 Q1659.09 30.0415 1662.65 28.0971 Q1666.26 26.1121 1671.24 26.1121 Q1679.5 26.1121 1684.65 32.6746 Q1689.83 39.2371 1689.83 49.9314 Q1689.83 60.6258 1684.65 67.1883 Q1679.5 73.7508 1671.24 73.7508 Q1666.26 73.7508 1662.65 71.8063 Q1659.09 69.8214 1656.74 65.7705 M1682.09 49.9314 Q1682.09 41.7081 1678.69 37.0496 Q1675.33 32.3505 1669.42 32.3505 Q1663.5 32.3505 1660.1 37.0496 Q1656.74 41.7081 1656.74 49.9314 Q1656.74 58.1548 1660.1 62.8538 Q1663.5 67.5124 1669.42 67.5124 Q1675.33 67.5124 1678.69 62.8538 Q1682.09 58.1548 1682.09 49.9314 Z" fill="#000000" fill-rule="evenodd" fill-opacity="1" /><path clip-path="url(#clip480)" d="M1719.77 32.4315 Q1713.77 32.4315 1710.29 37.1306 Q1706.81 41.7891 1706.81 49.9314 Q1706.81 58.0738 1710.25 62.7728 Q1713.73 67.4314 1719.77 67.4314 Q1725.72 67.4314 1729.21 62.7323 Q1732.69 58.0333 1732.69 49.9314 Q1732.69 41.8701 1729.21 37.1711 Q1725.72 32.4315 1719.77 32.4315 M1719.77 26.1121 Q1729.49 26.1121 1735.04 32.4315 Q1740.59 38.7509 1740.59 49.9314 Q1740.59 61.0714 1735.04 67.4314 Q1729.49 73.7508 1719.77 73.7508 Q1710.01 73.7508 1704.46 67.4314 Q1698.95 61.0714 1698.95 49.9314 Q1698.95 38.7509 1704.46 32.4315 Q1710.01 26.1121 1719.77 26.1121 Z" fill="#000000" fill-rule="evenodd" fill-opacity="1" /><path clip-path="url(#clip480)" d="M1781.87 28.5427 L1781.87 35.5912 Q1778.71 33.9709 1775.31 33.1607 Q1771.9 32.3505 1768.26 32.3505 Q1762.71 32.3505 1759.91 34.0519 Q1757.16 35.7533 1757.16 39.156 Q1757.16 41.7486 1759.14 43.2475 Q1761.13 44.7058 1767.12 46.0426 L1769.68 46.6097 Q1777.62 48.3111 1780.94 51.4303 Q1784.3 54.509 1784.3 60.0587 Q1784.3 66.3781 1779.28 70.0644 Q1774.29 73.7508 1765.54 73.7508 Q1761.9 73.7508 1757.93 73.0216 Q1754 72.3329 1749.62 70.9151 L1749.62 63.2184 Q1753.76 65.3654 1757.77 66.4591 Q1761.78 67.5124 1765.71 67.5124 Q1770.97 67.5124 1773.81 65.73 Q1776.64 63.9071 1776.64 60.6258 Q1776.64 57.5877 1774.58 55.9673 Q1772.55 54.3469 1765.62 52.8481 L1763.03 52.2405 Q1756.1 50.7821 1753.03 47.7845 Q1749.95 44.7463 1749.95 39.4801 Q1749.95 33.0797 1754.48 29.5959 Q1759.02 26.1121 1767.37 26.1121 Q1771.5 26.1121 1775.14 26.7198 Q1778.79 27.3274 1781.87 28.5427 Z" fill="#000000" fill-rule="evenodd" fill-opacity="1" /><path clip-path="url(#clip480)" d="M1796.17 27.2059 L1803.62 27.2059 L1803.62 72.576 L1796.17 72.576 L1796.17 27.2059 M1796.17 9.54393 L1803.62 9.54393 L1803.62 18.9825 L1796.17 18.9825 L1796.17 9.54393 Z" fill="#000000" fill-rule="evenodd" fill-opacity="1" /><path clip-path="url(#clip480)" d="M1826.59 14.324 L1826.59 27.2059 L1841.94 27.2059 L1841.94 32.9987 L1826.59 32.9987 L1826.59 57.6282 Q1826.59 63.1779 1828.09 64.7578 Q1829.63 66.3376 1834.29 66.3376 L1841.94 66.3376 L1841.94 72.576 L1834.29 72.576 Q1825.66 72.576 1822.38 69.3758 Q1819.1 66.1351 1819.1 57.6282 L1819.1 32.9987 L1813.63 32.9987 L1813.63 27.2059 L1819.1 27.2059 L1819.1 14.324 L1826.59 14.324 Z" fill="#000000" fill-rule="evenodd" fill-opacity="1" /><path clip-path="url(#clip480)" d="M1851.75 27.2059 L1859.2 27.2059 L1859.2 72.576 L1851.75 72.576 L1851.75 27.2059 M1851.75 9.54393 L1859.2 9.54393 L1859.2 18.9825 L1851.75 18.9825 L1851.75 9.54393 Z" fill="#000000" fill-rule="evenodd" fill-opacity="1" /><path clip-path="url(#clip480)" d="M1892.38 32.4315 Q1886.38 32.4315 1882.9 37.1306 Q1879.41 41.7891 1879.41 49.9314 Q1879.41 58.0738 1882.86 62.7728 Q1886.34 67.4314 1892.38 67.4314 Q1898.33 67.4314 1901.82 62.7323 Q1905.3 58.0333 1905.3 49.9314 Q1905.3 41.8701 1901.82 37.1711 Q1898.33 32.4315 1892.38 32.4315 M1892.38 26.1121 Q1902.1 26.1121 1907.65 32.4315 Q1913.2 38.7509 1913.2 49.9314 Q1913.2 61.0714 1907.65 67.4314 Q1902.1 73.7508 1892.38 73.7508 Q1882.61 73.7508 1877.06 67.4314 Q1871.56 61.0714 1871.56 49.9314 Q1871.56 38.7509 1877.06 32.4315 Q1882.61 26.1121 1892.38 26.1121 Z" fill="#000000" fill-rule="evenodd" fill-opacity="1" /><path clip-path="url(#clip480)" d="M1963.27 45.1919 L1963.27 72.576 L1955.81 72.576 L1955.81 45.4349 Q1955.81 38.994 1953.3 35.7938 Q1950.79 32.5936 1945.77 32.5936 Q1939.73 32.5936 1936.25 36.4419 Q1932.76 40.2903 1932.76 46.9338 L1932.76 72.576 L1925.27 72.576 L1925.27 27.2059 L1932.76 27.2059 L1932.76 34.2544 Q1935.44 30.163 1939.04 28.1376 Q1942.69 26.1121 1947.43 26.1121 Q1955.25 26.1121 1959.26 30.9732 Q1963.27 35.7938 1963.27 45.1919 Z" fill="#000000" fill-rule="evenodd" fill-opacity="1" /><path clip-path="url(#clip480)" d="M2022.09 32.4315 Q2016.09 32.4315 2012.61 37.1306 Q2009.12 41.7891 2009.12 49.9314 Q2009.12 58.0738 2012.57 62.7728 Q2016.05 67.4314 2022.09 67.4314 Q2028.04 67.4314 2031.53 62.7323 Q2035.01 58.0333 2035.01 49.9314 Q2035.01 41.8701 2031.53 37.1711 Q2028.04 32.4315 2022.09 32.4315 M2022.09 26.1121 Q2031.81 26.1121 2037.36 32.4315 Q2042.91 38.7509 2042.91 49.9314 Q2042.91 61.0714 2037.36 67.4314 Q2031.81 73.7508 2022.09 73.7508 Q2012.32 73.7508 2006.77 67.4314 Q2001.27 61.0714 2001.27 49.9314 Q2001.27 38.7509 2006.77 32.4315 Q2012.32 26.1121 2022.09 26.1121 Z" fill="#000000" fill-rule="evenodd" fill-opacity="1" /><path clip-path="url(#clip480)" d="M2092.98 45.1919 L2092.98 72.576 L2085.52 72.576 L2085.52 45.4349 Q2085.52 38.994 2083.01 35.7938 Q2080.5 32.5936 2075.48 32.5936 Q2069.44 32.5936 2065.96 36.4419 Q2062.47 40.2903 2062.47 46.9338 L2062.47 72.576 L2054.98 72.576 L2054.98 27.2059 L2062.47 27.2059 L2062.47 34.2544 Q2065.15 30.163 2068.75 28.1376 Q2072.4 26.1121 2077.14 26.1121 Q2084.96 26.1121 2088.97 30.9732 Q2092.98 35.7938 2092.98 45.1919 Z" fill="#000000" fill-rule="evenodd" fill-opacity="1" /><path clip-path="url(#clip480)" d="M2141.59 14.324 L2141.59 27.2059 L2156.94 27.2059 L2156.94 32.9987 L2141.59 32.9987 L2141.59 57.6282 Q2141.59 63.1779 2143.09 64.7578 Q2144.63 66.3376 2149.29 66.3376 L2156.94 66.3376 L2156.94 72.576 L2149.29 72.576 Q2140.66 72.576 2137.38 69.3758 Q2134.09 66.1351 2134.09 57.6282 L2134.09 32.9987 L2128.63 32.9987 L2128.63 27.2059 L2134.09 27.2059 L2134.09 14.324 L2141.59 14.324 Z" fill="#000000" fill-rule="evenodd" fill-opacity="1" /><path clip-path="url(#clip480)" d="M2204.46 45.1919 L2204.46 72.576 L2197.01 72.576 L2197.01 45.4349 Q2197.01 38.994 2194.49 35.7938 Q2191.98 32.5936 2186.96 32.5936 Q2180.92 32.5936 2177.44 36.4419 Q2173.96 40.2903 2173.96 46.9338 L2173.96 72.576 L2166.46 72.576 L2166.46 9.54393 L2173.96 9.54393 L2173.96 34.2544 Q2176.63 30.163 2180.23 28.1376 Q2183.88 26.1121 2188.62 26.1121 Q2196.44 26.1121 2200.45 30.9732 Q2204.46 35.7938 2204.46 45.1919 Z" fill="#000000" fill-rule="evenodd" fill-opacity="1" /><path clip-path="url(#clip480)" d="M2258.13 48.0275 L2258.13 51.6733 L2223.86 51.6733 Q2224.35 59.3701 2228.48 63.421 Q2232.65 67.4314 2240.07 67.4314 Q2244.36 67.4314 2248.37 66.3781 Q2252.42 65.3249 2256.39 63.2184 L2256.39 70.267 Q2252.38 71.9684 2248.17 72.8596 Q2243.96 73.7508 2239.62 73.7508 Q2228.76 73.7508 2222.4 67.4314 Q2216.08 61.1119 2216.08 50.3365 Q2216.08 39.1965 2222.08 32.6746 Q2228.12 26.1121 2238.32 26.1121 Q2247.48 26.1121 2252.79 32.0264 Q2258.13 37.9003 2258.13 48.0275 M2250.68 45.84 Q2250.6 39.7232 2247.24 36.0774 Q2243.91 32.4315 2238.41 32.4315 Q2232.17 32.4315 2228.4 35.9558 Q2224.67 39.4801 2224.11 45.8805 L2250.68 45.84 Z" fill="#000000" fill-rule="evenodd" fill-opacity="1" /><path clip-path="url(#clip480)" d="M2326.59 49.3643 Q2326.59 41.2625 2323.23 36.8065 Q2319.91 32.3505 2313.87 32.3505 Q2307.88 32.3505 2304.52 36.8065 Q2301.19 41.2625 2301.19 49.3643 Q2301.19 57.4256 2304.52 61.8816 Q2307.88 66.3376 2313.87 66.3376 Q2319.91 66.3376 2323.23 61.8816 Q2326.59 57.4256 2326.59 49.3643 M2334.05 66.9452 Q2334.05 78.5308 2328.9 84.1616 Q2323.76 89.8329 2313.14 89.8329 Q2309.22 89.8329 2305.73 89.2252 Q2302.25 88.6581 2298.97 87.4428 L2298.97 80.1917 Q2302.25 81.9741 2305.45 82.8248 Q2308.65 83.6755 2311.97 83.6755 Q2319.3 83.6755 2322.95 79.8271 Q2326.59 76.0193 2326.59 68.282 L2326.59 64.5957 Q2324.28 68.6061 2320.68 70.5911 Q2317.07 72.576 2312.05 72.576 Q2303.71 72.576 2298.6 66.2161 Q2293.5 59.8562 2293.5 49.3643 Q2293.5 38.832 2298.6 32.472 Q2303.71 26.1121 2312.05 26.1121 Q2317.07 26.1121 2320.68 28.0971 Q2324.28 30.082 2326.59 34.0924 L2326.59 27.2059 L2334.05 27.2059 L2334.05 66.9452 Z" fill="#000000" fill-rule="evenodd" fill-opacity="1" /><path clip-path="url(#clip480)" d="M2375.69 34.1734 Q2374.43 33.4443 2372.94 33.1202 Q2371.48 32.7556 2369.7 32.7556 Q2363.38 32.7556 2359.97 36.8875 Q2356.61 40.9789 2356.61 48.6757 L2356.61 72.576 L2349.12 72.576 L2349.12 27.2059 L2356.61 27.2059 L2356.61 34.2544 Q2358.96 30.1225 2362.73 28.1376 Q2366.49 26.1121 2371.88 26.1121 Q2372.65 26.1121 2373.58 26.2337 Q2374.52 26.3147 2375.65 26.5172 L2375.69 34.1734 Z" fill="#000000" fill-rule="evenodd" fill-opacity="1" /><path clip-path="url(#clip480)" d="M2399.27 32.4315 Q2393.27 32.4315 2389.79 37.1306 Q2386.3 41.7891 2386.3 49.9314 Q2386.3 58.0738 2389.75 62.7728 Q2393.23 67.4314 2399.27 67.4314 Q2405.22 67.4314 2408.71 62.7323 Q2412.19 58.0333 2412.19 49.9314 Q2412.19 41.8701 2408.71 37.1711 Q2405.22 32.4315 2399.27 32.4315 M2399.27 26.1121 Q2408.99 26.1121 2414.54 32.4315 Q2420.09 38.7509 2420.09 49.9314 Q2420.09 61.0714 2414.54 67.4314 Q2408.99 73.7508 2399.27 73.7508 Q2389.5 73.7508 2383.95 67.4314 Q2378.45 61.0714 2378.45 49.9314 Q2378.45 38.7509 2383.95 32.4315 Q2389.5 26.1121 2399.27 26.1121 Z" fill="#000000" fill-rule="evenodd" fill-opacity="1" /><path clip-path="url(#clip480)" d="M2431.67 54.671 L2431.67 27.2059 L2439.13 27.2059 L2439.13 54.3874 Q2439.13 60.8284 2441.64 64.0691 Q2444.15 67.2693 2449.17 67.2693 Q2455.21 67.2693 2458.69 63.421 Q2462.22 59.5726 2462.22 52.9291 L2462.22 27.2059 L2469.67 27.2059 L2469.67 72.576 L2462.22 72.576 L2462.22 65.6084 Q2459.5 69.7404 2455.9 71.7658 Q2452.33 73.7508 2447.59 73.7508 Q2439.78 73.7508 2435.72 68.8897 Q2431.67 64.0286 2431.67 54.671 M2450.43 26.1121 L2450.43 26.1121 Z" fill="#000000" fill-rule="evenodd" fill-opacity="1" /><path clip-path="url(#clip480)" d="M2522.74 45.1919 L2522.74 72.576 L2515.28 72.576 L2515.28 45.4349 Q2515.28 38.994 2512.77 35.7938 Q2510.26 32.5936 2505.24 32.5936 Q2499.2 32.5936 2495.72 36.4419 Q2492.24 40.2903 2492.24 46.9338 L2492.24 72.576 L2484.74 72.576 L2484.74 27.2059 L2492.24 27.2059 L2492.24 34.2544 Q2494.91 30.163 2498.51 28.1376 Q2502.16 26.1121 2506.9 26.1121 Q2514.72 26.1121 2518.73 30.9732 Q2522.74 35.7938 2522.74 45.1919 Z" fill="#000000" fill-rule="evenodd" fill-opacity="1" /><path clip-path="url(#clip480)" d="M2567.46 34.0924 L2567.46 9.54393 L2574.91 9.54393 L2574.91 72.576 L2567.46 72.576 L2567.46 65.7705 Q2565.11 69.8214 2561.51 71.8063 Q2557.94 73.7508 2552.92 73.7508 Q2544.69 73.7508 2539.51 67.1883 Q2534.36 60.6258 2534.36 49.9314 Q2534.36 39.2371 2539.51 32.6746 Q2544.69 26.1121 2552.92 26.1121 Q2557.94 26.1121 2561.51 28.0971 Q2565.11 30.0415 2567.46 34.0924 M2542.06 49.9314 Q2542.06 58.1548 2545.42 62.8538 Q2548.83 67.5124 2554.74 67.5124 Q2560.65 67.5124 2564.06 62.8538 Q2567.46 58.1548 2567.46 49.9314 Q2567.46 41.7081 2564.06 37.0496 Q2560.65 32.3505 2554.74 32.3505 Q2548.83 32.3505 2545.42 37.0496 Q2542.06 41.7081 2542.06 49.9314 Z" fill="#000000" fill-rule="evenodd" fill-opacity="1" /><path clip-path="url(#clip482)" d="
M1418.51 964.102 L2207.85 964.102 L2203.9 885.201 L2192.08 807.09 L2172.51 730.552 L2145.39 656.354 L2110.98 585.238 L2069.65 517.917 L2021.79 455.065 L1967.88 397.312 
  L1908.48 345.236 L1844.16 299.359 L1775.58 260.141 L1703.43 227.974 L1628.42 203.18 L1551.31 186.009 L1472.87 176.631 L1393.88 175.141 L1315.14 181.553 L1237.44 195.805 
  L1161.55 217.751 L1088.23 247.174 L1018.22 283.778 L952.225 327.197 L890.896 376.995 L834.853 432.674 L784.656 493.676 L740.808 559.39 L703.748 629.157 L673.847 702.28 
  L651.406 778.026 L636.648 855.635 L629.721 934.331 L630.696 1013.32 L639.562 1091.83 L656.23 1169.05 L680.533 1244.22 L712.229 1316.58 L750.999 1385.41 L796.455 1450.02 
  L848.142 1509.77 L905.542 1564.05 L968.08 1612.32 L1035.13 1654.09 L1106.02 1688.96 L1180.04 1716.57 L1256.45 1736.63 L1334.48 1748.96 L1413.35 1753.43 L1492.28 1749.99 
  L1570.47 1738.68 L1418.51 964.102  Z
  " fill="#009af9" fill-rule="evenodd" fill-opacity="1"/>
<polyline clip-path="url(#clip482)" style="stroke:#000000; stroke-linecap:round; stroke-linejoin:round; stroke-width:4; stroke-opacity:0.5; fill:none" points="
  1418.51,964.102 2207.85,964.102 2203.9,885.201 2192.08,807.09 2172.51,730.552 2145.39,656.354 2110.98,585.238 2069.65,517.917 2021.79,455.065 1967.88,397.312 
  1908.48,345.236 1844.16,299.359 1775.58,260.141 1703.43,227.974 1628.42,203.18 1551.31,186.009 1472.87,176.631 1393.88,175.141 1315.14,181.553 1237.44,195.805 
  1161.55,217.751 1088.23,247.174 1018.22,283.778 952.225,327.197 890.896,376.995 834.853,432.674 784.656,493.676 740.808,559.39 703.748,629.157 673.847,702.28 
  651.406,778.026 636.648,855.635 629.721,934.331 630.696,1013.32 639.562,1091.83 656.23,1169.05 680.533,1244.22 712.229,1316.58 750.999,1385.41 796.455,1450.02 
  848.142,1509.77 905.542,1564.05 968.08,1612.32 1035.13,1654.09 1106.02,1688.96 1180.04,1716.57 1256.45,1736.63 1334.48,1748.96 1413.35,1753.43 1492.28,1749.99 
  1570.47,1738.68 1418.51,964.102 
  "/>
<path clip-path="url(#clip482)" d="
M1418.51 964.102 L1570.47 1738.68 L1591.22 1734.32 L1611.85 1729.4 L1632.34 1723.93 L1652.67 1717.91 L1672.84 1711.35 L1692.82 1704.25 L1712.61 1696.61 L1732.18 1688.45 
  L1751.52 1679.76 L1770.63 1670.55 L1789.48 1660.84 L1808.06 1650.62 L1826.37 1639.91 L1844.37 1628.71 L1862.07 1617.03 L1879.45 1604.88 L1896.5 1592.26 L1913.2 1579.19 
  L1929.55 1565.68 L1945.53 1551.74 L1961.12 1537.37 L1976.33 1522.58 L1991.13 1507.4 L2005.52 1491.82 L2019.48 1475.86 L2033.01 1459.53 L2046.1 1442.84 L2058.73 1425.81 
  L2070.91 1408.44 L2082.61 1390.76 L2093.83 1372.76 L2104.57 1354.47 L2114.8 1335.9 L2124.54 1317.06 L2133.77 1297.97 L2142.48 1278.63 L2150.67 1259.07 L2158.33 1239.29 
  L2165.45 1219.32 L2172.04 1199.16 L2178.08 1178.83 L2183.58 1158.35 L2188.52 1137.73 L2192.91 1116.98 L2196.73 1096.12 L2200 1075.16 L2202.7 1054.13 L2204.84 1033.03 
  L2206.4 1011.88 L1418.51 964.102  Z
  " fill="#e26f46" fill-rule="evenodd" fill-opacity="1"/>
<polyline clip-path="url(#clip482)" style="stroke:#000000; stroke-linecap:round; stroke-linejoin:round; stroke-width:4; stroke-opacity:0.5; fill:none" points="
  1418.51,964.102 1570.47,1738.68 1591.22,1734.32 1611.85,1729.4 1632.34,1723.93 1652.67,1717.91 1672.84,1711.35 1692.82,1704.25 1712.61,1696.61 1732.18,1688.45 
  1751.52,1679.76 1770.63,1670.55 1789.48,1660.84 1808.06,1650.62 1826.37,1639.91 1844.37,1628.71 1862.07,1617.03 1879.45,1604.88 1896.5,1592.26 1913.2,1579.19 
  1929.55,1565.68 1945.53,1551.74 1961.12,1537.37 1976.33,1522.58 1991.13,1507.4 2005.52,1491.82 2019.48,1475.86 2033.01,1459.53 2046.1,1442.84 2058.73,1425.81 
  2070.91,1408.44 2082.61,1390.76 2093.83,1372.76 2104.57,1354.47 2114.8,1335.9 2124.54,1317.06 2133.77,1297.97 2142.48,1278.63 2150.67,1259.07 2158.33,1239.29 
  2165.45,1219.32 2172.04,1199.16 2178.08,1178.83 2183.58,1158.35 2188.52,1137.73 2192.91,1116.98 2196.73,1096.12 2200,1075.16 2202.7,1054.13 2204.84,1033.03 
  2206.4,1011.88 1418.51,964.102 
  "/>
<path clip-path="url(#clip482)" d="
M1418.51 964.102 L2206.4 1011.88 L2206.46 1010.94 L2206.52 1009.99 L2206.57 1009.05 L2206.62 1008.11 L2206.68 1007.16 L2206.73 1006.22 L2206.78 1005.28 L2206.82 1004.33 
  L2206.87 1003.39 L2206.92 1002.44 L2206.96 1001.5 L2207.01 1000.55 L2207.05 999.61 L2207.09 998.665 L2207.13 997.721 L2207.17 996.776 L2207.21 995.832 L2207.25 994.887 
  L2207.29 993.943 L2207.32 992.998 L2207.36 992.053 L2207.39 991.108 L2207.42 990.164 L2207.45 989.219 L2207.48 988.274 L2207.51 987.329 L2207.54 986.384 L2207.56 985.439 
  L2207.59 984.494 L2207.61 983.549 L2207.63 982.604 L2207.66 981.659 L2207.68 980.714 L2207.7 979.768 L2207.71 978.823 L2207.73 977.878 L2207.75 976.933 L2207.76 975.988 
  L2207.77 975.042 L2207.79 974.097 L2207.8 973.152 L2207.81 972.207 L2207.82 971.261 L2207.83 970.316 L2207.83 969.371 L2207.84 968.425 L2207.84 967.48 L2207.85 966.535 
  L2207.85 965.589 L1418.51 964.102  Z
  " fill="#3da44d" fill-rule="evenodd" fill-opacity="1"/>
<polyline clip-path="url(#clip482)" style="stroke:#000000; stroke-linecap:round; stroke-linejoin:round; stroke-width:4; stroke-opacity:0.5; fill:none" points="
  1418.51,964.102 2206.4,1011.88 2206.46,1010.94 2206.52,1009.99 2206.57,1009.05 2206.62,1008.11 2206.68,1007.16 2206.73,1006.22 2206.78,1005.28 2206.82,1004.33 
  2206.87,1003.39 2206.92,1002.44 2206.96,1001.5 2207.01,1000.55 2207.05,999.61 2207.09,998.665 2207.13,997.721 2207.17,996.776 2207.21,995.832 2207.25,994.887 
  2207.29,993.943 2207.32,992.998 2207.36,992.053 2207.39,991.108 2207.42,990.164 2207.45,989.219 2207.48,988.274 2207.51,987.329 2207.54,986.384 2207.56,985.439 
  2207.59,984.494 2207.61,983.549 2207.63,982.604 2207.66,981.659 2207.68,980.714 2207.7,979.768 2207.71,978.823 2207.73,977.878 2207.75,976.933 2207.76,975.988 
  2207.77,975.042 2207.79,974.097 2207.8,973.152 2207.81,972.207 2207.82,971.261 2207.83,970.316 2207.83,969.371 2207.84,968.425 2207.84,967.48 2207.85,966.535 
  2207.85,965.589 1418.51,964.102 
  "/>
<path clip-path="url(#clip482)" d="
M1418.51 964.102 L2207.85 965.589 L2207.85 965.559 L2207.85 965.529 L2207.85 965.498 L2207.85 965.468 L2207.85 965.438 L2207.85 965.407 L2207.85 965.377 L2207.85 965.347 
  L2207.85 965.316 L2207.85 965.286 L2207.85 965.256 L2207.85 965.225 L2207.85 965.195 L2207.85 965.164 L2207.85 965.134 L2207.85 965.104 L2207.85 965.073 L2207.85 965.043 
  L2207.85 965.013 L2207.85 964.982 L2207.85 964.952 L2207.85 964.922 L2207.85 964.891 L2207.85 964.861 L2207.85 964.831 L2207.85 964.8 L2207.85 964.77 L2207.85 964.739 
  L2207.85 964.709 L2207.85 964.679 L2207.85 964.648 L2207.85 964.618 L2207.85 964.588 L2207.85 964.557 L2207.85 964.527 L2207.85 964.497 L2207.85 964.466 L2207.85 964.436 
  L2207.85 964.406 L2207.85 964.375 L2207.85 964.345 L2207.85 964.315 L2207.85 964.284 L2207.85 964.254 L2207.85 964.223 L2207.85 964.193 L2207.85 964.163 L2207.85 964.132 
  L2207.85 964.102 L1418.51 964.102  Z
  " fill="#c271d2" fill-rule="evenodd" fill-opacity="1"/>
<polyline clip-path="url(#clip482)" style="stroke:#000000; stroke-linecap:round; stroke-linejoin:round; stroke-width:4; stroke-opacity:0.5; fill:none" points="
  1418.51,964.102 2207.85,965.589 2207.85,965.559 2207.85,965.529 2207.85,965.498 2207.85,965.468 2207.85,965.438 2207.85,965.407 2207.85,965.377 2207.85,965.347 
  2207.85,965.316 2207.85,965.286 2207.85,965.256 2207.85,965.225 2207.85,965.195 2207.85,965.164 2207.85,965.134 2207.85,965.104 2207.85,965.073 2207.85,965.043 
  2207.85,965.013 2207.85,964.982 2207.85,964.952 2207.85,964.922 2207.85,964.891 2207.85,964.861 2207.85,964.831 2207.85,964.8 2207.85,964.77 2207.85,964.739 
  2207.85,964.709 2207.85,964.679 2207.85,964.648 2207.85,964.618 2207.85,964.588 2207.85,964.557 2207.85,964.527 2207.85,964.497 2207.85,964.466 2207.85,964.436 
  2207.85,964.406 2207.85,964.375 2207.85,964.345 2207.85,964.315 2207.85,964.284 2207.85,964.254 2207.85,964.223 2207.85,964.193 2207.85,964.163 2207.85,964.132 
  2207.85,964.102 1418.51,964.102 
  "/>
<path clip-path="url(#clip480)" d="
M1843.65 442.758 L2559.29 442.758 L2559.29 183.558 L1843.65 183.558  Z
  " fill="#ffffff" fill-rule="evenodd" fill-opacity="1"/>
<polyline clip-path="url(#clip480)" style="stroke:#000000; stroke-linecap:round; stroke-linejoin:round; stroke-width:4; stroke-opacity:1; fill:none" points="
  1843.65,442.758 2559.29,442.758 2559.29,183.558 1843.65,183.558 1843.65,442.758 
  "/>
<path clip-path="url(#clip480)" d="
M2033.73 256.134 L1870.8 256.134 L1870.8 214.662 L2033.73 214.662 L2033.73 256.134  Z
  " fill="#009af9" fill-rule="evenodd" fill-opacity="1"/>
<polyline clip-path="url(#clip480)" style="stroke:#000000; stroke-linecap:round; stroke-linejoin:round; stroke-width:4; stroke-opacity:1; fill:none" points="
  2033.73,256.134 1870.8,256.134 1870.8,214.662 2033.73,214.662 2033.73,256.134 
  "/>
<path clip-path="url(#clip480)" d="M2082.6 237.03 L2082.6 252.678 L2078.34 252.678 L2078.34 237.169 Q2078.34 233.489 2076.91 231.66 Q2075.47 229.831 2072.6 229.831 Q2069.15 229.831 2067.16 232.03 Q2065.17 234.229 2065.17 238.026 L2065.17 252.678 L2060.89 252.678 L2060.89 226.753 L2065.17 226.753 L2065.17 230.78 Q2066.7 228.442 2068.76 227.285 Q2070.84 226.128 2073.55 226.128 Q2078.02 226.128 2080.31 228.905 Q2082.6 231.66 2082.6 237.03 Z" fill="#000000" fill-rule="evenodd" fill-opacity="1" /><path clip-path="url(#clip480)" d="M2091.09 226.753 L2095.35 226.753 L2095.35 252.678 L2091.09 252.678 L2091.09 226.753 M2091.09 216.66 L2095.35 216.66 L2095.35 222.054 L2091.09 222.054 L2091.09 216.66 Z" fill="#000000" fill-rule="evenodd" fill-opacity="1" /><path clip-path="url(#clip480)" d="M2108.48 219.392 L2108.48 226.753 L2117.25 226.753 L2117.25 230.063 L2108.48 230.063 L2108.48 244.137 Q2108.48 247.308 2109.34 248.211 Q2110.22 249.114 2112.88 249.114 L2117.25 249.114 L2117.25 252.678 L2112.88 252.678 Q2107.95 252.678 2106.07 250.85 Q2104.2 248.998 2104.2 244.137 L2104.2 230.063 L2101.07 230.063 L2101.07 226.753 L2104.2 226.753 L2104.2 219.392 L2108.48 219.392 Z" fill="#000000" fill-rule="evenodd" fill-opacity="1" /><path clip-path="url(#clip480)" d="M2137.88 230.734 Q2137.16 230.317 2136.3 230.132 Q2135.47 229.924 2134.45 229.924 Q2130.84 229.924 2128.9 232.285 Q2126.97 234.623 2126.97 239.021 L2126.97 252.678 L2122.69 252.678 L2122.69 226.753 L2126.97 226.753 L2126.97 230.78 Q2128.32 228.419 2130.47 227.285 Q2132.62 226.128 2135.7 226.128 Q2136.14 226.128 2136.67 226.197 Q2137.21 226.243 2137.85 226.359 L2137.88 230.734 Z" fill="#000000" fill-rule="evenodd" fill-opacity="1" /><path clip-path="url(#clip480)" d="M2151.35 229.739 Q2147.92 229.739 2145.93 232.424 Q2143.94 235.086 2143.94 239.739 Q2143.94 244.391 2145.91 247.077 Q2147.9 249.739 2151.35 249.739 Q2154.75 249.739 2156.74 247.053 Q2158.73 244.368 2158.73 239.739 Q2158.73 235.132 2156.74 232.447 Q2154.75 229.739 2151.35 229.739 M2151.35 226.128 Q2156.9 226.128 2160.08 229.739 Q2163.25 233.35 2163.25 239.739 Q2163.25 246.104 2160.08 249.739 Q2156.9 253.35 2151.35 253.35 Q2145.77 253.35 2142.6 249.739 Q2139.45 246.104 2139.45 239.739 Q2139.45 233.35 2142.6 229.739 Q2145.77 226.128 2151.35 226.128 Z" fill="#000000" fill-rule="evenodd" fill-opacity="1" /><path clip-path="url(#clip480)" d="M2187.37 239.415 Q2187.37 234.785 2185.45 232.239 Q2183.55 229.692 2180.1 229.692 Q2176.67 229.692 2174.75 232.239 Q2172.85 234.785 2172.85 239.415 Q2172.85 244.021 2174.75 246.567 Q2176.67 249.114 2180.1 249.114 Q2183.55 249.114 2185.45 246.567 Q2187.37 244.021 2187.37 239.415 M2191.63 249.461 Q2191.63 256.081 2188.69 259.299 Q2185.75 262.539 2179.68 262.539 Q2177.44 262.539 2175.45 262.192 Q2173.46 261.868 2171.58 261.174 L2171.58 257.03 Q2173.46 258.049 2175.28 258.535 Q2177.11 259.021 2179.01 259.021 Q2183.2 259.021 2185.28 256.822 Q2187.37 254.646 2187.37 250.225 L2187.37 248.118 Q2186.05 250.41 2183.99 251.544 Q2181.93 252.678 2179.06 252.678 Q2174.29 252.678 2171.37 249.044 Q2168.46 245.41 2168.46 239.415 Q2168.46 233.396 2171.37 229.762 Q2174.29 226.128 2179.06 226.128 Q2181.93 226.128 2183.99 227.262 Q2186.05 228.396 2187.37 230.688 L2187.37 226.753 L2191.63 226.753 L2191.63 249.461 Z" fill="#000000" fill-rule="evenodd" fill-opacity="1" /><path clip-path="url(#clip480)" d="M2222.58 238.651 L2222.58 240.734 L2202.99 240.734 Q2203.27 245.132 2205.63 247.447 Q2208.02 249.739 2212.25 249.739 Q2214.71 249.739 2217 249.137 Q2219.31 248.535 2221.58 247.331 L2221.58 251.359 Q2219.29 252.331 2216.88 252.84 Q2214.47 253.35 2212 253.35 Q2205.79 253.35 2202.16 249.739 Q2198.55 246.127 2198.55 239.97 Q2198.55 233.604 2201.97 229.878 Q2205.42 226.128 2211.26 226.128 Q2216.49 226.128 2219.52 229.507 Q2222.58 232.864 2222.58 238.651 M2218.32 237.401 Q2218.27 233.905 2216.35 231.822 Q2214.45 229.739 2211.3 229.739 Q2207.74 229.739 2205.58 231.753 Q2203.46 233.766 2203.13 237.424 L2218.32 237.401 Z" fill="#000000" fill-rule="evenodd" fill-opacity="1" /><path clip-path="url(#clip480)" d="M2251.12 237.03 L2251.12 252.678 L2246.86 252.678 L2246.86 237.169 Q2246.86 233.489 2245.42 231.66 Q2243.99 229.831 2241.12 229.831 Q2237.67 229.831 2235.68 232.03 Q2233.69 234.229 2233.69 238.026 L2233.69 252.678 L2229.4 252.678 L2229.4 226.753 L2233.69 226.753 L2233.69 230.78 Q2235.21 228.442 2237.27 227.285 Q2239.36 226.128 2242.07 226.128 Q2246.53 226.128 2248.83 228.905 Q2251.12 231.66 2251.12 237.03 Z" fill="#000000" fill-rule="evenodd" fill-opacity="1" /><path clip-path="url(#clip480)" d="
M2033.73 307.974 L1870.8 307.974 L1870.8 266.502 L2033.73 266.502 L2033.73 307.974  Z
  " fill="#e26f46" fill-rule="evenodd" fill-opacity="1"/>
<polyline clip-path="url(#clip480)" style="stroke:#000000; stroke-linecap:round; stroke-linejoin:round; stroke-width:4; stroke-opacity:1; fill:none" points="
  2033.73,307.974 1870.8,307.974 1870.8,266.502 2033.73,266.502 2033.73,307.974 
  "/>
<path clip-path="url(#clip480)" d="M2072.78 281.579 Q2069.36 281.579 2067.37 284.264 Q2065.38 286.926 2065.38 291.579 Q2065.38 296.231 2067.34 298.917 Q2069.34 301.579 2072.78 301.579 Q2076.19 301.579 2078.18 298.893 Q2080.17 296.208 2080.17 291.579 Q2080.17 286.972 2078.18 284.287 Q2076.19 281.579 2072.78 281.579 M2072.78 277.968 Q2078.34 277.968 2081.51 281.579 Q2084.68 285.19 2084.68 291.579 Q2084.68 297.944 2081.51 301.579 Q2078.34 305.19 2072.78 305.19 Q2067.21 305.19 2064.03 301.579 Q2060.89 297.944 2060.89 291.579 Q2060.89 285.19 2064.03 281.579 Q2067.21 277.968 2072.78 277.968 Z" fill="#000000" fill-rule="evenodd" fill-opacity="1" /><path clip-path="url(#clip480)" d="M2111.84 278.593 L2102.46 291.208 L2112.32 304.518 L2107.3 304.518 L2099.75 294.333 L2092.21 304.518 L2087.18 304.518 L2097.25 290.954 L2088.04 278.593 L2093.06 278.593 L2099.94 287.829 L2106.81 278.593 L2111.84 278.593 Z" fill="#000000" fill-rule="evenodd" fill-opacity="1" /><path clip-path="url(#clip480)" d="M2129.13 306.926 Q2127.32 311.555 2125.61 312.967 Q2123.9 314.379 2121.03 314.379 L2117.62 314.379 L2117.62 310.815 L2120.12 310.815 Q2121.88 310.815 2122.85 309.981 Q2123.83 309.148 2125.01 306.046 L2125.77 304.102 L2115.28 278.593 L2119.8 278.593 L2127.9 298.87 L2136 278.593 L2140.52 278.593 L2129.13 306.926 Z" fill="#000000" fill-rule="evenodd" fill-opacity="1" /><path clip-path="url(#clip480)" d="M2163.46 291.255 Q2163.46 286.625 2161.53 284.079 Q2159.64 281.532 2156.19 281.532 Q2152.76 281.532 2150.84 284.079 Q2148.94 286.625 2148.94 291.255 Q2148.94 295.861 2150.84 298.407 Q2152.76 300.954 2156.19 300.954 Q2159.64 300.954 2161.53 298.407 Q2163.46 295.861 2163.46 291.255 M2167.71 301.301 Q2167.71 307.921 2164.77 311.139 Q2161.84 314.379 2155.77 314.379 Q2153.53 314.379 2151.53 314.032 Q2149.54 313.708 2147.67 313.014 L2147.67 308.87 Q2149.54 309.889 2151.37 310.375 Q2153.2 310.861 2155.1 310.861 Q2159.29 310.861 2161.37 308.662 Q2163.46 306.486 2163.46 302.065 L2163.46 299.958 Q2162.14 302.25 2160.08 303.384 Q2158.02 304.518 2155.15 304.518 Q2150.38 304.518 2147.46 300.884 Q2144.54 297.25 2144.54 291.255 Q2144.54 285.236 2147.46 281.602 Q2150.38 277.968 2155.15 277.968 Q2158.02 277.968 2160.08 279.102 Q2162.14 280.236 2163.46 282.528 L2163.46 278.593 L2167.71 278.593 L2167.71 301.301 Z" fill="#000000" fill-rule="evenodd" fill-opacity="1" /><path clip-path="url(#clip480)" d="M2198.66 290.491 L2198.66 292.574 L2179.08 292.574 Q2179.36 296.972 2181.72 299.287 Q2184.1 301.579 2188.34 301.579 Q2190.79 301.579 2193.08 300.977 Q2195.4 300.375 2197.67 299.171 L2197.67 303.199 Q2195.38 304.171 2192.97 304.68 Q2190.56 305.19 2188.09 305.19 Q2181.88 305.19 2178.25 301.579 Q2174.64 297.967 2174.64 291.81 Q2174.64 285.444 2178.06 281.718 Q2181.51 277.968 2187.34 277.968 Q2192.58 277.968 2195.61 281.347 Q2198.66 284.704 2198.66 290.491 M2194.4 289.241 Q2194.36 285.745 2192.44 283.662 Q2190.54 281.579 2187.39 281.579 Q2183.83 281.579 2181.67 283.593 Q2179.54 285.606 2179.22 289.264 L2194.4 289.241 Z" fill="#000000" fill-rule="evenodd" fill-opacity="1" /><path clip-path="url(#clip480)" d="M2227.21 288.87 L2227.21 304.518 L2222.95 304.518 L2222.95 289.009 Q2222.95 285.329 2221.51 283.5 Q2220.08 281.671 2217.21 281.671 Q2213.76 281.671 2211.77 283.87 Q2209.77 286.069 2209.77 289.866 L2209.77 304.518 L2205.49 304.518 L2205.49 278.593 L2209.77 278.593 L2209.77 282.62 Q2211.3 280.282 2213.36 279.125 Q2215.45 277.968 2218.15 277.968 Q2222.62 277.968 2224.91 280.745 Q2227.21 283.5 2227.21 288.87 Z" fill="#000000" fill-rule="evenodd" fill-opacity="1" /><path clip-path="url(#clip480)" d="
M2033.73 359.814 L1870.8 359.814 L1870.8 318.342 L2033.73 318.342 L2033.73 359.814  Z
  " fill="#3da44d" fill-rule="evenodd" fill-opacity="1"/>
<polyline clip-path="url(#clip480)" style="stroke:#000000; stroke-linecap:round; stroke-linejoin:round; stroke-width:4; stroke-opacity:1; fill:none" points="
  2033.73,359.814 1870.8,359.814 1870.8,318.342 2033.73,318.342 2033.73,359.814 
  "/>
<path clip-path="url(#clip480)" d="M2074.29 343.326 Q2069.13 343.326 2067.14 344.507 Q2065.15 345.687 2065.15 348.534 Q2065.15 350.803 2066.63 352.145 Q2068.13 353.465 2070.7 353.465 Q2074.24 353.465 2076.37 350.965 Q2078.53 348.442 2078.53 344.275 L2078.53 343.326 L2074.29 343.326 M2082.78 341.567 L2082.78 356.358 L2078.53 356.358 L2078.53 352.423 Q2077.07 354.784 2074.89 355.919 Q2072.72 357.03 2069.57 357.03 Q2065.59 357.03 2063.22 354.807 Q2060.89 352.562 2060.89 348.812 Q2060.89 344.437 2063.8 342.215 Q2066.74 339.993 2072.55 339.993 L2078.53 339.993 L2078.53 339.576 Q2078.53 336.636 2076.58 335.039 Q2074.66 333.419 2071.16 333.419 Q2068.94 333.419 2066.84 333.951 Q2064.73 334.483 2062.78 335.548 L2062.78 331.613 Q2065.12 330.71 2067.32 330.271 Q2069.52 329.808 2071.6 329.808 Q2077.23 329.808 2080.01 332.724 Q2082.78 335.641 2082.78 341.567 Z" fill="#000000" fill-rule="evenodd" fill-opacity="1" /><path clip-path="url(#clip480)" d="M2106.58 334.414 Q2105.86 333.997 2105.01 333.812 Q2104.17 333.604 2103.15 333.604 Q2099.54 333.604 2097.6 335.965 Q2095.68 338.303 2095.68 342.701 L2095.68 356.358 L2091.4 356.358 L2091.4 330.433 L2095.68 330.433 L2095.68 334.46 Q2097.02 332.099 2099.17 330.965 Q2101.33 329.808 2104.4 329.808 Q2104.84 329.808 2105.38 329.877 Q2105.91 329.923 2106.56 330.039 L2106.58 334.414 Z" fill="#000000" fill-rule="evenodd" fill-opacity="1" /><path clip-path="url(#clip480)" d="M2127.28 343.095 Q2127.28 338.465 2125.35 335.919 Q2123.46 333.372 2120.01 333.372 Q2116.58 333.372 2114.66 335.919 Q2112.76 338.465 2112.76 343.095 Q2112.76 347.701 2114.66 350.247 Q2116.58 352.794 2120.01 352.794 Q2123.46 352.794 2125.35 350.247 Q2127.28 347.701 2127.28 343.095 M2131.53 353.141 Q2131.53 359.761 2128.59 362.979 Q2125.65 366.219 2119.59 366.219 Q2117.34 366.219 2115.35 365.872 Q2113.36 365.548 2111.49 364.854 L2111.49 360.71 Q2113.36 361.729 2115.19 362.215 Q2117.02 362.701 2118.92 362.701 Q2123.11 362.701 2125.19 360.502 Q2127.28 358.326 2127.28 353.905 L2127.28 351.798 Q2125.96 354.09 2123.9 355.224 Q2121.84 356.358 2118.97 356.358 Q2114.2 356.358 2111.28 352.724 Q2108.36 349.09 2108.36 343.095 Q2108.36 337.076 2111.28 333.442 Q2114.2 329.808 2118.97 329.808 Q2121.84 329.808 2123.9 330.942 Q2125.96 332.076 2127.28 334.368 L2127.28 330.433 L2131.53 330.433 L2131.53 353.141 Z" fill="#000000" fill-rule="evenodd" fill-opacity="1" /><path clip-path="url(#clip480)" d="M2150.35 333.419 Q2146.93 333.419 2144.94 336.104 Q2142.95 338.766 2142.95 343.419 Q2142.95 348.071 2144.91 350.757 Q2146.9 353.419 2150.35 353.419 Q2153.76 353.419 2155.75 350.733 Q2157.74 348.048 2157.74 343.419 Q2157.74 338.812 2155.75 336.127 Q2153.76 333.419 2150.35 333.419 M2150.35 329.808 Q2155.91 329.808 2159.08 333.419 Q2162.25 337.03 2162.25 343.419 Q2162.25 349.784 2159.08 353.419 Q2155.91 357.03 2150.35 357.03 Q2144.78 357.03 2141.6 353.419 Q2138.46 349.784 2138.46 343.419 Q2138.46 337.03 2141.6 333.419 Q2144.78 329.808 2150.35 329.808 Z" fill="#000000" fill-rule="evenodd" fill-opacity="1" /><path clip-path="url(#clip480)" d="M2190.86 340.71 L2190.86 356.358 L2186.6 356.358 L2186.6 340.849 Q2186.6 337.169 2185.17 335.34 Q2183.73 333.511 2180.86 333.511 Q2177.41 333.511 2175.42 335.71 Q2173.43 337.909 2173.43 341.706 L2173.43 356.358 L2169.15 356.358 L2169.15 330.433 L2173.43 330.433 L2173.43 334.46 Q2174.96 332.122 2177.02 330.965 Q2179.1 329.808 2181.81 329.808 Q2186.28 329.808 2188.57 332.585 Q2190.86 335.34 2190.86 340.71 Z" fill="#000000" fill-rule="evenodd" fill-opacity="1" /><path clip-path="url(#clip480)" d="
M2033.73 411.654 L1870.8 411.654 L1870.8 370.182 L2033.73 370.182 L2033.73 411.654  Z
  " fill="#c271d2" fill-rule="evenodd" fill-opacity="1"/>
<polyline clip-path="url(#clip480)" style="stroke:#000000; stroke-linecap:round; stroke-linejoin:round; stroke-width:4; stroke-opacity:1; fill:none" points="
  2033.73,411.654 1870.8,411.654 1870.8,370.182 2033.73,370.182 2033.73,411.654 
  "/>
<path clip-path="url(#clip480)" d="M2081.4 383.268 L2081.4 387.249 Q2079.59 386.254 2077.76 385.768 Q2075.96 385.259 2074.1 385.259 Q2069.96 385.259 2067.67 387.898 Q2065.38 390.513 2065.38 395.259 Q2065.38 400.004 2067.67 402.643 Q2069.96 405.259 2074.1 405.259 Q2075.96 405.259 2077.76 404.772 Q2079.59 404.263 2081.4 403.268 L2081.4 407.203 Q2079.61 408.036 2077.69 408.453 Q2075.79 408.87 2073.64 408.87 Q2067.78 408.87 2064.34 405.189 Q2060.89 401.509 2060.89 395.259 Q2060.89 388.916 2064.36 385.282 Q2067.85 381.648 2073.92 381.648 Q2075.89 381.648 2077.76 382.064 Q2079.64 382.458 2081.4 383.268 Z" fill="#000000" fill-rule="evenodd" fill-opacity="1" /><path clip-path="url(#clip480)" d="M2100.59 395.166 Q2095.42 395.166 2093.43 396.347 Q2091.44 397.527 2091.44 400.374 Q2091.44 402.643 2092.92 403.985 Q2094.43 405.305 2097 405.305 Q2100.54 405.305 2102.67 402.805 Q2104.82 400.282 2104.82 396.115 L2104.82 395.166 L2100.59 395.166 M2109.08 393.407 L2109.08 408.198 L2104.82 408.198 L2104.82 404.263 Q2103.36 406.624 2101.19 407.759 Q2099.01 408.87 2095.86 408.87 Q2091.88 408.87 2089.52 406.647 Q2087.18 404.402 2087.18 400.652 Q2087.18 396.277 2090.1 394.055 Q2093.04 391.833 2098.85 391.833 L2104.82 391.833 L2104.82 391.416 Q2104.82 388.476 2102.88 386.879 Q2100.96 385.259 2097.46 385.259 Q2095.24 385.259 2093.13 385.791 Q2091.03 386.323 2089.08 387.388 L2089.08 383.453 Q2091.42 382.55 2093.62 382.111 Q2095.82 381.648 2097.9 381.648 Q2103.53 381.648 2106.3 384.564 Q2109.08 387.481 2109.08 393.407 Z" fill="#000000" fill-rule="evenodd" fill-opacity="1" /><path clip-path="url(#clip480)" d="M2132.88 386.254 Q2132.16 385.837 2131.3 385.652 Q2130.47 385.444 2129.45 385.444 Q2125.84 385.444 2123.9 387.805 Q2121.97 390.143 2121.97 394.541 L2121.97 408.198 L2117.69 408.198 L2117.69 382.273 L2121.97 382.273 L2121.97 386.3 Q2123.32 383.939 2125.47 382.805 Q2127.62 381.648 2130.7 381.648 Q2131.14 381.648 2131.67 381.717 Q2132.21 381.763 2132.85 381.879 L2132.88 386.254 Z" fill="#000000" fill-rule="evenodd" fill-opacity="1" /><path clip-path="url(#clip480)" d="M2155.96 395.259 Q2155.96 390.56 2154.01 387.898 Q2152.09 385.212 2148.71 385.212 Q2145.33 385.212 2143.39 387.898 Q2141.46 390.56 2141.46 395.259 Q2141.46 399.958 2143.39 402.643 Q2145.33 405.305 2148.71 405.305 Q2152.09 405.305 2154.01 402.643 Q2155.96 399.958 2155.96 395.259 M2141.46 386.208 Q2142.81 383.893 2144.84 382.782 Q2146.9 381.648 2149.75 381.648 Q2154.47 381.648 2157.41 385.398 Q2160.38 389.148 2160.38 395.259 Q2160.38 401.37 2157.41 405.12 Q2154.47 408.87 2149.75 408.87 Q2146.9 408.87 2144.84 407.759 Q2142.81 406.624 2141.46 404.309 L2141.46 408.198 L2137.18 408.198 L2137.18 372.18 L2141.46 372.18 L2141.46 386.208 Z" fill="#000000" fill-rule="evenodd" fill-opacity="1" /><path clip-path="url(#clip480)" d="M2177.48 385.259 Q2174.06 385.259 2172.07 387.944 Q2170.08 390.606 2170.08 395.259 Q2170.08 399.911 2172.04 402.597 Q2174.03 405.259 2177.48 405.259 Q2180.89 405.259 2182.88 402.573 Q2184.87 399.888 2184.87 395.259 Q2184.87 390.652 2182.88 387.967 Q2180.89 385.259 2177.48 385.259 M2177.48 381.648 Q2183.04 381.648 2186.21 385.259 Q2189.38 388.87 2189.38 395.259 Q2189.38 401.624 2186.21 405.259 Q2183.04 408.87 2177.48 408.87 Q2171.9 408.87 2168.73 405.259 Q2165.59 401.624 2165.59 395.259 Q2165.59 388.87 2168.73 385.259 Q2171.9 381.648 2177.48 381.648 Z" fill="#000000" fill-rule="evenodd" fill-opacity="1" /><path clip-path="url(#clip480)" d="M2217.99 392.55 L2217.99 408.198 L2213.73 408.198 L2213.73 392.689 Q2213.73 389.009 2212.3 387.18 Q2210.86 385.351 2207.99 385.351 Q2204.54 385.351 2202.55 387.55 Q2200.56 389.749 2200.56 393.546 L2200.56 408.198 L2196.28 408.198 L2196.28 382.273 L2200.56 382.273 L2200.56 386.3 Q2202.09 383.962 2204.15 382.805 Q2206.23 381.648 2208.94 381.648 Q2213.41 381.648 2215.7 384.425 Q2217.99 387.18 2217.99 392.55 Z" fill="#000000" fill-rule="evenodd" fill-opacity="1" /><path clip-path="url(#clip480)" d="M2258.62 386.208 L2258.62 372.18 L2262.88 372.18 L2262.88 408.198 L2258.62 408.198 L2258.62 404.309 Q2257.27 406.624 2255.21 407.759 Q2253.18 408.87 2250.31 408.87 Q2245.61 408.87 2242.64 405.12 Q2239.71 401.37 2239.71 395.259 Q2239.71 389.148 2242.64 385.398 Q2245.61 381.648 2250.31 381.648 Q2253.18 381.648 2255.21 382.782 Q2257.27 383.893 2258.62 386.208 M2244.1 395.259 Q2244.1 399.958 2246.02 402.643 Q2247.97 405.305 2251.35 405.305 Q2254.73 405.305 2256.67 402.643 Q2258.62 399.958 2258.62 395.259 Q2258.62 390.56 2256.67 387.898 Q2254.73 385.212 2251.35 385.212 Q2247.97 385.212 2246.02 387.898 Q2244.1 390.56 2244.1 395.259 Z" fill="#000000" fill-rule="evenodd" fill-opacity="1" /><path clip-path="url(#clip480)" d="M2271.65 382.273 L2275.91 382.273 L2275.91 408.198 L2271.65 408.198 L2271.65 382.273 M2271.65 372.18 L2275.91 372.18 L2275.91 377.574 L2271.65 377.574 L2271.65 372.18 Z" fill="#000000" fill-rule="evenodd" fill-opacity="1" /><path clip-path="url(#clip480)" d="M2294.87 385.259 Q2291.44 385.259 2289.45 387.944 Q2287.46 390.606 2287.46 395.259 Q2287.46 399.911 2289.43 402.597 Q2291.42 405.259 2294.87 405.259 Q2298.27 405.259 2300.26 402.573 Q2302.25 399.888 2302.25 395.259 Q2302.25 390.652 2300.26 387.967 Q2298.27 385.259 2294.87 385.259 M2294.87 381.648 Q2300.42 381.648 2303.59 385.259 Q2306.76 388.87 2306.76 395.259 Q2306.76 401.624 2303.59 405.259 Q2300.42 408.87 2294.87 408.87 Q2289.29 408.87 2286.12 405.259 Q2282.97 401.624 2282.97 395.259 Q2282.97 388.87 2286.12 385.259 Q2289.29 381.648 2294.87 381.648 Z" fill="#000000" fill-rule="evenodd" fill-opacity="1" /><path clip-path="url(#clip480)" d="M2333.92 382.273 L2324.54 394.888 L2334.4 408.198 L2329.38 408.198 L2321.83 398.013 L2314.29 408.198 L2309.26 408.198 L2319.33 394.634 L2310.12 382.273 L2315.14 382.273 L2322.02 391.509 L2328.89 382.273 L2333.92 382.273 Z" fill="#000000" fill-rule="evenodd" fill-opacity="1" /><path clip-path="url(#clip480)" d="M2340.42 382.273 L2344.68 382.273 L2344.68 408.198 L2340.42 408.198 L2340.42 382.273 M2340.42 372.18 L2344.68 372.18 L2344.68 377.574 L2340.42 377.574 L2340.42 372.18 Z" fill="#000000" fill-rule="evenodd" fill-opacity="1" /><path clip-path="url(#clip480)" d="M2370.65 386.208 L2370.65 372.18 L2374.91 372.18 L2374.91 408.198 L2370.65 408.198 L2370.65 404.309 Q2369.31 406.624 2367.25 407.759 Q2365.21 408.87 2362.34 408.87 Q2357.64 408.87 2354.68 405.12 Q2351.74 401.37 2351.74 395.259 Q2351.74 389.148 2354.68 385.398 Q2357.64 381.648 2362.34 381.648 Q2365.21 381.648 2367.25 382.782 Q2369.31 383.893 2370.65 386.208 M2356.14 395.259 Q2356.14 399.958 2358.06 402.643 Q2360.01 405.305 2363.39 405.305 Q2366.76 405.305 2368.71 402.643 Q2370.65 399.958 2370.65 395.259 Q2370.65 390.56 2368.71 387.898 Q2366.76 385.212 2363.39 385.212 Q2360.01 385.212 2358.06 387.898 Q2356.14 390.56 2356.14 395.259 Z" fill="#000000" fill-rule="evenodd" fill-opacity="1" /><path clip-path="url(#clip480)" d="M2405.86 394.171 L2405.86 396.254 L2386.28 396.254 Q2386.56 400.652 2388.92 402.967 Q2391.3 405.259 2395.54 405.259 Q2397.99 405.259 2400.28 404.657 Q2402.6 404.055 2404.87 402.851 L2404.87 406.879 Q2402.57 407.851 2400.17 408.36 Q2397.76 408.87 2395.28 408.87 Q2389.08 408.87 2385.45 405.259 Q2381.83 401.647 2381.83 395.49 Q2381.83 389.124 2385.26 385.398 Q2388.71 381.648 2394.54 381.648 Q2399.77 381.648 2402.81 385.027 Q2405.86 388.384 2405.86 394.171 M2401.6 392.921 Q2401.56 389.425 2399.63 387.342 Q2397.74 385.259 2394.59 385.259 Q2391.02 385.259 2388.87 387.273 Q2386.74 389.286 2386.42 392.944 L2401.6 392.921 Z" fill="#000000" fill-rule="evenodd" fill-opacity="1" /><path clip-path="url(#clip480)" d="M2444.98 394.935 Q2444.98 390.305 2443.06 387.759 Q2441.16 385.212 2437.71 385.212 Q2434.29 385.212 2432.37 387.759 Q2430.47 390.305 2430.47 394.935 Q2430.47 399.541 2432.37 402.087 Q2434.29 404.634 2437.71 404.634 Q2441.16 404.634 2443.06 402.087 Q2444.98 399.541 2444.98 394.935 M2449.24 404.981 Q2449.24 411.601 2446.3 414.819 Q2443.36 418.059 2437.3 418.059 Q2435.05 418.059 2433.06 417.712 Q2431.07 417.388 2429.19 416.694 L2429.19 412.55 Q2431.07 413.569 2432.9 414.055 Q2434.73 414.541 2436.63 414.541 Q2440.82 414.541 2442.9 412.342 Q2444.98 410.166 2444.98 405.745 L2444.98 403.638 Q2443.66 405.93 2441.6 407.064 Q2439.54 408.198 2436.67 408.198 Q2431.9 408.198 2428.99 404.564 Q2426.07 400.93 2426.07 394.935 Q2426.07 388.916 2428.99 385.282 Q2431.9 381.648 2436.67 381.648 Q2439.54 381.648 2441.6 382.782 Q2443.66 383.916 2444.98 386.208 L2444.98 382.273 L2449.24 382.273 L2449.24 404.981 Z" fill="#000000" fill-rule="evenodd" fill-opacity="1" /><path clip-path="url(#clip480)" d="M2469.8 395.166 Q2464.63 395.166 2462.64 396.347 Q2460.65 397.527 2460.65 400.374 Q2460.65 402.643 2462.13 403.985 Q2463.64 405.305 2466.21 405.305 Q2469.75 405.305 2471.88 402.805 Q2474.03 400.282 2474.03 396.115 L2474.03 395.166 L2469.8 395.166 M2478.29 393.407 L2478.29 408.198 L2474.03 408.198 L2474.03 404.263 Q2472.57 406.624 2470.4 407.759 Q2468.22 408.87 2465.07 408.87 Q2461.09 408.87 2458.73 406.647 Q2456.39 404.402 2456.39 400.652 Q2456.39 396.277 2459.31 394.055 Q2462.25 391.833 2468.06 391.833 L2474.03 391.833 L2474.03 391.416 Q2474.03 388.476 2472.09 386.879 Q2470.17 385.259 2466.67 385.259 Q2464.45 385.259 2462.34 385.791 Q2460.24 386.323 2458.29 387.388 L2458.29 383.453 Q2460.63 382.55 2462.83 382.111 Q2465.03 381.648 2467.11 381.648 Q2472.74 381.648 2475.51 384.564 Q2478.29 387.481 2478.29 393.407 Z" fill="#000000" fill-rule="evenodd" fill-opacity="1" /><path clip-path="url(#clip480)" d="M2503.59 383.036 L2503.59 387.064 Q2501.79 386.138 2499.84 385.675 Q2497.9 385.212 2495.81 385.212 Q2492.64 385.212 2491.05 386.185 Q2489.47 387.157 2489.47 389.101 Q2489.47 390.583 2490.61 391.439 Q2491.74 392.273 2495.17 393.036 L2496.63 393.36 Q2501.16 394.333 2503.06 396.115 Q2504.98 397.874 2504.98 401.046 Q2504.98 404.657 2502.11 406.763 Q2499.26 408.87 2494.26 408.87 Q2492.18 408.87 2489.91 408.453 Q2487.67 408.059 2485.17 407.249 L2485.17 402.851 Q2487.53 404.078 2489.82 404.703 Q2492.11 405.305 2494.36 405.305 Q2497.37 405.305 2498.99 404.286 Q2500.61 403.245 2500.61 401.37 Q2500.61 399.634 2499.43 398.708 Q2498.27 397.782 2494.31 396.925 L2492.83 396.578 Q2488.87 395.745 2487.11 394.032 Q2485.35 392.296 2485.35 389.286 Q2485.35 385.629 2487.94 383.638 Q2490.54 381.648 2495.31 381.648 Q2497.67 381.648 2499.75 381.995 Q2501.83 382.342 2503.59 383.036 Z" fill="#000000" fill-rule="evenodd" fill-opacity="1" /></svg>
