<?xml version="1.0" encoding="utf-8"?>
<svg xmlns="http://www.w3.org/2000/svg" xmlns:xlink="http://www.w3.org/1999/xlink" width="672" height="480" viewBox="0 0 2688 1920">
<defs>
  <clipPath id="clip910">
    <rect x="0" y="0" width="2688" height="1920"/>
  </clipPath>
</defs>
<path clip-path="url(#clip910)" d="M0 1920 L2688 1920 L2688 0 L0 0  Z" fill="#ffffff" fill-rule="evenodd" fill-opacity="1"/>
<defs>
  <clipPath id="clip911">
    <rect x="537" y="0" width="1883" height="1883"/>
  </clipPath>
</defs>
<defs>
  <clipPath id="clip912">
    <rect x="158" y="47" width="2483" height="1755"/>
  </clipPath>
</defs>
<path clip-path="url(#clip912)" d="M-1075.79 2941.84 L-1075.79 975.908 L-120.697 -7.05989 L1533.58 560.457 L1533.58 2526.39 L578.484 3509.36 L-1075.79 2941.84  Z" fill="#ffffff" fill-rule="evenodd" fill-opacity="1"/>
<polyline clip-path="url(#clip912)" style="stroke:#000000; stroke-linecap:round; stroke-linejoin:round; stroke-width:2; stroke-opacity:0.1; fill:none" points="733.03,1462.2 1239.23,1023.82 1239.23,147.049 "/>
<polyline clip-path="url(#clip912)" style="stroke:#000000; stroke-linecap:round; stroke-linejoin:round; stroke-width:2; stroke-opacity:0.1; fill:none" points="939.815,1521.89 1446.02,1083.51 1446.02,206.742 "/>
<polyline clip-path="url(#clip912)" style="stroke:#000000; stroke-linecap:round; stroke-linejoin:round; stroke-width:2; stroke-opacity:0.1; fill:none" points="1146.6,1581.59 1652.8,1143.2 1652.8,266.436 "/>
<polyline clip-path="url(#clip912)" style="stroke:#000000; stroke-linecap:round; stroke-linejoin:round; stroke-width:2; stroke-opacity:0.1; fill:none" points="1353.38,1641.28 1859.59,1202.9 1859.59,326.13 "/>
<polyline clip-path="url(#clip912)" style="stroke:#000000; stroke-linecap:round; stroke-linejoin:round; stroke-width:2; stroke-opacity:0.1; fill:none" points="1560.17,1700.97 2066.37,1262.59 2066.37,385.823 "/>
<polyline clip-path="url(#clip910)" style="stroke:#000000; stroke-linecap:round; stroke-linejoin:round; stroke-width:4; stroke-opacity:1; fill:none" points="708.216,1455.04 1584.98,1708.14 "/>
<polyline clip-path="url(#clip910)" style="stroke:#000000; stroke-linecap:round; stroke-linejoin:round; stroke-width:4; stroke-opacity:1; fill:none" points="733.03,1462.2 739.104,1456.94 "/>
<polyline clip-path="url(#clip910)" style="stroke:#000000; stroke-linecap:round; stroke-linejoin:round; stroke-width:4; stroke-opacity:1; fill:none" points="939.815,1521.89 945.889,1516.63 "/>
<polyline clip-path="url(#clip910)" style="stroke:#000000; stroke-linecap:round; stroke-linejoin:round; stroke-width:4; stroke-opacity:1; fill:none" points="1146.6,1581.59 1152.67,1576.33 "/>
<polyline clip-path="url(#clip910)" style="stroke:#000000; stroke-linecap:round; stroke-linejoin:round; stroke-width:4; stroke-opacity:1; fill:none" points="1353.38,1641.28 1359.46,1636.02 "/>
<polyline clip-path="url(#clip910)" style="stroke:#000000; stroke-linecap:round; stroke-linejoin:round; stroke-width:4; stroke-opacity:1; fill:none" points="1560.17,1700.97 1566.24,1695.71 "/>
<path clip-path="url(#clip910)" d="M635.225 1478.51 Q631.614 1478.51 629.786 1482.07 Q627.98 1485.62 627.98 1492.75 Q627.98 1499.85 629.786 1503.42 Q631.614 1506.96 635.225 1506.96 Q638.86 1506.96 640.665 1503.42 Q642.494 1499.85 642.494 1492.75 Q642.494 1485.62 640.665 1482.07 Q638.86 1478.51 635.225 1478.51 M635.225 1474.81 Q641.035 1474.81 644.091 1479.41 Q647.17 1484 647.17 1492.75 Q647.17 1501.47 644.091 1506.08 Q641.035 1510.66 635.225 1510.66 Q629.415 1510.66 626.336 1506.08 Q623.281 1501.47 623.281 1492.75 Q623.281 1484 626.336 1479.41 Q629.415 1474.81 635.225 1474.81 Z" fill="#000000" fill-rule="nonzero" fill-opacity="1" /><path clip-path="url(#clip910)" d="M655.387 1504.11 L660.271 1504.11 L660.271 1509.99 L655.387 1509.99 L655.387 1504.11 Z" fill="#000000" fill-rule="nonzero" fill-opacity="1" /><path clip-path="url(#clip910)" d="M680.457 1478.51 Q676.845 1478.51 675.017 1482.07 Q673.211 1485.62 673.211 1492.75 Q673.211 1499.85 675.017 1503.42 Q676.845 1506.96 680.457 1506.96 Q684.091 1506.96 685.896 1503.42 Q687.725 1499.85 687.725 1492.75 Q687.725 1485.62 685.896 1482.07 Q684.091 1478.51 680.457 1478.51 M680.457 1474.81 Q686.267 1474.81 689.322 1479.41 Q692.401 1484 692.401 1492.75 Q692.401 1501.47 689.322 1506.08 Q686.267 1510.66 680.457 1510.66 Q674.646 1510.66 671.568 1506.08 Q668.512 1501.47 668.512 1492.75 Q668.512 1484 671.568 1479.41 Q674.646 1474.81 680.457 1474.81 Z" fill="#000000" fill-rule="nonzero" fill-opacity="1" /><path clip-path="url(#clip910)" d="M710.618 1478.51 Q707.007 1478.51 705.179 1482.07 Q703.373 1485.62 703.373 1492.75 Q703.373 1499.85 705.179 1503.42 Q707.007 1506.96 710.618 1506.96 Q714.253 1506.96 716.058 1503.42 Q717.887 1499.85 717.887 1492.75 Q717.887 1485.62 716.058 1482.07 Q714.253 1478.51 710.618 1478.51 M710.618 1474.81 Q716.429 1474.81 719.484 1479.41 Q722.563 1484 722.563 1492.75 Q722.563 1501.47 719.484 1506.08 Q716.429 1510.66 710.618 1510.66 Q704.808 1510.66 701.73 1506.08 Q698.674 1501.47 698.674 1492.75 Q698.674 1484 701.73 1479.41 Q704.808 1474.81 710.618 1474.81 Z" fill="#000000" fill-rule="nonzero" fill-opacity="1" /><path clip-path="url(#clip910)" d="M843.006 1538.2 Q839.394 1538.2 837.566 1541.77 Q835.76 1545.31 835.76 1552.44 Q835.76 1559.55 837.566 1563.11 Q839.394 1566.65 843.006 1566.65 Q846.64 1566.65 848.445 1563.11 Q850.274 1559.55 850.274 1552.44 Q850.274 1545.31 848.445 1541.77 Q846.64 1538.2 843.006 1538.2 M843.006 1534.5 Q848.816 1534.5 851.871 1539.11 Q854.95 1543.69 854.95 1552.44 Q854.95 1561.17 851.871 1565.77 Q848.816 1570.36 843.006 1570.36 Q837.195 1570.36 834.117 1565.77 Q831.061 1561.17 831.061 1552.44 Q831.061 1543.69 834.117 1539.11 Q837.195 1534.5 843.006 1534.5 Z" fill="#000000" fill-rule="nonzero" fill-opacity="1" /><path clip-path="url(#clip910)" d="M863.167 1563.8 L868.052 1563.8 L868.052 1569.68 L863.167 1569.68 L863.167 1563.8 Z" fill="#000000" fill-rule="nonzero" fill-opacity="1" /><path clip-path="url(#clip910)" d="M882.265 1565.75 L898.584 1565.75 L898.584 1569.68 L876.64 1569.68 L876.64 1565.75 Q879.302 1562.99 883.885 1558.36 Q888.491 1553.71 889.672 1552.37 Q891.917 1549.85 892.797 1548.11 Q893.7 1546.35 893.7 1544.66 Q893.7 1541.91 891.755 1540.17 Q889.834 1538.43 886.732 1538.43 Q884.533 1538.43 882.079 1539.2 Q879.649 1539.96 876.871 1541.51 L876.871 1536.79 Q879.695 1535.66 882.149 1535.08 Q884.603 1534.5 886.64 1534.5 Q892.01 1534.5 895.204 1537.18 Q898.399 1539.87 898.399 1544.36 Q898.399 1546.49 897.589 1548.41 Q896.802 1550.31 894.695 1552.9 Q894.116 1553.57 891.015 1556.79 Q887.913 1559.99 882.265 1565.75 Z" fill="#000000" fill-rule="nonzero" fill-opacity="1" /><path clip-path="url(#clip910)" d="M908.445 1535.12 L926.801 1535.12 L926.801 1539.06 L912.727 1539.06 L912.727 1547.53 Q913.746 1547.18 914.764 1547.02 Q915.783 1546.84 916.801 1546.84 Q922.588 1546.84 925.968 1550.01 Q929.348 1553.18 929.348 1558.6 Q929.348 1564.18 925.875 1567.28 Q922.403 1570.36 916.084 1570.36 Q913.908 1570.36 911.639 1569.99 Q909.394 1569.61 906.987 1568.87 L906.987 1564.18 Q909.07 1565.31 911.292 1565.86 Q913.514 1566.42 915.991 1566.42 Q919.996 1566.42 922.334 1564.31 Q924.672 1562.21 924.672 1558.6 Q924.672 1554.99 922.334 1552.88 Q919.996 1550.77 915.991 1550.77 Q914.116 1550.77 912.241 1551.19 Q910.389 1551.61 908.445 1552.49 L908.445 1535.12 Z" fill="#000000" fill-rule="nonzero" fill-opacity="1" /><path clip-path="url(#clip910)" d="M1048.79 1597.9 Q1045.18 1597.9 1043.36 1601.46 Q1041.55 1605 1041.55 1612.13 Q1041.55 1619.24 1043.36 1622.8 Q1045.18 1626.35 1048.79 1626.35 Q1052.43 1626.35 1054.23 1622.8 Q1056.06 1619.24 1056.06 1612.13 Q1056.06 1605 1054.23 1601.46 Q1052.43 1597.9 1048.79 1597.9 M1048.79 1594.19 Q1054.61 1594.19 1057.66 1598.8 Q1060.74 1603.38 1060.74 1612.13 Q1060.74 1620.86 1057.66 1625.47 Q1054.61 1630.05 1048.79 1630.05 Q1042.98 1630.05 1039.91 1625.47 Q1036.85 1620.86 1036.85 1612.13 Q1036.85 1603.38 1039.91 1598.8 Q1042.98 1594.19 1048.79 1594.19 Z" fill="#000000" fill-rule="nonzero" fill-opacity="1" /><path clip-path="url(#clip910)" d="M1068.96 1623.5 L1073.84 1623.5 L1073.84 1629.38 L1068.96 1629.38 L1068.96 1623.5 Z" fill="#000000" fill-rule="nonzero" fill-opacity="1" /><path clip-path="url(#clip910)" d="M1084.07 1594.82 L1102.43 1594.82 L1102.43 1598.75 L1088.35 1598.75 L1088.35 1607.23 Q1089.37 1606.88 1090.39 1606.72 Q1091.41 1606.53 1092.43 1606.53 Q1098.22 1606.53 1101.6 1609.7 Q1104.98 1612.87 1104.98 1618.29 Q1104.98 1623.87 1101.5 1626.97 Q1098.03 1630.05 1091.71 1630.05 Q1089.54 1630.05 1087.27 1629.68 Q1085.02 1629.31 1082.61 1628.57 L1082.61 1623.87 Q1084.7 1625 1086.92 1625.56 Q1089.14 1626.11 1091.62 1626.11 Q1095.62 1626.11 1097.96 1624.01 Q1100.3 1621.9 1100.3 1618.29 Q1100.3 1614.68 1097.96 1612.57 Q1095.62 1610.47 1091.62 1610.47 Q1089.74 1610.47 1087.87 1610.88 Q1086.02 1611.3 1084.07 1612.18 L1084.07 1594.82 Z" fill="#000000" fill-rule="nonzero" fill-opacity="1" /><path clip-path="url(#clip910)" d="M1124.19 1597.9 Q1120.58 1597.9 1118.75 1601.46 Q1116.94 1605 1116.94 1612.13 Q1116.94 1619.24 1118.75 1622.8 Q1120.58 1626.35 1124.19 1626.35 Q1127.82 1626.35 1129.63 1622.8 Q1131.46 1619.24 1131.46 1612.13 Q1131.46 1605 1129.63 1601.46 Q1127.82 1597.9 1124.19 1597.9 M1124.19 1594.19 Q1130 1594.19 1133.05 1598.8 Q1136.13 1603.38 1136.13 1612.13 Q1136.13 1620.86 1133.05 1625.47 Q1130 1630.05 1124.19 1630.05 Q1118.38 1630.05 1115.3 1625.47 Q1112.24 1620.86 1112.24 1612.13 Q1112.24 1603.38 1115.3 1598.8 Q1118.38 1594.19 1124.19 1594.19 Z" fill="#000000" fill-rule="nonzero" fill-opacity="1" /><path clip-path="url(#clip910)" d="M1256.58 1657.59 Q1252.96 1657.59 1251.14 1661.16 Q1249.33 1664.7 1249.33 1671.83 Q1249.33 1678.93 1251.14 1682.5 Q1252.96 1686.04 1256.58 1686.04 Q1260.21 1686.04 1262.01 1682.5 Q1263.84 1678.93 1263.84 1671.83 Q1263.84 1664.7 1262.01 1661.16 Q1260.21 1657.59 1256.58 1657.59 M1256.58 1653.89 Q1262.39 1653.89 1265.44 1658.49 Q1268.52 1663.08 1268.52 1671.83 Q1268.52 1680.55 1265.44 1685.16 Q1262.39 1689.74 1256.58 1689.74 Q1250.76 1689.74 1247.69 1685.16 Q1244.63 1680.55 1244.63 1671.83 Q1244.63 1663.08 1247.69 1658.49 Q1250.76 1653.89 1256.58 1653.89 Z" fill="#000000" fill-rule="nonzero" fill-opacity="1" /><path clip-path="url(#clip910)" d="M1276.74 1683.19 L1281.62 1683.19 L1281.62 1689.07 L1276.74 1689.07 L1276.74 1683.19 Z" fill="#000000" fill-rule="nonzero" fill-opacity="1" /><path clip-path="url(#clip910)" d="M1290.63 1654.51 L1312.85 1654.51 L1312.85 1656.5 L1300.3 1689.07 L1295.42 1689.07 L1307.22 1658.45 L1290.63 1658.45 L1290.63 1654.51 Z" fill="#000000" fill-rule="nonzero" fill-opacity="1" /><path clip-path="url(#clip910)" d="M1322.01 1654.51 L1340.37 1654.51 L1340.37 1658.45 L1326.3 1658.45 L1326.3 1666.92 Q1327.32 1666.57 1328.33 1666.41 Q1329.35 1666.22 1330.37 1666.22 Q1336.16 1666.22 1339.54 1669.4 Q1342.92 1672.57 1342.92 1677.98 Q1342.92 1683.56 1339.45 1686.66 Q1335.97 1689.74 1329.65 1689.74 Q1327.48 1689.74 1325.21 1689.37 Q1322.96 1689 1320.56 1688.26 L1320.56 1683.56 Q1322.64 1684.7 1324.86 1685.25 Q1327.08 1685.81 1329.56 1685.81 Q1333.57 1685.81 1335.9 1683.7 Q1338.24 1681.59 1338.24 1677.98 Q1338.24 1674.37 1335.9 1672.27 Q1333.57 1670.16 1329.56 1670.16 Q1327.69 1670.16 1325.81 1670.58 Q1323.96 1670.99 1322.01 1671.87 L1322.01 1654.51 Z" fill="#000000" fill-rule="nonzero" fill-opacity="1" /><path clip-path="url(#clip910)" d="M1453.17 1744.83 L1460.81 1744.83 L1460.81 1718.46 L1452.5 1720.13 L1452.5 1715.87 L1460.77 1714.21 L1465.44 1714.21 L1465.44 1744.83 L1473.08 1744.83 L1473.08 1748.77 L1453.17 1748.77 L1453.17 1744.83 Z" fill="#000000" fill-rule="nonzero" fill-opacity="1" /><path clip-path="url(#clip910)" d="M1482.53 1742.89 L1487.41 1742.89 L1487.41 1748.77 L1482.53 1748.77 L1482.53 1742.89 Z" fill="#000000" fill-rule="nonzero" fill-opacity="1" /><path clip-path="url(#clip910)" d="M1507.6 1717.28 Q1503.98 1717.28 1502.16 1720.85 Q1500.35 1724.39 1500.35 1731.52 Q1500.35 1738.63 1502.16 1742.19 Q1503.98 1745.73 1507.6 1745.73 Q1511.23 1745.73 1513.04 1742.19 Q1514.86 1738.63 1514.86 1731.52 Q1514.86 1724.39 1513.04 1720.85 Q1511.23 1717.28 1507.6 1717.28 M1507.6 1713.58 Q1513.41 1713.58 1516.46 1718.19 Q1519.54 1722.77 1519.54 1731.52 Q1519.54 1740.25 1516.46 1744.85 Q1513.41 1749.44 1507.6 1749.44 Q1501.79 1749.44 1498.71 1744.85 Q1495.65 1740.25 1495.65 1731.52 Q1495.65 1722.77 1498.71 1718.19 Q1501.79 1713.58 1507.6 1713.58 Z" fill="#000000" fill-rule="nonzero" fill-opacity="1" /><path clip-path="url(#clip910)" d="M1537.76 1717.28 Q1534.15 1717.28 1532.32 1720.85 Q1530.51 1724.39 1530.51 1731.52 Q1530.51 1738.63 1532.32 1742.19 Q1534.15 1745.73 1537.76 1745.73 Q1541.39 1745.73 1543.2 1742.19 Q1545.03 1738.63 1545.03 1731.52 Q1545.03 1724.39 1543.2 1720.85 Q1541.39 1717.28 1537.76 1717.28 M1537.76 1713.58 Q1543.57 1713.58 1546.62 1718.19 Q1549.7 1722.77 1549.7 1731.52 Q1549.7 1740.25 1546.62 1744.85 Q1543.57 1749.44 1537.76 1749.44 Q1531.95 1749.44 1528.87 1744.85 Q1525.81 1740.25 1525.81 1731.52 Q1525.81 1722.77 1528.87 1718.19 Q1531.95 1713.58 1537.76 1713.58 Z" fill="#000000" fill-rule="nonzero" fill-opacity="1" /><polyline clip-path="url(#clip912)" style="stroke:#000000; stroke-linecap:round; stroke-linejoin:round; stroke-width:2; stroke-opacity:0.1; fill:none" points="1599.31,1695.73 722.542,1442.63 722.542,565.862 "/>
<polyline clip-path="url(#clip912)" style="stroke:#000000; stroke-linecap:round; stroke-linejoin:round; stroke-width:2; stroke-opacity:0.1; fill:none" points="1712.81,1597.43 836.045,1344.33 836.045,467.565 "/>
<polyline clip-path="url(#clip912)" style="stroke:#000000; stroke-linecap:round; stroke-linejoin:round; stroke-width:2; stroke-opacity:0.1; fill:none" points="1826.32,1499.14 949.549,1246.04 949.549,369.269 "/>
<polyline clip-path="url(#clip912)" style="stroke:#000000; stroke-linecap:round; stroke-linejoin:round; stroke-width:2; stroke-opacity:0.1; fill:none" points="1939.82,1400.84 1063.05,1147.74 1063.05,270.972 "/>
<polyline clip-path="url(#clip912)" style="stroke:#000000; stroke-linecap:round; stroke-linejoin:round; stroke-width:2; stroke-opacity:0.1; fill:none" points="2053.32,1302.54 1176.56,1049.44 1176.56,172.675 "/>
<polyline clip-path="url(#clip910)" style="stroke:#000000; stroke-linecap:round; stroke-linejoin:round; stroke-width:4; stroke-opacity:1; fill:none" points="1584.98,1708.14 2091.19,1269.75 "/>
<polyline clip-path="url(#clip910)" style="stroke:#000000; stroke-linecap:round; stroke-linejoin:round; stroke-width:4; stroke-opacity:1; fill:none" points="1599.31,1695.73 1588.79,1692.69 "/>
<polyline clip-path="url(#clip910)" style="stroke:#000000; stroke-linecap:round; stroke-linejoin:round; stroke-width:4; stroke-opacity:1; fill:none" points="1712.81,1597.43 1702.29,1594.4 "/>
<polyline clip-path="url(#clip910)" style="stroke:#000000; stroke-linecap:round; stroke-linejoin:round; stroke-width:4; stroke-opacity:1; fill:none" points="1826.32,1499.14 1815.8,1496.1 "/>
<polyline clip-path="url(#clip910)" style="stroke:#000000; stroke-linecap:round; stroke-linejoin:round; stroke-width:4; stroke-opacity:1; fill:none" points="1939.82,1400.84 1929.3,1397.8 "/>
<polyline clip-path="url(#clip910)" style="stroke:#000000; stroke-linecap:round; stroke-linejoin:round; stroke-width:4; stroke-opacity:1; fill:none" points="2053.32,1302.54 2042.8,1299.51 "/>
<path clip-path="url(#clip910)" d="M1634.39 1704.01 Q1630.78 1704.01 1628.95 1707.57 Q1627.14 1711.11 1627.14 1718.24 Q1627.14 1725.35 1628.95 1728.91 Q1630.78 1732.46 1634.39 1732.46 Q1638.02 1732.46 1639.83 1728.91 Q1641.66 1725.35 1641.66 1718.24 Q1641.66 1711.11 1639.83 1707.57 Q1638.02 1704.01 1634.39 1704.01 M1634.39 1700.3 Q1640.2 1700.3 1643.25 1704.91 Q1646.33 1709.49 1646.33 1718.24 Q1646.33 1726.97 1643.25 1731.58 Q1640.2 1736.16 1634.39 1736.16 Q1628.58 1736.16 1625.5 1731.58 Q1622.44 1726.97 1622.44 1718.24 Q1622.44 1709.49 1625.5 1704.91 Q1628.58 1700.3 1634.39 1700.3 Z" fill="#000000" fill-rule="nonzero" fill-opacity="1" /><path clip-path="url(#clip910)" d="M1654.55 1729.61 L1659.43 1729.61 L1659.43 1735.49 L1654.55 1735.49 L1654.55 1729.61 Z" fill="#000000" fill-rule="nonzero" fill-opacity="1" /><path clip-path="url(#clip910)" d="M1679.62 1704.01 Q1676.01 1704.01 1674.18 1707.57 Q1672.37 1711.11 1672.37 1718.24 Q1672.37 1725.35 1674.18 1728.91 Q1676.01 1732.46 1679.62 1732.46 Q1683.25 1732.46 1685.06 1728.91 Q1686.89 1725.35 1686.89 1718.24 Q1686.89 1711.11 1685.06 1707.57 Q1683.25 1704.01 1679.62 1704.01 M1679.62 1700.3 Q1685.43 1700.3 1688.49 1704.91 Q1691.56 1709.49 1691.56 1718.24 Q1691.56 1726.97 1688.49 1731.58 Q1685.43 1736.16 1679.62 1736.16 Q1673.81 1736.16 1670.73 1731.58 Q1667.67 1726.97 1667.67 1718.24 Q1667.67 1709.49 1670.73 1704.91 Q1673.81 1700.3 1679.62 1700.3 Z" fill="#000000" fill-rule="nonzero" fill-opacity="1" /><path clip-path="url(#clip910)" d="M1747.89 1605.71 Q1744.28 1605.71 1742.45 1609.28 Q1740.65 1612.82 1740.65 1619.95 Q1740.65 1627.05 1742.45 1630.62 Q1744.28 1634.16 1747.89 1634.16 Q1751.53 1634.16 1753.33 1630.62 Q1755.16 1627.05 1755.16 1619.95 Q1755.16 1612.82 1753.33 1609.28 Q1751.53 1605.71 1747.89 1605.71 M1747.89 1602.01 Q1753.7 1602.01 1756.76 1606.61 Q1759.84 1611.2 1759.84 1619.95 Q1759.84 1628.67 1756.76 1633.28 Q1753.7 1637.86 1747.89 1637.86 Q1742.08 1637.86 1739 1633.28 Q1735.95 1628.67 1735.95 1619.95 Q1735.95 1611.2 1739 1606.61 Q1742.08 1602.01 1747.89 1602.01 Z" fill="#000000" fill-rule="nonzero" fill-opacity="1" /><path clip-path="url(#clip910)" d="M1768.05 1631.31 L1772.94 1631.31 L1772.94 1637.19 L1768.05 1637.19 L1768.05 1631.31 Z" fill="#000000" fill-rule="nonzero" fill-opacity="1" /><path clip-path="url(#clip910)" d="M1787.15 1633.26 L1803.47 1633.26 L1803.47 1637.19 L1781.53 1637.19 L1781.53 1633.26 Q1784.19 1630.5 1788.77 1625.87 Q1793.38 1621.22 1794.56 1619.88 Q1796.8 1617.35 1797.68 1615.62 Q1798.59 1613.86 1798.59 1612.17 Q1798.59 1609.41 1796.64 1607.68 Q1794.72 1605.94 1791.62 1605.94 Q1789.42 1605.94 1786.97 1606.71 Q1784.53 1607.47 1781.76 1609.02 L1781.76 1604.3 Q1784.58 1603.16 1787.03 1602.59 Q1789.49 1602.01 1791.53 1602.01 Q1796.9 1602.01 1800.09 1604.69 Q1803.28 1607.38 1803.28 1611.87 Q1803.28 1614 1802.47 1615.92 Q1801.69 1617.82 1799.58 1620.41 Q1799 1621.08 1795.9 1624.3 Q1792.8 1627.49 1787.15 1633.26 Z" fill="#000000" fill-rule="nonzero" fill-opacity="1" /><path clip-path="url(#clip910)" d="M1861.39 1507.41 Q1857.78 1507.41 1855.96 1510.98 Q1854.15 1514.52 1854.15 1521.65 Q1854.15 1528.76 1855.96 1532.32 Q1857.78 1535.86 1861.39 1535.86 Q1865.03 1535.86 1866.83 1532.32 Q1868.66 1528.76 1868.66 1521.65 Q1868.66 1514.52 1866.83 1510.98 Q1865.03 1507.41 1861.39 1507.41 M1861.39 1503.71 Q1867.21 1503.71 1870.26 1508.32 Q1873.34 1512.9 1873.34 1521.65 Q1873.34 1530.38 1870.26 1534.98 Q1867.21 1539.57 1861.39 1539.57 Q1855.58 1539.57 1852.51 1534.98 Q1849.45 1530.38 1849.45 1521.65 Q1849.45 1512.9 1852.51 1508.32 Q1855.58 1503.71 1861.39 1503.71 Z" fill="#000000" fill-rule="nonzero" fill-opacity="1" /><path clip-path="url(#clip910)" d="M1881.56 1533.02 L1886.44 1533.02 L1886.44 1538.9 L1881.56 1538.9 L1881.56 1533.02 Z" fill="#000000" fill-rule="nonzero" fill-opacity="1" /><path clip-path="url(#clip910)" d="M1909.47 1508.41 L1897.67 1526.86 L1909.47 1526.86 L1909.47 1508.41 M1908.25 1504.34 L1914.13 1504.34 L1914.13 1526.86 L1919.06 1526.86 L1919.06 1530.75 L1914.13 1530.75 L1914.13 1538.9 L1909.47 1538.9 L1909.47 1530.75 L1893.87 1530.75 L1893.87 1526.23 L1908.25 1504.34 Z" fill="#000000" fill-rule="nonzero" fill-opacity="1" /><path clip-path="url(#clip910)" d="M1974.9 1409.12 Q1971.29 1409.12 1969.46 1412.68 Q1967.65 1416.22 1967.65 1423.35 Q1967.65 1430.46 1969.46 1434.02 Q1971.29 1437.57 1974.9 1437.57 Q1978.53 1437.57 1980.34 1434.02 Q1982.17 1430.46 1982.17 1423.35 Q1982.17 1416.22 1980.34 1412.68 Q1978.53 1409.12 1974.9 1409.12 M1974.9 1405.41 Q1980.71 1405.41 1983.76 1410.02 Q1986.84 1414.6 1986.84 1423.35 Q1986.84 1432.08 1983.76 1436.69 Q1980.71 1441.27 1974.9 1441.27 Q1969.09 1441.27 1966.01 1436.69 Q1962.95 1432.08 1962.95 1423.35 Q1962.95 1414.6 1966.01 1410.02 Q1969.09 1405.41 1974.9 1405.41 Z" fill="#000000" fill-rule="nonzero" fill-opacity="1" /><path clip-path="url(#clip910)" d="M1995.06 1434.72 L1999.94 1434.72 L1999.94 1440.6 L1995.06 1440.6 L1995.06 1434.72 Z" fill="#000000" fill-rule="nonzero" fill-opacity="1" /><path clip-path="url(#clip910)" d="M2020.71 1421.46 Q2017.56 1421.46 2015.71 1423.61 Q2013.88 1425.76 2013.88 1429.51 Q2013.88 1433.24 2015.71 1435.41 Q2017.56 1437.57 2020.71 1437.57 Q2023.86 1437.57 2025.69 1435.41 Q2027.54 1433.24 2027.54 1429.51 Q2027.54 1425.76 2025.69 1423.61 Q2023.86 1421.46 2020.71 1421.46 M2029.99 1406.8 L2029.99 1411.06 Q2028.23 1410.23 2026.43 1409.79 Q2024.64 1409.35 2022.88 1409.35 Q2018.25 1409.35 2015.8 1412.47 Q2013.37 1415.6 2013.02 1421.92 Q2014.39 1419.9 2016.45 1418.84 Q2018.51 1417.75 2020.99 1417.75 Q2026.19 1417.75 2029.2 1420.92 Q2032.24 1424.07 2032.24 1429.51 Q2032.24 1434.83 2029.09 1438.05 Q2025.94 1441.27 2020.71 1441.27 Q2014.71 1441.27 2011.54 1436.69 Q2008.37 1432.08 2008.37 1423.35 Q2008.37 1415.16 2012.26 1410.3 Q2016.15 1405.41 2022.7 1405.41 Q2024.46 1405.41 2026.24 1405.76 Q2028.05 1406.11 2029.99 1406.8 Z" fill="#000000" fill-rule="nonzero" fill-opacity="1" /><path clip-path="url(#clip910)" d="M2088.4 1310.82 Q2084.79 1310.82 2082.96 1314.39 Q2081.16 1317.93 2081.16 1325.06 Q2081.16 1332.16 2082.96 1335.73 Q2084.79 1339.27 2088.4 1339.27 Q2092.04 1339.27 2093.84 1335.73 Q2095.67 1332.16 2095.67 1325.06 Q2095.67 1317.93 2093.84 1314.39 Q2092.04 1310.82 2088.4 1310.82 M2088.4 1307.12 Q2094.21 1307.12 2097.27 1311.72 Q2100.35 1316.31 2100.35 1325.06 Q2100.35 1333.78 2097.27 1338.39 Q2094.21 1342.97 2088.4 1342.97 Q2082.59 1342.97 2079.51 1338.39 Q2076.46 1333.78 2076.46 1325.06 Q2076.46 1316.31 2079.51 1311.72 Q2082.59 1307.12 2088.4 1307.12 Z" fill="#000000" fill-rule="nonzero" fill-opacity="1" /><path clip-path="url(#clip910)" d="M2108.56 1336.42 L2113.45 1336.42 L2113.45 1342.3 L2108.56 1342.3 L2108.56 1336.42 Z" fill="#000000" fill-rule="nonzero" fill-opacity="1" /><path clip-path="url(#clip910)" d="M2133.63 1325.89 Q2130.3 1325.89 2128.38 1327.67 Q2126.48 1329.45 2126.48 1332.58 Q2126.48 1335.7 2128.38 1337.49 Q2130.3 1339.27 2133.63 1339.27 Q2136.97 1339.27 2138.89 1337.49 Q2140.81 1335.68 2140.81 1332.58 Q2140.81 1329.45 2138.89 1327.67 Q2136.99 1325.89 2133.63 1325.89 M2128.96 1323.9 Q2125.95 1323.16 2124.26 1321.1 Q2122.59 1319.04 2122.59 1316.07 Q2122.59 1311.93 2125.53 1309.52 Q2128.49 1307.12 2133.63 1307.12 Q2138.79 1307.12 2141.73 1309.52 Q2144.67 1311.93 2144.67 1316.07 Q2144.67 1319.04 2142.98 1321.1 Q2141.32 1323.16 2138.33 1323.9 Q2141.71 1324.69 2143.59 1326.98 Q2145.48 1329.27 2145.48 1332.58 Q2145.48 1337.6 2142.41 1340.29 Q2139.35 1342.97 2133.63 1342.97 Q2127.92 1342.97 2124.84 1340.29 Q2121.78 1337.6 2121.78 1332.58 Q2121.78 1329.27 2123.68 1326.98 Q2125.58 1324.69 2128.96 1323.9 M2127.24 1316.51 Q2127.24 1319.2 2128.91 1320.7 Q2130.6 1322.21 2133.63 1322.21 Q2136.64 1322.21 2138.33 1320.7 Q2140.04 1319.2 2140.04 1316.51 Q2140.04 1313.83 2138.33 1312.32 Q2136.64 1310.82 2133.63 1310.82 Q2130.6 1310.82 2128.91 1312.32 Q2127.24 1313.83 2127.24 1316.51 Z" fill="#000000" fill-rule="nonzero" fill-opacity="1" /><polyline clip-path="url(#clip912)" style="stroke:#000000; stroke-linecap:round; stroke-linejoin:round; stroke-width:2; stroke-opacity:0.1; fill:none" points="708.216,1430.22 1214.42,991.839 2091.19,1244.94 "/>
<polyline clip-path="url(#clip912)" style="stroke:#000000; stroke-linecap:round; stroke-linejoin:round; stroke-width:2; stroke-opacity:0.1; fill:none" points="708.216,1189.53 1214.42,751.151 2091.19,1004.25 "/>
<polyline clip-path="url(#clip912)" style="stroke:#000000; stroke-linecap:round; stroke-linejoin:round; stroke-width:2; stroke-opacity:0.1; fill:none" points="708.216,948.847 1214.42,510.463 2091.19,763.564 "/>
<polyline clip-path="url(#clip912)" style="stroke:#000000; stroke-linecap:round; stroke-linejoin:round; stroke-width:2; stroke-opacity:0.1; fill:none" points="708.216,708.159 1214.42,269.775 2091.19,522.876 "/>
<polyline clip-path="url(#clip910)" style="stroke:#000000; stroke-linecap:round; stroke-linejoin:round; stroke-width:4; stroke-opacity:1; fill:none" points="708.216,1455.04 708.216,578.269 "/>
<polyline clip-path="url(#clip910)" style="stroke:#000000; stroke-linecap:round; stroke-linejoin:round; stroke-width:4; stroke-opacity:1; fill:none" points="708.216,1430.22 714.29,1424.96 "/>
<polyline clip-path="url(#clip910)" style="stroke:#000000; stroke-linecap:round; stroke-linejoin:round; stroke-width:4; stroke-opacity:1; fill:none" points="708.216,1189.53 714.29,1184.27 "/>
<polyline clip-path="url(#clip910)" style="stroke:#000000; stroke-linecap:round; stroke-linejoin:round; stroke-width:4; stroke-opacity:1; fill:none" points="708.216,948.847 714.29,943.586 "/>
<polyline clip-path="url(#clip910)" style="stroke:#000000; stroke-linecap:round; stroke-linejoin:round; stroke-width:4; stroke-opacity:1; fill:none" points="708.216,708.159 714.29,702.898 "/>
<path clip-path="url(#clip910)" d="M609.594 1443.57 L617.233 1443.57 L617.233 1417.2 L608.923 1418.87 L608.923 1414.61 L617.187 1412.94 L621.863 1412.94 L621.863 1443.57 L629.502 1443.57 L629.502 1447.5 L609.594 1447.5 L609.594 1443.57 Z" fill="#000000" fill-rule="nonzero" fill-opacity="1" /><path clip-path="url(#clip910)" d="M638.946 1441.62 L643.83 1441.62 L643.83 1447.5 L638.946 1447.5 L638.946 1441.62 Z" fill="#000000" fill-rule="nonzero" fill-opacity="1" /><path clip-path="url(#clip910)" d="M664.015 1416.02 Q660.404 1416.02 658.575 1419.59 Q656.77 1423.13 656.77 1430.26 Q656.77 1437.36 658.575 1440.93 Q660.404 1444.47 664.015 1444.47 Q667.649 1444.47 669.455 1440.93 Q671.284 1437.36 671.284 1430.26 Q671.284 1423.13 669.455 1419.59 Q667.649 1416.02 664.015 1416.02 M664.015 1412.32 Q669.825 1412.32 672.881 1416.92 Q675.96 1421.51 675.96 1430.26 Q675.96 1438.98 672.881 1443.59 Q669.825 1448.17 664.015 1448.17 Q658.205 1448.17 655.126 1443.59 Q652.071 1438.98 652.071 1430.26 Q652.071 1421.51 655.126 1416.92 Q658.205 1412.32 664.015 1412.32 Z" fill="#000000" fill-rule="nonzero" fill-opacity="1" /><path clip-path="url(#clip910)" d="M610.59 1202.88 L618.228 1202.88 L618.228 1176.51 L609.918 1178.18 L609.918 1173.92 L618.182 1172.25 L622.858 1172.25 L622.858 1202.88 L630.497 1202.88 L630.497 1206.81 L610.59 1206.81 L610.59 1202.88 Z" fill="#000000" fill-rule="nonzero" fill-opacity="1" /><path clip-path="url(#clip910)" d="M639.941 1200.94 L644.826 1200.94 L644.826 1206.81 L639.941 1206.81 L639.941 1200.94 Z" fill="#000000" fill-rule="nonzero" fill-opacity="1" /><path clip-path="url(#clip910)" d="M655.057 1172.25 L673.413 1172.25 L673.413 1176.19 L659.339 1176.19 L659.339 1184.66 Q660.358 1184.31 661.376 1184.15 Q662.395 1183.97 663.413 1183.97 Q669.2 1183.97 672.58 1187.14 Q675.96 1190.31 675.96 1195.73 Q675.96 1201.31 672.487 1204.41 Q669.015 1207.49 662.696 1207.49 Q660.52 1207.49 658.251 1207.12 Q656.006 1206.75 653.599 1206 L653.599 1201.31 Q655.682 1202.44 657.904 1203 Q660.126 1203.55 662.603 1203.55 Q666.608 1203.55 668.946 1201.44 Q671.284 1199.34 671.284 1195.73 Q671.284 1192.12 668.946 1190.01 Q666.608 1187.9 662.603 1187.9 Q660.728 1187.9 658.853 1188.32 Q657.001 1188.74 655.057 1189.62 L655.057 1172.25 Z" fill="#000000" fill-rule="nonzero" fill-opacity="1" /><path clip-path="url(#clip910)" d="M612.812 962.192 L629.131 962.192 L629.131 966.127 L607.187 966.127 L607.187 962.192 Q609.849 959.437 614.432 954.808 Q619.039 950.155 620.219 948.812 Q622.465 946.289 623.344 944.553 Q624.247 942.794 624.247 941.104 Q624.247 938.349 622.302 936.613 Q620.381 934.877 617.279 934.877 Q615.08 934.877 612.627 935.641 Q610.196 936.405 607.418 937.956 L607.418 933.234 Q610.242 932.099 612.696 931.521 Q615.15 930.942 617.187 930.942 Q622.557 930.942 625.752 933.627 Q628.946 936.312 628.946 940.803 Q628.946 942.933 628.136 944.854 Q627.349 946.752 625.242 949.345 Q624.664 950.016 621.562 953.233 Q618.46 956.428 612.812 962.192 Z" fill="#000000" fill-rule="nonzero" fill-opacity="1" /><path clip-path="url(#clip910)" d="M638.946 960.247 L643.83 960.247 L643.83 966.127 L638.946 966.127 L638.946 960.247 Z" fill="#000000" fill-rule="nonzero" fill-opacity="1" /><path clip-path="url(#clip910)" d="M664.015 934.646 Q660.404 934.646 658.575 938.21 Q656.77 941.752 656.77 948.882 Q656.77 955.988 658.575 959.553 Q660.404 963.095 664.015 963.095 Q667.649 963.095 669.455 959.553 Q671.284 955.988 671.284 948.882 Q671.284 941.752 669.455 938.21 Q667.649 934.646 664.015 934.646 M664.015 930.942 Q669.825 930.942 672.881 935.548 Q675.96 940.132 675.96 948.882 Q675.96 957.608 672.881 962.215 Q669.825 966.798 664.015 966.798 Q658.205 966.798 655.126 962.215 Q652.071 957.608 652.071 948.882 Q652.071 940.132 655.126 935.548 Q658.205 930.942 664.015 930.942 Z" fill="#000000" fill-rule="nonzero" fill-opacity="1" /><path clip-path="url(#clip910)" d="M613.807 721.504 L630.127 721.504 L630.127 725.439 L608.182 725.439 L608.182 721.504 Q610.844 718.749 615.428 714.12 Q620.034 709.467 621.215 708.124 Q623.46 705.601 624.34 703.865 Q625.242 702.106 625.242 700.416 Q625.242 697.661 623.298 695.925 Q621.377 694.189 618.275 694.189 Q616.076 694.189 613.622 694.953 Q611.191 695.717 608.414 697.268 L608.414 692.546 Q611.238 691.411 613.691 690.833 Q616.145 690.254 618.182 690.254 Q623.552 690.254 626.747 692.939 Q629.941 695.624 629.941 700.115 Q629.941 702.245 629.131 704.166 Q628.344 706.064 626.238 708.657 Q625.659 709.328 622.557 712.546 Q619.455 715.74 613.807 721.504 Z" fill="#000000" fill-rule="nonzero" fill-opacity="1" /><path clip-path="url(#clip910)" d="M639.941 719.559 L644.826 719.559 L644.826 725.439 L639.941 725.439 L639.941 719.559 Z" fill="#000000" fill-rule="nonzero" fill-opacity="1" /><path clip-path="url(#clip910)" d="M655.057 690.879 L673.413 690.879 L673.413 694.814 L659.339 694.814 L659.339 703.286 Q660.358 702.939 661.376 702.777 Q662.395 702.592 663.413 702.592 Q669.2 702.592 672.58 705.763 Q675.96 708.935 675.96 714.351 Q675.96 719.93 672.487 723.032 Q669.015 726.11 662.696 726.11 Q660.52 726.11 658.251 725.74 Q656.006 725.37 653.599 724.629 L653.599 719.93 Q655.682 721.064 657.904 721.62 Q660.126 722.175 662.603 722.175 Q666.608 722.175 668.946 720.069 Q671.284 717.962 671.284 714.351 Q671.284 710.74 668.946 708.634 Q666.608 706.527 662.603 706.527 Q660.728 706.527 658.853 706.944 Q657.001 707.36 655.057 708.24 L655.057 690.879 Z" fill="#000000" fill-rule="nonzero" fill-opacity="1" /><circle clip-path="url(#clip912)" cx="747.356" cy="1424.98" r="14.4" fill="#009af9" fill-rule="evenodd" fill-opacity="1" stroke="#000000" stroke-opacity="1" stroke-width="3.84"/>
<circle clip-path="url(#clip912)" cx="886.727" cy="1349.16" r="14.4" fill="#009af9" fill-rule="evenodd" fill-opacity="1" stroke="#000000" stroke-opacity="1" stroke-width="3.84"/>
<circle clip-path="url(#clip912)" cx="1025.53" cy="1268.51" r="14.4" fill="#009af9" fill-rule="evenodd" fill-opacity="1" stroke="#000000" stroke-opacity="1" stroke-width="3.84"/>
<circle clip-path="url(#clip912)" cx="1163.21" cy="1182.95" r="14.4" fill="#009af9" fill-rule="evenodd" fill-opacity="1" stroke="#000000" stroke-opacity="1" stroke-width="3.84"/>
<circle clip-path="url(#clip912)" cx="1299.21" cy="1092.34" r="14.4" fill="#009af9" fill-rule="evenodd" fill-opacity="1" stroke="#000000" stroke-opacity="1" stroke-width="3.84"/>
<circle clip-path="url(#clip912)" cx="1433.01" cy="996.457" r="14.4" fill="#009af9" fill-rule="evenodd" fill-opacity="1" stroke="#000000" stroke-opacity="1" stroke-width="3.84"/>
<circle clip-path="url(#clip912)" cx="1564.08" cy="894.983" r="14.4" fill="#009af9" fill-rule="evenodd" fill-opacity="1" stroke="#000000" stroke-opacity="1" stroke-width="3.84"/>
<circle clip-path="url(#clip912)" cx="1691.96" cy="787.502" r="14.4" fill="#009af9" fill-rule="evenodd" fill-opacity="1" stroke="#000000" stroke-opacity="1" stroke-width="3.84"/>
<circle clip-path="url(#clip912)" cx="1816.18" cy="673.484" r="14.4" fill="#009af9" fill-rule="evenodd" fill-opacity="1" stroke="#000000" stroke-opacity="1" stroke-width="3.84"/>
<circle clip-path="url(#clip912)" cx="1936.33" cy="552.266" r="14.4" fill="#009af9" fill-rule="evenodd" fill-opacity="1" stroke="#000000" stroke-opacity="1" stroke-width="3.84"/>
<circle clip-path="url(#clip912)" cx="2052.04" cy="423.045" r="14.4" fill="#009af9" fill-rule="evenodd" fill-opacity="1" stroke="#000000" stroke-opacity="1" stroke-width="3.84"/>
<path clip-path="url(#clip910)" d="M241.382 209.375 L542.023 209.375 L542.023 105.695 L241.382 105.695  Z" fill="#ffffff" fill-rule="evenodd" fill-opacity="1"/>
<polyline clip-path="url(#clip910)" style="stroke:#000000; stroke-linecap:round; stroke-linejoin:round; stroke-width:4; stroke-opacity:1; fill:none" points="241.382,209.375 542.023,209.375 542.023,105.695 241.382,105.695 241.382,209.375 "/>
<circle clip-path="url(#clip910)" cx="351.698" cy="157.535" r="20.48" fill="#009af9" fill-rule="evenodd" fill-opacity="1" stroke="#000000" stroke-opacity="1" stroke-width="5.46133"/>
<path clip-path="url(#clip910)" d="M475.857 177.223 Q474.051 181.852 472.338 183.264 Q470.625 184.676 467.755 184.676 L464.352 184.676 L464.352 181.112 L466.852 181.112 Q468.611 181.112 469.583 180.278 Q470.556 179.445 471.736 176.343 L472.5 174.399 L462.014 148.889 L466.528 148.889 L474.63 169.167 L482.732 148.889 L487.245 148.889 L475.857 177.223 Z" fill="#000000" fill-rule="nonzero" fill-opacity="1" /><path clip-path="url(#clip910)" d="M494.537 170.88 L502.176 170.88 L502.176 144.515 L493.866 146.181 L493.866 141.922 L502.13 140.255 L506.805 140.255 L506.805 170.88 L514.444 170.88 L514.444 174.815 L494.537 174.815 L494.537 170.88 Z" fill="#000000" fill-rule="nonzero" fill-opacity="1" /></svg>
