<?xml version="1.0" encoding="utf-8"?>
<svg xmlns="http://www.w3.org/2000/svg" xmlns:xlink="http://www.w3.org/1999/xlink" width="672" height="480" viewBox="0 0 2688 1920">
<defs>
  <clipPath id="clip290">
    <rect x="0" y="0" width="2688" height="1920"/>
  </clipPath>
</defs>
<path clip-path="url(#clip290)" d="
M0 1920 L2688 1920 L2688 0 L0 0  Z
  " fill="#ffffff" fill-rule="evenodd" fill-opacity="1"/>
<defs>
  <clipPath id="clip291">
    <rect x="537" y="0" width="1883" height="1883"/>
  </clipPath>
</defs>
<path clip-path="url(#clip290)" d="
M196.816 1800.78 L2640.76 1800.78 L2640.76 47.2441 L196.816 47.2441  Z
  " fill="#ffffff" fill-rule="evenodd" fill-opacity="1"/>
<defs>
  <clipPath id="clip292">
    <rect x="196" y="47" width="2445" height="1755"/>
  </clipPath>
</defs>
<polyline clip-path="url(#clip292)" style="stroke:#000000; stroke-linecap:round; stroke-linejoin:round; stroke-width:2; stroke-opacity:0.1; fill:none" points="
  496.544,1800.78 496.544,47.2441 
  "/>
<polyline clip-path="url(#clip292)" style="stroke:#000000; stroke-linecap:round; stroke-linejoin:round; stroke-width:2; stroke-opacity:0.1; fill:none" points="
  957.665,1800.78 957.665,47.2441 
  "/>
<polyline clip-path="url(#clip292)" style="stroke:#000000; stroke-linecap:round; stroke-linejoin:round; stroke-width:2; stroke-opacity:0.1; fill:none" points="
  1418.79,1800.78 1418.79,47.2441 
  "/>
<polyline clip-path="url(#clip292)" style="stroke:#000000; stroke-linecap:round; stroke-linejoin:round; stroke-width:2; stroke-opacity:0.1; fill:none" points="
  1879.91,1800.78 1879.91,47.2441 
  "/>
<polyline clip-path="url(#clip292)" style="stroke:#000000; stroke-linecap:round; stroke-linejoin:round; stroke-width:2; stroke-opacity:0.1; fill:none" points="
  2341.03,1800.78 2341.03,47.2441 
  "/>
<polyline clip-path="url(#clip290)" style="stroke:#000000; stroke-linecap:round; stroke-linejoin:round; stroke-width:4; stroke-opacity:1; fill:none" points="
  196.816,1800.78 2640.76,1800.78 
  "/>
<polyline clip-path="url(#clip290)" style="stroke:#000000; stroke-linecap:round; stroke-linejoin:round; stroke-width:4; stroke-opacity:1; fill:none" points="
  496.544,1800.78 496.544,1781.88 
  "/>
<polyline clip-path="url(#clip290)" style="stroke:#000000; stroke-linecap:round; stroke-linejoin:round; stroke-width:4; stroke-opacity:1; fill:none" points="
  957.665,1800.78 957.665,1781.88 
  "/>
<polyline clip-path="url(#clip290)" style="stroke:#000000; stroke-linecap:round; stroke-linejoin:round; stroke-width:4; stroke-opacity:1; fill:none" points="
  1418.79,1800.78 1418.79,1781.88 
  "/>
<polyline clip-path="url(#clip290)" style="stroke:#000000; stroke-linecap:round; stroke-linejoin:round; stroke-width:4; stroke-opacity:1; fill:none" points="
  1879.91,1800.78 1879.91,1781.88 
  "/>
<polyline clip-path="url(#clip290)" style="stroke:#000000; stroke-linecap:round; stroke-linejoin:round; stroke-width:4; stroke-opacity:1; fill:none" points="
  2341.03,1800.78 2341.03,1781.88 
  "/>
<path clip-path="url(#clip290)" d="M465.445 1848.65 L495.121 1848.65 L495.121 1852.59 L465.445 1852.59 L465.445 1848.65 Z" fill="#000000" fill-rule="evenodd" fill-opacity="1" /><path clip-path="url(#clip290)" d="M518.061 1835 L506.255 1853.45 L518.061 1853.45 L518.061 1835 M516.834 1830.92 L522.713 1830.92 L522.713 1853.45 L527.644 1853.45 L527.644 1857.34 L522.713 1857.34 L522.713 1865.48 L518.061 1865.48 L518.061 1857.34 L502.459 1857.34 L502.459 1852.82 L516.834 1830.92 Z" fill="#000000" fill-rule="evenodd" fill-opacity="1" /><path clip-path="url(#clip290)" d="M927.608 1848.65 L957.283 1848.65 L957.283 1852.59 L927.608 1852.59 L927.608 1848.65 Z" fill="#000000" fill-rule="evenodd" fill-opacity="1" /><path clip-path="url(#clip290)" d="M971.404 1861.55 L987.723 1861.55 L987.723 1865.48 L965.779 1865.48 L965.779 1861.55 Q968.441 1858.79 973.024 1854.16 Q977.63 1849.51 978.811 1848.17 Q981.056 1845.65 981.936 1843.91 Q982.839 1842.15 982.839 1840.46 Q982.839 1837.71 980.894 1835.97 Q978.973 1834.23 975.871 1834.23 Q973.672 1834.23 971.218 1835 Q968.788 1835.76 966.01 1837.31 L966.01 1832.59 Q968.834 1831.46 971.288 1830.88 Q973.742 1830.3 975.779 1830.3 Q981.149 1830.3 984.343 1832.98 Q987.538 1835.67 987.538 1840.16 Q987.538 1842.29 986.728 1844.21 Q985.941 1846.11 983.834 1848.7 Q983.255 1849.37 980.154 1852.59 Q977.052 1855.78 971.404 1861.55 Z" fill="#000000" fill-rule="evenodd" fill-opacity="1" /><path clip-path="url(#clip290)" d="M1418.79 1834 Q1415.17 1834 1413.35 1837.57 Q1411.54 1841.11 1411.54 1848.24 Q1411.54 1855.34 1413.35 1858.91 Q1415.17 1862.45 1418.79 1862.45 Q1422.42 1862.45 1424.23 1858.91 Q1426.05 1855.34 1426.05 1848.24 Q1426.05 1841.11 1424.23 1837.57 Q1422.42 1834 1418.79 1834 M1418.79 1830.3 Q1424.6 1830.3 1427.65 1834.9 Q1430.73 1839.49 1430.73 1848.24 Q1430.73 1856.96 1427.65 1861.57 Q1424.6 1866.15 1418.79 1866.15 Q1412.98 1866.15 1409.9 1861.57 Q1406.84 1856.96 1406.84 1848.24 Q1406.84 1839.49 1409.9 1834.9 Q1412.98 1830.3 1418.79 1830.3 Z" fill="#000000" fill-rule="evenodd" fill-opacity="1" /><path clip-path="url(#clip290)" d="M1874.56 1861.55 L1890.88 1861.55 L1890.88 1865.48 L1868.93 1865.48 L1868.93 1861.55 Q1871.6 1858.79 1876.18 1854.16 Q1880.79 1849.51 1881.97 1848.17 Q1884.21 1845.65 1885.09 1843.91 Q1885.99 1842.15 1885.99 1840.46 Q1885.99 1837.71 1884.05 1835.97 Q1882.13 1834.23 1879.03 1834.23 Q1876.83 1834.23 1874.37 1835 Q1871.94 1835.76 1869.17 1837.31 L1869.17 1832.59 Q1871.99 1831.46 1874.44 1830.88 Q1876.9 1830.3 1878.93 1830.3 Q1884.3 1830.3 1887.5 1832.98 Q1890.69 1835.67 1890.69 1840.16 Q1890.69 1842.29 1889.88 1844.21 Q1889.1 1846.11 1886.99 1848.7 Q1886.41 1849.37 1883.31 1852.59 Q1880.21 1855.78 1874.56 1861.55 Z" fill="#000000" fill-rule="evenodd" fill-opacity="1" /><path clip-path="url(#clip290)" d="M2344.04 1835 L2332.23 1853.45 L2344.04 1853.45 L2344.04 1835 M2342.81 1830.92 L2348.69 1830.92 L2348.69 1853.45 L2353.62 1853.45 L2353.62 1857.34 L2348.69 1857.34 L2348.69 1865.48 L2344.04 1865.48 L2344.04 1857.34 L2328.43 1857.34 L2328.43 1852.82 L2342.81 1830.92 Z" fill="#000000" fill-rule="evenodd" fill-opacity="1" /><polyline clip-path="url(#clip292)" style="stroke:#000000; stroke-linecap:round; stroke-linejoin:round; stroke-width:2; stroke-opacity:0.1; fill:none" points="
  196.816,1751.15 2640.76,1751.15 
  "/>
<polyline clip-path="url(#clip292)" style="stroke:#000000; stroke-linecap:round; stroke-linejoin:round; stroke-width:2; stroke-opacity:0.1; fill:none" points="
  196.816,1337.53 2640.76,1337.53 
  "/>
<polyline clip-path="url(#clip292)" style="stroke:#000000; stroke-linecap:round; stroke-linejoin:round; stroke-width:2; stroke-opacity:0.1; fill:none" points="
  196.816,923.914 2640.76,923.914 
  "/>
<polyline clip-path="url(#clip292)" style="stroke:#000000; stroke-linecap:round; stroke-linejoin:round; stroke-width:2; stroke-opacity:0.1; fill:none" points="
  196.816,510.296 2640.76,510.296 
  "/>
<polyline clip-path="url(#clip292)" style="stroke:#000000; stroke-linecap:round; stroke-linejoin:round; stroke-width:2; stroke-opacity:0.1; fill:none" points="
  196.816,96.6771 2640.76,96.6771 
  "/>
<polyline clip-path="url(#clip290)" style="stroke:#000000; stroke-linecap:round; stroke-linejoin:round; stroke-width:4; stroke-opacity:1; fill:none" points="
  196.816,1800.78 196.816,47.2441 
  "/>
<polyline clip-path="url(#clip290)" style="stroke:#000000; stroke-linecap:round; stroke-linejoin:round; stroke-width:4; stroke-opacity:1; fill:none" points="
  196.816,1751.15 215.714,1751.15 
  "/>
<polyline clip-path="url(#clip290)" style="stroke:#000000; stroke-linecap:round; stroke-linejoin:round; stroke-width:4; stroke-opacity:1; fill:none" points="
  196.816,1337.53 215.714,1337.53 
  "/>
<polyline clip-path="url(#clip290)" style="stroke:#000000; stroke-linecap:round; stroke-linejoin:round; stroke-width:4; stroke-opacity:1; fill:none" points="
  196.816,923.914 215.714,923.914 
  "/>
<polyline clip-path="url(#clip290)" style="stroke:#000000; stroke-linecap:round; stroke-linejoin:round; stroke-width:4; stroke-opacity:1; fill:none" points="
  196.816,510.296 215.714,510.296 
  "/>
<polyline clip-path="url(#clip290)" style="stroke:#000000; stroke-linecap:round; stroke-linejoin:round; stroke-width:4; stroke-opacity:1; fill:none" points="
  196.816,96.6771 215.714,96.6771 
  "/>
<path clip-path="url(#clip290)" d="M49.5521 1751.6 L79.2279 1751.6 L79.2279 1755.54 L49.5521 1755.54 L49.5521 1751.6 Z" fill="#000000" fill-rule="evenodd" fill-opacity="1" /><path clip-path="url(#clip290)" d="M90.1306 1764.5 L97.7695 1764.5 L97.7695 1738.13 L89.4593 1739.8 L89.4593 1735.54 L97.7232 1733.87 L102.399 1733.87 L102.399 1764.5 L110.038 1764.5 L110.038 1768.43 L90.1306 1768.43 L90.1306 1764.5 Z" fill="#000000" fill-rule="evenodd" fill-opacity="1" /><path clip-path="url(#clip290)" d="M119.482 1762.55 L124.367 1762.55 L124.367 1768.43 L119.482 1768.43 L119.482 1762.55 Z" fill="#000000" fill-rule="evenodd" fill-opacity="1" /><path clip-path="url(#clip290)" d="M144.552 1736.95 Q140.941 1736.95 139.112 1740.51 Q137.306 1744.06 137.306 1751.19 Q137.306 1758.29 139.112 1761.86 Q140.941 1765.4 144.552 1765.4 Q148.186 1765.4 149.991 1761.86 Q151.82 1758.29 151.82 1751.19 Q151.82 1744.06 149.991 1740.51 Q148.186 1736.95 144.552 1736.95 M144.552 1733.25 Q150.362 1733.25 153.417 1737.85 Q156.496 1742.44 156.496 1751.19 Q156.496 1759.91 153.417 1764.52 Q150.362 1769.1 144.552 1769.1 Q138.741 1769.1 135.663 1764.52 Q132.607 1759.91 132.607 1751.19 Q132.607 1742.44 135.663 1737.85 Q138.741 1733.25 144.552 1733.25 Z" fill="#000000" fill-rule="evenodd" fill-opacity="1" /><path clip-path="url(#clip290)" d="M50.5475 1337.98 L80.2233 1337.98 L80.2233 1341.92 L50.5475 1341.92 L50.5475 1337.98 Z" fill="#000000" fill-rule="evenodd" fill-opacity="1" /><path clip-path="url(#clip290)" d="M100.316 1323.33 Q96.7047 1323.33 94.876 1326.9 Q93.0704 1330.44 93.0704 1337.57 Q93.0704 1344.67 94.876 1348.24 Q96.7047 1351.78 100.316 1351.78 Q103.95 1351.78 105.756 1348.24 Q107.584 1344.67 107.584 1337.57 Q107.584 1330.44 105.756 1326.9 Q103.95 1323.33 100.316 1323.33 M100.316 1319.63 Q106.126 1319.63 109.181 1324.23 Q112.26 1328.82 112.26 1337.57 Q112.26 1346.29 109.181 1350.9 Q106.126 1355.48 100.316 1355.48 Q94.5056 1355.48 91.4269 1350.9 Q88.3714 1346.29 88.3714 1337.57 Q88.3714 1328.82 91.4269 1324.23 Q94.5056 1319.63 100.316 1319.63 Z" fill="#000000" fill-rule="evenodd" fill-opacity="1" /><path clip-path="url(#clip290)" d="M120.478 1348.93 L125.362 1348.93 L125.362 1354.81 L120.478 1354.81 L120.478 1348.93 Z" fill="#000000" fill-rule="evenodd" fill-opacity="1" /><path clip-path="url(#clip290)" d="M135.593 1320.25 L153.95 1320.25 L153.95 1324.19 L139.876 1324.19 L139.876 1332.66 Q140.894 1332.31 141.913 1332.15 Q142.931 1331.97 143.95 1331.97 Q149.737 1331.97 153.116 1335.14 Q156.496 1338.31 156.496 1343.72 Q156.496 1349.3 153.024 1352.41 Q149.552 1355.48 143.232 1355.48 Q141.056 1355.48 138.788 1355.11 Q136.542 1354.74 134.135 1354 L134.135 1349.3 Q136.218 1350.44 138.441 1350.99 Q140.663 1351.55 143.14 1351.55 Q147.144 1351.55 149.482 1349.44 Q151.82 1347.34 151.82 1343.72 Q151.82 1340.11 149.482 1338.01 Q147.144 1335.9 143.14 1335.9 Q141.265 1335.9 139.39 1336.32 Q137.538 1336.73 135.593 1337.61 L135.593 1320.25 Z" fill="#000000" fill-rule="evenodd" fill-opacity="1" /><path clip-path="url(#clip290)" d="M99.3204 909.713 Q95.7093 909.713 93.8806 913.278 Q92.075 916.819 92.075 923.949 Q92.075 931.055 93.8806 934.62 Q95.7093 938.162 99.3204 938.162 Q102.955 938.162 104.76 934.62 Q106.589 931.055 106.589 923.949 Q106.589 916.819 104.76 913.278 Q102.955 909.713 99.3204 909.713 M99.3204 906.009 Q105.131 906.009 108.186 910.616 Q111.265 915.199 111.265 923.949 Q111.265 932.676 108.186 937.282 Q105.131 941.865 99.3204 941.865 Q93.5102 941.865 90.4315 937.282 Q87.376 932.676 87.376 923.949 Q87.376 915.199 90.4315 910.616 Q93.5102 906.009 99.3204 906.009 Z" fill="#000000" fill-rule="evenodd" fill-opacity="1" /><path clip-path="url(#clip290)" d="M119.482 935.314 L124.367 935.314 L124.367 941.194 L119.482 941.194 L119.482 935.314 Z" fill="#000000" fill-rule="evenodd" fill-opacity="1" /><path clip-path="url(#clip290)" d="M144.552 909.713 Q140.941 909.713 139.112 913.278 Q137.306 916.819 137.306 923.949 Q137.306 931.055 139.112 934.62 Q140.941 938.162 144.552 938.162 Q148.186 938.162 149.991 934.62 Q151.82 931.055 151.82 923.949 Q151.82 916.819 149.991 913.278 Q148.186 909.713 144.552 909.713 M144.552 906.009 Q150.362 906.009 153.417 910.616 Q156.496 915.199 156.496 923.949 Q156.496 932.676 153.417 937.282 Q150.362 941.865 144.552 941.865 Q138.741 941.865 135.663 937.282 Q132.607 932.676 132.607 923.949 Q132.607 915.199 135.663 910.616 Q138.741 906.009 144.552 906.009 Z" fill="#000000" fill-rule="evenodd" fill-opacity="1" /><path clip-path="url(#clip290)" d="M100.316 496.094 Q96.7047 496.094 94.876 499.659 Q93.0704 503.201 93.0704 510.33 Q93.0704 517.437 94.876 521.002 Q96.7047 524.543 100.316 524.543 Q103.95 524.543 105.756 521.002 Q107.584 517.437 107.584 510.33 Q107.584 503.201 105.756 499.659 Q103.95 496.094 100.316 496.094 M100.316 492.391 Q106.126 492.391 109.181 496.997 Q112.26 501.58 112.26 510.33 Q112.26 519.057 109.181 523.664 Q106.126 528.247 100.316 528.247 Q94.5056 528.247 91.4269 523.664 Q88.3714 519.057 88.3714 510.33 Q88.3714 501.58 91.4269 496.997 Q94.5056 492.391 100.316 492.391 Z" fill="#000000" fill-rule="evenodd" fill-opacity="1" /><path clip-path="url(#clip290)" d="M120.478 521.696 L125.362 521.696 L125.362 527.576 L120.478 527.576 L120.478 521.696 Z" fill="#000000" fill-rule="evenodd" fill-opacity="1" /><path clip-path="url(#clip290)" d="M135.593 493.016 L153.95 493.016 L153.95 496.951 L139.876 496.951 L139.876 505.423 Q140.894 505.076 141.913 504.914 Q142.931 504.728 143.95 504.728 Q149.737 504.728 153.116 507.9 Q156.496 511.071 156.496 516.488 Q156.496 522.066 153.024 525.168 Q149.552 528.247 143.232 528.247 Q141.056 528.247 138.788 527.877 Q136.542 527.506 134.135 526.765 L134.135 522.066 Q136.218 523.201 138.441 523.756 Q140.663 524.312 143.14 524.312 Q147.144 524.312 149.482 522.205 Q151.82 520.099 151.82 516.488 Q151.82 512.877 149.482 510.77 Q147.144 508.664 143.14 508.664 Q141.265 508.664 139.39 509.08 Q137.538 509.497 135.593 510.377 L135.593 493.016 Z" fill="#000000" fill-rule="evenodd" fill-opacity="1" /><path clip-path="url(#clip290)" d="M90.1306 110.022 L97.7695 110.022 L97.7695 83.6564 L89.4593 85.323 L89.4593 81.0638 L97.7232 79.3971 L102.399 79.3971 L102.399 110.022 L110.038 110.022 L110.038 113.957 L90.1306 113.957 L90.1306 110.022 Z" fill="#000000" fill-rule="evenodd" fill-opacity="1" /><path clip-path="url(#clip290)" d="M119.482 108.078 L124.367 108.078 L124.367 113.957 L119.482 113.957 L119.482 108.078 Z" fill="#000000" fill-rule="evenodd" fill-opacity="1" /><path clip-path="url(#clip290)" d="M144.552 82.4758 Q140.941 82.4758 139.112 86.0406 Q137.306 89.5823 137.306 96.7119 Q137.306 103.818 139.112 107.383 Q140.941 110.925 144.552 110.925 Q148.186 110.925 149.991 107.383 Q151.82 103.818 151.82 96.7119 Q151.82 89.5823 149.991 86.0406 Q148.186 82.4758 144.552 82.4758 M144.552 78.7721 Q150.362 78.7721 153.417 83.3786 Q156.496 87.9619 156.496 96.7119 Q156.496 105.439 153.417 110.045 Q150.362 114.628 144.552 114.628 Q138.741 114.628 135.663 110.045 Q132.607 105.439 132.607 96.7119 Q132.607 87.9619 135.663 83.3786 Q138.741 78.7721 144.552 78.7721 Z" fill="#000000" fill-rule="evenodd" fill-opacity="1" /><polyline clip-path="url(#clip292)" style="stroke:#009af9; stroke-linecap:round; stroke-linejoin:round; stroke-width:4; stroke-opacity:1; fill:none" points="
  265.984,689.258 269.737,702.2 273.489,715.201 277.242,728.257 280.995,741.364 315.694,864.399 350.393,988.778 385.092,1111.69 419.791,1230.36 440.643,1298.51 
  461.496,1363.59 482.349,1425.09 503.201,1482.48 520.832,1527.46 538.463,1568.92 556.093,1606.6 573.724,1640.3 583.3,1656.85 592.876,1672.15 602.452,1686.15 
  612.028,1698.84 621.604,1710.19 631.179,1720.19 640.755,1728.81 650.331,1736.05 659.159,1741.47 667.988,1745.7 676.816,1748.73 685.644,1750.55 694.472,1751.15 
  703.3,1750.54 712.128,1748.72 720.956,1745.69 730.421,1741.11 739.886,1735.15 749.351,1727.82 758.815,1719.13 768.28,1709.11 777.745,1697.76 787.209,1685.11 
  796.674,1671.18 807.64,1653.46 818.606,1634.1 829.571,1613.13 840.537,1590.6 851.503,1566.56 862.469,1541.07 873.435,1514.18 884.4,1485.96 903.891,1432.7 
  923.381,1375.81 942.871,1315.69 962.361,1252.78 996.543,1137.04 1030.73,1016.64 1067.99,883.132 1105.26,750.692 1124.01,685.573 1142.75,622.028 1161.5,560.478 
  1180.24,501.328 1200.96,439.196 1221.69,380.978 1232.05,353.484 1242.41,327.143 1252.78,302.007 1263.14,278.127 1273,256.616 1282.86,236.325 1292.72,217.291 
  1302.58,199.549 1312.44,183.132 1322.3,168.069 1332.16,154.388 1342.01,142.114 1352.27,130.869 1362.52,121.19 1372.77,113.099 1383.02,106.61 1393.27,101.737 
  1403.52,98.4888 1413.78,96.8724 1424.03,96.8909 1432.66,98.1738 1441.29,100.613 1449.92,104.206 1458.55,108.947 1475.81,121.846 1493.06,139.237 1503.6,152.021 
  1514.14,166.416 1524.67,182.393 1535.21,199.918 1545.74,218.955 1556.28,239.463 1566.82,261.401 1577.35,284.721 1596.65,330.873 1615.96,381.179 1635.26,435.287 
  1654.56,492.818 1672.39,548.645 1690.22,606.714 1708.05,666.679 1725.87,728.181 1761.99,855.972 1798.11,985.428 1818.35,1057.51 1838.59,1128.57 1858.83,1198.05 
  1879.07,1265.42 1897.41,1324.21 1915.75,1380.47 1934.09,1433.84 1952.43,1483.99 1962.92,1511.12 1973.42,1537.04 1983.92,1561.68 1994.42,1585 2004.92,1606.95 
  2015.42,1627.49 2025.92,1646.56 2036.42,1664.14 2046.14,1679.05 2055.86,1692.62 2065.58,1704.82 2075.3,1715.63 2085.02,1725.03 2094.74,1733.01 2104.46,1739.56 
  2114.19,1744.65 2123.77,1748.24 2133.35,1750.41 2142.94,1751.15 2152.52,1750.46 2162.1,1748.35 2171.69,1744.81 2181.27,1739.85 2190.86,1733.48 2200.16,1725.96 
  2209.47,1717.13 2218.77,1707.01 2228.08,1695.61 2237.38,1682.96 2246.69,1669.07 2255.99,1653.97 2265.3,1637.68 2274.84,1619.78 2284.37,1600.68 2293.91,1580.42 
  2303.45,1559.05 2322.53,1513.06 2341.61,1463.05 2362.51,1404.04 2383.41,1341.08 2393.86,1308.28 2404.31,1274.69 2414.77,1240.38 2425.22,1205.42 2455.58,1100.84 
  2485.94,993.196 2516.31,884.349 2546.67,776.188 2552.9,754.254 2559.13,732.444 2565.36,710.773 2571.59,689.258 
  "/>
<path clip-path="url(#clip290)" d="
M2235.31 209.375 L2559.29 209.375 L2559.29 105.695 L2235.31 105.695  Z
  " fill="#ffffff" fill-rule="evenodd" fill-opacity="1"/>
<polyline clip-path="url(#clip290)" style="stroke:#000000; stroke-linecap:round; stroke-linejoin:round; stroke-width:4; stroke-opacity:1; fill:none" points="
  2235.31,209.375 2559.29,209.375 2559.29,105.695 2235.31,105.695 2235.31,209.375 
  "/>
<polyline clip-path="url(#clip290)" style="stroke:#009af9; stroke-linecap:round; stroke-linejoin:round; stroke-width:4; stroke-opacity:1; fill:none" points="
  2262.47,157.535 2425.4,157.535 
  "/>
<path clip-path="url(#clip290)" d="M2466.39 177.223 Q2464.59 181.852 2462.88 183.264 Q2461.16 184.676 2458.29 184.676 L2454.89 184.676 L2454.89 181.112 L2457.39 181.112 Q2459.15 181.112 2460.12 180.278 Q2461.09 179.445 2462.27 176.343 L2463.04 174.399 L2452.55 148.889 L2457.07 148.889 L2465.17 169.167 L2473.27 148.889 L2477.78 148.889 L2466.39 177.223 Z" fill="#000000" fill-rule="evenodd" fill-opacity="1" /><path clip-path="url(#clip290)" d="M2485.07 170.88 L2492.71 170.88 L2492.71 144.515 L2484.4 146.181 L2484.4 141.922 L2492.67 140.255 L2497.34 140.255 L2497.34 170.88 L2504.98 170.88 L2504.98 174.815 L2485.07 174.815 L2485.07 170.88 Z" fill="#000000" fill-rule="evenodd" fill-opacity="1" /></svg>
