<?xml version="1.0" encoding="utf-8"?>
<svg xmlns="http://www.w3.org/2000/svg" xmlns:xlink="http://www.w3.org/1999/xlink" width="672" height="480" viewBox="0 0 2688 1920">
<defs>
  <clipPath id="clip320">
    <rect x="0" y="0" width="2688" height="1920"/>
  </clipPath>
</defs>
<path clip-path="url(#clip320)" d="
M0 1920 L2688 1920 L2688 0 L0 0  Z
  " fill="#ffffff" fill-rule="evenodd" fill-opacity="1"/>
<defs>
  <clipPath id="clip321">
    <rect x="537" y="0" width="1883" height="1883"/>
  </clipPath>
</defs>
<path clip-path="url(#clip320)" d="
M196.816 1800.78 L2640.76 1800.78 L2640.76 47.2441 L196.816 47.2441  Z
  " fill="#ffffff" fill-rule="evenodd" fill-opacity="1"/>
<defs>
  <clipPath id="clip322">
    <rect x="196" y="47" width="2445" height="1755"/>
  </clipPath>
</defs>
<polyline clip-path="url(#clip322)" style="stroke:#000000; stroke-linecap:round; stroke-linejoin:round; stroke-width:2; stroke-opacity:0.1; fill:none" points="
  496.544,1800.78 496.544,47.2441 
  "/>
<polyline clip-path="url(#clip322)" style="stroke:#000000; stroke-linecap:round; stroke-linejoin:round; stroke-width:2; stroke-opacity:0.1; fill:none" points="
  957.665,1800.78 957.665,47.2441 
  "/>
<polyline clip-path="url(#clip322)" style="stroke:#000000; stroke-linecap:round; stroke-linejoin:round; stroke-width:2; stroke-opacity:0.1; fill:none" points="
  1418.79,1800.78 1418.79,47.2441 
  "/>
<polyline clip-path="url(#clip322)" style="stroke:#000000; stroke-linecap:round; stroke-linejoin:round; stroke-width:2; stroke-opacity:0.1; fill:none" points="
  1879.91,1800.78 1879.91,47.2441 
  "/>
<polyline clip-path="url(#clip322)" style="stroke:#000000; stroke-linecap:round; stroke-linejoin:round; stroke-width:2; stroke-opacity:0.1; fill:none" points="
  2341.03,1800.78 2341.03,47.2441 
  "/>
<polyline clip-path="url(#clip320)" style="stroke:#000000; stroke-linecap:round; stroke-linejoin:round; stroke-width:4; stroke-opacity:1; fill:none" points="
  196.816,1800.78 2640.76,1800.78 
  "/>
<polyline clip-path="url(#clip320)" style="stroke:#000000; stroke-linecap:round; stroke-linejoin:round; stroke-width:4; stroke-opacity:1; fill:none" points="
  496.544,1800.78 496.544,1781.88 
  "/>
<polyline clip-path="url(#clip320)" style="stroke:#000000; stroke-linecap:round; stroke-linejoin:round; stroke-width:4; stroke-opacity:1; fill:none" points="
  957.665,1800.78 957.665,1781.88 
  "/>
<polyline clip-path="url(#clip320)" style="stroke:#000000; stroke-linecap:round; stroke-linejoin:round; stroke-width:4; stroke-opacity:1; fill:none" points="
  1418.79,1800.78 1418.79,1781.88 
  "/>
<polyline clip-path="url(#clip320)" style="stroke:#000000; stroke-linecap:round; stroke-linejoin:round; stroke-width:4; stroke-opacity:1; fill:none" points="
  1879.91,1800.78 1879.91,1781.88 
  "/>
<polyline clip-path="url(#clip320)" style="stroke:#000000; stroke-linecap:round; stroke-linejoin:round; stroke-width:4; stroke-opacity:1; fill:none" points="
  2341.03,1800.78 2341.03,1781.88 
  "/>
<path clip-path="url(#clip320)" d="M465.445 1848.65 L495.121 1848.65 L495.121 1852.59 L465.445 1852.59 L465.445 1848.65 Z" fill="#000000" fill-rule="evenodd" fill-opacity="1" /><path clip-path="url(#clip320)" d="M518.061 1835 L506.255 1853.45 L518.061 1853.45 L518.061 1835 M516.834 1830.92 L522.713 1830.92 L522.713 1853.45 L527.644 1853.45 L527.644 1857.34 L522.713 1857.34 L522.713 1865.48 L518.061 1865.48 L518.061 1857.34 L502.459 1857.34 L502.459 1852.82 L516.834 1830.92 Z" fill="#000000" fill-rule="evenodd" fill-opacity="1" /><path clip-path="url(#clip320)" d="M927.608 1848.65 L957.283 1848.65 L957.283 1852.59 L927.608 1852.59 L927.608 1848.65 Z" fill="#000000" fill-rule="evenodd" fill-opacity="1" /><path clip-path="url(#clip320)" d="M971.404 1861.55 L987.723 1861.55 L987.723 1865.48 L965.779 1865.48 L965.779 1861.55 Q968.441 1858.79 973.024 1854.16 Q977.63 1849.51 978.811 1848.17 Q981.056 1845.65 981.936 1843.91 Q982.839 1842.15 982.839 1840.46 Q982.839 1837.71 980.894 1835.97 Q978.973 1834.23 975.871 1834.23 Q973.672 1834.23 971.218 1835 Q968.788 1835.76 966.01 1837.31 L966.01 1832.59 Q968.834 1831.46 971.288 1830.88 Q973.742 1830.3 975.779 1830.3 Q981.149 1830.3 984.343 1832.98 Q987.538 1835.67 987.538 1840.16 Q987.538 1842.29 986.728 1844.21 Q985.941 1846.11 983.834 1848.7 Q983.255 1849.37 980.154 1852.59 Q977.052 1855.78 971.404 1861.55 Z" fill="#000000" fill-rule="evenodd" fill-opacity="1" /><path clip-path="url(#clip320)" d="M1418.79 1834 Q1415.17 1834 1413.35 1837.57 Q1411.54 1841.11 1411.54 1848.24 Q1411.54 1855.34 1413.35 1858.91 Q1415.17 1862.45 1418.79 1862.45 Q1422.42 1862.45 1424.23 1858.91 Q1426.05 1855.34 1426.05 1848.24 Q1426.05 1841.11 1424.23 1837.57 Q1422.42 1834 1418.79 1834 M1418.79 1830.3 Q1424.6 1830.3 1427.65 1834.9 Q1430.73 1839.49 1430.73 1848.24 Q1430.73 1856.96 1427.65 1861.57 Q1424.6 1866.15 1418.79 1866.15 Q1412.98 1866.15 1409.9 1861.57 Q1406.84 1856.96 1406.84 1848.24 Q1406.84 1839.49 1409.9 1834.9 Q1412.98 1830.3 1418.79 1830.3 Z" fill="#000000" fill-rule="evenodd" fill-opacity="1" /><path clip-path="url(#clip320)" d="M1874.56 1861.55 L1890.88 1861.55 L1890.88 1865.48 L1868.93 1865.48 L1868.93 1861.55 Q1871.6 1858.79 1876.18 1854.16 Q1880.79 1849.51 1881.97 1848.17 Q1884.21 1845.65 1885.09 1843.91 Q1885.99 1842.15 1885.99 1840.46 Q1885.99 1837.71 1884.05 1835.97 Q1882.13 1834.23 1879.03 1834.23 Q1876.83 1834.23 1874.37 1835 Q1871.94 1835.76 1869.17 1837.31 L1869.17 1832.59 Q1871.99 1831.46 1874.44 1830.88 Q1876.9 1830.3 1878.93 1830.3 Q1884.3 1830.3 1887.5 1832.98 Q1890.69 1835.67 1890.69 1840.16 Q1890.69 1842.29 1889.88 1844.21 Q1889.1 1846.11 1886.99 1848.7 Q1886.41 1849.37 1883.31 1852.59 Q1880.21 1855.78 1874.56 1861.55 Z" fill="#000000" fill-rule="evenodd" fill-opacity="1" /><path clip-path="url(#clip320)" d="M2344.04 1835 L2332.23 1853.45 L2344.04 1853.45 L2344.04 1835 M2342.81 1830.92 L2348.69 1830.92 L2348.69 1853.45 L2353.62 1853.45 L2353.62 1857.34 L2348.69 1857.34 L2348.69 1865.48 L2344.04 1865.48 L2344.04 1857.34 L2328.43 1857.34 L2328.43 1852.82 L2342.81 1830.92 Z" fill="#000000" fill-rule="evenodd" fill-opacity="1" /><polyline clip-path="url(#clip322)" style="stroke:#000000; stroke-linecap:round; stroke-linejoin:round; stroke-width:2; stroke-opacity:0.1; fill:none" points="
  196.816,1751.15 2640.76,1751.15 
  "/>
<polyline clip-path="url(#clip322)" style="stroke:#000000; stroke-linecap:round; stroke-linejoin:round; stroke-width:2; stroke-opacity:0.1; fill:none" points="
  196.816,1337.58 2640.76,1337.58 
  "/>
<polyline clip-path="url(#clip322)" style="stroke:#000000; stroke-linecap:round; stroke-linejoin:round; stroke-width:2; stroke-opacity:0.1; fill:none" points="
  196.816,924.01 2640.76,924.01 
  "/>
<polyline clip-path="url(#clip322)" style="stroke:#000000; stroke-linecap:round; stroke-linejoin:round; stroke-width:2; stroke-opacity:0.1; fill:none" points="
  196.816,510.439 2640.76,510.439 
  "/>
<polyline clip-path="url(#clip322)" style="stroke:#000000; stroke-linecap:round; stroke-linejoin:round; stroke-width:2; stroke-opacity:0.1; fill:none" points="
  196.816,96.8681 2640.76,96.8681 
  "/>
<polyline clip-path="url(#clip320)" style="stroke:#000000; stroke-linecap:round; stroke-linejoin:round; stroke-width:4; stroke-opacity:1; fill:none" points="
  196.816,1800.78 196.816,47.2441 
  "/>
<polyline clip-path="url(#clip320)" style="stroke:#000000; stroke-linecap:round; stroke-linejoin:round; stroke-width:4; stroke-opacity:1; fill:none" points="
  196.816,1751.15 215.714,1751.15 
  "/>
<polyline clip-path="url(#clip320)" style="stroke:#000000; stroke-linecap:round; stroke-linejoin:round; stroke-width:4; stroke-opacity:1; fill:none" points="
  196.816,1337.58 215.714,1337.58 
  "/>
<polyline clip-path="url(#clip320)" style="stroke:#000000; stroke-linecap:round; stroke-linejoin:round; stroke-width:4; stroke-opacity:1; fill:none" points="
  196.816,924.01 215.714,924.01 
  "/>
<polyline clip-path="url(#clip320)" style="stroke:#000000; stroke-linecap:round; stroke-linejoin:round; stroke-width:4; stroke-opacity:1; fill:none" points="
  196.816,510.439 215.714,510.439 
  "/>
<polyline clip-path="url(#clip320)" style="stroke:#000000; stroke-linecap:round; stroke-linejoin:round; stroke-width:4; stroke-opacity:1; fill:none" points="
  196.816,96.8681 215.714,96.8681 
  "/>
<path clip-path="url(#clip320)" d="M49.5521 1751.6 L79.2279 1751.6 L79.2279 1755.54 L49.5521 1755.54 L49.5521 1751.6 Z" fill="#000000" fill-rule="evenodd" fill-opacity="1" /><path clip-path="url(#clip320)" d="M90.1306 1764.5 L97.7695 1764.5 L97.7695 1738.13 L89.4593 1739.8 L89.4593 1735.54 L97.7232 1733.87 L102.399 1733.87 L102.399 1764.5 L110.038 1764.5 L110.038 1768.43 L90.1306 1768.43 L90.1306 1764.5 Z" fill="#000000" fill-rule="evenodd" fill-opacity="1" /><path clip-path="url(#clip320)" d="M119.482 1762.55 L124.367 1762.55 L124.367 1768.43 L119.482 1768.43 L119.482 1762.55 Z" fill="#000000" fill-rule="evenodd" fill-opacity="1" /><path clip-path="url(#clip320)" d="M144.552 1736.95 Q140.941 1736.95 139.112 1740.51 Q137.306 1744.06 137.306 1751.19 Q137.306 1758.29 139.112 1761.86 Q140.941 1765.4 144.552 1765.4 Q148.186 1765.4 149.991 1761.86 Q151.82 1758.29 151.82 1751.19 Q151.82 1744.06 149.991 1740.51 Q148.186 1736.95 144.552 1736.95 M144.552 1733.25 Q150.362 1733.25 153.417 1737.85 Q156.496 1742.44 156.496 1751.19 Q156.496 1759.91 153.417 1764.52 Q150.362 1769.1 144.552 1769.1 Q138.741 1769.1 135.663 1764.52 Q132.607 1759.91 132.607 1751.19 Q132.607 1742.44 135.663 1737.85 Q138.741 1733.25 144.552 1733.25 Z" fill="#000000" fill-rule="evenodd" fill-opacity="1" /><path clip-path="url(#clip320)" d="M50.5475 1338.03 L80.2233 1338.03 L80.2233 1341.97 L50.5475 1341.97 L50.5475 1338.03 Z" fill="#000000" fill-rule="evenodd" fill-opacity="1" /><path clip-path="url(#clip320)" d="M100.316 1323.38 Q96.7047 1323.38 94.876 1326.94 Q93.0704 1330.49 93.0704 1337.61 Q93.0704 1344.72 94.876 1348.29 Q96.7047 1351.83 100.316 1351.83 Q103.95 1351.83 105.756 1348.29 Q107.584 1344.72 107.584 1337.61 Q107.584 1330.49 105.756 1326.94 Q103.95 1323.38 100.316 1323.38 M100.316 1319.68 Q106.126 1319.68 109.181 1324.28 Q112.26 1328.87 112.26 1337.61 Q112.26 1346.34 109.181 1350.95 Q106.126 1355.53 100.316 1355.53 Q94.5056 1355.53 91.4269 1350.95 Q88.3714 1346.34 88.3714 1337.61 Q88.3714 1328.87 91.4269 1324.28 Q94.5056 1319.68 100.316 1319.68 Z" fill="#000000" fill-rule="evenodd" fill-opacity="1" /><path clip-path="url(#clip320)" d="M120.478 1348.98 L125.362 1348.98 L125.362 1354.86 L120.478 1354.86 L120.478 1348.98 Z" fill="#000000" fill-rule="evenodd" fill-opacity="1" /><path clip-path="url(#clip320)" d="M135.593 1320.3 L153.95 1320.3 L153.95 1324.24 L139.876 1324.24 L139.876 1332.71 Q140.894 1332.36 141.913 1332.2 Q142.931 1332.01 143.95 1332.01 Q149.737 1332.01 153.116 1335.18 Q156.496 1338.36 156.496 1343.77 Q156.496 1349.35 153.024 1352.45 Q149.552 1355.53 143.232 1355.53 Q141.056 1355.53 138.788 1355.16 Q136.542 1354.79 134.135 1354.05 L134.135 1349.35 Q136.218 1350.49 138.441 1351.04 Q140.663 1351.6 143.14 1351.6 Q147.144 1351.6 149.482 1349.49 Q151.82 1347.38 151.82 1343.77 Q151.82 1340.16 149.482 1338.05 Q147.144 1335.95 143.14 1335.95 Q141.265 1335.95 139.39 1336.36 Q137.538 1336.78 135.593 1337.66 L135.593 1320.3 Z" fill="#000000" fill-rule="evenodd" fill-opacity="1" /><path clip-path="url(#clip320)" d="M99.3204 909.808 Q95.7093 909.808 93.8806 913.373 Q92.075 916.915 92.075 924.044 Q92.075 931.151 93.8806 934.715 Q95.7093 938.257 99.3204 938.257 Q102.955 938.257 104.76 934.715 Q106.589 931.151 106.589 924.044 Q106.589 916.915 104.76 913.373 Q102.955 909.808 99.3204 909.808 M99.3204 906.105 Q105.131 906.105 108.186 910.711 Q111.265 915.294 111.265 924.044 Q111.265 932.771 108.186 937.378 Q105.131 941.961 99.3204 941.961 Q93.5102 941.961 90.4315 937.378 Q87.376 932.771 87.376 924.044 Q87.376 915.294 90.4315 910.711 Q93.5102 906.105 99.3204 906.105 Z" fill="#000000" fill-rule="evenodd" fill-opacity="1" /><path clip-path="url(#clip320)" d="M119.482 935.41 L124.367 935.41 L124.367 941.29 L119.482 941.29 L119.482 935.41 Z" fill="#000000" fill-rule="evenodd" fill-opacity="1" /><path clip-path="url(#clip320)" d="M144.552 909.808 Q140.941 909.808 139.112 913.373 Q137.306 916.915 137.306 924.044 Q137.306 931.151 139.112 934.715 Q140.941 938.257 144.552 938.257 Q148.186 938.257 149.991 934.715 Q151.82 931.151 151.82 924.044 Q151.82 916.915 149.991 913.373 Q148.186 909.808 144.552 909.808 M144.552 906.105 Q150.362 906.105 153.417 910.711 Q156.496 915.294 156.496 924.044 Q156.496 932.771 153.417 937.378 Q150.362 941.961 144.552 941.961 Q138.741 941.961 135.663 937.378 Q132.607 932.771 132.607 924.044 Q132.607 915.294 135.663 910.711 Q138.741 906.105 144.552 906.105 Z" fill="#000000" fill-rule="evenodd" fill-opacity="1" /><path clip-path="url(#clip320)" d="M100.316 496.238 Q96.7047 496.238 94.876 499.802 Q93.0704 503.344 93.0704 510.474 Q93.0704 517.58 94.876 521.145 Q96.7047 524.686 100.316 524.686 Q103.95 524.686 105.756 521.145 Q107.584 517.58 107.584 510.474 Q107.584 503.344 105.756 499.802 Q103.95 496.238 100.316 496.238 M100.316 492.534 Q106.126 492.534 109.181 497.14 Q112.26 501.724 112.26 510.474 Q112.26 519.2 109.181 523.807 Q106.126 528.39 100.316 528.39 Q94.5056 528.39 91.4269 523.807 Q88.3714 519.2 88.3714 510.474 Q88.3714 501.724 91.4269 497.14 Q94.5056 492.534 100.316 492.534 Z" fill="#000000" fill-rule="evenodd" fill-opacity="1" /><path clip-path="url(#clip320)" d="M120.478 521.839 L125.362 521.839 L125.362 527.719 L120.478 527.719 L120.478 521.839 Z" fill="#000000" fill-rule="evenodd" fill-opacity="1" /><path clip-path="url(#clip320)" d="M135.593 493.159 L153.95 493.159 L153.95 497.094 L139.876 497.094 L139.876 505.566 Q140.894 505.219 141.913 505.057 Q142.931 504.872 143.95 504.872 Q149.737 504.872 153.116 508.043 Q156.496 511.214 156.496 516.631 Q156.496 522.21 153.024 525.311 Q149.552 528.39 143.232 528.39 Q141.056 528.39 138.788 528.02 Q136.542 527.649 134.135 526.909 L134.135 522.21 Q136.218 523.344 138.441 523.899 Q140.663 524.455 143.14 524.455 Q147.144 524.455 149.482 522.348 Q151.82 520.242 151.82 516.631 Q151.82 513.02 149.482 510.913 Q147.144 508.807 143.14 508.807 Q141.265 508.807 139.39 509.224 Q137.538 509.64 135.593 510.52 L135.593 493.159 Z" fill="#000000" fill-rule="evenodd" fill-opacity="1" /><path clip-path="url(#clip320)" d="M90.1306 110.213 L97.7695 110.213 L97.7695 83.8473 L89.4593 85.514 L89.4593 81.2548 L97.7232 79.5881 L102.399 79.5881 L102.399 110.213 L110.038 110.213 L110.038 114.148 L90.1306 114.148 L90.1306 110.213 Z" fill="#000000" fill-rule="evenodd" fill-opacity="1" /><path clip-path="url(#clip320)" d="M119.482 108.269 L124.367 108.269 L124.367 114.148 L119.482 114.148 L119.482 108.269 Z" fill="#000000" fill-rule="evenodd" fill-opacity="1" /><path clip-path="url(#clip320)" d="M144.552 82.6668 Q140.941 82.6668 139.112 86.2316 Q137.306 89.7732 137.306 96.9028 Q137.306 104.009 139.112 107.574 Q140.941 111.116 144.552 111.116 Q148.186 111.116 149.991 107.574 Q151.82 104.009 151.82 96.9028 Q151.82 89.7732 149.991 86.2316 Q148.186 82.6668 144.552 82.6668 M144.552 78.9631 Q150.362 78.9631 153.417 83.5696 Q156.496 88.1529 156.496 96.9028 Q156.496 105.63 153.417 110.236 Q150.362 114.819 144.552 114.819 Q138.741 114.819 135.663 110.236 Q132.607 105.63 132.607 96.9028 Q132.607 88.1529 135.663 83.5696 Q138.741 78.9631 144.552 78.9631 Z" fill="#000000" fill-rule="evenodd" fill-opacity="1" /><polyline clip-path="url(#clip322)" style="stroke:#009af9; stroke-linecap:round; stroke-linejoin:round; stroke-width:4; stroke-opacity:1; fill:none" points="
  265.984,130.844 269.737,127.13 273.489,123.627 277.242,120.337 280.995,117.259 298.344,105.82 315.694,99.0115 324.369,97.357 333.043,96.8724 341.718,97.5587 
  350.393,99.4148 359.068,102.438 367.742,106.624 376.417,111.967 385.092,118.46 402.441,134.854 419.791,155.716 430.217,170.353 440.643,186.531 451.07,204.217 
  461.496,223.375 471.922,243.965 482.349,265.946 492.775,289.272 503.201,313.896 520.832,358.345 538.463,406.1 556.093,456.883 573.724,510.395 592.876,571.253 
  612.028,634.544 631.179,699.831 650.331,766.664 685.644,892.392 720.956,1018.86 739.886,1085.93 758.815,1151.9 777.745,1216.34 796.674,1278.81 818.606,1348.18 
  840.537,1413.7 851.503,1444.84 862.469,1474.8 873.435,1503.52 884.4,1530.92 894.145,1554.13 903.891,1576.21 913.636,1597.12 923.381,1616.83 933.126,1635.3 
  942.871,1652.51 952.616,1668.41 962.361,1682.98 979.452,1705.25 996.543,1723.23 1013.63,1736.82 1030.73,1745.94 1040.04,1749.01 1049.36,1750.74 1058.68,1751.12 
  1067.99,1750.15 1077.31,1747.82 1086.63,1744.16 1095.94,1739.15 1105.26,1732.81 1114.63,1725.11 1124.01,1716.08 1133.38,1705.74 1142.75,1694.11 1161.5,1667.05 
  1180.24,1635.08 1190.6,1615.38 1200.96,1594.28 1211.33,1571.83 1221.69,1548.07 1232.05,1523.05 1242.41,1496.82 1252.78,1469.43 1263.14,1440.94 1282.86,1383.89 
  1302.58,1323.48 1322.3,1260.15 1342.01,1194.37 1383.02,1051.8 1424.03,905.208 1458.55,782.076 1493.06,662.119 1514.14,591.606 1535.21,523.868 1556.28,459.469 
  1577.35,398.948 1587,372.661 1596.65,347.341 1606.31,323.031 1615.96,299.774 1635.26,256.58 1654.56,218.062 1663.48,201.928 1672.39,186.874 1681.3,172.922 
  1690.22,160.092 1699.13,148.404 1708.05,137.875 1716.96,128.52 1725.87,120.355 1734.9,113.309 1743.93,107.506 1752.96,102.954 1761.99,99.6626 1771.02,97.6348 
  1780.05,96.8744 1789.08,97.3824 1798.11,99.1581 1808.23,102.651 1818.35,107.726 1828.47,114.374 1838.59,122.581 1848.71,132.331 1858.83,143.606 1868.95,156.385 
  1879.07,170.642 1897.41,200.157 1915.75,234.25 1924.92,252.947 1934.09,272.706 1943.26,293.494 1952.43,315.28 1962.92,341.403 1973.42,368.734 1983.92,397.216 
  1994.42,426.79 2015.42,488.968 2036.42,554.752 2055.86,618.403 2075.3,684.226 2094.74,751.753 2114.19,820.504 2152.52,957.752 2190.86,1094.07 2209.47,1158.78 
  2228.08,1221.97 2246.69,1283.21 2265.3,1342.12 2284.37,1399.67 2303.45,1453.98 2322.53,1504.65 2341.61,1551.35 2352.06,1575.14 2362.51,1597.58 2372.96,1618.64 
  2383.41,1638.28 2393.86,1656.44 2404.31,1673.11 2414.77,1688.23 2425.22,1701.78 2440.4,1718.62 2455.58,1732.01 2470.76,1741.9 2485.94,1748.24 2501.13,1751.02 
  2516.31,1750.2 2531.49,1745.81 2546.67,1737.86 2552.9,1733.57 2559.13,1728.69 2565.36,1723.22 2571.59,1717.18 
  "/>
<polyline clip-path="url(#clip322)" style="stroke:#e26f46; stroke-linecap:round; stroke-linejoin:round; stroke-width:4; stroke-opacity:1; fill:none" points="
  265.984,689.381 269.737,702.321 273.489,715.32 277.242,728.375 280.995,741.481 315.694,864.501 350.393,988.866 385.092,1111.77 419.791,1230.42 440.643,1298.56 
  461.496,1363.64 482.349,1425.12 503.201,1482.51 520.832,1527.49 538.463,1568.94 556.093,1606.62 573.724,1640.31 583.3,1656.87 592.876,1672.16 602.452,1686.16 
  612.028,1698.85 621.604,1710.2 631.179,1720.19 640.755,1728.81 650.331,1736.05 659.159,1741.48 667.988,1745.71 676.816,1748.73 685.644,1750.55 694.472,1751.15 
  703.3,1750.54 712.128,1748.72 720.956,1745.69 730.421,1741.11 739.886,1735.15 749.351,1727.82 758.815,1719.14 768.28,1709.11 777.745,1697.77 787.209,1685.12 
  796.674,1671.19 807.64,1653.48 818.606,1634.11 829.571,1613.14 840.537,1590.61 851.503,1566.58 862.469,1541.09 873.435,1514.21 884.4,1485.99 903.891,1432.74 
  923.381,1375.85 942.871,1315.74 962.361,1252.83 996.543,1137.11 1030.73,1016.72 1067.99,883.232 1105.26,750.808 1124.01,685.696 1142.75,622.159 1161.5,560.615 
  1180.24,501.473 1200.96,439.348 1221.69,381.136 1232.05,353.646 1242.41,327.307 1252.78,302.174 1263.14,278.297 1273,256.788 1282.86,236.5 1292.72,217.468 
  1302.58,199.728 1312.44,183.313 1322.3,168.252 1332.16,154.573 1342.01,142.3 1352.27,131.056 1362.52,121.378 1372.77,113.288 1383.02,106.8 1393.27,101.927 
  1403.52,98.6796 1413.78,97.0634 1424.03,97.0818 1432.66,98.3646 1441.29,100.804 1449.92,104.396 1458.55,109.137 1475.81,122.034 1493.06,139.423 1503.6,152.205 
  1514.14,166.599 1524.67,182.574 1535.21,200.097 1545.74,219.131 1556.28,239.638 1566.82,261.572 1577.35,284.89 1596.65,331.037 1615.96,381.337 1635.26,435.439 
  1654.56,492.964 1672.39,548.784 1690.22,606.846 1708.05,666.804 1725.87,728.299 1761.99,856.076 1798.11,985.516 1818.35,1057.59 1838.59,1128.64 1858.83,1198.12 
  1879.07,1265.48 1897.41,1324.26 1915.75,1380.51 1934.09,1433.88 1952.43,1484.02 1962.92,1511.15 1973.42,1537.06 1983.92,1561.7 1994.42,1585.02 2004.92,1606.97 
  2015.42,1627.5 2025.92,1646.58 2036.42,1664.15 2046.14,1679.06 2055.86,1692.62 2065.58,1704.82 2075.3,1715.63 2085.02,1725.04 2094.74,1733.02 2104.46,1739.56 
  2114.19,1744.65 2123.77,1748.24 2133.35,1750.41 2142.94,1751.15 2152.52,1750.46 2162.1,1748.35 2171.69,1744.81 2181.27,1739.85 2190.86,1733.48 2200.16,1725.96 
  2209.47,1717.13 2218.77,1707.01 2228.08,1695.62 2237.38,1682.97 2246.69,1669.08 2255.99,1653.98 2265.3,1637.7 2274.84,1619.79 2284.37,1600.7 2293.91,1580.44 
  2303.45,1559.07 2322.53,1513.09 2341.61,1463.09 2362.51,1404.08 2383.41,1341.12 2393.86,1308.33 2404.31,1274.75 2414.77,1240.44 2425.22,1205.49 2455.58,1100.92 
  2485.94,993.283 2516.31,884.449 2546.67,776.3 2552.9,754.369 2559.13,732.561 2565.36,710.893 2571.59,689.381 
  "/>
<path clip-path="url(#clip320)" d="
M2235.31 261.215 L2559.29 261.215 L2559.29 105.695 L2235.31 105.695  Z
  " fill="#ffffff" fill-rule="evenodd" fill-opacity="1"/>
<polyline clip-path="url(#clip320)" style="stroke:#000000; stroke-linecap:round; stroke-linejoin:round; stroke-width:4; stroke-opacity:1; fill:none" points="
  2235.31,261.215 2559.29,261.215 2559.29,105.695 2235.31,105.695 2235.31,261.215 
  "/>
<polyline clip-path="url(#clip320)" style="stroke:#009af9; stroke-linecap:round; stroke-linejoin:round; stroke-width:4; stroke-opacity:1; fill:none" points="
  2262.47,157.535 2425.4,157.535 
  "/>
<path clip-path="url(#clip320)" d="M2466.39 177.223 Q2464.59 181.852 2462.88 183.264 Q2461.16 184.676 2458.29 184.676 L2454.89 184.676 L2454.89 181.112 L2457.39 181.112 Q2459.15 181.112 2460.12 180.278 Q2461.09 179.445 2462.27 176.343 L2463.04 174.399 L2452.55 148.889 L2457.07 148.889 L2465.17 169.167 L2473.27 148.889 L2477.78 148.889 L2466.39 177.223 Z" fill="#000000" fill-rule="evenodd" fill-opacity="1" /><path clip-path="url(#clip320)" d="M2485.07 170.88 L2492.71 170.88 L2492.71 144.515 L2484.4 146.181 L2484.4 141.922 L2492.67 140.255 L2497.34 140.255 L2497.34 170.88 L2504.98 170.88 L2504.98 174.815 L2485.07 174.815 L2485.07 170.88 Z" fill="#000000" fill-rule="evenodd" fill-opacity="1" /><polyline clip-path="url(#clip320)" style="stroke:#e26f46; stroke-linecap:round; stroke-linejoin:round; stroke-width:4; stroke-opacity:1; fill:none" points="
  2262.47,209.375 2425.4,209.375 
  "/>
<path clip-path="url(#clip320)" d="M2466.39 229.063 Q2464.59 233.692 2462.88 235.104 Q2461.16 236.516 2458.29 236.516 L2454.89 236.516 L2454.89 232.952 L2457.39 232.952 Q2459.15 232.952 2460.12 232.118 Q2461.09 231.285 2462.27 228.183 L2463.04 226.239 L2452.55 200.729 L2457.07 200.729 L2465.17 221.007 L2473.27 200.729 L2477.78 200.729 L2466.39 229.063 Z" fill="#000000" fill-rule="evenodd" fill-opacity="1" /><path clip-path="url(#clip320)" d="M2488.29 222.72 L2504.61 222.72 L2504.61 226.655 L2482.67 226.655 L2482.67 222.72 Q2485.33 219.965 2489.91 215.336 Q2494.52 210.683 2495.7 209.341 Q2497.94 206.817 2498.82 205.081 Q2499.73 203.322 2499.73 201.632 Q2499.73 198.878 2497.78 197.142 Q2495.86 195.405 2492.76 195.405 Q2490.56 195.405 2488.11 196.169 Q2485.68 196.933 2482.9 198.484 L2482.9 193.762 Q2485.72 192.628 2488.18 192.049 Q2490.63 191.47 2492.67 191.47 Q2498.04 191.47 2501.23 194.155 Q2504.43 196.841 2504.43 201.331 Q2504.43 203.461 2503.62 205.382 Q2502.83 207.28 2500.72 209.873 Q2500.14 210.544 2497.04 213.762 Q2493.94 216.956 2488.29 222.72 Z" fill="#000000" fill-rule="evenodd" fill-opacity="1" /></svg>
