<?xml version="1.0" encoding="utf-8"?>
<svg xmlns="http://www.w3.org/2000/svg" xmlns:xlink="http://www.w3.org/1999/xlink" width="672" height="480" viewBox="0 0 2688 1920">
<defs>
  <clipPath id="clip310">
    <rect x="0" y="0" width="2688" height="1920"/>
  </clipPath>
</defs>
<path clip-path="url(#clip310)" d="M0 1920 L2688 1920 L2688 0 L0 0  Z" fill="#ffffff" fill-rule="evenodd" fill-opacity="1"/>
<defs>
  <clipPath id="clip311">
    <rect x="537" y="0" width="1883" height="1883"/>
  </clipPath>
</defs>
<path clip-path="url(#clip310)" d="M196.816 1800.78 L2640.76 1800.78 L2640.76 47.2441 L196.816 47.2441  Z" fill="#ffffff" fill-rule="evenodd" fill-opacity="1"/>
<defs>
  <clipPath id="clip312">
    <rect x="196" y="47" width="2445" height="1755"/>
  </clipPath>
</defs>
<polyline clip-path="url(#clip312)" style="stroke:#000000; stroke-linecap:round; stroke-linejoin:round; stroke-width:2; stroke-opacity:0.1; fill:none" points="196.816,1800.78 196.816,47.2441 "/>
<polyline clip-path="url(#clip312)" style="stroke:#000000; stroke-linecap:round; stroke-linejoin:round; stroke-width:2; stroke-opacity:0.1; fill:none" points="807.801,1800.78 807.801,47.2441 "/>
<polyline clip-path="url(#clip312)" style="stroke:#000000; stroke-linecap:round; stroke-linejoin:round; stroke-width:2; stroke-opacity:0.1; fill:none" points="1418.79,1800.78 1418.79,47.2441 "/>
<polyline clip-path="url(#clip312)" style="stroke:#000000; stroke-linecap:round; stroke-linejoin:round; stroke-width:2; stroke-opacity:0.1; fill:none" points="2029.77,1800.78 2029.77,47.2441 "/>
<polyline clip-path="url(#clip312)" style="stroke:#000000; stroke-linecap:round; stroke-linejoin:round; stroke-width:2; stroke-opacity:0.1; fill:none" points="2640.76,1800.78 2640.76,47.2441 "/>
<polyline clip-path="url(#clip310)" style="stroke:#000000; stroke-linecap:round; stroke-linejoin:round; stroke-width:4; stroke-opacity:1; fill:none" points="196.816,1800.78 2640.76,1800.78 "/>
<polyline clip-path="url(#clip310)" style="stroke:#000000; stroke-linecap:round; stroke-linejoin:round; stroke-width:4; stroke-opacity:1; fill:none" points="196.816,1800.78 196.816,1781.88 "/>
<polyline clip-path="url(#clip310)" style="stroke:#000000; stroke-linecap:round; stroke-linejoin:round; stroke-width:4; stroke-opacity:1; fill:none" points="807.801,1800.78 807.801,1781.88 "/>
<polyline clip-path="url(#clip310)" style="stroke:#000000; stroke-linecap:round; stroke-linejoin:round; stroke-width:4; stroke-opacity:1; fill:none" points="1418.79,1800.78 1418.79,1781.88 "/>
<polyline clip-path="url(#clip310)" style="stroke:#000000; stroke-linecap:round; stroke-linejoin:round; stroke-width:4; stroke-opacity:1; fill:none" points="2029.77,1800.78 2029.77,1781.88 "/>
<polyline clip-path="url(#clip310)" style="stroke:#000000; stroke-linecap:round; stroke-linejoin:round; stroke-width:4; stroke-opacity:1; fill:none" points="2640.76,1800.78 2640.76,1781.88 "/>
<path clip-path="url(#clip310)" d="M143.344 1848.65 L173.02 1848.65 L173.02 1852.59 L143.344 1852.59 L143.344 1848.65 Z" fill="#000000" fill-rule="nonzero" fill-opacity="1" /><path clip-path="url(#clip310)" d="M183.159 1830.92 L201.515 1830.92 L201.515 1834.86 L187.441 1834.86 L187.441 1843.33 Q188.46 1842.98 189.478 1842.82 Q190.497 1842.64 191.515 1842.64 Q197.302 1842.64 200.682 1845.81 Q204.061 1848.98 204.061 1854.4 Q204.061 1859.97 200.589 1863.08 Q197.117 1866.15 190.798 1866.15 Q188.622 1866.15 186.353 1865.78 Q184.108 1865.41 181.7 1864.67 L181.7 1859.97 Q183.784 1861.11 186.006 1861.66 Q188.228 1862.22 190.705 1862.22 Q194.71 1862.22 197.047 1860.11 Q199.385 1858.01 199.385 1854.4 Q199.385 1850.78 197.047 1848.68 Q194.71 1846.57 190.705 1846.57 Q188.83 1846.57 186.955 1846.99 Q185.103 1847.4 183.159 1848.28 L183.159 1830.92 Z" fill="#000000" fill-rule="nonzero" fill-opacity="1" /><path clip-path="url(#clip310)" d="M213.274 1859.6 L218.158 1859.6 L218.158 1865.48 L213.274 1865.48 L213.274 1859.6 Z" fill="#000000" fill-rule="nonzero" fill-opacity="1" /><path clip-path="url(#clip310)" d="M238.344 1834 Q234.732 1834 232.904 1837.57 Q231.098 1841.11 231.098 1848.24 Q231.098 1855.34 232.904 1858.91 Q234.732 1862.45 238.344 1862.45 Q241.978 1862.45 243.783 1858.91 Q245.612 1855.34 245.612 1848.24 Q245.612 1841.11 243.783 1837.57 Q241.978 1834 238.344 1834 M238.344 1830.3 Q244.154 1830.3 247.209 1834.9 Q250.288 1839.49 250.288 1848.24 Q250.288 1856.96 247.209 1861.57 Q244.154 1866.15 238.344 1866.15 Q232.533 1866.15 229.455 1861.57 Q226.399 1856.96 226.399 1848.24 Q226.399 1839.49 229.455 1834.9 Q232.533 1830.3 238.344 1830.3 Z" fill="#000000" fill-rule="nonzero" fill-opacity="1" /><path clip-path="url(#clip310)" d="M754.827 1848.65 L784.502 1848.65 L784.502 1852.59 L754.827 1852.59 L754.827 1848.65 Z" fill="#000000" fill-rule="nonzero" fill-opacity="1" /><path clip-path="url(#clip310)" d="M798.623 1861.55 L814.942 1861.55 L814.942 1865.48 L792.998 1865.48 L792.998 1861.55 Q795.66 1858.79 800.243 1854.16 Q804.85 1849.51 806.03 1848.17 Q808.276 1845.65 809.155 1843.91 Q810.058 1842.15 810.058 1840.46 Q810.058 1837.71 808.113 1835.97 Q806.192 1834.23 803.09 1834.23 Q800.891 1834.23 798.438 1835 Q796.007 1835.76 793.229 1837.31 L793.229 1832.59 Q796.053 1831.46 798.507 1830.88 Q800.961 1830.3 802.998 1830.3 Q808.368 1830.3 811.563 1832.98 Q814.757 1835.67 814.757 1840.16 Q814.757 1842.29 813.947 1844.21 Q813.16 1846.11 811.053 1848.7 Q810.475 1849.37 807.373 1852.59 Q804.271 1855.78 798.623 1861.55 Z" fill="#000000" fill-rule="nonzero" fill-opacity="1" /><path clip-path="url(#clip310)" d="M824.757 1859.6 L829.641 1859.6 L829.641 1865.48 L824.757 1865.48 L824.757 1859.6 Z" fill="#000000" fill-rule="nonzero" fill-opacity="1" /><path clip-path="url(#clip310)" d="M839.873 1830.92 L858.229 1830.92 L858.229 1834.86 L844.155 1834.86 L844.155 1843.33 Q845.173 1842.98 846.192 1842.82 Q847.21 1842.64 848.229 1842.64 Q854.016 1842.64 857.396 1845.81 Q860.775 1848.98 860.775 1854.4 Q860.775 1859.97 857.303 1863.08 Q853.831 1866.15 847.511 1866.15 Q845.335 1866.15 843.067 1865.78 Q840.822 1865.41 838.414 1864.67 L838.414 1859.97 Q840.498 1861.11 842.72 1861.66 Q844.942 1862.22 847.419 1862.22 Q851.423 1862.22 853.761 1860.11 Q856.099 1858.01 856.099 1854.4 Q856.099 1850.78 853.761 1848.68 Q851.423 1846.57 847.419 1846.57 Q845.544 1846.57 843.669 1846.99 Q841.817 1847.4 839.873 1848.28 L839.873 1830.92 Z" fill="#000000" fill-rule="nonzero" fill-opacity="1" /><path clip-path="url(#clip310)" d="M1396.17 1834 Q1392.56 1834 1390.73 1837.57 Q1388.93 1841.11 1388.93 1848.24 Q1388.93 1855.34 1390.73 1858.91 Q1392.56 1862.45 1396.17 1862.45 Q1399.8 1862.45 1401.61 1858.91 Q1403.44 1855.34 1403.44 1848.24 Q1403.44 1841.11 1401.61 1837.57 Q1399.8 1834 1396.17 1834 M1396.17 1830.3 Q1401.98 1830.3 1405.04 1834.9 Q1408.11 1839.49 1408.11 1848.24 Q1408.11 1856.96 1405.04 1861.57 Q1401.98 1866.15 1396.17 1866.15 Q1390.36 1866.15 1387.28 1861.57 Q1384.23 1856.96 1384.23 1848.24 Q1384.23 1839.49 1387.28 1834.9 Q1390.36 1830.3 1396.17 1830.3 Z" fill="#000000" fill-rule="nonzero" fill-opacity="1" /><path clip-path="url(#clip310)" d="M1416.33 1859.6 L1421.22 1859.6 L1421.22 1865.48 L1416.33 1865.48 L1416.33 1859.6 Z" fill="#000000" fill-rule="nonzero" fill-opacity="1" /><path clip-path="url(#clip310)" d="M1441.4 1834 Q1437.79 1834 1435.96 1837.57 Q1434.16 1841.11 1434.16 1848.24 Q1434.16 1855.34 1435.96 1858.91 Q1437.79 1862.45 1441.4 1862.45 Q1445.04 1862.45 1446.84 1858.91 Q1448.67 1855.34 1448.67 1848.24 Q1448.67 1841.11 1446.84 1837.57 Q1445.04 1834 1441.4 1834 M1441.4 1830.3 Q1447.21 1830.3 1450.27 1834.9 Q1453.35 1839.49 1453.35 1848.24 Q1453.35 1856.96 1450.27 1861.57 Q1447.21 1866.15 1441.4 1866.15 Q1435.59 1866.15 1432.51 1861.57 Q1429.46 1856.96 1429.46 1848.24 Q1429.46 1839.49 1432.51 1834.9 Q1435.59 1830.3 1441.4 1830.3 Z" fill="#000000" fill-rule="nonzero" fill-opacity="1" /><path clip-path="url(#clip310)" d="M2001.51 1861.55 L2017.83 1861.55 L2017.83 1865.48 L1995.88 1865.48 L1995.88 1861.55 Q1998.54 1858.79 2003.13 1854.16 Q2007.73 1849.51 2008.91 1848.17 Q2011.16 1845.65 2012.04 1843.91 Q2012.94 1842.15 2012.94 1840.46 Q2012.94 1837.71 2011 1835.97 Q2009.08 1834.23 2005.97 1834.23 Q2003.78 1834.23 2001.32 1835 Q1998.89 1835.76 1996.11 1837.31 L1996.11 1832.59 Q1998.94 1831.46 2001.39 1830.88 Q2003.85 1830.3 2005.88 1830.3 Q2011.25 1830.3 2014.45 1832.98 Q2017.64 1835.67 2017.64 1840.16 Q2017.64 1842.29 2016.83 1844.21 Q2016.04 1846.11 2013.94 1848.7 Q2013.36 1849.37 2010.26 1852.59 Q2007.16 1855.78 2001.51 1861.55 Z" fill="#000000" fill-rule="nonzero" fill-opacity="1" /><path clip-path="url(#clip310)" d="M2027.64 1859.6 L2032.53 1859.6 L2032.53 1865.48 L2027.64 1865.48 L2027.64 1859.6 Z" fill="#000000" fill-rule="nonzero" fill-opacity="1" /><path clip-path="url(#clip310)" d="M2042.76 1830.92 L2061.11 1830.92 L2061.11 1834.86 L2047.04 1834.86 L2047.04 1843.33 Q2048.06 1842.98 2049.08 1842.82 Q2050.09 1842.64 2051.11 1842.64 Q2056.9 1842.64 2060.28 1845.81 Q2063.66 1848.98 2063.66 1854.4 Q2063.66 1859.97 2060.19 1863.08 Q2056.72 1866.15 2050.4 1866.15 Q2048.22 1866.15 2045.95 1865.78 Q2043.71 1865.41 2041.3 1864.67 L2041.3 1859.97 Q2043.38 1861.11 2045.6 1861.66 Q2047.83 1862.22 2050.3 1862.22 Q2054.31 1862.22 2056.65 1860.11 Q2058.98 1858.01 2058.98 1854.4 Q2058.98 1850.78 2056.65 1848.68 Q2054.31 1846.57 2050.3 1846.57 Q2048.43 1846.57 2046.55 1846.99 Q2044.7 1847.4 2042.76 1848.28 L2042.76 1830.92 Z" fill="#000000" fill-rule="nonzero" fill-opacity="1" /><path clip-path="url(#clip310)" d="M2607.92 1830.92 L2626.28 1830.92 L2626.28 1834.86 L2612.2 1834.86 L2612.2 1843.33 Q2613.22 1842.98 2614.24 1842.82 Q2615.26 1842.64 2616.28 1842.64 Q2622.06 1842.64 2625.44 1845.81 Q2628.82 1848.98 2628.82 1854.4 Q2628.82 1859.97 2625.35 1863.08 Q2621.88 1866.15 2615.56 1866.15 Q2613.38 1866.15 2611.11 1865.78 Q2608.87 1865.41 2606.46 1864.67 L2606.46 1859.97 Q2608.55 1861.11 2610.77 1861.66 Q2612.99 1862.22 2615.47 1862.22 Q2619.47 1862.22 2621.81 1860.11 Q2624.15 1858.01 2624.15 1854.4 Q2624.15 1850.78 2621.81 1848.68 Q2619.47 1846.57 2615.47 1846.57 Q2613.59 1846.57 2611.72 1846.99 Q2609.86 1847.4 2607.92 1848.28 L2607.92 1830.92 Z" fill="#000000" fill-rule="nonzero" fill-opacity="1" /><path clip-path="url(#clip310)" d="M2638.04 1859.6 L2642.92 1859.6 L2642.92 1865.48 L2638.04 1865.48 L2638.04 1859.6 Z" fill="#000000" fill-rule="nonzero" fill-opacity="1" /><path clip-path="url(#clip310)" d="M2663.11 1834 Q2659.49 1834 2657.67 1837.57 Q2655.86 1841.11 2655.86 1848.24 Q2655.86 1855.34 2657.67 1858.91 Q2659.49 1862.45 2663.11 1862.45 Q2666.74 1862.45 2668.55 1858.91 Q2670.37 1855.34 2670.37 1848.24 Q2670.37 1841.11 2668.55 1837.57 Q2666.74 1834 2663.11 1834 M2663.11 1830.3 Q2668.92 1830.3 2671.97 1834.9 Q2675.05 1839.49 2675.05 1848.24 Q2675.05 1856.96 2671.97 1861.57 Q2668.92 1866.15 2663.11 1866.15 Q2657.3 1866.15 2654.22 1861.57 Q2651.16 1856.96 2651.16 1848.24 Q2651.16 1839.49 2654.22 1834.9 Q2657.3 1830.3 2663.11 1830.3 Z" fill="#000000" fill-rule="nonzero" fill-opacity="1" /><polyline clip-path="url(#clip312)" style="stroke:#000000; stroke-linecap:round; stroke-linejoin:round; stroke-width:2; stroke-opacity:0.1; fill:none" points="196.816,1800.78 2640.76,1800.78 "/>
<polyline clip-path="url(#clip312)" style="stroke:#000000; stroke-linecap:round; stroke-linejoin:round; stroke-width:2; stroke-opacity:0.1; fill:none" points="196.816,1362.4 2640.76,1362.4 "/>
<polyline clip-path="url(#clip312)" style="stroke:#000000; stroke-linecap:round; stroke-linejoin:round; stroke-width:2; stroke-opacity:0.1; fill:none" points="196.816,924.012 2640.76,924.012 "/>
<polyline clip-path="url(#clip312)" style="stroke:#000000; stroke-linecap:round; stroke-linejoin:round; stroke-width:2; stroke-opacity:0.1; fill:none" points="196.816,485.628 2640.76,485.628 "/>
<polyline clip-path="url(#clip312)" style="stroke:#000000; stroke-linecap:round; stroke-linejoin:round; stroke-width:2; stroke-opacity:0.1; fill:none" points="196.816,47.2441 2640.76,47.2441 "/>
<polyline clip-path="url(#clip310)" style="stroke:#000000; stroke-linecap:round; stroke-linejoin:round; stroke-width:4; stroke-opacity:1; fill:none" points="196.816,1800.78 196.816,47.2441 "/>
<polyline clip-path="url(#clip310)" style="stroke:#000000; stroke-linecap:round; stroke-linejoin:round; stroke-width:4; stroke-opacity:1; fill:none" points="196.816,1800.78 215.714,1800.78 "/>
<polyline clip-path="url(#clip310)" style="stroke:#000000; stroke-linecap:round; stroke-linejoin:round; stroke-width:4; stroke-opacity:1; fill:none" points="196.816,1362.4 215.714,1362.4 "/>
<polyline clip-path="url(#clip310)" style="stroke:#000000; stroke-linecap:round; stroke-linejoin:round; stroke-width:4; stroke-opacity:1; fill:none" points="196.816,924.012 215.714,924.012 "/>
<polyline clip-path="url(#clip310)" style="stroke:#000000; stroke-linecap:round; stroke-linejoin:round; stroke-width:4; stroke-opacity:1; fill:none" points="196.816,485.628 215.714,485.628 "/>
<polyline clip-path="url(#clip310)" style="stroke:#000000; stroke-linecap:round; stroke-linejoin:round; stroke-width:4; stroke-opacity:1; fill:none" points="196.816,47.2441 215.714,47.2441 "/>
<path clip-path="url(#clip310)" d="M49.5521 1801.23 L79.2279 1801.23 L79.2279 1805.17 L49.5521 1805.17 L49.5521 1801.23 Z" fill="#000000" fill-rule="nonzero" fill-opacity="1" /><path clip-path="url(#clip310)" d="M89.3667 1783.5 L107.723 1783.5 L107.723 1787.43 L93.6491 1787.43 L93.6491 1795.91 Q94.6676 1795.56 95.6861 1795.4 Q96.7047 1795.21 97.7232 1795.21 Q103.51 1795.21 106.89 1798.38 Q110.269 1801.55 110.269 1806.97 Q110.269 1812.55 106.797 1815.65 Q103.325 1818.73 97.0056 1818.73 Q94.8297 1818.73 92.5612 1818.36 Q90.3158 1817.99 87.9084 1817.25 L87.9084 1812.55 Q89.9917 1813.68 92.2139 1814.24 Q94.4361 1814.8 96.913 1814.8 Q100.918 1814.8 103.256 1812.69 Q105.593 1810.58 105.593 1806.97 Q105.593 1803.36 103.256 1801.25 Q100.918 1799.15 96.913 1799.15 Q95.038 1799.15 93.163 1799.56 Q91.3112 1799.98 89.3667 1800.86 L89.3667 1783.5 Z" fill="#000000" fill-rule="nonzero" fill-opacity="1" /><path clip-path="url(#clip310)" d="M119.482 1812.18 L124.367 1812.18 L124.367 1818.06 L119.482 1818.06 L119.482 1812.18 Z" fill="#000000" fill-rule="nonzero" fill-opacity="1" /><path clip-path="url(#clip310)" d="M144.552 1786.58 Q140.941 1786.58 139.112 1790.14 Q137.306 1793.68 137.306 1800.81 Q137.306 1807.92 139.112 1811.49 Q140.941 1815.03 144.552 1815.03 Q148.186 1815.03 149.991 1811.49 Q151.82 1807.92 151.82 1800.81 Q151.82 1793.68 149.991 1790.14 Q148.186 1786.58 144.552 1786.58 M144.552 1782.87 Q150.362 1782.87 153.417 1787.48 Q156.496 1792.06 156.496 1800.81 Q156.496 1809.54 153.417 1814.15 Q150.362 1818.73 144.552 1818.73 Q138.741 1818.73 135.663 1814.15 Q132.607 1809.54 132.607 1800.81 Q132.607 1792.06 135.663 1787.48 Q138.741 1782.87 144.552 1782.87 Z" fill="#000000" fill-rule="nonzero" fill-opacity="1" /><path clip-path="url(#clip310)" d="M50.5475 1362.85 L80.2233 1362.85 L80.2233 1366.78 L50.5475 1366.78 L50.5475 1362.85 Z" fill="#000000" fill-rule="nonzero" fill-opacity="1" /><path clip-path="url(#clip310)" d="M94.3436 1375.74 L110.663 1375.74 L110.663 1379.68 L88.7186 1379.68 L88.7186 1375.74 Q91.3806 1372.99 95.9639 1368.36 Q100.57 1363.7 101.751 1362.36 Q103.996 1359.84 104.876 1358.1 Q105.779 1356.34 105.779 1354.65 Q105.779 1351.9 103.834 1350.16 Q101.913 1348.43 98.8111 1348.43 Q96.6121 1348.43 94.1584 1349.19 Q91.7278 1349.95 88.9501 1351.5 L88.9501 1346.78 Q91.7741 1345.65 94.2278 1345.07 Q96.6815 1344.49 98.7185 1344.49 Q104.089 1344.49 107.283 1347.18 Q110.478 1349.86 110.478 1354.35 Q110.478 1356.48 109.668 1358.4 Q108.881 1360.3 106.774 1362.89 Q106.195 1363.56 103.094 1366.78 Q99.9917 1369.98 94.3436 1375.74 Z" fill="#000000" fill-rule="nonzero" fill-opacity="1" /><path clip-path="url(#clip310)" d="M120.478 1373.8 L125.362 1373.8 L125.362 1379.68 L120.478 1379.68 L120.478 1373.8 Z" fill="#000000" fill-rule="nonzero" fill-opacity="1" /><path clip-path="url(#clip310)" d="M135.593 1345.12 L153.95 1345.12 L153.95 1349.05 L139.876 1349.05 L139.876 1357.52 Q140.894 1357.18 141.913 1357.01 Q142.931 1356.83 143.95 1356.83 Q149.737 1356.83 153.116 1360 Q156.496 1363.17 156.496 1368.59 Q156.496 1374.17 153.024 1377.27 Q149.552 1380.35 143.232 1380.35 Q141.056 1380.35 138.788 1379.98 Q136.542 1379.61 134.135 1378.87 L134.135 1374.17 Q136.218 1375.3 138.441 1375.86 Q140.663 1376.41 143.14 1376.41 Q147.144 1376.41 149.482 1374.31 Q151.82 1372.2 151.82 1368.59 Q151.82 1364.98 149.482 1362.87 Q147.144 1360.76 143.14 1360.76 Q141.265 1360.76 139.39 1361.18 Q137.538 1361.6 135.593 1362.48 L135.593 1345.12 Z" fill="#000000" fill-rule="nonzero" fill-opacity="1" /><path clip-path="url(#clip310)" d="M99.3204 909.81 Q95.7093 909.81 93.8806 913.375 Q92.075 916.917 92.075 924.046 Q92.075 931.153 93.8806 934.718 Q95.7093 938.259 99.3204 938.259 Q102.955 938.259 104.76 934.718 Q106.589 931.153 106.589 924.046 Q106.589 916.917 104.76 913.375 Q102.955 909.81 99.3204 909.81 M99.3204 906.107 Q105.131 906.107 108.186 910.713 Q111.265 915.296 111.265 924.046 Q111.265 932.773 108.186 937.38 Q105.131 941.963 99.3204 941.963 Q93.5102 941.963 90.4315 937.38 Q87.376 932.773 87.376 924.046 Q87.376 915.296 90.4315 910.713 Q93.5102 906.107 99.3204 906.107 Z" fill="#000000" fill-rule="nonzero" fill-opacity="1" /><path clip-path="url(#clip310)" d="M119.482 935.412 L124.367 935.412 L124.367 941.292 L119.482 941.292 L119.482 935.412 Z" fill="#000000" fill-rule="nonzero" fill-opacity="1" /><path clip-path="url(#clip310)" d="M144.552 909.81 Q140.941 909.81 139.112 913.375 Q137.306 916.917 137.306 924.046 Q137.306 931.153 139.112 934.718 Q140.941 938.259 144.552 938.259 Q148.186 938.259 149.991 934.718 Q151.82 931.153 151.82 924.046 Q151.82 916.917 149.991 913.375 Q148.186 909.81 144.552 909.81 M144.552 906.107 Q150.362 906.107 153.417 910.713 Q156.496 915.296 156.496 924.046 Q156.496 932.773 153.417 937.38 Q150.362 941.963 144.552 941.963 Q138.741 941.963 135.663 937.38 Q132.607 932.773 132.607 924.046 Q132.607 915.296 135.663 910.713 Q138.741 906.107 144.552 906.107 Z" fill="#000000" fill-rule="nonzero" fill-opacity="1" /><path clip-path="url(#clip310)" d="M94.3436 498.973 L110.663 498.973 L110.663 502.908 L88.7186 502.908 L88.7186 498.973 Q91.3806 496.218 95.9639 491.589 Q100.57 486.936 101.751 485.593 Q103.996 483.07 104.876 481.334 Q105.779 479.575 105.779 477.885 Q105.779 475.13 103.834 473.394 Q101.913 471.658 98.8111 471.658 Q96.6121 471.658 94.1584 472.422 Q91.7278 473.186 88.9501 474.737 L88.9501 470.015 Q91.7741 468.88 94.2278 468.302 Q96.6815 467.723 98.7185 467.723 Q104.089 467.723 107.283 470.408 Q110.478 473.093 110.478 477.584 Q110.478 479.714 109.668 481.635 Q108.881 483.533 106.774 486.126 Q106.195 486.797 103.094 490.014 Q99.9917 493.209 94.3436 498.973 Z" fill="#000000" fill-rule="nonzero" fill-opacity="1" /><path clip-path="url(#clip310)" d="M120.478 497.028 L125.362 497.028 L125.362 502.908 L120.478 502.908 L120.478 497.028 Z" fill="#000000" fill-rule="nonzero" fill-opacity="1" /><path clip-path="url(#clip310)" d="M135.593 468.348 L153.95 468.348 L153.95 472.283 L139.876 472.283 L139.876 480.755 Q140.894 480.408 141.913 480.246 Q142.931 480.061 143.95 480.061 Q149.737 480.061 153.116 483.232 Q156.496 486.403 156.496 491.82 Q156.496 497.399 153.024 500.501 Q149.552 503.579 143.232 503.579 Q141.056 503.579 138.788 503.209 Q136.542 502.838 134.135 502.098 L134.135 497.399 Q136.218 498.533 138.441 499.088 Q140.663 499.644 143.14 499.644 Q147.144 499.644 149.482 497.538 Q151.82 495.431 151.82 491.82 Q151.82 488.209 149.482 486.102 Q147.144 483.996 143.14 483.996 Q141.265 483.996 139.39 484.413 Q137.538 484.829 135.593 485.709 L135.593 468.348 Z" fill="#000000" fill-rule="nonzero" fill-opacity="1" /><path clip-path="url(#clip310)" d="M89.3667 29.9641 L107.723 29.9641 L107.723 33.8993 L93.6491 33.8993 L93.6491 42.3714 Q94.6676 42.0242 95.6861 41.8622 Q96.7047 41.677 97.7232 41.677 Q103.51 41.677 106.89 44.8483 Q110.269 48.0196 110.269 53.4362 Q110.269 59.0149 106.797 62.1167 Q103.325 65.1954 97.0056 65.1954 Q94.8297 65.1954 92.5612 64.825 Q90.3158 64.4547 87.9084 63.7139 L87.9084 59.0149 Q89.9917 60.1491 92.2139 60.7047 Q94.4361 61.2602 96.913 61.2602 Q100.918 61.2602 103.256 59.1538 Q105.593 57.0473 105.593 53.4362 Q105.593 49.8251 103.256 47.7186 Q100.918 45.6122 96.913 45.6122 Q95.038 45.6122 93.163 46.0288 Q91.3112 46.4455 89.3667 47.3251 L89.3667 29.9641 Z" fill="#000000" fill-rule="nonzero" fill-opacity="1" /><path clip-path="url(#clip310)" d="M119.482 58.6445 L124.367 58.6445 L124.367 64.5241 L119.482 64.5241 L119.482 58.6445 Z" fill="#000000" fill-rule="nonzero" fill-opacity="1" /><path clip-path="url(#clip310)" d="M144.552 33.0428 Q140.941 33.0428 139.112 36.6076 Q137.306 40.1492 137.306 47.2788 Q137.306 54.3853 139.112 57.9501 Q140.941 61.4917 144.552 61.4917 Q148.186 61.4917 149.991 57.9501 Q151.82 54.3853 151.82 47.2788 Q151.82 40.1492 149.991 36.6076 Q148.186 33.0428 144.552 33.0428 M144.552 29.3391 Q150.362 29.3391 153.417 33.9456 Q156.496 38.5289 156.496 47.2788 Q156.496 56.0056 153.417 60.6121 Q150.362 65.1954 144.552 65.1954 Q138.741 65.1954 135.663 60.6121 Q132.607 56.0056 132.607 47.2788 Q132.607 38.5289 135.663 33.9456 Q138.741 29.3391 144.552 29.3391 Z" fill="#000000" fill-rule="nonzero" fill-opacity="1" /><polyline clip-path="url(#clip312)" style="stroke:#000000; stroke-linecap:round; stroke-linejoin:round; stroke-width:4; stroke-opacity:0.5; fill:none" points="196.816,23.7937 199.262,25.0357 201.709,26.2777 204.155,27.5197 206.602,28.7617 209.048,30.0037 211.494,31.2457 213.941,32.4877 216.387,33.7297 218.833,34.9717 221.28,36.2137 223.726,37.4557 226.173,38.6977 228.619,39.9397 231.065,41.1818 233.512,42.4238 235.958,43.6658 238.405,44.9078 240.851,46.1498 243.297,47.3918 245.744,48.6338 248.19,49.8758 250.636,51.1178 253.083,52.3598 255.529,53.6018 257.976,54.8438 260.422,56.0858 262.868,57.3278 265.315,58.5698 267.761,59.8118 270.208,61.0538 272.654,62.2958 275.1,63.5378 277.547,64.7798 279.993,66.0218 282.44,67.2638 284.886,68.5058 287.332,69.7478 289.779,70.9898 292.225,72.2318 294.671,73.4738 297.118,74.7158 299.564,75.9578 302.011,77.1998 304.457,78.4418 306.903,79.6838 309.35,80.9258 311.796,82.1678 314.243,83.4098 316.689,84.6518 319.135,85.8938 321.582,87.1359 324.028,88.3779 326.474,89.6199 328.921,90.8619 331.367,92.1039 333.814,93.3459 336.26,94.5879 338.706,95.8299 341.153,97.0719 343.599,98.3139 346.046,99.5559 348.492,100.798 350.938,102.04 353.385,103.282 355.831,104.524 358.277,105.766 360.724,107.008 363.17,108.25 365.617,109.492 368.063,110.734 370.509,111.976 372.956,113.218 375.402,114.46 377.849,115.702 380.295,116.944 382.741,118.186 385.188,119.428 387.634,120.67 390.081,121.912 392.527,123.154 394.973,124.396 397.42,125.638 399.866,126.88 402.312,128.122 404.759,129.364 407.205,130.606 409.652,131.848 412.098,133.09 414.544,134.332 416.991,135.574 419.437,136.816 421.884,138.058 424.33,139.3 426.776,140.542 429.223,141.784 431.669,143.026 434.115,144.268 436.562,145.51 439.008,146.752 441.455,147.994 443.901,149.236 446.347,150.478 448.794,151.72 451.24,152.962 453.687,154.204 456.133,155.446 458.579,156.688 461.026,157.93 463.472,159.172 465.918,160.414 468.365,161.656 470.811,162.898 473.258,164.14 475.704,165.382 478.15,166.624 480.597,167.866 483.043,169.108 485.49,170.35 487.936,171.592 490.382,172.834 492.829,174.076 495.275,175.318 497.722,176.56 500.168,177.802 502.614,179.044 505.061,180.286 507.507,181.528 509.953,182.77 512.4,184.012 514.846,185.254 517.293,186.496 519.739,187.738 522.185,188.98 524.632,190.222 527.078,191.464 529.525,192.706 531.971,193.948 534.417,195.19 536.864,196.432 539.31,197.674 541.756,198.916 544.203,200.158 546.649,201.4 549.096,202.642 551.542,203.884 553.988,205.126 556.435,206.368 558.881,207.61 561.328,208.852 563.774,210.094 566.22,211.336 568.667,212.578 571.113,213.82 573.559,215.062 576.006,216.304 578.452,217.546 580.899,218.788 583.345,220.03 585.791,221.272 588.238,222.514 590.684,223.756 593.131,224.998 595.577,226.24 598.023,227.482 600.47,228.724 602.916,229.966 605.363,231.208 607.809,232.45 610.255,233.692 612.702,234.934 615.148,236.176 617.594,237.418 620.041,238.66 622.487,239.902 624.934,241.144 627.38,242.386 629.826,243.628 632.273,244.87 634.719,246.112 637.166,247.354 639.612,248.596 642.058,249.838 644.505,251.08 646.951,252.322 649.397,253.564 651.844,254.806 654.29,256.048 656.737,257.29 659.183,258.532 661.629,259.774 664.076,261.016 666.522,262.258 668.969,263.5 671.415,264.742 673.861,265.984 676.308,267.226 678.754,268.468 681.2,269.71 683.647,270.952 686.093,272.194 688.54,273.436 690.986,274.678 693.432,275.92 695.879,277.162 698.325,278.404 700.772,279.646 703.218,280.888 705.664,282.13 708.111,283.372 710.557,284.614 713.004,285.856 715.45,287.098 717.896,288.34 720.343,289.582 722.789,290.824 725.235,292.066 727.682,293.308 730.128,294.55 732.575,295.792 735.021,297.034 737.467,298.276 739.914,299.518 742.36,300.76 744.807,302.002 747.253,303.244 749.699,304.486 752.146,305.728 754.592,306.97 757.038,308.212 759.485,309.454 761.931,310.696 764.378,311.938 766.824,313.18 769.27,314.422 771.717,315.664 774.163,316.906 776.61,318.148 779.056,319.39 781.502,320.632 783.949,321.874 786.395,323.116 788.841,324.358 791.288,325.6 793.734,326.842 796.181,328.084 798.627,329.326 801.073,330.568 803.52,331.81 805.966,333.052 808.413,334.294 810.859,335.536 813.305,336.778 815.752,338.02 818.198,339.262 820.645,340.504 823.091,341.746 825.537,342.988 827.984,344.23 830.43,345.472 832.876,346.714 835.323,347.956 837.769,349.198 840.216,350.44 842.662,351.682 845.108,352.924 847.555,354.166 850.001,355.408 852.448,356.65 854.894,357.892 857.34,359.134 859.787,360.376 862.233,361.618 864.679,362.86 867.126,364.102 869.572,365.344 872.019,366.586 874.465,367.828 876.911,369.07 879.358,370.312 881.804,371.554 884.251,372.796 886.697,374.038 889.143,375.28 891.59,376.522 894.036,377.764 896.482,379.006 898.929,380.248 901.375,381.49 903.822,382.732 906.268,383.974 908.714,385.216 911.161,386.458 913.607,387.701 916.054,388.943 918.5,390.185 920.946,391.427 923.393,392.669 925.839,393.911 928.285,395.153 930.732,396.395 933.178,397.637 935.625,398.879 938.071,400.121 940.517,401.363 942.964,402.605 945.41,403.847 947.857,405.089 950.303,406.331 952.749,407.573 955.196,408.815 957.642,410.057 960.089,411.299 962.535,412.541 964.981,413.783 967.428,415.025 969.874,416.267 972.32,417.509 974.767,418.751 977.213,419.993 979.66,421.235 982.106,422.477 984.552,423.719 986.999,424.961 989.445,426.203 991.892,427.445 994.338,428.687 996.784,429.929 999.231,431.171 1001.68,432.413 1004.12,433.655 1006.57,434.897 1009.02,436.139 1011.46,437.381 1013.91,438.623 1016.36,439.865 1018.8,441.107 1021.25,442.349 1023.69,443.591 1026.14,444.833 1028.59,446.075 1031.03,447.317 1033.48,448.559 1035.93,449.801 1038.37,451.043 1040.82,452.285 1043.27,453.527 1045.71,454.769 1048.16,456.011 1050.6,457.253 1053.05,458.495 1055.5,459.737 1057.94,460.979 1060.39,462.221 1062.84,463.463 1065.28,464.705 1067.73,465.947 1070.18,467.189 1072.62,468.431 1075.07,469.673 1077.52,470.915 1079.96,472.157 1082.41,473.399 1084.85,474.641 1087.3,475.883 1089.75,477.125 1092.19,478.367 1094.64,479.609 1097.09,480.851 1099.53,482.093 1101.98,483.335 1104.43,484.577 1106.87,485.819 1109.32,487.061 1111.76,488.303 1114.21,489.545 1116.66,490.787 1119.1,492.029 1121.55,493.271 1124,494.513 1126.44,495.755 1128.89,496.997 1131.34,498.239 1133.78,499.481 1136.23,500.723 1138.67,501.965 1141.12,503.207 1143.57,504.449 1146.01,505.691 1148.46,506.933 1150.91,508.175 1153.35,509.417 1155.8,510.659 1158.25,511.901 1160.69,513.143 1163.14,514.385 1165.58,515.627 1168.03,516.869 1170.48,518.111 1172.92,519.353 1175.37,520.595 1177.82,521.837 1180.26,523.079 1182.71,524.321 1185.16,525.563 1187.6,526.805 1190.05,528.047 1192.5,529.289 1194.94,530.531 1197.39,531.773 1199.83,533.015 1202.28,534.257 1204.73,535.499 1207.17,536.741 1209.62,537.983 1212.07,539.225 1214.51,540.467 1216.96,541.709 1219.41,542.951 1221.85,544.193 1224.3,545.435 1226.74,546.677 1229.19,547.919 1231.64,549.161 1234.08,550.403 1236.53,551.645 1238.98,552.887 1241.42,554.129 1243.87,555.371 1246.32,556.613 1248.76,557.855 1251.21,559.097 1253.65,560.339 1256.1,561.581 1258.55,562.823 1260.99,564.065 1263.44,565.307 1265.89,566.549 1268.33,567.791 1270.78,569.033 1273.23,570.275 1275.67,571.517 1278.12,572.759 1280.57,574.001 1283.01,575.243 1285.46,576.485 1287.9,577.727 1290.35,578.969 1292.8,580.211 1295.24,581.453 1297.69,582.695 1300.14,583.937 1302.58,585.179 1305.03,586.421 1307.48,587.663 1309.92,588.905 1312.37,590.147 1314.81,591.389 1317.26,592.631 1319.71,593.873 1322.15,595.115 1324.6,596.357 1327.05,597.599 1329.49,598.841 1331.94,600.083 1334.39,601.325 1336.83,602.567 1339.28,603.809 1341.72,605.051 1344.17,606.293 1346.62,607.535 1349.06,608.777 1351.51,610.019 1353.96,611.261 1356.4,612.503 1358.85,613.745 1361.3,614.987 1363.74,616.229 1366.19,617.471 1368.64,618.713 1371.08,619.955 1373.53,621.197 1375.97,622.439 1378.42,623.681 1380.87,624.923 1383.31,626.165 1385.76,627.407 1388.21,628.649 1390.65,629.891 1393.1,631.133 1395.55,632.375 1397.99,633.617 1400.44,634.859 1402.88,636.101 1405.33,637.343 1407.78,638.585 1410.22,639.827 1412.67,641.069 1415.12,642.311 1417.56,643.553 1420.01,644.795 1422.46,646.037 1424.9,647.279 1427.35,648.521 1429.79,649.763 1432.24,651.005 1434.69,652.247 1437.13,653.489 1439.58,654.731 1442.03,655.973 1444.47,657.215 1446.92,658.457 1449.37,659.699 1451.81,660.941 1454.26,662.183 1456.7,663.425 1459.15,664.667 1461.6,665.909 1464.04,667.151 1466.49,668.393 1468.94,669.635 1471.38,670.877 1473.83,672.119 1476.28,673.361 1478.72,674.603 1481.17,675.845 1483.62,677.087 1486.06,678.329 1488.51,679.571 1490.95,680.813 1493.4,682.055 1495.85,683.297 1498.29,684.539 1500.74,685.781 1503.19,687.023 1505.63,688.265 1508.08,689.507 1510.53,690.749 1512.97,691.991 1515.42,693.233 1517.86,694.475 1520.31,695.717 1522.76,696.959 1525.2,698.201 1527.65,699.443 1530.1,700.685 1532.54,701.927 1534.99,703.169 1537.44,704.411 1539.88,705.653 1542.33,706.895 1544.77,708.137 1547.22,709.379 1549.67,710.621 1552.11,711.863 1554.56,713.105 1557.01,714.347 1559.45,715.589 1561.9,716.831 1564.35,718.073 1566.79,719.315 1569.24,720.557 1571.69,721.799 1574.13,723.041 1576.58,724.283 1579.02,725.525 1581.47,726.767 1583.92,728.009 1586.36,729.251 1588.81,730.493 1591.26,731.735 1593.7,732.977 1596.15,734.219 1598.6,735.461 1601.04,736.703 1603.49,737.945 1605.93,739.187 1608.38,740.429 1610.83,741.671 1613.27,742.913 1615.72,744.155 1618.17,745.397 1620.61,746.639 1623.06,747.881 1625.51,749.123 1627.95,750.365 1630.4,751.607 1632.84,752.849 1635.29,754.091 1637.74,755.333 1640.18,756.575 1642.63,757.817 1645.08,759.059 1647.52,760.301 1649.97,761.543 1652.42,762.785 1654.86,764.027 1657.31,765.269 1659.76,766.511 1662.2,767.753 1664.65,768.995 1667.09,770.237 1669.54,771.479 1671.99,772.721 1674.43,773.963 1676.88,775.205 1679.33,776.447 1681.77,777.689 1684.22,778.931 1686.67,780.173 1689.11,781.415 1691.56,782.657 1694,783.899 1696.45,785.141 1698.9,786.383 1701.34,787.625 1703.79,788.867 1706.24,790.109 1708.68,791.351 1711.13,792.593 1713.58,793.835 1716.02,795.077 1718.47,796.319 1720.91,797.561 1723.36,798.803 1725.81,800.045 1728.25,801.287 1730.7,802.529 1733.15,803.771 1735.59,805.013 1738.04,806.255 1740.49,807.497 1742.93,808.739 1745.38,809.981 1747.82,811.223 1750.27,812.465 1752.72,813.707 1755.16,814.949 1757.61,816.191 1760.06,817.433 1762.5,818.675 1764.95,819.917 1767.4,821.159 1769.84,822.401 1772.29,823.643 1774.74,824.885 1777.18,826.127 1779.63,827.369 1782.07,828.611 1784.52,829.853 1786.97,831.095 1789.41,832.337 1791.86,833.579 1794.31,834.821 1796.75,836.063 1799.2,837.305 1801.65,838.547 1804.09,839.789 1806.54,841.031 1808.98,842.273 1811.43,843.515 1813.88,844.757 1816.32,845.999 1818.77,847.241 1821.22,848.483 1823.66,849.725 1826.11,850.968 1828.56,852.21 1831,853.452 1833.45,854.694 1835.89,855.936 1838.34,857.178 1840.79,858.42 1843.23,859.662 1845.68,860.904 1848.13,862.146 1850.57,863.388 1853.02,864.63 1855.47,865.872 1857.91,867.114 1860.36,868.356 1862.81,869.598 1865.25,870.84 1867.7,872.082 1870.14,873.324 1872.59,874.566 1875.04,875.808 1877.48,877.05 1879.93,878.292 1882.38,879.534 1884.82,880.776 1887.27,882.018 1889.72,883.26 1892.16,884.502 1894.61,885.744 1897.05,886.986 1899.5,888.228 1901.95,889.47 1904.39,890.712 1906.84,891.954 1909.29,893.196 1911.73,894.438 1914.18,895.68 1916.63,896.922 1919.07,898.164 1921.52,899.406 1923.96,900.648 1926.41,901.89 1928.86,903.132 1931.3,904.374 1933.75,905.616 1936.2,906.858 1938.64,908.1 1941.09,909.342 1943.54,910.584 1945.98,911.826 1948.43,913.068 1950.87,914.31 1953.32,915.552 1955.77,916.794 1958.21,918.036 1960.66,919.278 1963.11,920.52 1965.55,921.762 1968,923.004 1970.45,924.246 1972.89,925.488 1975.34,926.73 1977.79,927.972 1980.23,929.214 1982.68,930.456 1985.12,931.698 1987.57,932.94 1990.02,934.182 1992.46,935.424 1994.91,936.666 1997.36,937.908 1999.8,939.15 2002.25,940.392 2004.7,941.634 2007.14,942.876 2009.59,944.118 2012.03,945.36 2014.48,946.602 2016.93,947.844 2019.37,949.086 2021.82,950.328 2024.27,951.57 2026.71,952.812 2029.16,954.054 2031.61,955.296 2034.05,956.538 2036.5,957.78 2038.94,959.022 2041.39,960.264 2043.84,961.506 2046.28,962.748 2048.73,963.99 2051.18,965.232 2053.62,966.474 2056.07,967.716 2058.52,968.958 2060.96,970.2 2063.41,971.442 2065.86,972.684 2068.3,973.926 2070.75,975.168 2073.19,976.41 2075.64,977.652 2078.09,978.894 2080.53,980.136 2082.98,981.378 2085.43,982.62 2087.87,983.862 2090.32,985.104 2092.77,986.346 2095.21,987.588 2097.66,988.83 2100.1,990.072 2102.55,991.314 2105,992.556 2107.44,993.798 2109.89,995.04 2112.34,996.282 2114.78,997.524 2117.23,998.766 2119.68,1000.01 2122.12,1001.25 2124.57,1002.49 2127.01,1003.73 2129.46,1004.98 2131.91,1006.22 2134.35,1007.46 2136.8,1008.7 2139.25,1009.94 2141.69,1011.19 2144.14,1012.43 2146.59,1013.67 2149.03,1014.91 2151.48,1016.15 2153.93,1017.4 2156.37,1018.64 2158.82,1019.88 2161.26,1021.12 2163.71,1022.36 2166.16,1023.61 2168.6,1024.85 2171.05,1026.09 2173.5,1027.33 2175.94,1028.57 2178.39,1029.82 2180.84,1031.06 2183.28,1032.3 2185.73,1033.54 2188.17,1034.78 2190.62,1036.03 2193.07,1037.27 2195.51,1038.51 2197.96,1039.75 2200.41,1040.99 2202.85,1042.24 2205.3,1043.48 2207.75,1044.72 2210.19,1045.96 2212.64,1047.2 2215.08,1048.45 2217.53,1049.69 2219.98,1050.93 2222.42,1052.17 2224.87,1053.41 2227.32,1054.66 2229.76,1055.9 2232.21,1057.14 2234.66,1058.38 2237.1,1059.62 2239.55,1060.87 2241.99,1062.11 2244.44,1063.35 2246.89,1064.59 2249.33,1065.83 2251.78,1067.08 2254.23,1068.32 2256.67,1069.56 2259.12,1070.8 2261.57,1072.04 2264.01,1073.29 2266.46,1074.53 2268.91,1075.77 2271.35,1077.01 2273.8,1078.25 2276.24,1079.5 2278.69,1080.74 2281.14,1081.98 2283.58,1083.22 2286.03,1084.46 2288.48,1085.71 2290.92,1086.95 2293.37,1088.19 2295.82,1089.43 2298.26,1090.67 2300.71,1091.92 2303.15,1093.16 2305.6,1094.4 2308.05,1095.64 2310.49,1096.88 2312.94,1098.13 2315.39,1099.37 2317.83,1100.61 2320.28,1101.85 2322.73,1103.09 2325.17,1104.34 2327.62,1105.58 2330.06,1106.82 2332.51,1108.06 2334.96,1109.3 2337.4,1110.55 2339.85,1111.79 2342.3,1113.03 2344.74,1114.27 2347.19,1115.51 2349.64,1116.76 2352.08,1118 2354.53,1119.24 2356.98,1120.48 2359.42,1121.72 2361.87,1122.97 2364.31,1124.21 2366.76,1125.45 2369.21,1126.69 2371.65,1127.93 2374.1,1129.18 2376.55,1130.42 2378.99,1131.66 2381.44,1132.9 2383.89,1134.14 2386.33,1135.39 2388.78,1136.63 2391.22,1137.87 2393.67,1139.11 2396.12,1140.35 2398.56,1141.6 2401.01,1142.84 2403.46,1144.08 2405.9,1145.32 2408.35,1146.56 2410.8,1147.81 2413.24,1149.05 2415.69,1150.29 2418.13,1151.53 2420.58,1152.77 2423.03,1154.02 2425.47,1155.26 2427.92,1156.5 2430.37,1157.74 2432.81,1158.98 2435.26,1160.23 2437.71,1161.47 2440.15,1162.71 2442.6,1163.95 2445.05,1165.19 2447.49,1166.44 2449.94,1167.68 2452.38,1168.92 2454.83,1170.16 2457.28,1171.4 2459.72,1172.65 2462.17,1173.89 2464.62,1175.13 2467.06,1176.37 2469.51,1177.61 2471.96,1178.86 2474.4,1180.1 2476.85,1181.34 2479.29,1182.58 2481.74,1183.82 2484.19,1185.07 2486.63,1186.31 2489.08,1187.55 2491.53,1188.79 2493.97,1190.03 2496.42,1191.28 2498.87,1192.52 2501.31,1193.76 2503.76,1195 2506.2,1196.24 2508.65,1197.49 2511.1,1198.73 2513.54,1199.97 2515.99,1201.21 2518.44,1202.45 2520.88,1203.7 2523.33,1204.94 2525.78,1206.18 2528.22,1207.42 2530.67,1208.66 2533.11,1209.91 2535.56,1211.15 2538.01,1212.39 2540.45,1213.63 2542.9,1214.87 2545.35,1216.12 2547.79,1217.36 2550.24,1218.6 2552.69,1219.84 2555.13,1221.08 2557.58,1222.33 2560.03,1223.57 2562.47,1224.81 2564.92,1226.05 2567.36,1227.29 2569.81,1228.54 2572.26,1229.78 2574.7,1231.02 2577.15,1232.26 2579.6,1233.5 2582.04,1234.75 2584.49,1235.99 2586.94,1237.23 2589.38,1238.47 2591.83,1239.71 2594.27,1240.96 2596.72,1242.2 2599.17,1243.44 2601.61,1244.68 2604.06,1245.92 2606.51,1247.17 2608.95,1248.41 2611.4,1249.65 2613.85,1250.89 2616.29,1252.13 2618.74,1253.38 2621.18,1254.62 2623.63,1255.86 2626.08,1257.1 2628.52,1258.34 2630.97,1259.59 2633.42,1260.83 2635.86,1262.07 2638.31,1263.31 2640.76,1264.55 "/>
<circle clip-path="url(#clip312)" cx="685.604" cy="176.28" r="14.4" fill="#000000" fill-rule="evenodd" fill-opacity="1" stroke="none"/>
<circle clip-path="url(#clip312)" cx="929.998" cy="599.794" r="14.4" fill="#000000" fill-rule="evenodd" fill-opacity="1" stroke="none"/>
<circle clip-path="url(#clip312)" cx="1174.39" cy="380.966" r="14.4" fill="#000000" fill-rule="evenodd" fill-opacity="1" stroke="none"/>
<circle clip-path="url(#clip312)" cx="1418.79" cy="583.78" r="14.4" fill="#000000" fill-rule="evenodd" fill-opacity="1" stroke="none"/>
<circle clip-path="url(#clip312)" cx="1663.18" cy="684.81" r="14.4" fill="#000000" fill-rule="evenodd" fill-opacity="1" stroke="none"/>
<circle clip-path="url(#clip312)" cx="1907.57" cy="1071.24" r="14.4" fill="#000000" fill-rule="evenodd" fill-opacity="1" stroke="none"/>
<circle clip-path="url(#clip312)" cx="2151.97" cy="1095.16" r="14.4" fill="#000000" fill-rule="evenodd" fill-opacity="1" stroke="none"/>
<circle clip-path="url(#clip312)" cx="2396.36" cy="1263.08" r="14.4" fill="#000000" fill-rule="evenodd" fill-opacity="1" stroke="none"/>
<circle clip-path="url(#clip312)" cx="2640.76" cy="1434.82" r="14.4" fill="#000000" fill-rule="evenodd" fill-opacity="1" stroke="none"/>
</svg>
