<?xml version="1.0" encoding="utf-8"?>
<svg xmlns="http://www.w3.org/2000/svg" xmlns:xlink="http://www.w3.org/1999/xlink" width="672" height="480" viewBox="0 0 2688 1920">
<defs>
  <clipPath id="clip470">
    <rect x="0" y="0" width="2688" height="1920"/>
  </clipPath>
</defs>
<path clip-path="url(#clip470)" d="M0 1920 L2688 1920 L2688 0 L0 0  Z" fill="#ffffff" fill-rule="evenodd" fill-opacity="1"/>
<defs>
  <clipPath id="clip471">
    <rect x="537" y="0" width="1883" height="1883"/>
  </clipPath>
</defs>
<path clip-path="url(#clip470)" d="M196.816 1800.78 L2640.76 1800.78 L2640.76 47.2441 L196.816 47.2441  Z" fill="#ffffff" fill-rule="evenodd" fill-opacity="1"/>
<defs>
  <clipPath id="clip472">
    <rect x="196" y="47" width="2445" height="1755"/>
  </clipPath>
</defs>
<polyline clip-path="url(#clip472)" style="stroke:#000000; stroke-linecap:round; stroke-linejoin:round; stroke-width:2; stroke-opacity:0.1; fill:none" points="196.816,1800.78 196.816,47.2441 "/>
<polyline clip-path="url(#clip472)" style="stroke:#000000; stroke-linecap:round; stroke-linejoin:round; stroke-width:2; stroke-opacity:0.1; fill:none" points="807.801,1800.78 807.801,47.2441 "/>
<polyline clip-path="url(#clip472)" style="stroke:#000000; stroke-linecap:round; stroke-linejoin:round; stroke-width:2; stroke-opacity:0.1; fill:none" points="1418.79,1800.78 1418.79,47.2441 "/>
<polyline clip-path="url(#clip472)" style="stroke:#000000; stroke-linecap:round; stroke-linejoin:round; stroke-width:2; stroke-opacity:0.1; fill:none" points="2029.77,1800.78 2029.77,47.2441 "/>
<polyline clip-path="url(#clip472)" style="stroke:#000000; stroke-linecap:round; stroke-linejoin:round; stroke-width:2; stroke-opacity:0.1; fill:none" points="2640.76,1800.78 2640.76,47.2441 "/>
<polyline clip-path="url(#clip470)" style="stroke:#000000; stroke-linecap:round; stroke-linejoin:round; stroke-width:4; stroke-opacity:1; fill:none" points="196.816,1800.78 2640.76,1800.78 "/>
<polyline clip-path="url(#clip470)" style="stroke:#000000; stroke-linecap:round; stroke-linejoin:round; stroke-width:4; stroke-opacity:1; fill:none" points="196.816,1800.78 196.816,1781.88 "/>
<polyline clip-path="url(#clip470)" style="stroke:#000000; stroke-linecap:round; stroke-linejoin:round; stroke-width:4; stroke-opacity:1; fill:none" points="807.801,1800.78 807.801,1781.88 "/>
<polyline clip-path="url(#clip470)" style="stroke:#000000; stroke-linecap:round; stroke-linejoin:round; stroke-width:4; stroke-opacity:1; fill:none" points="1418.79,1800.78 1418.79,1781.88 "/>
<polyline clip-path="url(#clip470)" style="stroke:#000000; stroke-linecap:round; stroke-linejoin:round; stroke-width:4; stroke-opacity:1; fill:none" points="2029.77,1800.78 2029.77,1781.88 "/>
<polyline clip-path="url(#clip470)" style="stroke:#000000; stroke-linecap:round; stroke-linejoin:round; stroke-width:4; stroke-opacity:1; fill:none" points="2640.76,1800.78 2640.76,1781.88 "/>
<path clip-path="url(#clip470)" d="M143.344 1848.65 L173.02 1848.65 L173.02 1852.59 L143.344 1852.59 L143.344 1848.65 Z" fill="#000000" fill-rule="nonzero" fill-opacity="1" /><path clip-path="url(#clip470)" d="M183.159 1830.92 L201.515 1830.92 L201.515 1834.86 L187.441 1834.86 L187.441 1843.33 Q188.46 1842.98 189.478 1842.82 Q190.497 1842.64 191.515 1842.64 Q197.302 1842.64 200.682 1845.81 Q204.061 1848.98 204.061 1854.4 Q204.061 1859.97 200.589 1863.08 Q197.117 1866.15 190.798 1866.15 Q188.622 1866.15 186.353 1865.78 Q184.108 1865.41 181.7 1864.67 L181.7 1859.97 Q183.784 1861.11 186.006 1861.66 Q188.228 1862.22 190.705 1862.22 Q194.71 1862.22 197.047 1860.11 Q199.385 1858.01 199.385 1854.4 Q199.385 1850.78 197.047 1848.68 Q194.71 1846.57 190.705 1846.57 Q188.83 1846.57 186.955 1846.99 Q185.103 1847.4 183.159 1848.28 L183.159 1830.92 Z" fill="#000000" fill-rule="nonzero" fill-opacity="1" /><path clip-path="url(#clip470)" d="M213.274 1859.6 L218.158 1859.6 L218.158 1865.48 L213.274 1865.48 L213.274 1859.6 Z" fill="#000000" fill-rule="nonzero" fill-opacity="1" /><path clip-path="url(#clip470)" d="M238.344 1834 Q234.732 1834 232.904 1837.57 Q231.098 1841.11 231.098 1848.24 Q231.098 1855.34 232.904 1858.91 Q234.732 1862.45 238.344 1862.45 Q241.978 1862.45 243.783 1858.91 Q245.612 1855.34 245.612 1848.24 Q245.612 1841.11 243.783 1837.57 Q241.978 1834 238.344 1834 M238.344 1830.3 Q244.154 1830.3 247.209 1834.9 Q250.288 1839.49 250.288 1848.24 Q250.288 1856.96 247.209 1861.57 Q244.154 1866.15 238.344 1866.15 Q232.533 1866.15 229.455 1861.57 Q226.399 1856.96 226.399 1848.24 Q226.399 1839.49 229.455 1834.9 Q232.533 1830.3 238.344 1830.3 Z" fill="#000000" fill-rule="nonzero" fill-opacity="1" /><path clip-path="url(#clip470)" d="M754.827 1848.65 L784.502 1848.65 L784.502 1852.59 L754.827 1852.59 L754.827 1848.65 Z" fill="#000000" fill-rule="nonzero" fill-opacity="1" /><path clip-path="url(#clip470)" d="M798.623 1861.55 L814.942 1861.55 L814.942 1865.48 L792.998 1865.48 L792.998 1861.55 Q795.66 1858.79 800.243 1854.16 Q804.85 1849.51 806.03 1848.17 Q808.276 1845.65 809.155 1843.91 Q810.058 1842.15 810.058 1840.46 Q810.058 1837.71 808.113 1835.97 Q806.192 1834.23 803.09 1834.23 Q800.891 1834.23 798.438 1835 Q796.007 1835.76 793.229 1837.31 L793.229 1832.59 Q796.053 1831.46 798.507 1830.88 Q800.961 1830.3 802.998 1830.3 Q808.368 1830.3 811.563 1832.98 Q814.757 1835.67 814.757 1840.16 Q814.757 1842.29 813.947 1844.21 Q813.16 1846.11 811.053 1848.7 Q810.475 1849.37 807.373 1852.59 Q804.271 1855.78 798.623 1861.55 Z" fill="#000000" fill-rule="nonzero" fill-opacity="1" /><path clip-path="url(#clip470)" d="M824.757 1859.6 L829.641 1859.6 L829.641 1865.48 L824.757 1865.48 L824.757 1859.6 Z" fill="#000000" fill-rule="nonzero" fill-opacity="1" /><path clip-path="url(#clip470)" d="M839.873 1830.92 L858.229 1830.92 L858.229 1834.86 L844.155 1834.86 L844.155 1843.33 Q845.173 1842.98 846.192 1842.82 Q847.21 1842.64 848.229 1842.64 Q854.016 1842.64 857.396 1845.81 Q860.775 1848.98 860.775 1854.4 Q860.775 1859.97 857.303 1863.08 Q853.831 1866.15 847.511 1866.15 Q845.335 1866.15 843.067 1865.78 Q840.822 1865.41 838.414 1864.67 L838.414 1859.97 Q840.498 1861.11 842.72 1861.66 Q844.942 1862.22 847.419 1862.22 Q851.423 1862.22 853.761 1860.11 Q856.099 1858.01 856.099 1854.4 Q856.099 1850.78 853.761 1848.68 Q851.423 1846.57 847.419 1846.57 Q845.544 1846.57 843.669 1846.99 Q841.817 1847.4 839.873 1848.28 L839.873 1830.92 Z" fill="#000000" fill-rule="nonzero" fill-opacity="1" /><path clip-path="url(#clip470)" d="M1396.17 1834 Q1392.56 1834 1390.73 1837.57 Q1388.93 1841.11 1388.93 1848.24 Q1388.93 1855.34 1390.73 1858.91 Q1392.56 1862.45 1396.17 1862.45 Q1399.8 1862.45 1401.61 1858.91 Q1403.44 1855.34 1403.44 1848.24 Q1403.44 1841.11 1401.61 1837.57 Q1399.8 1834 1396.17 1834 M1396.17 1830.3 Q1401.98 1830.3 1405.04 1834.9 Q1408.11 1839.49 1408.11 1848.24 Q1408.11 1856.96 1405.04 1861.57 Q1401.98 1866.15 1396.17 1866.15 Q1390.36 1866.15 1387.28 1861.57 Q1384.23 1856.96 1384.23 1848.24 Q1384.23 1839.49 1387.28 1834.9 Q1390.36 1830.3 1396.17 1830.3 Z" fill="#000000" fill-rule="nonzero" fill-opacity="1" /><path clip-path="url(#clip470)" d="M1416.33 1859.6 L1421.22 1859.6 L1421.22 1865.48 L1416.33 1865.48 L1416.33 1859.6 Z" fill="#000000" fill-rule="nonzero" fill-opacity="1" /><path clip-path="url(#clip470)" d="M1441.4 1834 Q1437.79 1834 1435.96 1837.57 Q1434.16 1841.11 1434.16 1848.24 Q1434.16 1855.34 1435.96 1858.91 Q1437.79 1862.45 1441.4 1862.45 Q1445.04 1862.45 1446.84 1858.91 Q1448.67 1855.34 1448.67 1848.24 Q1448.67 1841.11 1446.84 1837.57 Q1445.04 1834 1441.4 1834 M1441.4 1830.3 Q1447.21 1830.3 1450.27 1834.9 Q1453.35 1839.49 1453.35 1848.24 Q1453.35 1856.96 1450.27 1861.57 Q1447.21 1866.15 1441.4 1866.15 Q1435.59 1866.15 1432.51 1861.57 Q1429.46 1856.96 1429.46 1848.24 Q1429.46 1839.49 1432.51 1834.9 Q1435.59 1830.3 1441.4 1830.3 Z" fill="#000000" fill-rule="nonzero" fill-opacity="1" /><path clip-path="url(#clip470)" d="M2001.51 1861.55 L2017.83 1861.55 L2017.83 1865.48 L1995.88 1865.48 L1995.88 1861.55 Q1998.54 1858.79 2003.13 1854.16 Q2007.73 1849.51 2008.91 1848.17 Q2011.16 1845.65 2012.04 1843.91 Q2012.94 1842.15 2012.94 1840.46 Q2012.94 1837.71 2011 1835.97 Q2009.08 1834.23 2005.97 1834.23 Q2003.78 1834.23 2001.32 1835 Q1998.89 1835.76 1996.11 1837.31 L1996.11 1832.59 Q1998.94 1831.46 2001.39 1830.88 Q2003.85 1830.3 2005.88 1830.3 Q2011.25 1830.3 2014.45 1832.98 Q2017.64 1835.67 2017.64 1840.16 Q2017.64 1842.29 2016.83 1844.21 Q2016.04 1846.11 2013.94 1848.7 Q2013.36 1849.37 2010.26 1852.59 Q2007.16 1855.78 2001.51 1861.55 Z" fill="#000000" fill-rule="nonzero" fill-opacity="1" /><path clip-path="url(#clip470)" d="M2027.64 1859.6 L2032.53 1859.6 L2032.53 1865.48 L2027.64 1865.48 L2027.64 1859.6 Z" fill="#000000" fill-rule="nonzero" fill-opacity="1" /><path clip-path="url(#clip470)" d="M2042.76 1830.92 L2061.11 1830.92 L2061.11 1834.86 L2047.04 1834.86 L2047.04 1843.33 Q2048.06 1842.98 2049.08 1842.82 Q2050.09 1842.64 2051.11 1842.64 Q2056.9 1842.64 2060.28 1845.81 Q2063.66 1848.98 2063.66 1854.4 Q2063.66 1859.97 2060.19 1863.08 Q2056.72 1866.15 2050.4 1866.15 Q2048.22 1866.15 2045.95 1865.78 Q2043.71 1865.41 2041.3 1864.67 L2041.3 1859.97 Q2043.38 1861.11 2045.6 1861.66 Q2047.83 1862.22 2050.3 1862.22 Q2054.31 1862.22 2056.65 1860.11 Q2058.98 1858.01 2058.98 1854.4 Q2058.98 1850.78 2056.65 1848.68 Q2054.31 1846.57 2050.3 1846.57 Q2048.43 1846.57 2046.55 1846.99 Q2044.7 1847.4 2042.76 1848.28 L2042.76 1830.92 Z" fill="#000000" fill-rule="nonzero" fill-opacity="1" /><path clip-path="url(#clip470)" d="M2607.92 1830.92 L2626.28 1830.92 L2626.28 1834.86 L2612.2 1834.86 L2612.2 1843.33 Q2613.22 1842.98 2614.24 1842.82 Q2615.26 1842.64 2616.28 1842.64 Q2622.06 1842.64 2625.44 1845.81 Q2628.82 1848.98 2628.82 1854.4 Q2628.82 1859.97 2625.35 1863.08 Q2621.88 1866.15 2615.56 1866.15 Q2613.38 1866.15 2611.11 1865.78 Q2608.87 1865.41 2606.46 1864.67 L2606.46 1859.97 Q2608.55 1861.11 2610.77 1861.66 Q2612.99 1862.22 2615.47 1862.22 Q2619.47 1862.22 2621.81 1860.11 Q2624.15 1858.01 2624.15 1854.4 Q2624.15 1850.78 2621.81 1848.68 Q2619.47 1846.57 2615.47 1846.57 Q2613.59 1846.57 2611.72 1846.99 Q2609.86 1847.4 2607.92 1848.28 L2607.92 1830.92 Z" fill="#000000" fill-rule="nonzero" fill-opacity="1" /><path clip-path="url(#clip470)" d="M2638.04 1859.6 L2642.92 1859.6 L2642.92 1865.48 L2638.04 1865.48 L2638.04 1859.6 Z" fill="#000000" fill-rule="nonzero" fill-opacity="1" /><path clip-path="url(#clip470)" d="M2663.11 1834 Q2659.49 1834 2657.67 1837.57 Q2655.86 1841.11 2655.86 1848.24 Q2655.86 1855.34 2657.67 1858.91 Q2659.49 1862.45 2663.11 1862.45 Q2666.74 1862.45 2668.55 1858.91 Q2670.37 1855.34 2670.37 1848.24 Q2670.37 1841.11 2668.55 1837.57 Q2666.74 1834 2663.11 1834 M2663.11 1830.3 Q2668.92 1830.3 2671.97 1834.9 Q2675.05 1839.49 2675.05 1848.24 Q2675.05 1856.96 2671.97 1861.57 Q2668.92 1866.15 2663.11 1866.15 Q2657.3 1866.15 2654.22 1861.57 Q2651.16 1856.96 2651.16 1848.24 Q2651.16 1839.49 2654.22 1834.9 Q2657.3 1830.3 2663.11 1830.3 Z" fill="#000000" fill-rule="nonzero" fill-opacity="1" /><polyline clip-path="url(#clip472)" style="stroke:#000000; stroke-linecap:round; stroke-linejoin:round; stroke-width:2; stroke-opacity:0.1; fill:none" points="196.816,1800.78 2640.76,1800.78 "/>
<polyline clip-path="url(#clip472)" style="stroke:#000000; stroke-linecap:round; stroke-linejoin:round; stroke-width:2; stroke-opacity:0.1; fill:none" points="196.816,1362.4 2640.76,1362.4 "/>
<polyline clip-path="url(#clip472)" style="stroke:#000000; stroke-linecap:round; stroke-linejoin:round; stroke-width:2; stroke-opacity:0.1; fill:none" points="196.816,924.012 2640.76,924.012 "/>
<polyline clip-path="url(#clip472)" style="stroke:#000000; stroke-linecap:round; stroke-linejoin:round; stroke-width:2; stroke-opacity:0.1; fill:none" points="196.816,485.628 2640.76,485.628 "/>
<polyline clip-path="url(#clip472)" style="stroke:#000000; stroke-linecap:round; stroke-linejoin:round; stroke-width:2; stroke-opacity:0.1; fill:none" points="196.816,47.2441 2640.76,47.2441 "/>
<polyline clip-path="url(#clip470)" style="stroke:#000000; stroke-linecap:round; stroke-linejoin:round; stroke-width:4; stroke-opacity:1; fill:none" points="196.816,1800.78 196.816,47.2441 "/>
<polyline clip-path="url(#clip470)" style="stroke:#000000; stroke-linecap:round; stroke-linejoin:round; stroke-width:4; stroke-opacity:1; fill:none" points="196.816,1800.78 215.714,1800.78 "/>
<polyline clip-path="url(#clip470)" style="stroke:#000000; stroke-linecap:round; stroke-linejoin:round; stroke-width:4; stroke-opacity:1; fill:none" points="196.816,1362.4 215.714,1362.4 "/>
<polyline clip-path="url(#clip470)" style="stroke:#000000; stroke-linecap:round; stroke-linejoin:round; stroke-width:4; stroke-opacity:1; fill:none" points="196.816,924.012 215.714,924.012 "/>
<polyline clip-path="url(#clip470)" style="stroke:#000000; stroke-linecap:round; stroke-linejoin:round; stroke-width:4; stroke-opacity:1; fill:none" points="196.816,485.628 215.714,485.628 "/>
<polyline clip-path="url(#clip470)" style="stroke:#000000; stroke-linecap:round; stroke-linejoin:round; stroke-width:4; stroke-opacity:1; fill:none" points="196.816,47.2441 215.714,47.2441 "/>
<path clip-path="url(#clip470)" d="M49.5521 1801.23 L79.2279 1801.23 L79.2279 1805.17 L49.5521 1805.17 L49.5521 1801.23 Z" fill="#000000" fill-rule="nonzero" fill-opacity="1" /><path clip-path="url(#clip470)" d="M89.3667 1783.5 L107.723 1783.5 L107.723 1787.43 L93.6491 1787.43 L93.6491 1795.91 Q94.6676 1795.56 95.6861 1795.4 Q96.7047 1795.21 97.7232 1795.21 Q103.51 1795.21 106.89 1798.38 Q110.269 1801.55 110.269 1806.97 Q110.269 1812.55 106.797 1815.65 Q103.325 1818.73 97.0056 1818.73 Q94.8297 1818.73 92.5612 1818.36 Q90.3158 1817.99 87.9084 1817.25 L87.9084 1812.55 Q89.9917 1813.68 92.2139 1814.24 Q94.4361 1814.8 96.913 1814.8 Q100.918 1814.8 103.256 1812.69 Q105.593 1810.58 105.593 1806.97 Q105.593 1803.36 103.256 1801.25 Q100.918 1799.15 96.913 1799.15 Q95.038 1799.15 93.163 1799.56 Q91.3112 1799.98 89.3667 1800.86 L89.3667 1783.5 Z" fill="#000000" fill-rule="nonzero" fill-opacity="1" /><path clip-path="url(#clip470)" d="M119.482 1812.18 L124.367 1812.18 L124.367 1818.06 L119.482 1818.06 L119.482 1812.18 Z" fill="#000000" fill-rule="nonzero" fill-opacity="1" /><path clip-path="url(#clip470)" d="M144.552 1786.58 Q140.941 1786.58 139.112 1790.14 Q137.306 1793.68 137.306 1800.81 Q137.306 1807.92 139.112 1811.49 Q140.941 1815.03 144.552 1815.03 Q148.186 1815.03 149.991 1811.49 Q151.82 1807.92 151.82 1800.81 Q151.82 1793.68 149.991 1790.14 Q148.186 1786.58 144.552 1786.58 M144.552 1782.87 Q150.362 1782.87 153.417 1787.48 Q156.496 1792.06 156.496 1800.81 Q156.496 1809.54 153.417 1814.15 Q150.362 1818.73 144.552 1818.73 Q138.741 1818.73 135.663 1814.15 Q132.607 1809.54 132.607 1800.81 Q132.607 1792.06 135.663 1787.48 Q138.741 1782.87 144.552 1782.87 Z" fill="#000000" fill-rule="nonzero" fill-opacity="1" /><path clip-path="url(#clip470)" d="M50.5475 1362.85 L80.2233 1362.85 L80.2233 1366.78 L50.5475 1366.78 L50.5475 1362.85 Z" fill="#000000" fill-rule="nonzero" fill-opacity="1" /><path clip-path="url(#clip470)" d="M94.3436 1375.74 L110.663 1375.74 L110.663 1379.68 L88.7186 1379.68 L88.7186 1375.74 Q91.3806 1372.99 95.9639 1368.36 Q100.57 1363.7 101.751 1362.36 Q103.996 1359.84 104.876 1358.1 Q105.779 1356.34 105.779 1354.65 Q105.779 1351.9 103.834 1350.16 Q101.913 1348.43 98.8111 1348.43 Q96.6121 1348.43 94.1584 1349.19 Q91.7278 1349.95 88.9501 1351.5 L88.9501 1346.78 Q91.7741 1345.65 94.2278 1345.07 Q96.6815 1344.49 98.7185 1344.49 Q104.089 1344.49 107.283 1347.18 Q110.478 1349.86 110.478 1354.35 Q110.478 1356.48 109.668 1358.4 Q108.881 1360.3 106.774 1362.89 Q106.195 1363.56 103.094 1366.78 Q99.9917 1369.98 94.3436 1375.74 Z" fill="#000000" fill-rule="nonzero" fill-opacity="1" /><path clip-path="url(#clip470)" d="M120.478 1373.8 L125.362 1373.8 L125.362 1379.68 L120.478 1379.68 L120.478 1373.8 Z" fill="#000000" fill-rule="nonzero" fill-opacity="1" /><path clip-path="url(#clip470)" d="M135.593 1345.12 L153.95 1345.12 L153.95 1349.05 L139.876 1349.05 L139.876 1357.52 Q140.894 1357.18 141.913 1357.01 Q142.931 1356.83 143.95 1356.83 Q149.737 1356.83 153.116 1360 Q156.496 1363.17 156.496 1368.59 Q156.496 1374.17 153.024 1377.27 Q149.552 1380.35 143.232 1380.35 Q141.056 1380.35 138.788 1379.98 Q136.542 1379.61 134.135 1378.87 L134.135 1374.17 Q136.218 1375.3 138.441 1375.86 Q140.663 1376.41 143.14 1376.41 Q147.144 1376.41 149.482 1374.31 Q151.82 1372.2 151.82 1368.59 Q151.82 1364.98 149.482 1362.87 Q147.144 1360.76 143.14 1360.76 Q141.265 1360.76 139.39 1361.18 Q137.538 1361.6 135.593 1362.48 L135.593 1345.12 Z" fill="#000000" fill-rule="nonzero" fill-opacity="1" /><path clip-path="url(#clip470)" d="M99.3204 909.81 Q95.7093 909.81 93.8806 913.375 Q92.075 916.917 92.075 924.046 Q92.075 931.153 93.8806 934.718 Q95.7093 938.259 99.3204 938.259 Q102.955 938.259 104.76 934.718 Q106.589 931.153 106.589 924.046 Q106.589 916.917 104.76 913.375 Q102.955 909.81 99.3204 909.81 M99.3204 906.107 Q105.131 906.107 108.186 910.713 Q111.265 915.296 111.265 924.046 Q111.265 932.773 108.186 937.38 Q105.131 941.963 99.3204 941.963 Q93.5102 941.963 90.4315 937.38 Q87.376 932.773 87.376 924.046 Q87.376 915.296 90.4315 910.713 Q93.5102 906.107 99.3204 906.107 Z" fill="#000000" fill-rule="nonzero" fill-opacity="1" /><path clip-path="url(#clip470)" d="M119.482 935.412 L124.367 935.412 L124.367 941.292 L119.482 941.292 L119.482 935.412 Z" fill="#000000" fill-rule="nonzero" fill-opacity="1" /><path clip-path="url(#clip470)" d="M144.552 909.81 Q140.941 909.81 139.112 913.375 Q137.306 916.917 137.306 924.046 Q137.306 931.153 139.112 934.718 Q140.941 938.259 144.552 938.259 Q148.186 938.259 149.991 934.718 Q151.82 931.153 151.82 924.046 Q151.82 916.917 149.991 913.375 Q148.186 909.81 144.552 909.81 M144.552 906.107 Q150.362 906.107 153.417 910.713 Q156.496 915.296 156.496 924.046 Q156.496 932.773 153.417 937.38 Q150.362 941.963 144.552 941.963 Q138.741 941.963 135.663 937.38 Q132.607 932.773 132.607 924.046 Q132.607 915.296 135.663 910.713 Q138.741 906.107 144.552 906.107 Z" fill="#000000" fill-rule="nonzero" fill-opacity="1" /><path clip-path="url(#clip470)" d="M94.3436 498.973 L110.663 498.973 L110.663 502.908 L88.7186 502.908 L88.7186 498.973 Q91.3806 496.218 95.9639 491.589 Q100.57 486.936 101.751 485.593 Q103.996 483.07 104.876 481.334 Q105.779 479.575 105.779 477.885 Q105.779 475.13 103.834 473.394 Q101.913 471.658 98.8111 471.658 Q96.6121 471.658 94.1584 472.422 Q91.7278 473.186 88.9501 474.737 L88.9501 470.015 Q91.7741 468.88 94.2278 468.302 Q96.6815 467.723 98.7185 467.723 Q104.089 467.723 107.283 470.408 Q110.478 473.093 110.478 477.584 Q110.478 479.714 109.668 481.635 Q108.881 483.533 106.774 486.126 Q106.195 486.797 103.094 490.014 Q99.9917 493.209 94.3436 498.973 Z" fill="#000000" fill-rule="nonzero" fill-opacity="1" /><path clip-path="url(#clip470)" d="M120.478 497.028 L125.362 497.028 L125.362 502.908 L120.478 502.908 L120.478 497.028 Z" fill="#000000" fill-rule="nonzero" fill-opacity="1" /><path clip-path="url(#clip470)" d="M135.593 468.348 L153.95 468.348 L153.95 472.283 L139.876 472.283 L139.876 480.755 Q140.894 480.408 141.913 480.246 Q142.931 480.061 143.95 480.061 Q149.737 480.061 153.116 483.232 Q156.496 486.403 156.496 491.82 Q156.496 497.399 153.024 500.501 Q149.552 503.579 143.232 503.579 Q141.056 503.579 138.788 503.209 Q136.542 502.838 134.135 502.098 L134.135 497.399 Q136.218 498.533 138.441 499.088 Q140.663 499.644 143.14 499.644 Q147.144 499.644 149.482 497.538 Q151.82 495.431 151.82 491.82 Q151.82 488.209 149.482 486.102 Q147.144 483.996 143.14 483.996 Q141.265 483.996 139.39 484.413 Q137.538 484.829 135.593 485.709 L135.593 468.348 Z" fill="#000000" fill-rule="nonzero" fill-opacity="1" /><path clip-path="url(#clip470)" d="M89.3667 29.9641 L107.723 29.9641 L107.723 33.8993 L93.6491 33.8993 L93.6491 42.3714 Q94.6676 42.0242 95.6861 41.8622 Q96.7047 41.677 97.7232 41.677 Q103.51 41.677 106.89 44.8483 Q110.269 48.0196 110.269 53.4362 Q110.269 59.0149 106.797 62.1167 Q103.325 65.1954 97.0056 65.1954 Q94.8297 65.1954 92.5612 64.825 Q90.3158 64.4547 87.9084 63.7139 L87.9084 59.0149 Q89.9917 60.1491 92.2139 60.7047 Q94.4361 61.2602 96.913 61.2602 Q100.918 61.2602 103.256 59.1538 Q105.593 57.0473 105.593 53.4362 Q105.593 49.8251 103.256 47.7186 Q100.918 45.6122 96.913 45.6122 Q95.038 45.6122 93.163 46.0288 Q91.3112 46.4455 89.3667 47.3251 L89.3667 29.9641 Z" fill="#000000" fill-rule="nonzero" fill-opacity="1" /><path clip-path="url(#clip470)" d="M119.482 58.6445 L124.367 58.6445 L124.367 64.5241 L119.482 64.5241 L119.482 58.6445 Z" fill="#000000" fill-rule="nonzero" fill-opacity="1" /><path clip-path="url(#clip470)" d="M144.552 33.0428 Q140.941 33.0428 139.112 36.6076 Q137.306 40.1492 137.306 47.2788 Q137.306 54.3853 139.112 57.9501 Q140.941 61.4917 144.552 61.4917 Q148.186 61.4917 149.991 57.9501 Q151.82 54.3853 151.82 47.2788 Q151.82 40.1492 149.991 36.6076 Q148.186 33.0428 144.552 33.0428 M144.552 29.3391 Q150.362 29.3391 153.417 33.9456 Q156.496 38.5289 156.496 47.2788 Q156.496 56.0056 153.417 60.6121 Q150.362 65.1954 144.552 65.1954 Q138.741 65.1954 135.663 60.6121 Q132.607 56.0056 132.607 47.2788 Q132.607 38.5289 135.663 33.9456 Q138.741 29.3391 144.552 29.3391 Z" fill="#000000" fill-rule="nonzero" fill-opacity="1" /><polyline clip-path="url(#clip472)" style="stroke:#000000; stroke-linecap:round; stroke-linejoin:round; stroke-width:4; stroke-opacity:0.5; fill:none" points="196.816,924.012 199.262,924.012 201.709,924.012 204.155,924.012 206.602,924.012 209.048,924.012 211.494,924.012 213.941,924.012 216.387,924.012 218.833,924.012 221.28,924.012 223.726,924.012 226.173,924.012 228.619,924.012 231.065,924.012 233.512,924.012 235.958,924.012 238.405,924.012 240.851,924.012 243.297,924.012 245.744,924.012 248.19,924.012 250.636,924.012 253.083,924.012 255.529,924.012 257.976,924.012 260.422,924.012 262.868,924.012 265.315,924.012 267.761,924.012 270.208,924.012 272.654,924.012 275.1,924.012 277.547,924.012 279.993,924.012 282.44,924.012 284.886,924.012 287.332,924.012 289.779,924.012 292.225,924.012 294.671,924.012 297.118,924.012 299.564,924.012 302.011,924.012 304.457,924.012 306.903,924.012 309.35,924.012 311.796,924.012 314.243,924.012 316.689,924.012 319.135,924.012 321.582,924.012 324.028,924.012 326.474,924.012 328.921,924.012 331.367,924.012 333.814,924.012 336.26,924.012 338.706,924.012 341.153,924.012 343.599,924.012 346.046,924.012 348.492,924.012 350.938,924.012 353.385,924.012 355.831,924.012 358.277,924.012 360.724,924.012 363.17,924.012 365.617,924.012 368.063,924.012 370.509,924.012 372.956,924.012 375.402,924.012 377.849,924.012 380.295,924.012 382.741,924.012 385.188,924.012 387.634,924.012 390.081,924.012 392.527,924.012 394.973,924.012 397.42,924.012 399.866,924.012 402.312,924.012 404.759,924.012 407.205,924.012 409.652,924.012 412.098,924.012 414.544,924.012 416.991,924.012 419.437,924.012 421.884,924.012 424.33,924.012 426.776,924.012 429.223,924.012 431.669,924.012 434.115,924.012 436.562,924.012 439.008,924.012 441.455,924.012 443.901,924.012 446.347,924.012 448.794,924.012 451.24,924.012 453.687,924.012 456.133,924.012 458.579,924.012 461.026,924.012 463.472,924.012 465.918,924.012 468.365,924.012 470.811,924.012 473.258,924.012 475.704,924.012 478.15,924.012 480.597,924.012 483.043,924.012 485.49,924.012 487.936,924.012 490.382,924.012 492.829,924.012 495.275,924.012 497.722,924.012 500.168,924.012 502.614,924.012 505.061,924.012 507.507,924.012 509.953,924.012 512.4,924.012 514.846,924.012 517.293,924.012 519.739,924.012 522.185,924.012 524.632,924.012 527.078,924.012 529.525,924.012 531.971,924.012 534.417,924.012 536.864,924.012 539.31,924.012 541.756,924.012 544.203,924.012 546.649,924.012 549.096,924.012 551.542,924.012 553.988,924.012 556.435,924.012 558.881,924.012 561.328,924.012 563.774,924.012 566.22,924.012 568.667,924.012 571.113,924.012 573.559,924.012 576.006,924.012 578.452,924.012 580.899,924.012 583.345,924.012 585.791,924.012 588.238,924.012 590.684,924.012 593.131,924.012 595.577,924.012 598.023,924.012 600.47,924.012 602.916,924.012 605.363,924.012 607.809,924.012 610.255,924.012 612.702,924.012 615.148,924.012 617.594,924.012 620.041,924.012 622.487,924.012 624.934,924.012 627.38,924.012 629.826,924.012 632.273,924.012 634.719,924.012 637.166,924.012 639.612,924.012 642.058,924.012 644.505,924.012 646.951,924.012 649.397,924.012 651.844,924.012 654.29,924.012 656.737,924.012 659.183,924.012 661.629,924.012 664.076,924.012 666.522,924.012 668.969,924.012 671.415,924.012 673.861,924.012 676.308,924.012 678.754,924.012 681.2,924.012 683.647,924.012 686.093,924.012 688.54,924.012 690.986,924.012 693.432,924.012 695.879,924.012 698.325,924.012 700.772,924.012 703.218,924.012 705.664,924.012 708.111,924.012 710.557,924.012 713.004,924.012 715.45,924.012 717.896,924.012 720.343,924.012 722.789,924.012 725.235,924.012 727.682,924.012 730.128,924.012 732.575,924.012 735.021,924.012 737.467,924.012 739.914,924.012 742.36,924.012 744.807,924.012 747.253,924.012 749.699,924.012 752.146,924.012 754.592,924.012 757.038,924.012 759.485,924.012 761.931,924.012 764.378,924.012 766.824,924.012 769.27,924.012 771.717,924.012 774.163,924.012 776.61,924.012 779.056,924.012 781.502,924.012 783.949,924.012 786.395,924.012 788.841,924.012 791.288,924.012 793.734,924.012 796.181,924.012 798.627,924.012 801.073,924.012 803.52,924.012 805.966,924.012 808.413,924.012 810.859,924.012 813.305,924.012 815.752,924.012 818.198,924.012 820.645,924.012 823.091,924.012 825.537,924.012 827.984,924.012 830.43,924.012 832.876,924.012 835.323,924.012 837.769,924.012 840.216,924.012 842.662,924.012 845.108,924.012 847.555,924.012 850.001,924.012 852.448,924.012 854.894,924.012 857.34,924.012 859.787,924.012 862.233,924.012 864.679,924.012 867.126,924.012 869.572,924.012 872.019,924.012 874.465,924.012 876.911,924.012 879.358,924.012 881.804,924.012 884.251,924.012 886.697,924.012 889.143,924.012 891.59,924.012 894.036,924.012 896.482,924.012 898.929,924.012 901.375,924.012 903.822,924.012 906.268,924.012 908.714,924.012 911.161,924.012 913.607,924.012 916.054,924.012 918.5,924.012 920.946,924.012 923.393,924.012 925.839,924.012 928.285,924.012 930.732,924.012 933.178,924.012 935.625,924.012 938.071,924.012 940.517,924.012 942.964,924.012 945.41,924.012 947.857,924.012 950.303,924.012 952.749,924.012 955.196,924.012 957.642,924.012 960.089,924.012 962.535,924.012 964.981,924.012 967.428,924.012 969.874,924.012 972.32,924.012 974.767,924.012 977.213,924.012 979.66,924.012 982.106,924.012 984.552,924.012 986.999,924.012 989.445,924.012 991.892,924.012 994.338,924.012 996.784,924.012 999.231,924.012 1001.68,924.012 1004.12,924.012 1006.57,924.012 1009.02,924.012 1011.46,924.012 1013.91,924.012 1016.36,924.012 1018.8,924.012 1021.25,924.012 1023.69,924.012 1026.14,924.012 1028.59,924.012 1031.03,924.012 1033.48,924.012 1035.93,924.012 1038.37,924.012 1040.82,924.012 1043.27,924.012 1045.71,924.012 1048.16,924.012 1050.6,924.012 1053.05,924.012 1055.5,924.012 1057.94,924.012 1060.39,924.012 1062.84,924.012 1065.28,924.012 1067.73,924.012 1070.18,924.012 1072.62,924.012 1075.07,924.012 1077.52,924.012 1079.96,924.012 1082.41,924.012 1084.85,924.012 1087.3,924.012 1089.75,924.012 1092.19,924.012 1094.64,924.012 1097.09,924.012 1099.53,924.012 1101.98,924.012 1104.43,924.012 1106.87,924.012 1109.32,924.012 1111.76,924.012 1114.21,924.012 1116.66,924.012 1119.1,924.012 1121.55,924.012 1124,924.012 1126.44,924.012 1128.89,924.012 1131.34,924.012 1133.78,924.012 1136.23,924.012 1138.67,924.012 1141.12,924.012 1143.57,924.012 1146.01,924.012 1148.46,924.012 1150.91,924.012 1153.35,924.012 1155.8,924.012 1158.25,924.012 1160.69,924.012 1163.14,924.012 1165.58,924.012 1168.03,924.012 1170.48,924.012 1172.92,924.012 1175.37,924.012 1177.82,924.012 1180.26,924.012 1182.71,924.012 1185.16,924.012 1187.6,924.012 1190.05,924.012 1192.5,924.012 1194.94,924.012 1197.39,924.012 1199.83,924.012 1202.28,924.012 1204.73,924.012 1207.17,924.012 1209.62,924.012 1212.07,924.012 1214.51,924.012 1216.96,924.012 1219.41,924.012 1221.85,924.012 1224.3,924.012 1226.74,924.012 1229.19,924.012 1231.64,924.012 1234.08,924.012 1236.53,924.012 1238.98,924.012 1241.42,924.012 1243.87,924.012 1246.32,924.012 1248.76,924.012 1251.21,924.012 1253.65,924.012 1256.1,924.012 1258.55,924.012 1260.99,924.012 1263.44,924.012 1265.89,924.012 1268.33,924.012 1270.78,924.012 1273.23,924.012 1275.67,924.012 1278.12,924.012 1280.57,924.012 1283.01,924.012 1285.46,924.012 1287.9,924.012 1290.35,924.012 1292.8,924.012 1295.24,924.012 1297.69,924.012 1300.14,924.012 1302.58,924.012 1305.03,924.012 1307.48,924.012 1309.92,924.012 1312.37,924.012 1314.81,924.012 1317.26,924.012 1319.71,924.012 1322.15,924.012 1324.6,924.012 1327.05,924.012 1329.49,924.012 1331.94,924.012 1334.39,924.012 1336.83,924.012 1339.28,924.012 1341.72,924.012 1344.17,924.012 1346.62,924.012 1349.06,924.012 1351.51,924.012 1353.96,924.012 1356.4,924.012 1358.85,924.012 1361.3,924.012 1363.74,924.012 1366.19,924.012 1368.64,924.012 1371.08,924.012 1373.53,924.012 1375.97,924.012 1378.42,924.012 1380.87,924.012 1383.31,924.012 1385.76,924.012 1388.21,924.012 1390.65,924.012 1393.1,924.012 1395.55,924.012 1397.99,924.012 1400.44,924.012 1402.88,924.012 1405.33,924.012 1407.78,924.012 1410.22,924.012 1412.67,924.012 1415.12,924.012 1417.56,924.012 1420.01,924.012 1422.46,924.012 1424.9,924.012 1427.35,924.012 1429.79,924.012 1432.24,924.012 1434.69,924.012 1437.13,924.012 1439.58,924.012 1442.03,924.012 1444.47,924.012 1446.92,924.012 1449.37,924.012 1451.81,924.012 1454.26,924.012 1456.7,924.012 1459.15,924.012 1461.6,924.012 1464.04,924.012 1466.49,924.012 1468.94,924.012 1471.38,924.012 1473.83,924.012 1476.28,924.012 1478.72,924.012 1481.17,924.012 1483.62,924.012 1486.06,924.012 1488.51,924.012 1490.95,924.012 1493.4,924.012 1495.85,924.012 1498.29,924.012 1500.74,924.012 1503.19,924.012 1505.63,924.012 1508.08,924.012 1510.53,924.012 1512.97,924.012 1515.42,924.012 1517.86,924.012 1520.31,924.012 1522.76,924.012 1525.2,924.012 1527.65,924.012 1530.1,924.012 1532.54,924.012 1534.99,924.012 1537.44,924.012 1539.88,924.012 1542.33,924.012 1544.77,924.012 1547.22,924.012 1549.67,924.012 1552.11,924.012 1554.56,924.012 1557.01,924.012 1559.45,924.012 1561.9,924.012 1564.35,924.012 1566.79,924.012 1569.24,924.012 1571.69,924.012 1574.13,924.012 1576.58,924.012 1579.02,924.012 1581.47,924.012 1583.92,924.012 1586.36,924.012 1588.81,924.012 1591.26,924.012 1593.7,924.012 1596.15,924.012 1598.6,924.012 1601.04,924.012 1603.49,924.012 1605.93,924.012 1608.38,924.012 1610.83,924.012 1613.27,924.012 1615.72,924.012 1618.17,924.012 1620.61,924.012 1623.06,924.012 1625.51,924.012 1627.95,924.012 1630.4,924.012 1632.84,924.012 1635.29,924.012 1637.74,924.012 1640.18,924.012 1642.63,924.012 1645.08,924.012 1647.52,924.012 1649.97,924.012 1652.42,924.012 1654.86,924.012 1657.31,924.012 1659.76,924.012 1662.2,924.012 1664.65,924.012 1667.09,924.012 1669.54,924.012 1671.99,924.012 1674.43,924.012 1676.88,924.012 1679.33,924.012 1681.77,924.012 1684.22,924.012 1686.67,924.012 1689.11,924.012 1691.56,924.012 1694,924.012 1696.45,924.012 1698.9,924.012 1701.34,924.012 1703.79,924.012 1706.24,924.012 1708.68,924.012 1711.13,924.012 1713.58,924.012 1716.02,924.012 1718.47,924.012 1720.91,924.012 1723.36,924.012 1725.81,924.012 1728.25,924.012 1730.7,924.012 1733.15,924.012 1735.59,924.012 1738.04,924.012 1740.49,924.012 1742.93,924.012 1745.38,924.012 1747.82,924.012 1750.27,924.012 1752.72,924.012 1755.16,924.012 1757.61,924.012 1760.06,924.012 1762.5,924.012 1764.95,924.012 1767.4,924.012 1769.84,924.012 1772.29,924.012 1774.74,924.012 1777.18,924.012 1779.63,924.012 1782.07,924.012 1784.52,924.012 1786.97,924.012 1789.41,924.012 1791.86,924.012 1794.31,924.012 1796.75,924.012 1799.2,924.012 1801.65,924.012 1804.09,924.012 1806.54,924.012 1808.98,924.012 1811.43,924.012 1813.88,924.012 1816.32,924.012 1818.77,924.012 1821.22,924.012 1823.66,924.012 1826.11,924.012 1828.56,924.012 1831,924.012 1833.45,924.012 1835.89,924.012 1838.34,924.012 1840.79,924.012 1843.23,924.012 1845.68,924.012 1848.13,924.012 1850.57,924.012 1853.02,924.012 1855.47,924.012 1857.91,924.012 1860.36,924.012 1862.81,924.012 1865.25,924.012 1867.7,924.012 1870.14,924.012 1872.59,924.012 1875.04,924.012 1877.48,924.012 1879.93,924.012 1882.38,924.012 1884.82,924.012 1887.27,924.012 1889.72,924.012 1892.16,924.012 1894.61,924.012 1897.05,924.012 1899.5,924.012 1901.95,924.012 1904.39,924.012 1906.84,924.012 1909.29,924.012 1911.73,924.012 1914.18,924.012 1916.63,924.012 1919.07,924.012 1921.52,924.012 1923.96,924.012 1926.41,924.012 1928.86,924.012 1931.3,924.012 1933.75,924.012 1936.2,924.012 1938.64,924.012 1941.09,924.012 1943.54,924.012 1945.98,924.012 1948.43,924.012 1950.87,924.012 1953.32,924.012 1955.77,924.012 1958.21,924.012 1960.66,924.012 1963.11,924.012 1965.55,924.012 1968,924.012 1970.45,924.012 1972.89,924.012 1975.34,924.012 1977.79,924.012 1980.23,924.012 1982.68,924.012 1985.12,924.012 1987.57,924.012 1990.02,924.012 1992.46,924.012 1994.91,924.012 1997.36,924.012 1999.8,924.012 2002.25,924.012 2004.7,924.012 2007.14,924.012 2009.59,924.012 2012.03,924.012 2014.48,924.012 2016.93,924.012 2019.37,924.012 2021.82,924.012 2024.27,924.012 2026.71,924.012 2029.16,924.012 2031.61,924.012 2034.05,924.012 2036.5,924.012 2038.94,924.012 2041.39,924.012 2043.84,924.012 2046.28,924.012 2048.73,924.012 2051.18,924.012 2053.62,924.012 2056.07,924.012 2058.52,924.012 2060.96,924.012 2063.41,924.012 2065.86,924.012 2068.3,924.012 2070.75,924.012 2073.19,924.012 2075.64,924.012 2078.09,924.012 2080.53,924.012 2082.98,924.012 2085.43,924.012 2087.87,924.012 2090.32,924.012 2092.77,924.012 2095.21,924.012 2097.66,924.012 2100.1,924.012 2102.55,924.012 2105,924.012 2107.44,924.012 2109.89,924.012 2112.34,924.012 2114.78,924.012 2117.23,924.012 2119.68,924.012 2122.12,924.012 2124.57,924.012 2127.01,924.012 2129.46,924.012 2131.91,924.012 2134.35,924.012 2136.8,924.012 2139.25,924.012 2141.69,924.012 2144.14,924.012 2146.59,924.012 2149.03,924.012 2151.48,924.012 2153.93,924.012 2156.37,924.012 2158.82,924.012 2161.26,924.012 2163.71,924.012 2166.16,924.012 2168.6,924.012 2171.05,924.012 2173.5,924.012 2175.94,924.012 2178.39,924.012 2180.84,924.012 2183.28,924.012 2185.73,924.012 2188.17,924.012 2190.62,924.012 2193.07,924.012 2195.51,924.012 2197.96,924.012 2200.41,924.012 2202.85,924.012 2205.3,924.012 2207.75,924.012 2210.19,924.012 2212.64,924.012 2215.08,924.012 2217.53,924.012 2219.98,924.012 2222.42,924.012 2224.87,924.012 2227.32,924.012 2229.76,924.012 2232.21,924.012 2234.66,924.012 2237.1,924.012 2239.55,924.012 2241.99,924.012 2244.44,924.012 2246.89,924.012 2249.33,924.012 2251.78,924.012 2254.23,924.012 2256.67,924.012 2259.12,924.012 2261.57,924.012 2264.01,924.012 2266.46,924.012 2268.91,924.012 2271.35,924.012 2273.8,924.012 2276.24,924.012 2278.69,924.012 2281.14,924.012 2283.58,924.012 2286.03,924.012 2288.48,924.012 2290.92,924.012 2293.37,924.012 2295.82,924.012 2298.26,924.012 2300.71,924.012 2303.15,924.012 2305.6,924.012 2308.05,924.012 2310.49,924.012 2312.94,924.012 2315.39,924.012 2317.83,924.012 2320.28,924.012 2322.73,924.012 2325.17,924.012 2327.62,924.012 2330.06,924.012 2332.51,924.012 2334.96,924.012 2337.4,924.012 2339.85,924.012 2342.3,924.012 2344.74,924.012 2347.19,924.012 2349.64,924.012 2352.08,924.012 2354.53,924.012 2356.98,924.012 2359.42,924.012 2361.87,924.012 2364.31,924.012 2366.76,924.012 2369.21,924.012 2371.65,924.012 2374.1,924.012 2376.55,924.012 2378.99,924.012 2381.44,924.012 2383.89,924.012 2386.33,924.012 2388.78,924.012 2391.22,924.012 2393.67,924.012 2396.12,924.012 2398.56,924.012 2401.01,924.012 2403.46,924.012 2405.9,924.012 2408.35,924.012 2410.8,924.012 2413.24,924.012 2415.69,924.012 2418.13,924.012 2420.58,924.012 2423.03,924.012 2425.47,924.012 2427.92,924.012 2430.37,924.012 2432.81,924.012 2435.26,924.012 2437.71,924.012 2440.15,924.012 2442.6,924.012 2445.05,924.012 2447.49,924.012 2449.94,924.012 2452.38,924.012 2454.83,924.012 2457.28,924.012 2459.72,924.012 2462.17,924.012 2464.62,924.012 2467.06,924.012 2469.51,924.012 2471.96,924.012 2474.4,924.012 2476.85,924.012 2479.29,924.012 2481.74,924.012 2484.19,924.012 2486.63,924.012 2489.08,924.012 2491.53,924.012 2493.97,924.012 2496.42,924.012 2498.87,924.012 2501.31,924.012 2503.76,924.012 2506.2,924.012 2508.65,924.012 2511.1,924.012 2513.54,924.012 2515.99,924.012 2518.44,924.012 2520.88,924.012 2523.33,924.012 2525.78,924.012 2528.22,924.012 2530.67,924.012 2533.11,924.012 2535.56,924.012 2538.01,924.012 2540.45,924.012 2542.9,924.012 2545.35,924.012 2547.79,924.012 2550.24,924.012 2552.69,924.012 2555.13,924.012 2557.58,924.012 2560.03,924.012 2562.47,924.012 2564.92,924.012 2567.36,924.012 2569.81,924.012 2572.26,924.012 2574.7,924.012 2577.15,924.012 2579.6,924.012 2582.04,924.012 2584.49,924.012 2586.94,924.012 2589.38,924.012 2591.83,924.012 2594.27,924.012 2596.72,924.012 2599.17,924.012 2601.61,924.012 2604.06,924.012 2606.51,924.012 2608.95,924.012 2611.4,924.012 2613.85,924.012 2616.29,924.012 2618.74,924.012 2621.18,924.012 2623.63,924.012 2626.08,924.012 2628.52,924.012 2630.97,924.012 2633.42,924.012 2635.86,924.012 2638.31,924.012 2640.76,924.012 "/>
<circle clip-path="url(#clip472)" cx="196.816" cy="923.603" r="14.4" fill="#000000" fill-rule="evenodd" fill-opacity="1" stroke="none"/>
<circle clip-path="url(#clip472)" cx="441.21" cy="928.072" r="14.4" fill="#000000" fill-rule="evenodd" fill-opacity="1" stroke="none"/>
<circle clip-path="url(#clip472)" cx="685.604" cy="943.48" r="14.4" fill="#000000" fill-rule="evenodd" fill-opacity="1" stroke="none"/>
<circle clip-path="url(#clip472)" cx="929.998" cy="932.28" r="14.4" fill="#000000" fill-rule="evenodd" fill-opacity="1" stroke="none"/>
<circle clip-path="url(#clip472)" cx="1174.39" cy="889.782" r="14.4" fill="#000000" fill-rule="evenodd" fill-opacity="1" stroke="none"/>
<circle clip-path="url(#clip472)" cx="1418.79" cy="905.56" r="14.4" fill="#000000" fill-rule="evenodd" fill-opacity="1" stroke="none"/>
<circle clip-path="url(#clip472)" cx="1663.18" cy="932.686" r="14.4" fill="#000000" fill-rule="evenodd" fill-opacity="1" stroke="none"/>
<circle clip-path="url(#clip472)" cx="1907.57" cy="926.587" r="14.4" fill="#000000" fill-rule="evenodd" fill-opacity="1" stroke="none"/>
<circle clip-path="url(#clip472)" cx="2151.97" cy="912.834" r="14.4" fill="#000000" fill-rule="evenodd" fill-opacity="1" stroke="none"/>
<circle clip-path="url(#clip472)" cx="2396.36" cy="903.899" r="14.4" fill="#000000" fill-rule="evenodd" fill-opacity="1" stroke="none"/>
<circle clip-path="url(#clip472)" cx="2640.76" cy="927.612" r="14.4" fill="#000000" fill-rule="evenodd" fill-opacity="1" stroke="none"/>
</svg>
