<?xml version="1.0" encoding="utf-8"?>
<svg xmlns="http://www.w3.org/2000/svg" xmlns:xlink="http://www.w3.org/1999/xlink" width="672" height="480" viewBox="0 0 2688 1920">
<defs>
  <clipPath id="clip150">
    <rect x="0" y="0" width="2688" height="1920"/>
  </clipPath>
</defs>
<path clip-path="url(#clip150)" d="M0 1920 L2688 1920 L2688 0 L0 0  Z" fill="#ffffff" fill-rule="evenodd" fill-opacity="1"/>
<defs>
  <clipPath id="clip151">
    <rect x="537" y="0" width="1883" height="1883"/>
  </clipPath>
</defs>
<path clip-path="url(#clip150)" d="M196.816 1800.78 L2640.76 1800.78 L2640.76 47.2441 L196.816 47.2441  Z" fill="#ffffff" fill-rule="evenodd" fill-opacity="1"/>
<defs>
  <clipPath id="clip152">
    <rect x="196" y="47" width="2445" height="1755"/>
  </clipPath>
</defs>
<polyline clip-path="url(#clip152)" style="stroke:#000000; stroke-linecap:round; stroke-linejoin:round; stroke-width:2; stroke-opacity:0.1; fill:none" points="196.816,1800.78 196.816,47.2441 "/>
<polyline clip-path="url(#clip152)" style="stroke:#000000; stroke-linecap:round; stroke-linejoin:round; stroke-width:2; stroke-opacity:0.1; fill:none" points="807.801,1800.78 807.801,47.2441 "/>
<polyline clip-path="url(#clip152)" style="stroke:#000000; stroke-linecap:round; stroke-linejoin:round; stroke-width:2; stroke-opacity:0.1; fill:none" points="1418.79,1800.78 1418.79,47.2441 "/>
<polyline clip-path="url(#clip152)" style="stroke:#000000; stroke-linecap:round; stroke-linejoin:round; stroke-width:2; stroke-opacity:0.1; fill:none" points="2029.77,1800.78 2029.77,47.2441 "/>
<polyline clip-path="url(#clip152)" style="stroke:#000000; stroke-linecap:round; stroke-linejoin:round; stroke-width:2; stroke-opacity:0.1; fill:none" points="2640.76,1800.78 2640.76,47.2441 "/>
<polyline clip-path="url(#clip150)" style="stroke:#000000; stroke-linecap:round; stroke-linejoin:round; stroke-width:4; stroke-opacity:1; fill:none" points="196.816,1800.78 2640.76,1800.78 "/>
<polyline clip-path="url(#clip150)" style="stroke:#000000; stroke-linecap:round; stroke-linejoin:round; stroke-width:4; stroke-opacity:1; fill:none" points="196.816,1800.78 196.816,1781.88 "/>
<polyline clip-path="url(#clip150)" style="stroke:#000000; stroke-linecap:round; stroke-linejoin:round; stroke-width:4; stroke-opacity:1; fill:none" points="807.801,1800.78 807.801,1781.88 "/>
<polyline clip-path="url(#clip150)" style="stroke:#000000; stroke-linecap:round; stroke-linejoin:round; stroke-width:4; stroke-opacity:1; fill:none" points="1418.79,1800.78 1418.79,1781.88 "/>
<polyline clip-path="url(#clip150)" style="stroke:#000000; stroke-linecap:round; stroke-linejoin:round; stroke-width:4; stroke-opacity:1; fill:none" points="2029.77,1800.78 2029.77,1781.88 "/>
<polyline clip-path="url(#clip150)" style="stroke:#000000; stroke-linecap:round; stroke-linejoin:round; stroke-width:4; stroke-opacity:1; fill:none" points="2640.76,1800.78 2640.76,1781.88 "/>
<path clip-path="url(#clip150)" d="M143.344 1848.65 L173.02 1848.65 L173.02 1852.59 L143.344 1852.59 L143.344 1848.65 Z" fill="#000000" fill-rule="nonzero" fill-opacity="1" /><path clip-path="url(#clip150)" d="M183.159 1830.92 L201.515 1830.92 L201.515 1834.86 L187.441 1834.86 L187.441 1843.33 Q188.46 1842.98 189.478 1842.82 Q190.497 1842.64 191.515 1842.64 Q197.302 1842.64 200.682 1845.81 Q204.061 1848.98 204.061 1854.4 Q204.061 1859.97 200.589 1863.08 Q197.117 1866.15 190.798 1866.15 Q188.622 1866.15 186.353 1865.78 Q184.108 1865.41 181.7 1864.67 L181.7 1859.97 Q183.784 1861.11 186.006 1861.66 Q188.228 1862.22 190.705 1862.22 Q194.71 1862.22 197.047 1860.11 Q199.385 1858.01 199.385 1854.4 Q199.385 1850.78 197.047 1848.68 Q194.71 1846.57 190.705 1846.57 Q188.83 1846.57 186.955 1846.99 Q185.103 1847.4 183.159 1848.28 L183.159 1830.92 Z" fill="#000000" fill-rule="nonzero" fill-opacity="1" /><path clip-path="url(#clip150)" d="M213.274 1859.6 L218.158 1859.6 L218.158 1865.48 L213.274 1865.48 L213.274 1859.6 Z" fill="#000000" fill-rule="nonzero" fill-opacity="1" /><path clip-path="url(#clip150)" d="M238.344 1834 Q234.732 1834 232.904 1837.57 Q231.098 1841.11 231.098 1848.24 Q231.098 1855.34 232.904 1858.91 Q234.732 1862.45 238.344 1862.45 Q241.978 1862.45 243.783 1858.91 Q245.612 1855.34 245.612 1848.24 Q245.612 1841.11 243.783 1837.57 Q241.978 1834 238.344 1834 M238.344 1830.3 Q244.154 1830.3 247.209 1834.9 Q250.288 1839.49 250.288 1848.24 Q250.288 1856.96 247.209 1861.57 Q244.154 1866.15 238.344 1866.15 Q232.533 1866.15 229.455 1861.57 Q226.399 1856.96 226.399 1848.24 Q226.399 1839.49 229.455 1834.9 Q232.533 1830.3 238.344 1830.3 Z" fill="#000000" fill-rule="nonzero" fill-opacity="1" /><path clip-path="url(#clip150)" d="M754.827 1848.65 L784.502 1848.65 L784.502 1852.59 L754.827 1852.59 L754.827 1848.65 Z" fill="#000000" fill-rule="nonzero" fill-opacity="1" /><path clip-path="url(#clip150)" d="M798.623 1861.55 L814.942 1861.55 L814.942 1865.48 L792.998 1865.48 L792.998 1861.55 Q795.66 1858.79 800.243 1854.16 Q804.85 1849.51 806.03 1848.17 Q808.276 1845.65 809.155 1843.91 Q810.058 1842.15 810.058 1840.46 Q810.058 1837.71 808.113 1835.97 Q806.192 1834.23 803.09 1834.23 Q800.891 1834.23 798.438 1835 Q796.007 1835.76 793.229 1837.31 L793.229 1832.59 Q796.053 1831.46 798.507 1830.88 Q800.961 1830.3 802.998 1830.3 Q808.368 1830.3 811.563 1832.98 Q814.757 1835.67 814.757 1840.16 Q814.757 1842.29 813.947 1844.21 Q813.16 1846.11 811.053 1848.7 Q810.475 1849.37 807.373 1852.59 Q804.271 1855.78 798.623 1861.55 Z" fill="#000000" fill-rule="nonzero" fill-opacity="1" /><path clip-path="url(#clip150)" d="M824.757 1859.6 L829.641 1859.6 L829.641 1865.48 L824.757 1865.48 L824.757 1859.6 Z" fill="#000000" fill-rule="nonzero" fill-opacity="1" /><path clip-path="url(#clip150)" d="M839.873 1830.92 L858.229 1830.92 L858.229 1834.86 L844.155 1834.86 L844.155 1843.33 Q845.173 1842.98 846.192 1842.82 Q847.21 1842.64 848.229 1842.64 Q854.016 1842.64 857.396 1845.81 Q860.775 1848.98 860.775 1854.4 Q860.775 1859.97 857.303 1863.08 Q853.831 1866.15 847.511 1866.15 Q845.335 1866.15 843.067 1865.78 Q840.822 1865.41 838.414 1864.67 L838.414 1859.97 Q840.498 1861.11 842.72 1861.66 Q844.942 1862.22 847.419 1862.22 Q851.423 1862.22 853.761 1860.11 Q856.099 1858.01 856.099 1854.4 Q856.099 1850.78 853.761 1848.68 Q851.423 1846.57 847.419 1846.57 Q845.544 1846.57 843.669 1846.99 Q841.817 1847.4 839.873 1848.28 L839.873 1830.92 Z" fill="#000000" fill-rule="nonzero" fill-opacity="1" /><path clip-path="url(#clip150)" d="M1396.17 1834 Q1392.56 1834 1390.73 1837.57 Q1388.93 1841.11 1388.93 1848.24 Q1388.93 1855.34 1390.73 1858.91 Q1392.56 1862.45 1396.17 1862.45 Q1399.8 1862.45 1401.61 1858.91 Q1403.44 1855.34 1403.44 1848.24 Q1403.44 1841.11 1401.61 1837.57 Q1399.8 1834 1396.17 1834 M1396.17 1830.3 Q1401.98 1830.3 1405.04 1834.9 Q1408.11 1839.49 1408.11 1848.24 Q1408.11 1856.96 1405.04 1861.57 Q1401.98 1866.15 1396.17 1866.15 Q1390.36 1866.15 1387.28 1861.57 Q1384.23 1856.96 1384.23 1848.24 Q1384.23 1839.49 1387.28 1834.9 Q1390.36 1830.3 1396.17 1830.3 Z" fill="#000000" fill-rule="nonzero" fill-opacity="1" /><path clip-path="url(#clip150)" d="M1416.33 1859.6 L1421.22 1859.6 L1421.22 1865.48 L1416.33 1865.48 L1416.33 1859.6 Z" fill="#000000" fill-rule="nonzero" fill-opacity="1" /><path clip-path="url(#clip150)" d="M1441.4 1834 Q1437.79 1834 1435.96 1837.57 Q1434.16 1841.11 1434.16 1848.24 Q1434.16 1855.34 1435.96 1858.91 Q1437.79 1862.45 1441.4 1862.45 Q1445.04 1862.45 1446.84 1858.91 Q1448.67 1855.34 1448.67 1848.24 Q1448.67 1841.11 1446.84 1837.57 Q1445.04 1834 1441.4 1834 M1441.4 1830.3 Q1447.21 1830.3 1450.27 1834.9 Q1453.35 1839.49 1453.35 1848.24 Q1453.35 1856.96 1450.27 1861.57 Q1447.21 1866.15 1441.4 1866.15 Q1435.59 1866.15 1432.51 1861.57 Q1429.46 1856.96 1429.46 1848.24 Q1429.46 1839.49 1432.51 1834.9 Q1435.59 1830.3 1441.4 1830.3 Z" fill="#000000" fill-rule="nonzero" fill-opacity="1" /><path clip-path="url(#clip150)" d="M2001.51 1861.55 L2017.83 1861.55 L2017.83 1865.48 L1995.88 1865.48 L1995.88 1861.55 Q1998.54 1858.79 2003.13 1854.16 Q2007.73 1849.51 2008.91 1848.17 Q2011.16 1845.65 2012.04 1843.91 Q2012.94 1842.15 2012.94 1840.46 Q2012.94 1837.71 2011 1835.97 Q2009.08 1834.23 2005.97 1834.23 Q2003.78 1834.23 2001.32 1835 Q1998.89 1835.76 1996.11 1837.31 L1996.11 1832.59 Q1998.94 1831.46 2001.39 1830.88 Q2003.85 1830.3 2005.88 1830.3 Q2011.25 1830.3 2014.45 1832.98 Q2017.64 1835.67 2017.64 1840.16 Q2017.64 1842.29 2016.83 1844.21 Q2016.04 1846.11 2013.94 1848.7 Q2013.36 1849.37 2010.26 1852.59 Q2007.16 1855.78 2001.51 1861.55 Z" fill="#000000" fill-rule="nonzero" fill-opacity="1" /><path clip-path="url(#clip150)" d="M2027.64 1859.6 L2032.53 1859.6 L2032.53 1865.48 L2027.64 1865.48 L2027.64 1859.6 Z" fill="#000000" fill-rule="nonzero" fill-opacity="1" /><path clip-path="url(#clip150)" d="M2042.76 1830.92 L2061.11 1830.92 L2061.11 1834.86 L2047.04 1834.86 L2047.04 1843.33 Q2048.06 1842.98 2049.08 1842.82 Q2050.09 1842.64 2051.11 1842.64 Q2056.9 1842.64 2060.28 1845.81 Q2063.66 1848.98 2063.66 1854.4 Q2063.66 1859.97 2060.19 1863.08 Q2056.72 1866.15 2050.4 1866.15 Q2048.22 1866.15 2045.95 1865.78 Q2043.71 1865.41 2041.3 1864.67 L2041.3 1859.97 Q2043.38 1861.11 2045.6 1861.66 Q2047.83 1862.22 2050.3 1862.22 Q2054.31 1862.22 2056.65 1860.11 Q2058.98 1858.01 2058.98 1854.4 Q2058.98 1850.78 2056.65 1848.68 Q2054.31 1846.57 2050.3 1846.57 Q2048.43 1846.57 2046.55 1846.99 Q2044.7 1847.4 2042.76 1848.28 L2042.76 1830.92 Z" fill="#000000" fill-rule="nonzero" fill-opacity="1" /><path clip-path="url(#clip150)" d="M2607.92 1830.92 L2626.28 1830.92 L2626.28 1834.86 L2612.2 1834.86 L2612.2 1843.33 Q2613.22 1842.98 2614.24 1842.82 Q2615.26 1842.64 2616.28 1842.64 Q2622.06 1842.64 2625.44 1845.81 Q2628.82 1848.98 2628.82 1854.4 Q2628.82 1859.97 2625.35 1863.08 Q2621.88 1866.15 2615.56 1866.15 Q2613.38 1866.15 2611.11 1865.78 Q2608.87 1865.41 2606.46 1864.67 L2606.46 1859.97 Q2608.55 1861.11 2610.77 1861.66 Q2612.99 1862.22 2615.47 1862.22 Q2619.47 1862.22 2621.81 1860.11 Q2624.15 1858.01 2624.15 1854.4 Q2624.15 1850.78 2621.81 1848.68 Q2619.47 1846.57 2615.47 1846.57 Q2613.59 1846.57 2611.72 1846.99 Q2609.86 1847.4 2607.92 1848.28 L2607.92 1830.92 Z" fill="#000000" fill-rule="nonzero" fill-opacity="1" /><path clip-path="url(#clip150)" d="M2638.04 1859.6 L2642.92 1859.6 L2642.92 1865.48 L2638.04 1865.48 L2638.04 1859.6 Z" fill="#000000" fill-rule="nonzero" fill-opacity="1" /><path clip-path="url(#clip150)" d="M2663.11 1834 Q2659.49 1834 2657.67 1837.57 Q2655.86 1841.11 2655.86 1848.24 Q2655.86 1855.34 2657.67 1858.91 Q2659.49 1862.45 2663.11 1862.45 Q2666.74 1862.45 2668.55 1858.91 Q2670.37 1855.34 2670.37 1848.24 Q2670.37 1841.11 2668.55 1837.57 Q2666.74 1834 2663.11 1834 M2663.11 1830.3 Q2668.92 1830.3 2671.97 1834.9 Q2675.05 1839.49 2675.05 1848.24 Q2675.05 1856.96 2671.97 1861.57 Q2668.92 1866.15 2663.11 1866.15 Q2657.3 1866.15 2654.22 1861.57 Q2651.16 1856.96 2651.16 1848.24 Q2651.16 1839.49 2654.22 1834.9 Q2657.3 1830.3 2663.11 1830.3 Z" fill="#000000" fill-rule="nonzero" fill-opacity="1" /><polyline clip-path="url(#clip152)" style="stroke:#000000; stroke-linecap:round; stroke-linejoin:round; stroke-width:2; stroke-opacity:0.1; fill:none" points="196.816,1800.78 2640.76,1800.78 "/>
<polyline clip-path="url(#clip152)" style="stroke:#000000; stroke-linecap:round; stroke-linejoin:round; stroke-width:2; stroke-opacity:0.1; fill:none" points="196.816,1362.4 2640.76,1362.4 "/>
<polyline clip-path="url(#clip152)" style="stroke:#000000; stroke-linecap:round; stroke-linejoin:round; stroke-width:2; stroke-opacity:0.1; fill:none" points="196.816,924.012 2640.76,924.012 "/>
<polyline clip-path="url(#clip152)" style="stroke:#000000; stroke-linecap:round; stroke-linejoin:round; stroke-width:2; stroke-opacity:0.1; fill:none" points="196.816,485.628 2640.76,485.628 "/>
<polyline clip-path="url(#clip152)" style="stroke:#000000; stroke-linecap:round; stroke-linejoin:round; stroke-width:2; stroke-opacity:0.1; fill:none" points="196.816,47.2441 2640.76,47.2441 "/>
<polyline clip-path="url(#clip150)" style="stroke:#000000; stroke-linecap:round; stroke-linejoin:round; stroke-width:4; stroke-opacity:1; fill:none" points="196.816,1800.78 196.816,47.2441 "/>
<polyline clip-path="url(#clip150)" style="stroke:#000000; stroke-linecap:round; stroke-linejoin:round; stroke-width:4; stroke-opacity:1; fill:none" points="196.816,1800.78 215.714,1800.78 "/>
<polyline clip-path="url(#clip150)" style="stroke:#000000; stroke-linecap:round; stroke-linejoin:round; stroke-width:4; stroke-opacity:1; fill:none" points="196.816,1362.4 215.714,1362.4 "/>
<polyline clip-path="url(#clip150)" style="stroke:#000000; stroke-linecap:round; stroke-linejoin:round; stroke-width:4; stroke-opacity:1; fill:none" points="196.816,924.012 215.714,924.012 "/>
<polyline clip-path="url(#clip150)" style="stroke:#000000; stroke-linecap:round; stroke-linejoin:round; stroke-width:4; stroke-opacity:1; fill:none" points="196.816,485.628 215.714,485.628 "/>
<polyline clip-path="url(#clip150)" style="stroke:#000000; stroke-linecap:round; stroke-linejoin:round; stroke-width:4; stroke-opacity:1; fill:none" points="196.816,47.2441 215.714,47.2441 "/>
<path clip-path="url(#clip150)" d="M49.5521 1801.23 L79.2279 1801.23 L79.2279 1805.17 L49.5521 1805.17 L49.5521 1801.23 Z" fill="#000000" fill-rule="nonzero" fill-opacity="1" /><path clip-path="url(#clip150)" d="M89.3667 1783.5 L107.723 1783.5 L107.723 1787.43 L93.6491 1787.43 L93.6491 1795.91 Q94.6676 1795.56 95.6861 1795.4 Q96.7047 1795.21 97.7232 1795.21 Q103.51 1795.21 106.89 1798.38 Q110.269 1801.55 110.269 1806.97 Q110.269 1812.55 106.797 1815.65 Q103.325 1818.73 97.0056 1818.73 Q94.8297 1818.73 92.5612 1818.36 Q90.3158 1817.99 87.9084 1817.25 L87.9084 1812.55 Q89.9917 1813.68 92.2139 1814.24 Q94.4361 1814.8 96.913 1814.8 Q100.918 1814.8 103.256 1812.69 Q105.593 1810.58 105.593 1806.97 Q105.593 1803.36 103.256 1801.25 Q100.918 1799.15 96.913 1799.15 Q95.038 1799.15 93.163 1799.56 Q91.3112 1799.98 89.3667 1800.86 L89.3667 1783.5 Z" fill="#000000" fill-rule="nonzero" fill-opacity="1" /><path clip-path="url(#clip150)" d="M119.482 1812.18 L124.367 1812.18 L124.367 1818.06 L119.482 1818.06 L119.482 1812.18 Z" fill="#000000" fill-rule="nonzero" fill-opacity="1" /><path clip-path="url(#clip150)" d="M144.552 1786.58 Q140.941 1786.58 139.112 1790.14 Q137.306 1793.68 137.306 1800.81 Q137.306 1807.92 139.112 1811.49 Q140.941 1815.03 144.552 1815.03 Q148.186 1815.03 149.991 1811.49 Q151.82 1807.92 151.82 1800.81 Q151.82 1793.68 149.991 1790.14 Q148.186 1786.58 144.552 1786.58 M144.552 1782.87 Q150.362 1782.87 153.417 1787.48 Q156.496 1792.06 156.496 1800.81 Q156.496 1809.54 153.417 1814.15 Q150.362 1818.73 144.552 1818.73 Q138.741 1818.73 135.663 1814.15 Q132.607 1809.54 132.607 1800.81 Q132.607 1792.06 135.663 1787.48 Q138.741 1782.87 144.552 1782.87 Z" fill="#000000" fill-rule="nonzero" fill-opacity="1" /><path clip-path="url(#clip150)" d="M50.5475 1362.85 L80.2233 1362.85 L80.2233 1366.78 L50.5475 1366.78 L50.5475 1362.85 Z" fill="#000000" fill-rule="nonzero" fill-opacity="1" /><path clip-path="url(#clip150)" d="M94.3436 1375.74 L110.663 1375.74 L110.663 1379.68 L88.7186 1379.68 L88.7186 1375.74 Q91.3806 1372.99 95.9639 1368.36 Q100.57 1363.7 101.751 1362.36 Q103.996 1359.84 104.876 1358.1 Q105.779 1356.34 105.779 1354.65 Q105.779 1351.9 103.834 1350.16 Q101.913 1348.43 98.8111 1348.43 Q96.6121 1348.43 94.1584 1349.19 Q91.7278 1349.95 88.9501 1351.5 L88.9501 1346.78 Q91.7741 1345.65 94.2278 1345.07 Q96.6815 1344.49 98.7185 1344.49 Q104.089 1344.49 107.283 1347.18 Q110.478 1349.86 110.478 1354.35 Q110.478 1356.48 109.668 1358.4 Q108.881 1360.3 106.774 1362.89 Q106.195 1363.56 103.094 1366.78 Q99.9917 1369.98 94.3436 1375.74 Z" fill="#000000" fill-rule="nonzero" fill-opacity="1" /><path clip-path="url(#clip150)" d="M120.478 1373.8 L125.362 1373.8 L125.362 1379.68 L120.478 1379.68 L120.478 1373.8 Z" fill="#000000" fill-rule="nonzero" fill-opacity="1" /><path clip-path="url(#clip150)" d="M135.593 1345.12 L153.95 1345.12 L153.95 1349.05 L139.876 1349.05 L139.876 1357.52 Q140.894 1357.18 141.913 1357.01 Q142.931 1356.83 143.95 1356.83 Q149.737 1356.83 153.116 1360 Q156.496 1363.17 156.496 1368.59 Q156.496 1374.17 153.024 1377.27 Q149.552 1380.35 143.232 1380.35 Q141.056 1380.35 138.788 1379.98 Q136.542 1379.61 134.135 1378.87 L134.135 1374.17 Q136.218 1375.3 138.441 1375.86 Q140.663 1376.41 143.14 1376.41 Q147.144 1376.41 149.482 1374.31 Q151.82 1372.2 151.82 1368.59 Q151.82 1364.98 149.482 1362.87 Q147.144 1360.76 143.14 1360.76 Q141.265 1360.76 139.39 1361.18 Q137.538 1361.6 135.593 1362.48 L135.593 1345.12 Z" fill="#000000" fill-rule="nonzero" fill-opacity="1" /><path clip-path="url(#clip150)" d="M99.3204 909.81 Q95.7093 909.81 93.8806 913.375 Q92.075 916.917 92.075 924.046 Q92.075 931.153 93.8806 934.718 Q95.7093 938.259 99.3204 938.259 Q102.955 938.259 104.76 934.718 Q106.589 931.153 106.589 924.046 Q106.589 916.917 104.76 913.375 Q102.955 909.81 99.3204 909.81 M99.3204 906.107 Q105.131 906.107 108.186 910.713 Q111.265 915.296 111.265 924.046 Q111.265 932.773 108.186 937.38 Q105.131 941.963 99.3204 941.963 Q93.5102 941.963 90.4315 937.38 Q87.376 932.773 87.376 924.046 Q87.376 915.296 90.4315 910.713 Q93.5102 906.107 99.3204 906.107 Z" fill="#000000" fill-rule="nonzero" fill-opacity="1" /><path clip-path="url(#clip150)" d="M119.482 935.412 L124.367 935.412 L124.367 941.292 L119.482 941.292 L119.482 935.412 Z" fill="#000000" fill-rule="nonzero" fill-opacity="1" /><path clip-path="url(#clip150)" d="M144.552 909.81 Q140.941 909.81 139.112 913.375 Q137.306 916.917 137.306 924.046 Q137.306 931.153 139.112 934.718 Q140.941 938.259 144.552 938.259 Q148.186 938.259 149.991 934.718 Q151.82 931.153 151.82 924.046 Q151.82 916.917 149.991 913.375 Q148.186 909.81 144.552 909.81 M144.552 906.107 Q150.362 906.107 153.417 910.713 Q156.496 915.296 156.496 924.046 Q156.496 932.773 153.417 937.38 Q150.362 941.963 144.552 941.963 Q138.741 941.963 135.663 937.38 Q132.607 932.773 132.607 924.046 Q132.607 915.296 135.663 910.713 Q138.741 906.107 144.552 906.107 Z" fill="#000000" fill-rule="nonzero" fill-opacity="1" /><path clip-path="url(#clip150)" d="M94.3436 498.973 L110.663 498.973 L110.663 502.908 L88.7186 502.908 L88.7186 498.973 Q91.3806 496.218 95.9639 491.589 Q100.57 486.936 101.751 485.593 Q103.996 483.07 104.876 481.334 Q105.779 479.575 105.779 477.885 Q105.779 475.13 103.834 473.394 Q101.913 471.658 98.8111 471.658 Q96.6121 471.658 94.1584 472.422 Q91.7278 473.186 88.9501 474.737 L88.9501 470.015 Q91.7741 468.88 94.2278 468.302 Q96.6815 467.723 98.7185 467.723 Q104.089 467.723 107.283 470.408 Q110.478 473.093 110.478 477.584 Q110.478 479.714 109.668 481.635 Q108.881 483.533 106.774 486.126 Q106.195 486.797 103.094 490.014 Q99.9917 493.209 94.3436 498.973 Z" fill="#000000" fill-rule="nonzero" fill-opacity="1" /><path clip-path="url(#clip150)" d="M120.478 497.028 L125.362 497.028 L125.362 502.908 L120.478 502.908 L120.478 497.028 Z" fill="#000000" fill-rule="nonzero" fill-opacity="1" /><path clip-path="url(#clip150)" d="M135.593 468.348 L153.95 468.348 L153.95 472.283 L139.876 472.283 L139.876 480.755 Q140.894 480.408 141.913 480.246 Q142.931 480.061 143.95 480.061 Q149.737 480.061 153.116 483.232 Q156.496 486.403 156.496 491.82 Q156.496 497.399 153.024 500.501 Q149.552 503.579 143.232 503.579 Q141.056 503.579 138.788 503.209 Q136.542 502.838 134.135 502.098 L134.135 497.399 Q136.218 498.533 138.441 499.088 Q140.663 499.644 143.14 499.644 Q147.144 499.644 149.482 497.538 Q151.82 495.431 151.82 491.82 Q151.82 488.209 149.482 486.102 Q147.144 483.996 143.14 483.996 Q141.265 483.996 139.39 484.413 Q137.538 484.829 135.593 485.709 L135.593 468.348 Z" fill="#000000" fill-rule="nonzero" fill-opacity="1" /><path clip-path="url(#clip150)" d="M89.3667 29.9641 L107.723 29.9641 L107.723 33.8993 L93.6491 33.8993 L93.6491 42.3714 Q94.6676 42.0242 95.6861 41.8622 Q96.7047 41.677 97.7232 41.677 Q103.51 41.677 106.89 44.8483 Q110.269 48.0196 110.269 53.4362 Q110.269 59.0149 106.797 62.1167 Q103.325 65.1954 97.0056 65.1954 Q94.8297 65.1954 92.5612 64.825 Q90.3158 64.4547 87.9084 63.7139 L87.9084 59.0149 Q89.9917 60.1491 92.2139 60.7047 Q94.4361 61.2602 96.913 61.2602 Q100.918 61.2602 103.256 59.1538 Q105.593 57.0473 105.593 53.4362 Q105.593 49.8251 103.256 47.7186 Q100.918 45.6122 96.913 45.6122 Q95.038 45.6122 93.163 46.0288 Q91.3112 46.4455 89.3667 47.3251 L89.3667 29.9641 Z" fill="#000000" fill-rule="nonzero" fill-opacity="1" /><path clip-path="url(#clip150)" d="M119.482 58.6445 L124.367 58.6445 L124.367 64.5241 L119.482 64.5241 L119.482 58.6445 Z" fill="#000000" fill-rule="nonzero" fill-opacity="1" /><path clip-path="url(#clip150)" d="M144.552 33.0428 Q140.941 33.0428 139.112 36.6076 Q137.306 40.1492 137.306 47.2788 Q137.306 54.3853 139.112 57.9501 Q140.941 61.4917 144.552 61.4917 Q148.186 61.4917 149.991 57.9501 Q151.82 54.3853 151.82 47.2788 Q151.82 40.1492 149.991 36.6076 Q148.186 33.0428 144.552 33.0428 M144.552 29.3391 Q150.362 29.3391 153.417 33.9456 Q156.496 38.5289 156.496 47.2788 Q156.496 56.0056 153.417 60.6121 Q150.362 65.1954 144.552 65.1954 Q138.741 65.1954 135.663 60.6121 Q132.607 56.0056 132.607 47.2788 Q132.607 38.5289 135.663 33.9456 Q138.741 29.3391 144.552 29.3391 Z" fill="#000000" fill-rule="nonzero" fill-opacity="1" /><polyline clip-path="url(#clip152)" style="stroke:#000000; stroke-linecap:round; stroke-linejoin:round; stroke-width:4; stroke-opacity:0.5; fill:none" points="196.816,834.867 199.262,835.708 201.709,836.55 204.155,837.391 206.602,838.233 209.048,839.074 211.494,839.916 213.941,840.757 216.387,841.599 218.833,842.44 221.28,843.282 223.726,844.124 226.173,844.965 228.619,845.807 231.065,846.648 233.512,847.49 235.958,848.331 238.405,849.173 240.851,850.014 243.297,850.856 245.744,851.697 248.19,852.539 250.636,853.38 253.083,854.222 255.529,855.064 257.976,855.905 260.422,856.747 262.868,857.588 265.315,858.43 267.761,859.271 270.208,860.113 272.654,860.954 275.1,861.796 277.547,862.637 279.993,863.479 282.44,864.32 284.886,865.162 287.332,866.004 289.779,866.845 292.225,867.687 294.671,868.528 297.118,869.37 299.564,870.211 302.011,871.053 304.457,871.894 306.903,872.736 309.35,873.577 311.796,874.419 314.243,875.261 316.689,876.102 319.135,876.944 321.582,877.785 324.028,878.627 326.474,879.468 328.921,880.31 331.367,881.151 333.814,881.993 336.26,882.834 338.706,883.676 341.153,884.517 343.599,885.359 346.046,886.201 348.492,887.042 350.938,887.884 353.385,888.725 355.831,889.567 358.277,890.408 360.724,891.25 363.17,892.091 365.617,892.933 368.063,893.774 370.509,894.616 372.956,895.457 375.402,896.299 377.849,897.141 380.295,897.982 382.741,898.824 385.188,899.665 387.634,900.507 390.081,901.348 392.527,902.19 394.973,903.031 397.42,903.873 399.866,904.714 402.312,905.556 404.759,906.397 407.205,907.239 409.652,908.081 412.098,908.922 414.544,909.764 416.991,910.605 419.437,911.447 421.884,912.288 424.33,913.13 426.776,913.971 429.223,914.813 431.669,915.654 434.115,916.496 436.562,917.337 439.008,918.179 441.455,919.021 443.901,919.862 446.347,920.704 448.794,921.545 451.24,922.387 453.687,923.228 456.133,924.07 458.579,924.911 461.026,925.753 463.472,926.594 465.918,927.436 468.365,928.277 470.811,929.119 473.258,929.961 475.704,930.802 478.15,931.644 480.597,932.485 483.043,933.327 485.49,934.168 487.936,935.01 490.382,935.851 492.829,936.693 495.275,937.534 497.722,938.376 500.168,939.218 502.614,940.059 505.061,940.901 507.507,941.742 509.953,942.584 512.4,943.425 514.846,944.267 517.293,945.108 519.739,945.95 522.185,946.791 524.632,947.633 527.078,948.474 529.525,949.316 531.971,950.158 534.417,950.999 536.864,951.841 539.31,952.682 541.756,953.524 544.203,954.365 546.649,955.207 549.096,956.048 551.542,956.89 553.988,957.731 556.435,958.573 558.881,959.414 561.328,960.256 563.774,961.098 566.22,961.939 568.667,962.781 571.113,963.622 573.559,964.464 576.006,965.305 578.452,966.147 580.899,966.988 583.345,967.83 585.791,968.671 588.238,969.513 590.684,970.354 593.131,971.196 595.577,972.038 598.023,972.879 600.47,973.721 602.916,974.562 605.363,975.404 607.809,976.245 610.255,977.087 612.702,977.928 615.148,978.77 617.594,979.611 620.041,980.453 622.487,981.294 624.934,982.136 627.38,982.978 629.826,983.819 632.273,984.661 634.719,985.502 637.166,986.344 639.612,987.185 642.058,988.027 644.505,988.868 646.951,989.71 649.397,990.551 651.844,991.393 654.29,992.234 656.737,993.076 659.183,993.918 661.629,994.759 664.076,995.601 666.522,996.442 668.969,997.284 671.415,998.125 673.861,998.967 676.308,999.808 678.754,1000.65 681.2,1001.49 683.647,1002.33 686.093,1003.17 688.54,1004.02 690.986,1004.86 693.432,1005.7 695.879,1006.54 698.325,1007.38 700.772,1008.22 703.218,1009.07 705.664,1009.91 708.111,1010.75 710.557,1011.59 713.004,1012.43 715.45,1013.27 717.896,1014.11 720.343,1014.96 722.789,1015.8 725.235,1016.64 727.682,1017.48 730.128,1018.32 732.575,1019.16 735.021,1020.01 737.467,1020.85 739.914,1021.69 742.36,1022.53 744.807,1023.37 747.253,1024.21 749.699,1025.05 752.146,1025.9 754.592,1026.74 757.038,1027.58 759.485,1028.42 761.931,1029.26 764.378,1030.1 766.824,1030.95 769.27,1031.79 771.717,1032.63 774.163,1033.47 776.61,1034.31 779.056,1035.15 781.502,1035.99 783.949,1036.84 786.395,1037.68 788.841,1038.52 791.288,1039.36 793.734,1040.2 796.181,1041.04 798.627,1041.89 801.073,1042.73 803.52,1043.57 805.966,1044.41 808.413,1045.25 810.859,1046.09 813.305,1046.93 815.752,1047.78 818.198,1048.62 820.645,1049.46 823.091,1050.3 825.537,1051.14 827.984,1051.98 830.43,1052.83 832.876,1053.67 835.323,1054.51 837.769,1055.35 840.216,1056.19 842.662,1057.03 845.108,1057.87 847.555,1058.72 850.001,1059.56 852.448,1060.4 854.894,1061.24 857.34,1062.08 859.787,1062.92 862.233,1063.77 864.679,1064.61 867.126,1065.45 869.572,1066.29 872.019,1067.13 874.465,1067.97 876.911,1068.81 879.358,1069.66 881.804,1070.5 884.251,1071.34 886.697,1072.18 889.143,1073.02 891.59,1073.86 894.036,1074.71 896.482,1075.55 898.929,1076.39 901.375,1077.23 903.822,1078.07 906.268,1078.91 908.714,1079.75 911.161,1080.6 913.607,1081.44 916.054,1082.28 918.5,1083.12 920.946,1083.96 923.393,1084.8 925.839,1085.65 928.285,1086.49 930.732,1087.33 933.178,1088.17 935.625,1089.01 938.071,1089.85 940.517,1090.69 942.964,1091.54 945.41,1092.38 947.857,1093.22 950.303,1094.06 952.749,1094.9 955.196,1095.74 957.642,1096.59 960.089,1097.43 962.535,1098.27 964.981,1099.11 967.428,1099.95 969.874,1100.79 972.32,1101.63 974.767,1102.48 977.213,1103.32 979.66,1104.16 982.106,1105 984.552,1105.84 986.999,1106.68 989.445,1107.53 991.892,1108.37 994.338,1109.21 996.784,1110.05 999.231,1110.89 1001.68,1111.73 1004.12,1112.57 1006.57,1113.42 1009.02,1114.26 1011.46,1115.1 1013.91,1115.94 1016.36,1116.78 1018.8,1117.62 1021.25,1118.47 1023.69,1119.31 1026.14,1120.15 1028.59,1120.99 1031.03,1121.83 1033.48,1122.67 1035.93,1123.51 1038.37,1124.36 1040.82,1125.2 1043.27,1126.04 1045.71,1126.88 1048.16,1127.72 1050.6,1128.56 1053.05,1129.41 1055.5,1130.25 1057.94,1131.09 1060.39,1131.93 1062.84,1132.77 1065.28,1133.61 1067.73,1134.45 1070.18,1135.3 1072.62,1136.14 1075.07,1136.98 1077.52,1137.82 1079.96,1138.66 1082.41,1139.5 1084.85,1140.35 1087.3,1141.19 1089.75,1142.03 1092.19,1142.87 1094.64,1143.71 1097.09,1144.55 1099.53,1145.39 1101.98,1146.24 1104.43,1147.08 1106.87,1147.92 1109.32,1148.76 1111.76,1149.6 1114.21,1150.44 1116.66,1151.29 1119.1,1152.13 1121.55,1152.97 1124,1153.81 1126.44,1154.65 1128.89,1155.49 1131.34,1156.33 1133.78,1157.18 1136.23,1158.02 1138.67,1158.86 1141.12,1159.7 1143.57,1160.54 1146.01,1161.38 1148.46,1162.23 1150.91,1163.07 1153.35,1163.91 1155.8,1164.75 1158.25,1165.59 1160.69,1166.43 1163.14,1167.27 1165.58,1168.12 1168.03,1168.96 1170.48,1169.8 1172.92,1170.64 1175.37,1171.48 1177.82,1172.32 1180.26,1173.17 1182.71,1174.01 1185.16,1174.85 1187.6,1175.69 1190.05,1176.53 1192.5,1177.37 1194.94,1178.21 1197.39,1179.06 1199.83,1179.9 1202.28,1180.74 1204.73,1181.58 1207.17,1182.42 1209.62,1183.26 1212.07,1184.11 1214.51,1184.95 1216.96,1185.79 1219.41,1186.63 1221.85,1187.47 1224.3,1188.31 1226.74,1189.15 1229.19,1190 1231.64,1190.84 1234.08,1191.68 1236.53,1192.52 1238.98,1193.36 1241.42,1194.2 1243.87,1195.05 1246.32,1195.89 1248.76,1196.73 1251.21,1197.57 1253.65,1198.41 1256.1,1199.25 1258.55,1200.09 1260.99,1200.94 1263.44,1201.78 1265.89,1202.62 1268.33,1203.46 1270.78,1204.3 1273.23,1205.14 1275.67,1205.99 1278.12,1206.83 1280.57,1207.67 1283.01,1208.51 1285.46,1209.35 1287.9,1210.19 1290.35,1211.03 1292.8,1211.88 1295.24,1212.72 1297.69,1213.56 1300.14,1214.4 1302.58,1215.24 1305.03,1216.08 1307.48,1216.93 1309.92,1217.77 1312.37,1218.61 1314.81,1219.45 1317.26,1220.29 1319.71,1221.13 1322.15,1221.97 1324.6,1222.82 1327.05,1223.66 1329.49,1224.5 1331.94,1225.34 1334.39,1226.18 1336.83,1227.02 1339.28,1227.87 1341.72,1228.71 1344.17,1229.55 1346.62,1230.39 1349.06,1231.23 1351.51,1232.07 1353.96,1232.91 1356.4,1233.76 1358.85,1234.6 1361.3,1235.44 1363.74,1236.28 1366.19,1237.12 1368.64,1237.96 1371.08,1238.81 1373.53,1239.65 1375.97,1240.49 1378.42,1241.33 1380.87,1242.17 1383.31,1243.01 1385.76,1243.85 1388.21,1244.7 1390.65,1245.54 1393.1,1246.38 1395.55,1247.22 1397.99,1248.06 1400.44,1248.9 1402.88,1249.75 1405.33,1250.59 1407.78,1251.43 1410.22,1252.27 1412.67,1253.11 1415.12,1253.95 1417.56,1254.79 1420.01,1255.64 1422.46,1256.48 1424.9,1257.32 1427.35,1258.16 1429.79,1259 1432.24,1259.84 1434.69,1260.69 1437.13,1261.53 1439.58,1262.37 1442.03,1263.21 1444.47,1264.05 1446.92,1264.89 1449.37,1265.73 1451.81,1266.58 1454.26,1267.42 1456.7,1268.26 1459.15,1269.1 1461.6,1269.94 1464.04,1270.78 1466.49,1271.63 1468.94,1272.47 1471.38,1273.31 1473.83,1274.15 1476.28,1274.99 1478.72,1275.83 1481.17,1276.67 1483.62,1277.52 1486.06,1278.36 1488.51,1279.2 1490.95,1280.04 1493.4,1280.88 1495.85,1281.72 1498.29,1282.57 1500.74,1283.41 1503.19,1284.25 1505.63,1285.09 1508.08,1285.93 1510.53,1286.77 1512.97,1287.61 1515.42,1288.46 1517.86,1289.3 1520.31,1290.14 1522.76,1290.98 1525.2,1291.82 1527.65,1292.66 1530.1,1293.51 1532.54,1294.35 1534.99,1295.19 1537.44,1296.03 1539.88,1296.87 1542.33,1297.71 1544.77,1298.55 1547.22,1299.4 1549.67,1300.24 1552.11,1301.08 1554.56,1301.92 1557.01,1302.76 1559.45,1303.6 1561.9,1304.45 1564.35,1305.29 1566.79,1306.13 1569.24,1306.97 1571.69,1307.81 1574.13,1308.65 1576.58,1309.49 1579.02,1310.34 1581.47,1311.18 1583.92,1312.02 1586.36,1312.86 1588.81,1313.7 1591.26,1314.54 1593.7,1315.39 1596.15,1316.23 1598.6,1317.07 1601.04,1317.91 1603.49,1318.75 1605.93,1319.59 1608.38,1320.43 1610.83,1321.28 1613.27,1322.12 1615.72,1322.96 1618.17,1323.8 1620.61,1324.64 1623.06,1325.48 1625.51,1326.33 1627.95,1327.17 1630.4,1328.01 1632.84,1328.85 1635.29,1329.69 1637.74,1330.53 1640.18,1331.37 1642.63,1332.22 1645.08,1333.06 1647.52,1333.9 1649.97,1334.74 1652.42,1335.58 1654.86,1336.42 1657.31,1337.27 1659.76,1338.11 1662.2,1338.95 1664.65,1339.79 1667.09,1340.63 1669.54,1341.47 1671.99,1342.31 1674.43,1343.16 1676.88,1344 1679.33,1344.84 1681.77,1345.68 1684.22,1346.52 1686.67,1347.36 1689.11,1348.21 1691.56,1349.05 1694,1349.89 1696.45,1350.73 1698.9,1351.57 1701.34,1352.41 1703.79,1353.25 1706.24,1354.1 1708.68,1354.94 1711.13,1355.78 1713.58,1356.62 1716.02,1357.46 1718.47,1358.3 1720.91,1359.15 1723.36,1359.99 1725.81,1360.83 1728.25,1361.67 1730.7,1362.51 1733.15,1363.35 1735.59,1364.19 1738.04,1365.04 1740.49,1365.88 1742.93,1366.72 1745.38,1367.56 1747.82,1368.4 1750.27,1369.24 1752.72,1370.09 1755.16,1370.93 1757.61,1371.77 1760.06,1372.61 1762.5,1373.45 1764.95,1374.29 1767.4,1375.13 1769.84,1375.98 1772.29,1376.82 1774.74,1377.66 1777.18,1378.5 1779.63,1379.34 1782.07,1380.18 1784.52,1381.03 1786.97,1381.87 1789.41,1382.71 1791.86,1383.55 1794.31,1384.39 1796.75,1385.23 1799.2,1386.07 1801.65,1386.92 1804.09,1387.76 1806.54,1388.6 1808.98,1389.44 1811.43,1390.28 1813.88,1391.12 1816.32,1391.97 1818.77,1392.81 1821.22,1393.65 1823.66,1394.49 1826.11,1395.33 1828.56,1396.17 1831,1397.01 1833.45,1397.86 1835.89,1398.7 1838.34,1399.54 1840.79,1400.38 1843.23,1401.22 1845.68,1402.06 1848.13,1402.91 1850.57,1403.75 1853.02,1404.59 1855.47,1405.43 1857.91,1406.27 1860.36,1407.11 1862.81,1407.95 1865.25,1408.8 1867.7,1409.64 1870.14,1410.48 1872.59,1411.32 1875.04,1412.16 1877.48,1413 1879.93,1413.85 1882.38,1414.69 1884.82,1415.53 1887.27,1416.37 1889.72,1417.21 1892.16,1418.05 1894.61,1418.9 1897.05,1419.74 1899.5,1420.58 1901.95,1421.42 1904.39,1422.26 1906.84,1423.1 1909.29,1423.94 1911.73,1424.79 1914.18,1425.63 1916.63,1426.47 1919.07,1427.31 1921.52,1428.15 1923.96,1428.99 1926.41,1429.84 1928.86,1430.68 1931.3,1431.52 1933.75,1432.36 1936.2,1433.2 1938.64,1434.04 1941.09,1434.88 1943.54,1435.73 1945.98,1436.57 1948.43,1437.41 1950.87,1438.25 1953.32,1439.09 1955.77,1439.93 1958.21,1440.78 1960.66,1441.62 1963.11,1442.46 1965.55,1443.3 1968,1444.14 1970.45,1444.98 1972.89,1445.82 1975.34,1446.67 1977.79,1447.51 1980.23,1448.35 1982.68,1449.19 1985.12,1450.03 1987.57,1450.87 1990.02,1451.72 1992.46,1452.56 1994.91,1453.4 1997.36,1454.24 1999.8,1455.08 2002.25,1455.92 2004.7,1456.76 2007.14,1457.61 2009.59,1458.45 2012.03,1459.29 2014.48,1460.13 2016.93,1460.97 2019.37,1461.81 2021.82,1462.66 2024.27,1463.5 2026.71,1464.34 2029.16,1465.18 2031.61,1466.02 2034.05,1466.86 2036.5,1467.7 2038.94,1468.55 2041.39,1469.39 2043.84,1470.23 2046.28,1471.07 2048.73,1471.91 2051.18,1472.75 2053.62,1473.6 2056.07,1474.44 2058.52,1475.28 2060.96,1476.12 2063.41,1476.96 2065.86,1477.8 2068.3,1478.64 2070.75,1479.49 2073.19,1480.33 2075.64,1481.17 2078.09,1482.01 2080.53,1482.85 2082.98,1483.69 2085.43,1484.54 2087.87,1485.38 2090.32,1486.22 2092.77,1487.06 2095.21,1487.9 2097.66,1488.74 2100.1,1489.58 2102.55,1490.43 2105,1491.27 2107.44,1492.11 2109.89,1492.95 2112.34,1493.79 2114.78,1494.63 2117.23,1495.48 2119.68,1496.32 2122.12,1497.16 2124.57,1498 2127.01,1498.84 2129.46,1499.68 2131.91,1500.52 2134.35,1501.37 2136.8,1502.21 2139.25,1503.05 2141.69,1503.89 2144.14,1504.73 2146.59,1505.57 2149.03,1506.42 2151.48,1507.26 2153.93,1508.1 2156.37,1508.94 2158.82,1509.78 2161.26,1510.62 2163.71,1511.46 2166.16,1512.31 2168.6,1513.15 2171.05,1513.99 2173.5,1514.83 2175.94,1515.67 2178.39,1516.51 2180.84,1517.36 2183.28,1518.2 2185.73,1519.04 2188.17,1519.88 2190.62,1520.72 2193.07,1521.56 2195.51,1522.4 2197.96,1523.25 2200.41,1524.09 2202.85,1524.93 2205.3,1525.77 2207.75,1526.61 2210.19,1527.45 2212.64,1528.3 2215.08,1529.14 2217.53,1529.98 2219.98,1530.82 2222.42,1531.66 2224.87,1532.5 2227.32,1533.34 2229.76,1534.19 2232.21,1535.03 2234.66,1535.87 2237.1,1536.71 2239.55,1537.55 2241.99,1538.39 2244.44,1539.24 2246.89,1540.08 2249.33,1540.92 2251.78,1541.76 2254.23,1542.6 2256.67,1543.44 2259.12,1544.28 2261.57,1545.13 2264.01,1545.97 2266.46,1546.81 2268.91,1547.65 2271.35,1548.49 2273.8,1549.33 2276.24,1550.18 2278.69,1551.02 2281.14,1551.86 2283.58,1552.7 2286.03,1553.54 2288.48,1554.38 2290.92,1555.22 2293.37,1556.07 2295.82,1556.91 2298.26,1557.75 2300.71,1558.59 2303.15,1559.43 2305.6,1560.27 2308.05,1561.12 2310.49,1561.96 2312.94,1562.8 2315.39,1563.64 2317.83,1564.48 2320.28,1565.32 2322.73,1566.16 2325.17,1567.01 2327.62,1567.85 2330.06,1568.69 2332.51,1569.53 2334.96,1570.37 2337.4,1571.21 2339.85,1572.06 2342.3,1572.9 2344.74,1573.74 2347.19,1574.58 2349.64,1575.42 2352.08,1576.26 2354.53,1577.1 2356.98,1577.95 2359.42,1578.79 2361.87,1579.63 2364.31,1580.47 2366.76,1581.31 2369.21,1582.15 2371.65,1583 2374.1,1583.84 2376.55,1584.68 2378.99,1585.52 2381.44,1586.36 2383.89,1587.2 2386.33,1588.04 2388.78,1588.89 2391.22,1589.73 2393.67,1590.57 2396.12,1591.41 2398.56,1592.25 2401.01,1593.09 2403.46,1593.94 2405.9,1594.78 2408.35,1595.62 2410.8,1596.46 2413.24,1597.3 2415.69,1598.14 2418.13,1598.98 2420.58,1599.83 2423.03,1600.67 2425.47,1601.51 2427.92,1602.35 2430.37,1603.19 2432.81,1604.03 2435.26,1604.88 2437.71,1605.72 2440.15,1606.56 2442.6,1607.4 2445.05,1608.24 2447.49,1609.08 2449.94,1609.92 2452.38,1610.77 2454.83,1611.61 2457.28,1612.45 2459.72,1613.29 2462.17,1614.13 2464.62,1614.97 2467.06,1615.82 2469.51,1616.66 2471.96,1617.5 2474.4,1618.34 2476.85,1619.18 2479.29,1620.02 2481.74,1620.86 2484.19,1621.71 2486.63,1622.55 2489.08,1623.39 2491.53,1624.23 2493.97,1625.07 2496.42,1625.91 2498.87,1626.76 2501.31,1627.6 2503.76,1628.44 2506.2,1629.28 2508.65,1630.12 2511.1,1630.96 2513.54,1631.8 2515.99,1632.65 2518.44,1633.49 2520.88,1634.33 2523.33,1635.17 2525.78,1636.01 2528.22,1636.85 2530.67,1637.7 2533.11,1638.54 2535.56,1639.38 2538.01,1640.22 2540.45,1641.06 2542.9,1641.9 2545.35,1642.74 2547.79,1643.59 2550.24,1644.43 2552.69,1645.27 2555.13,1646.11 2557.58,1646.95 2560.03,1647.79 2562.47,1648.64 2564.92,1649.48 2567.36,1650.32 2569.81,1651.16 2572.26,1652 2574.7,1652.84 2577.15,1653.68 2579.6,1654.53 2582.04,1655.37 2584.49,1656.21 2586.94,1657.05 2589.38,1657.89 2591.83,1658.73 2594.27,1659.58 2596.72,1660.42 2599.17,1661.26 2601.61,1662.1 2604.06,1662.94 2606.51,1663.78 2608.95,1664.62 2611.4,1665.47 2613.85,1666.31 2616.29,1667.15 2618.74,1667.99 2621.18,1668.83 2623.63,1669.67 2626.08,1670.52 2628.52,1671.36 2630.97,1672.2 2633.42,1673.04 2635.86,1673.88 2638.31,1674.72 2640.76,1675.56 "/>
<circle clip-path="url(#clip152)" cx="196.816" cy="802.876" r="14.4" fill="#000000" fill-rule="evenodd" fill-opacity="1" stroke="none"/>
<circle clip-path="url(#clip152)" cx="441.21" cy="937.494" r="14.4" fill="#000000" fill-rule="evenodd" fill-opacity="1" stroke="none"/>
<circle clip-path="url(#clip152)" cx="685.604" cy="997.883" r="14.4" fill="#000000" fill-rule="evenodd" fill-opacity="1" stroke="none"/>
<circle clip-path="url(#clip152)" cx="929.998" cy="1065.21" r="14.4" fill="#000000" fill-rule="evenodd" fill-opacity="1" stroke="none"/>
<circle clip-path="url(#clip152)" cx="1174.39" cy="1178.67" r="14.4" fill="#000000" fill-rule="evenodd" fill-opacity="1" stroke="none"/>
<circle clip-path="url(#clip152)" cx="1418.79" cy="1255.66" r="14.4" fill="#000000" fill-rule="evenodd" fill-opacity="1" stroke="none"/>
<circle clip-path="url(#clip152)" cx="1663.18" cy="1360.52" r="14.4" fill="#000000" fill-rule="evenodd" fill-opacity="1" stroke="none"/>
<circle clip-path="url(#clip152)" cx="1907.57" cy="1433.5" r="14.4" fill="#000000" fill-rule="evenodd" fill-opacity="1" stroke="none"/>
<circle clip-path="url(#clip152)" cx="2151.97" cy="1506.08" r="14.4" fill="#000000" fill-rule="evenodd" fill-opacity="1" stroke="none"/>
<circle clip-path="url(#clip152)" cx="2396.36" cy="1608.96" r="14.4" fill="#000000" fill-rule="evenodd" fill-opacity="1" stroke="none"/>
<circle clip-path="url(#clip152)" cx="2640.76" cy="1693.51" r="14.4" fill="#000000" fill-rule="evenodd" fill-opacity="1" stroke="none"/>
</svg>
