<?xml version="1.0" encoding="utf-8"?>
<svg xmlns="http://www.w3.org/2000/svg" xmlns:xlink="http://www.w3.org/1999/xlink" width="672" height="480" viewBox="0 0 2688 1920">
<defs>
  <clipPath id="clip430">
    <rect x="0" y="0" width="2688" height="1920"/>
  </clipPath>
</defs>
<path clip-path="url(#clip430)" d="M0 1920 L2688 1920 L2688 0 L0 0  Z" fill="#ffffff" fill-rule="evenodd" fill-opacity="1"/>
<defs>
  <clipPath id="clip431">
    <rect x="537" y="0" width="1883" height="1883"/>
  </clipPath>
</defs>
<path clip-path="url(#clip430)" d="M150.358 1800.78 L2640.76 1800.78 L2640.76 47.2441 L150.358 47.2441  Z" fill="#ffffff" fill-rule="evenodd" fill-opacity="1"/>
<defs>
  <clipPath id="clip432">
    <rect x="150" y="47" width="2491" height="1755"/>
  </clipPath>
</defs>
<polyline clip-path="url(#clip432)" style="stroke:#000000; stroke-linecap:round; stroke-linejoin:round; stroke-width:2; stroke-opacity:0.1; fill:none" points="455.784,1800.78 455.784,47.2441 "/>
<polyline clip-path="url(#clip432)" style="stroke:#000000; stroke-linecap:round; stroke-linejoin:round; stroke-width:2; stroke-opacity:0.1; fill:none" points="925.67,1800.78 925.67,47.2441 "/>
<polyline clip-path="url(#clip432)" style="stroke:#000000; stroke-linecap:round; stroke-linejoin:round; stroke-width:2; stroke-opacity:0.1; fill:none" points="1395.56,1800.78 1395.56,47.2441 "/>
<polyline clip-path="url(#clip432)" style="stroke:#000000; stroke-linecap:round; stroke-linejoin:round; stroke-width:2; stroke-opacity:0.1; fill:none" points="1865.44,1800.78 1865.44,47.2441 "/>
<polyline clip-path="url(#clip432)" style="stroke:#000000; stroke-linecap:round; stroke-linejoin:round; stroke-width:2; stroke-opacity:0.1; fill:none" points="2335.33,1800.78 2335.33,47.2441 "/>
<polyline clip-path="url(#clip430)" style="stroke:#000000; stroke-linecap:round; stroke-linejoin:round; stroke-width:4; stroke-opacity:1; fill:none" points="150.358,1800.78 2640.76,1800.78 "/>
<polyline clip-path="url(#clip430)" style="stroke:#000000; stroke-linecap:round; stroke-linejoin:round; stroke-width:4; stroke-opacity:1; fill:none" points="455.784,1800.78 455.784,1781.88 "/>
<polyline clip-path="url(#clip430)" style="stroke:#000000; stroke-linecap:round; stroke-linejoin:round; stroke-width:4; stroke-opacity:1; fill:none" points="925.67,1800.78 925.67,1781.88 "/>
<polyline clip-path="url(#clip430)" style="stroke:#000000; stroke-linecap:round; stroke-linejoin:round; stroke-width:4; stroke-opacity:1; fill:none" points="1395.56,1800.78 1395.56,1781.88 "/>
<polyline clip-path="url(#clip430)" style="stroke:#000000; stroke-linecap:round; stroke-linejoin:round; stroke-width:4; stroke-opacity:1; fill:none" points="1865.44,1800.78 1865.44,1781.88 "/>
<polyline clip-path="url(#clip430)" style="stroke:#000000; stroke-linecap:round; stroke-linejoin:round; stroke-width:4; stroke-opacity:1; fill:none" points="2335.33,1800.78 2335.33,1781.88 "/>
<path clip-path="url(#clip430)" d="M424.685 1848.65 L454.36 1848.65 L454.36 1852.59 L424.685 1852.59 L424.685 1848.65 Z" fill="#000000" fill-rule="nonzero" fill-opacity="1" /><path clip-path="url(#clip430)" d="M477.3 1835 L465.495 1853.45 L477.3 1853.45 L477.3 1835 M476.073 1830.92 L481.953 1830.92 L481.953 1853.45 L486.883 1853.45 L486.883 1857.34 L481.953 1857.34 L481.953 1865.48 L477.3 1865.48 L477.3 1857.34 L461.698 1857.34 L461.698 1852.82 L476.073 1830.92 Z" fill="#000000" fill-rule="nonzero" fill-opacity="1" /><path clip-path="url(#clip430)" d="M895.613 1848.65 L925.289 1848.65 L925.289 1852.59 L895.613 1852.59 L895.613 1848.65 Z" fill="#000000" fill-rule="nonzero" fill-opacity="1" /><path clip-path="url(#clip430)" d="M939.409 1861.55 L955.728 1861.55 L955.728 1865.48 L933.784 1865.48 L933.784 1861.55 Q936.446 1858.79 941.029 1854.16 Q945.636 1849.51 946.816 1848.17 Q949.062 1845.65 949.941 1843.91 Q950.844 1842.15 950.844 1840.46 Q950.844 1837.71 948.9 1835.97 Q946.978 1834.23 943.876 1834.23 Q941.677 1834.23 939.224 1835 Q936.793 1835.76 934.015 1837.31 L934.015 1832.59 Q936.839 1831.46 939.293 1830.88 Q941.747 1830.3 943.784 1830.3 Q949.154 1830.3 952.349 1832.98 Q955.543 1835.67 955.543 1840.16 Q955.543 1842.29 954.733 1844.21 Q953.946 1846.11 951.839 1848.7 Q951.261 1849.37 948.159 1852.59 Q945.057 1855.78 939.409 1861.55 Z" fill="#000000" fill-rule="nonzero" fill-opacity="1" /><path clip-path="url(#clip430)" d="M1395.56 1834 Q1391.95 1834 1390.12 1837.57 Q1388.31 1841.11 1388.31 1848.24 Q1388.31 1855.34 1390.12 1858.91 Q1391.95 1862.45 1395.56 1862.45 Q1399.19 1862.45 1401 1858.91 Q1402.83 1855.34 1402.83 1848.24 Q1402.83 1841.11 1401 1837.57 Q1399.19 1834 1395.56 1834 M1395.56 1830.3 Q1401.37 1830.3 1404.42 1834.9 Q1407.5 1839.49 1407.5 1848.24 Q1407.5 1856.96 1404.42 1861.57 Q1401.37 1866.15 1395.56 1866.15 Q1389.75 1866.15 1386.67 1861.57 Q1383.61 1856.96 1383.61 1848.24 Q1383.61 1839.49 1386.67 1834.9 Q1389.75 1830.3 1395.56 1830.3 Z" fill="#000000" fill-rule="nonzero" fill-opacity="1" /><path clip-path="url(#clip430)" d="M1860.1 1861.55 L1876.42 1861.55 L1876.42 1865.48 L1854.47 1865.48 L1854.47 1861.55 Q1857.13 1858.79 1861.72 1854.16 Q1866.32 1849.51 1867.5 1848.17 Q1869.75 1845.65 1870.63 1843.91 Q1871.53 1842.15 1871.53 1840.46 Q1871.53 1837.71 1869.59 1835.97 Q1867.67 1834.23 1864.56 1834.23 Q1862.36 1834.23 1859.91 1835 Q1857.48 1835.76 1854.7 1837.31 L1854.7 1832.59 Q1857.53 1831.46 1859.98 1830.88 Q1862.43 1830.3 1864.47 1830.3 Q1869.84 1830.3 1873.04 1832.98 Q1876.23 1835.67 1876.23 1840.16 Q1876.23 1842.29 1875.42 1844.21 Q1874.63 1846.11 1872.53 1848.7 Q1871.95 1849.37 1868.85 1852.59 Q1865.74 1855.78 1860.1 1861.55 Z" fill="#000000" fill-rule="nonzero" fill-opacity="1" /><path clip-path="url(#clip430)" d="M2338.34 1835 L2326.53 1853.45 L2338.34 1853.45 L2338.34 1835 M2337.11 1830.92 L2342.99 1830.92 L2342.99 1853.45 L2347.92 1853.45 L2347.92 1857.34 L2342.99 1857.34 L2342.99 1865.48 L2338.34 1865.48 L2338.34 1857.34 L2322.74 1857.34 L2322.74 1852.82 L2337.11 1830.92 Z" fill="#000000" fill-rule="nonzero" fill-opacity="1" /><polyline clip-path="url(#clip432)" style="stroke:#000000; stroke-linecap:round; stroke-linejoin:round; stroke-width:2; stroke-opacity:0.1; fill:none" points="150.358,1528.63 2640.76,1528.63 "/>
<polyline clip-path="url(#clip432)" style="stroke:#000000; stroke-linecap:round; stroke-linejoin:round; stroke-width:2; stroke-opacity:0.1; fill:none" points="150.358,1235.84 2640.76,1235.84 "/>
<polyline clip-path="url(#clip432)" style="stroke:#000000; stroke-linecap:round; stroke-linejoin:round; stroke-width:2; stroke-opacity:0.1; fill:none" points="150.358,943.043 2640.76,943.043 "/>
<polyline clip-path="url(#clip432)" style="stroke:#000000; stroke-linecap:round; stroke-linejoin:round; stroke-width:2; stroke-opacity:0.1; fill:none" points="150.358,650.251 2640.76,650.251 "/>
<polyline clip-path="url(#clip432)" style="stroke:#000000; stroke-linecap:round; stroke-linejoin:round; stroke-width:2; stroke-opacity:0.1; fill:none" points="150.358,357.458 2640.76,357.458 "/>
<polyline clip-path="url(#clip432)" style="stroke:#000000; stroke-linecap:round; stroke-linejoin:round; stroke-width:2; stroke-opacity:0.1; fill:none" points="150.358,64.6653 2640.76,64.6653 "/>
<polyline clip-path="url(#clip430)" style="stroke:#000000; stroke-linecap:round; stroke-linejoin:round; stroke-width:4; stroke-opacity:1; fill:none" points="150.358,1800.78 150.358,47.2441 "/>
<polyline clip-path="url(#clip430)" style="stroke:#000000; stroke-linecap:round; stroke-linejoin:round; stroke-width:4; stroke-opacity:1; fill:none" points="150.358,1528.63 169.256,1528.63 "/>
<polyline clip-path="url(#clip430)" style="stroke:#000000; stroke-linecap:round; stroke-linejoin:round; stroke-width:4; stroke-opacity:1; fill:none" points="150.358,1235.84 169.256,1235.84 "/>
<polyline clip-path="url(#clip430)" style="stroke:#000000; stroke-linecap:round; stroke-linejoin:round; stroke-width:4; stroke-opacity:1; fill:none" points="150.358,943.043 169.256,943.043 "/>
<polyline clip-path="url(#clip430)" style="stroke:#000000; stroke-linecap:round; stroke-linejoin:round; stroke-width:4; stroke-opacity:1; fill:none" points="150.358,650.251 169.256,650.251 "/>
<polyline clip-path="url(#clip430)" style="stroke:#000000; stroke-linecap:round; stroke-linejoin:round; stroke-width:4; stroke-opacity:1; fill:none" points="150.358,357.458 169.256,357.458 "/>
<polyline clip-path="url(#clip430)" style="stroke:#000000; stroke-linecap:round; stroke-linejoin:round; stroke-width:4; stroke-opacity:1; fill:none" points="150.358,64.6653 169.256,64.6653 "/>
<path clip-path="url(#clip430)" d="M49.9225 1529.08 L79.5983 1529.08 L79.5983 1533.02 L49.9225 1533.02 L49.9225 1529.08 Z" fill="#000000" fill-rule="nonzero" fill-opacity="1" /><path clip-path="url(#clip430)" d="M93.7186 1541.97 L110.038 1541.97 L110.038 1545.91 L88.0936 1545.91 L88.0936 1541.97 Q90.7556 1539.22 95.3389 1534.59 Q99.9454 1529.94 101.126 1528.59 Q103.371 1526.07 104.251 1524.33 Q105.154 1522.58 105.154 1520.89 Q105.154 1518.13 103.209 1516.39 Q101.288 1514.66 98.1861 1514.66 Q95.9871 1514.66 93.5334 1515.42 Q91.1028 1516.19 88.3251 1517.74 L88.3251 1513.02 Q91.1491 1511.88 93.6028 1511.3 Q96.0565 1510.72 98.0935 1510.72 Q103.464 1510.72 106.658 1513.41 Q109.853 1516.09 109.853 1520.58 Q109.853 1522.71 109.043 1524.64 Q108.256 1526.53 106.149 1529.13 Q105.57 1529.8 102.469 1533.02 Q99.3667 1536.21 93.7186 1541.97 Z" fill="#000000" fill-rule="nonzero" fill-opacity="1" /><path clip-path="url(#clip430)" d="M49.5521 1236.29 L79.2279 1236.29 L79.2279 1240.22 L49.5521 1240.22 L49.5521 1236.29 Z" fill="#000000" fill-rule="nonzero" fill-opacity="1" /><path clip-path="url(#clip430)" d="M90.1306 1249.18 L97.7695 1249.18 L97.7695 1222.82 L89.4593 1224.48 L89.4593 1220.22 L97.7232 1218.56 L102.399 1218.56 L102.399 1249.18 L110.038 1249.18 L110.038 1253.12 L90.1306 1253.12 L90.1306 1249.18 Z" fill="#000000" fill-rule="nonzero" fill-opacity="1" /><path clip-path="url(#clip430)" d="M98.0935 928.842 Q94.4824 928.842 92.6537 932.407 Q90.8482 935.948 90.8482 943.078 Q90.8482 950.184 92.6537 953.749 Q94.4824 957.291 98.0935 957.291 Q101.728 957.291 103.533 953.749 Q105.362 950.184 105.362 943.078 Q105.362 935.948 103.533 932.407 Q101.728 928.842 98.0935 928.842 M98.0935 925.138 Q103.904 925.138 106.959 929.745 Q110.038 934.328 110.038 943.078 Q110.038 951.805 106.959 956.411 Q103.904 960.995 98.0935 960.995 Q92.2834 960.995 89.2047 956.411 Q86.1492 951.805 86.1492 943.078 Q86.1492 934.328 89.2047 929.745 Q92.2834 925.138 98.0935 925.138 Z" fill="#000000" fill-rule="nonzero" fill-opacity="1" /><path clip-path="url(#clip430)" d="M90.1306 663.595 L97.7695 663.595 L97.7695 637.23 L89.4593 638.896 L89.4593 634.637 L97.7232 632.971 L102.399 632.971 L102.399 663.595 L110.038 663.595 L110.038 667.531 L90.1306 667.531 L90.1306 663.595 Z" fill="#000000" fill-rule="nonzero" fill-opacity="1" /><path clip-path="url(#clip430)" d="M93.7186 370.803 L110.038 370.803 L110.038 374.738 L88.0936 374.738 L88.0936 370.803 Q90.7556 368.048 95.3389 363.419 Q99.9454 358.766 101.126 357.423 Q103.371 354.9 104.251 353.164 Q105.154 351.405 105.154 349.715 Q105.154 346.96 103.209 345.224 Q101.288 343.488 98.1861 343.488 Q95.9871 343.488 93.5334 344.252 Q91.1028 345.016 88.3251 346.567 L88.3251 341.845 Q91.1491 340.71 93.6028 340.132 Q96.0565 339.553 98.0935 339.553 Q103.464 339.553 106.658 342.238 Q109.853 344.923 109.853 349.414 Q109.853 351.544 109.043 353.465 Q108.256 355.363 106.149 357.956 Q105.57 358.627 102.469 361.844 Q99.3667 365.039 93.7186 370.803 Z" fill="#000000" fill-rule="nonzero" fill-opacity="1" /><path clip-path="url(#clip430)" d="M102.908 63.3111 Q106.265 64.0287 108.14 66.2972 Q110.038 68.5657 110.038 71.899 Q110.038 77.0147 106.519 79.8156 Q103.001 82.6166 96.5195 82.6166 Q94.3436 82.6166 92.0288 82.1767 Q89.7371 81.7601 87.2834 80.9036 L87.2834 76.3897 Q89.2278 77.524 91.5426 78.1027 Q93.8574 78.6814 96.3806 78.6814 Q100.779 78.6814 103.07 76.9453 Q105.385 75.2092 105.385 71.899 Q105.385 68.8435 103.232 67.1305 Q101.103 65.3944 97.2834 65.3944 L93.2556 65.3944 L93.2556 61.5518 L97.4685 61.5518 Q100.918 61.5518 102.746 60.1861 Q104.575 58.7972 104.575 56.2047 Q104.575 53.5426 102.677 52.1306 Q100.802 50.6954 97.2834 50.6954 Q95.3621 50.6954 93.163 51.1121 Q90.9639 51.5288 88.3251 52.4084 L88.3251 48.2417 Q90.9871 47.501 93.3019 47.1306 Q95.6398 46.7603 97.7 46.7603 Q103.024 46.7603 106.126 49.1908 Q109.228 51.5982 109.228 55.7185 Q109.228 58.5889 107.584 60.5796 Q105.941 62.5472 102.908 63.3111 Z" fill="#000000" fill-rule="nonzero" fill-opacity="1" /><circle clip-path="url(#clip432)" cx="220.841" cy="96.8724" r="14.4" fill="#000000" fill-rule="evenodd" fill-opacity="1" stroke="none"/>
<circle clip-path="url(#clip432)" cx="455.784" cy="293.044" r="14.4" fill="#000000" fill-rule="evenodd" fill-opacity="1" stroke="none"/>
<circle clip-path="url(#clip432)" cx="690.727" cy="1122.23" r="14.4" fill="#000000" fill-rule="evenodd" fill-opacity="1" stroke="none"/>
<circle clip-path="url(#clip432)" cx="925.67" cy="1095.88" r="14.4" fill="#000000" fill-rule="evenodd" fill-opacity="1" stroke="none"/>
<circle clip-path="url(#clip432)" cx="1160.61" cy="1718.94" r="14.4" fill="#000000" fill-rule="evenodd" fill-opacity="1" stroke="none"/>
<circle clip-path="url(#clip432)" cx="1395.56" cy="981.985" r="14.4" fill="#000000" fill-rule="evenodd" fill-opacity="1" stroke="none"/>
<circle clip-path="url(#clip432)" cx="1630.5" cy="152.503" r="14.4" fill="#000000" fill-rule="evenodd" fill-opacity="1" stroke="none"/>
<circle clip-path="url(#clip432)" cx="1865.44" cy="132.008" r="14.4" fill="#000000" fill-rule="evenodd" fill-opacity="1" stroke="none"/>
<circle clip-path="url(#clip432)" cx="2100.39" cy="818.606" r="14.4" fill="#000000" fill-rule="evenodd" fill-opacity="1" stroke="none"/>
<circle clip-path="url(#clip432)" cx="2335.33" cy="1560.84" r="14.4" fill="#000000" fill-rule="evenodd" fill-opacity="1" stroke="none"/>
<circle clip-path="url(#clip432)" cx="2570.27" cy="1751.15" r="14.4" fill="#000000" fill-rule="evenodd" fill-opacity="1" stroke="none"/>
</svg>
