<?xml version="1.0" encoding="utf-8"?>
<svg xmlns="http://www.w3.org/2000/svg" xmlns:xlink="http://www.w3.org/1999/xlink" width="672" height="480" viewBox="0 0 2688 1920">
<defs>
  <clipPath id="clip510">
    <rect x="0" y="0" width="2688" height="1920"/>
  </clipPath>
</defs>
<path clip-path="url(#clip510)" d="M0 1920 L2688 1920 L2688 0 L0 0  Z" fill="#ffffff" fill-rule="evenodd" fill-opacity="1"/>
<defs>
  <clipPath id="clip511">
    <rect x="537" y="0" width="1883" height="1883"/>
  </clipPath>
</defs>
<path clip-path="url(#clip510)" d="M149.988 1800.78 L2640.76 1800.78 L2640.76 47.2441 L149.988 47.2441  Z" fill="#ffffff" fill-rule="evenodd" fill-opacity="1"/>
<defs>
  <clipPath id="clip512">
    <rect x="149" y="47" width="2492" height="1755"/>
  </clipPath>
</defs>
<polyline clip-path="url(#clip512)" style="stroke:#000000; stroke-linecap:round; stroke-linejoin:round; stroke-width:2; stroke-opacity:0.1; fill:none" points="455.459,1800.78 455.459,47.2441 "/>
<polyline clip-path="url(#clip512)" style="stroke:#000000; stroke-linecap:round; stroke-linejoin:round; stroke-width:2; stroke-opacity:0.1; fill:none" points="925.415,1800.78 925.415,47.2441 "/>
<polyline clip-path="url(#clip512)" style="stroke:#000000; stroke-linecap:round; stroke-linejoin:round; stroke-width:2; stroke-opacity:0.1; fill:none" points="1395.37,1800.78 1395.37,47.2441 "/>
<polyline clip-path="url(#clip512)" style="stroke:#000000; stroke-linecap:round; stroke-linejoin:round; stroke-width:2; stroke-opacity:0.1; fill:none" points="1865.33,1800.78 1865.33,47.2441 "/>
<polyline clip-path="url(#clip512)" style="stroke:#000000; stroke-linecap:round; stroke-linejoin:round; stroke-width:2; stroke-opacity:0.1; fill:none" points="2335.28,1800.78 2335.28,47.2441 "/>
<polyline clip-path="url(#clip510)" style="stroke:#000000; stroke-linecap:round; stroke-linejoin:round; stroke-width:4; stroke-opacity:1; fill:none" points="149.988,1800.78 2640.76,1800.78 "/>
<polyline clip-path="url(#clip510)" style="stroke:#000000; stroke-linecap:round; stroke-linejoin:round; stroke-width:4; stroke-opacity:1; fill:none" points="455.459,1800.78 455.459,1781.88 "/>
<polyline clip-path="url(#clip510)" style="stroke:#000000; stroke-linecap:round; stroke-linejoin:round; stroke-width:4; stroke-opacity:1; fill:none" points="925.415,1800.78 925.415,1781.88 "/>
<polyline clip-path="url(#clip510)" style="stroke:#000000; stroke-linecap:round; stroke-linejoin:round; stroke-width:4; stroke-opacity:1; fill:none" points="1395.37,1800.78 1395.37,1781.88 "/>
<polyline clip-path="url(#clip510)" style="stroke:#000000; stroke-linecap:round; stroke-linejoin:round; stroke-width:4; stroke-opacity:1; fill:none" points="1865.33,1800.78 1865.33,1781.88 "/>
<polyline clip-path="url(#clip510)" style="stroke:#000000; stroke-linecap:round; stroke-linejoin:round; stroke-width:4; stroke-opacity:1; fill:none" points="2335.28,1800.78 2335.28,1781.88 "/>
<path clip-path="url(#clip510)" d="M424.36 1848.65 L454.036 1848.65 L454.036 1852.59 L424.36 1852.59 L424.36 1848.65 Z" fill="#000000" fill-rule="nonzero" fill-opacity="1" /><path clip-path="url(#clip510)" d="M476.975 1835 L465.17 1853.45 L476.975 1853.45 L476.975 1835 M475.748 1830.92 L481.628 1830.92 L481.628 1853.45 L486.559 1853.45 L486.559 1857.34 L481.628 1857.34 L481.628 1865.48 L476.975 1865.48 L476.975 1857.34 L461.373 1857.34 L461.373 1852.82 L475.748 1830.92 Z" fill="#000000" fill-rule="nonzero" fill-opacity="1" /><path clip-path="url(#clip510)" d="M895.358 1848.65 L925.033 1848.65 L925.033 1852.59 L895.358 1852.59 L895.358 1848.65 Z" fill="#000000" fill-rule="nonzero" fill-opacity="1" /><path clip-path="url(#clip510)" d="M939.154 1861.55 L955.473 1861.55 L955.473 1865.48 L933.529 1865.48 L933.529 1861.55 Q936.191 1858.79 940.774 1854.16 Q945.381 1849.51 946.561 1848.17 Q948.807 1845.65 949.686 1843.91 Q950.589 1842.15 950.589 1840.46 Q950.589 1837.71 948.644 1835.97 Q946.723 1834.23 943.621 1834.23 Q941.422 1834.23 938.969 1835 Q936.538 1835.76 933.76 1837.31 L933.76 1832.59 Q936.584 1831.46 939.038 1830.88 Q941.492 1830.3 943.529 1830.3 Q948.899 1830.3 952.094 1832.98 Q955.288 1835.67 955.288 1840.16 Q955.288 1842.29 954.478 1844.21 Q953.691 1846.11 951.584 1848.7 Q951.006 1849.37 947.904 1852.59 Q944.802 1855.78 939.154 1861.55 Z" fill="#000000" fill-rule="nonzero" fill-opacity="1" /><path clip-path="url(#clip510)" d="M1395.37 1834 Q1391.76 1834 1389.93 1837.57 Q1388.13 1841.11 1388.13 1848.24 Q1388.13 1855.34 1389.93 1858.91 Q1391.76 1862.45 1395.37 1862.45 Q1399.01 1862.45 1400.81 1858.91 Q1402.64 1855.34 1402.64 1848.24 Q1402.64 1841.11 1400.81 1837.57 Q1399.01 1834 1395.37 1834 M1395.37 1830.3 Q1401.18 1830.3 1404.24 1834.9 Q1407.32 1839.49 1407.32 1848.24 Q1407.32 1856.96 1404.24 1861.57 Q1401.18 1866.15 1395.37 1866.15 Q1389.56 1866.15 1386.48 1861.57 Q1383.43 1856.96 1383.43 1848.24 Q1383.43 1839.49 1386.48 1834.9 Q1389.56 1830.3 1395.37 1830.3 Z" fill="#000000" fill-rule="nonzero" fill-opacity="1" /><path clip-path="url(#clip510)" d="M1859.98 1861.55 L1876.3 1861.55 L1876.3 1865.48 L1854.36 1865.48 L1854.36 1861.55 Q1857.02 1858.79 1861.6 1854.16 Q1866.21 1849.51 1867.39 1848.17 Q1869.63 1845.65 1870.51 1843.91 Q1871.42 1842.15 1871.42 1840.46 Q1871.42 1837.71 1869.47 1835.97 Q1867.55 1834.23 1864.45 1834.23 Q1862.25 1834.23 1859.8 1835 Q1857.37 1835.76 1854.59 1837.31 L1854.59 1832.59 Q1857.41 1831.46 1859.87 1830.88 Q1862.32 1830.3 1864.36 1830.3 Q1869.73 1830.3 1872.92 1832.98 Q1876.11 1835.67 1876.11 1840.16 Q1876.11 1842.29 1875.3 1844.21 Q1874.52 1846.11 1872.41 1848.7 Q1871.83 1849.37 1868.73 1852.59 Q1865.63 1855.78 1859.98 1861.55 Z" fill="#000000" fill-rule="nonzero" fill-opacity="1" /><path clip-path="url(#clip510)" d="M2338.29 1835 L2326.49 1853.45 L2338.29 1853.45 L2338.29 1835 M2337.07 1830.92 L2342.95 1830.92 L2342.95 1853.45 L2347.88 1853.45 L2347.88 1857.34 L2342.95 1857.34 L2342.95 1865.48 L2338.29 1865.48 L2338.29 1857.34 L2322.69 1857.34 L2322.69 1852.82 L2337.07 1830.92 Z" fill="#000000" fill-rule="nonzero" fill-opacity="1" /><polyline clip-path="url(#clip512)" style="stroke:#000000; stroke-linecap:round; stroke-linejoin:round; stroke-width:2; stroke-opacity:0.1; fill:none" points="149.988,1594.84 2640.76,1594.84 "/>
<polyline clip-path="url(#clip512)" style="stroke:#000000; stroke-linecap:round; stroke-linejoin:round; stroke-width:2; stroke-opacity:0.1; fill:none" points="149.988,1252.45 2640.76,1252.45 "/>
<polyline clip-path="url(#clip512)" style="stroke:#000000; stroke-linecap:round; stroke-linejoin:round; stroke-width:2; stroke-opacity:0.1; fill:none" points="149.988,910.059 2640.76,910.059 "/>
<polyline clip-path="url(#clip512)" style="stroke:#000000; stroke-linecap:round; stroke-linejoin:round; stroke-width:2; stroke-opacity:0.1; fill:none" points="149.988,567.667 2640.76,567.667 "/>
<polyline clip-path="url(#clip512)" style="stroke:#000000; stroke-linecap:round; stroke-linejoin:round; stroke-width:2; stroke-opacity:0.1; fill:none" points="149.988,225.275 2640.76,225.275 "/>
<polyline clip-path="url(#clip510)" style="stroke:#000000; stroke-linecap:round; stroke-linejoin:round; stroke-width:4; stroke-opacity:1; fill:none" points="149.988,1800.78 149.988,47.2441 "/>
<polyline clip-path="url(#clip510)" style="stroke:#000000; stroke-linecap:round; stroke-linejoin:round; stroke-width:4; stroke-opacity:1; fill:none" points="149.988,1594.84 168.885,1594.84 "/>
<polyline clip-path="url(#clip510)" style="stroke:#000000; stroke-linecap:round; stroke-linejoin:round; stroke-width:4; stroke-opacity:1; fill:none" points="149.988,1252.45 168.885,1252.45 "/>
<polyline clip-path="url(#clip510)" style="stroke:#000000; stroke-linecap:round; stroke-linejoin:round; stroke-width:4; stroke-opacity:1; fill:none" points="149.988,910.059 168.885,910.059 "/>
<polyline clip-path="url(#clip510)" style="stroke:#000000; stroke-linecap:round; stroke-linejoin:round; stroke-width:4; stroke-opacity:1; fill:none" points="149.988,567.667 168.885,567.667 "/>
<polyline clip-path="url(#clip510)" style="stroke:#000000; stroke-linecap:round; stroke-linejoin:round; stroke-width:4; stroke-opacity:1; fill:none" points="149.988,225.275 168.885,225.275 "/>
<path clip-path="url(#clip510)" d="M49.5521 1595.3 L79.2279 1595.3 L79.2279 1599.23 L49.5521 1599.23 L49.5521 1595.3 Z" fill="#000000" fill-rule="nonzero" fill-opacity="1" /><path clip-path="url(#clip510)" d="M93.3482 1608.19 L109.668 1608.19 L109.668 1612.12 L87.7232 1612.12 L87.7232 1608.19 Q90.3852 1605.43 94.9685 1600.8 Q99.575 1596.15 100.756 1594.81 Q103.001 1592.29 103.881 1590.55 Q104.783 1588.79 104.783 1587.1 Q104.783 1584.35 102.839 1582.61 Q100.918 1580.87 97.8158 1580.87 Q95.6167 1580.87 93.163 1581.64 Q90.7325 1582.4 87.9547 1583.95 L87.9547 1579.23 Q90.7788 1578.1 93.2324 1577.52 Q95.6861 1576.94 97.7232 1576.94 Q103.094 1576.94 106.288 1579.62 Q109.482 1582.31 109.482 1586.8 Q109.482 1588.93 108.672 1590.85 Q107.885 1592.75 105.779 1595.34 Q105.2 1596.01 102.098 1599.23 Q98.9963 1602.42 93.3482 1608.19 Z" fill="#000000" fill-rule="nonzero" fill-opacity="1" /><path clip-path="url(#clip510)" d="M97.7232 1238.25 Q94.1121 1238.25 92.2834 1241.81 Q90.4778 1245.36 90.4778 1252.49 Q90.4778 1259.59 92.2834 1263.16 Q94.1121 1266.7 97.7232 1266.7 Q101.357 1266.7 103.163 1263.16 Q104.992 1259.59 104.992 1252.49 Q104.992 1245.36 103.163 1241.81 Q101.357 1238.25 97.7232 1238.25 M97.7232 1234.55 Q103.533 1234.55 106.589 1239.15 Q109.668 1243.74 109.668 1252.49 Q109.668 1261.21 106.589 1265.82 Q103.533 1270.4 97.7232 1270.4 Q91.913 1270.4 88.8343 1265.82 Q85.7788 1261.21 85.7788 1252.49 Q85.7788 1243.74 88.8343 1239.15 Q91.913 1234.55 97.7232 1234.55 Z" fill="#000000" fill-rule="nonzero" fill-opacity="1" /><path clip-path="url(#clip510)" d="M93.3482 923.404 L109.668 923.404 L109.668 927.339 L87.7232 927.339 L87.7232 923.404 Q90.3852 920.649 94.9685 916.02 Q99.575 911.367 100.756 910.024 Q103.001 907.501 103.881 905.765 Q104.783 904.006 104.783 902.316 Q104.783 899.562 102.839 897.825 Q100.918 896.089 97.8158 896.089 Q95.6167 896.089 93.163 896.853 Q90.7325 897.617 87.9547 899.168 L87.9547 894.446 Q90.7788 893.312 93.2324 892.733 Q95.6861 892.154 97.7232 892.154 Q103.094 892.154 106.288 894.839 Q109.482 897.525 109.482 902.015 Q109.482 904.145 108.672 906.066 Q107.885 907.964 105.779 910.557 Q105.2 911.228 102.098 914.446 Q98.9963 917.64 93.3482 923.404 Z" fill="#000000" fill-rule="nonzero" fill-opacity="1" /><path clip-path="url(#clip510)" d="M100.084 554.461 L88.2788 572.91 L100.084 572.91 L100.084 554.461 M98.8574 550.387 L104.737 550.387 L104.737 572.91 L109.668 572.91 L109.668 576.799 L104.737 576.799 L104.737 584.947 L100.084 584.947 L100.084 576.799 L84.4825 576.799 L84.4825 572.285 L98.8574 550.387 Z" fill="#000000" fill-rule="nonzero" fill-opacity="1" /><path clip-path="url(#clip510)" d="M98.1398 223.411 Q94.9917 223.411 93.1399 225.564 Q91.3112 227.717 91.3112 231.467 Q91.3112 235.194 93.1399 237.37 Q94.9917 239.522 98.1398 239.522 Q101.288 239.522 103.117 237.37 Q104.968 235.194 104.968 231.467 Q104.968 227.717 103.117 225.564 Q101.288 223.411 98.1398 223.411 M107.422 208.759 L107.422 213.018 Q105.663 212.184 103.857 211.745 Q102.075 211.305 100.316 211.305 Q95.6861 211.305 93.2324 214.43 Q90.8019 217.555 90.4547 223.874 Q91.8204 221.86 93.8806 220.796 Q95.9408 219.708 98.4176 219.708 Q103.626 219.708 106.635 222.879 Q109.668 226.027 109.668 231.467 Q109.668 236.791 106.519 240.008 Q103.371 243.226 98.1398 243.226 Q92.1445 243.226 88.9732 238.643 Q85.8019 234.036 85.8019 225.309 Q85.8019 217.115 89.6908 212.254 Q93.5797 207.37 100.131 207.37 Q101.89 207.37 103.672 207.717 Q105.478 208.064 107.422 208.759 Z" fill="#000000" fill-rule="nonzero" fill-opacity="1" /><circle clip-path="url(#clip512)" cx="220.481" cy="96.8724" r="14.4" fill="#ff0000" fill-rule="evenodd" fill-opacity="1" stroke="#000000" stroke-opacity="1" stroke-width="3.84"/>
<circle clip-path="url(#clip512)" cx="455.459" cy="198.431" r="14.4" fill="#ff0000" fill-rule="evenodd" fill-opacity="1" stroke="#000000" stroke-opacity="1" stroke-width="3.84"/>
<circle clip-path="url(#clip512)" cx="690.437" cy="522.447" r="14.4" fill="#ff0000" fill-rule="evenodd" fill-opacity="1" stroke="#000000" stroke-opacity="1" stroke-width="3.84"/>
<circle clip-path="url(#clip512)" cx="925.415" cy="935.92" r="14.4" fill="#ff0000" fill-rule="evenodd" fill-opacity="1" stroke="#000000" stroke-opacity="1" stroke-width="3.84"/>
<circle clip-path="url(#clip512)" cx="1160.39" cy="722.281" r="14.4" fill="#ff0000" fill-rule="evenodd" fill-opacity="1" stroke="#000000" stroke-opacity="1" stroke-width="3.84"/>
<circle clip-path="url(#clip512)" cx="1395.37" cy="920.286" r="14.4" fill="#ff0000" fill-rule="evenodd" fill-opacity="1" stroke="#000000" stroke-opacity="1" stroke-width="3.84"/>
<circle clip-path="url(#clip512)" cx="1630.35" cy="1018.92" r="14.4" fill="#ff0000" fill-rule="evenodd" fill-opacity="1" stroke="#000000" stroke-opacity="1" stroke-width="3.84"/>
<circle clip-path="url(#clip512)" cx="1865.33" cy="1396.19" r="14.4" fill="#ff0000" fill-rule="evenodd" fill-opacity="1" stroke="#000000" stroke-opacity="1" stroke-width="3.84"/>
<circle clip-path="url(#clip512)" cx="2100.31" cy="1419.54" r="14.4" fill="#ff0000" fill-rule="evenodd" fill-opacity="1" stroke="#000000" stroke-opacity="1" stroke-width="3.84"/>
<circle clip-path="url(#clip512)" cx="2335.28" cy="1583.48" r="14.4" fill="#ff0000" fill-rule="evenodd" fill-opacity="1" stroke="#000000" stroke-opacity="1" stroke-width="3.84"/>
<circle clip-path="url(#clip512)" cx="2570.26" cy="1751.15" r="14.4" fill="#ff0000" fill-rule="evenodd" fill-opacity="1" stroke="#000000" stroke-opacity="1" stroke-width="3.84"/>
<path clip-path="url(#clip510)" d="M1973.96 209.375 L2557.73 209.375 L2557.73 105.695 L1973.96 105.695  Z" fill="#ffffff" fill-rule="evenodd" fill-opacity="1"/>
<polyline clip-path="url(#clip510)" style="stroke:#000000; stroke-linecap:round; stroke-linejoin:round; stroke-width:4; stroke-opacity:1; fill:none" points="1973.96,209.375 2557.73,209.375 2557.73,105.695 1973.96,105.695 1973.96,209.375 "/>
<circle clip-path="url(#clip510)" cx="2084.66" cy="157.535" r="20.48" fill="#ff0000" fill-rule="evenodd" fill-opacity="1" stroke="#000000" stroke-opacity="1" stroke-width="5.46133"/>
<path clip-path="url(#clip510)" d="M2207.26 151.876 Q2203.83 151.876 2201.84 154.561 Q2199.85 157.223 2199.85 161.876 Q2199.85 166.528 2201.82 169.213 Q2203.81 171.875 2207.26 171.875 Q2210.66 171.875 2212.65 169.19 Q2214.64 166.505 2214.64 161.876 Q2214.64 157.269 2212.65 154.584 Q2210.66 151.876 2207.26 151.876 M2207.26 148.264 Q2212.81 148.264 2215.98 151.876 Q2219.15 155.487 2219.15 161.876 Q2219.15 168.241 2215.98 171.875 Q2212.81 175.487 2207.26 175.487 Q2201.68 175.487 2198.51 171.875 Q2195.36 168.241 2195.36 161.876 Q2195.36 155.487 2198.51 151.876 Q2201.68 148.264 2207.26 148.264 Z" fill="#000000" fill-rule="nonzero" fill-opacity="1" /><path clip-path="url(#clip510)" d="M2244.83 161.876 Q2244.83 157.176 2242.88 154.514 Q2240.96 151.829 2237.58 151.829 Q2234.2 151.829 2232.26 154.514 Q2230.33 157.176 2230.33 161.876 Q2230.33 166.575 2232.26 169.26 Q2234.2 171.922 2237.58 171.922 Q2240.96 171.922 2242.88 169.26 Q2244.83 166.575 2244.83 161.876 M2230.33 152.825 Q2231.68 150.51 2233.71 149.399 Q2235.77 148.264 2238.62 148.264 Q2243.34 148.264 2246.28 152.014 Q2249.25 155.764 2249.25 161.876 Q2249.25 167.987 2246.28 171.737 Q2243.34 175.487 2238.62 175.487 Q2235.77 175.487 2233.71 174.375 Q2231.68 173.241 2230.33 170.926 L2230.33 174.815 L2226.05 174.815 L2226.05 138.797 L2230.33 138.797 L2230.33 152.825 Z" fill="#000000" fill-rule="nonzero" fill-opacity="1" /><path clip-path="url(#clip510)" d="M2272.83 149.653 L2272.83 153.681 Q2271.03 152.755 2269.08 152.292 Q2267.14 151.829 2265.06 151.829 Q2261.89 151.829 2260.29 152.801 Q2258.71 153.774 2258.71 155.718 Q2258.71 157.2 2259.85 158.056 Q2260.98 158.889 2264.41 159.653 L2265.87 159.977 Q2270.4 160.95 2272.3 162.732 Q2274.22 164.491 2274.22 167.663 Q2274.22 171.274 2271.35 173.38 Q2268.51 175.487 2263.51 175.487 Q2261.42 175.487 2259.15 175.07 Q2256.91 174.676 2254.41 173.866 L2254.41 169.468 Q2256.77 170.695 2259.06 171.32 Q2261.35 171.922 2263.6 171.922 Q2266.61 171.922 2268.23 170.903 Q2269.85 169.862 2269.85 167.987 Q2269.85 166.25 2268.67 165.325 Q2267.51 164.399 2263.55 163.542 L2262.07 163.195 Q2258.11 162.362 2256.35 160.649 Q2254.59 158.913 2254.59 155.903 Q2254.59 152.246 2257.19 150.255 Q2259.78 148.264 2264.55 148.264 Q2266.91 148.264 2268.99 148.612 Q2271.07 148.959 2272.83 149.653 Z" fill="#000000" fill-rule="nonzero" fill-opacity="1" /><path clip-path="url(#clip510)" d="M2303.18 160.788 L2303.18 162.871 L2283.6 162.871 Q2283.88 167.269 2286.24 169.584 Q2288.62 171.875 2292.86 171.875 Q2295.31 171.875 2297.6 171.274 Q2299.92 170.672 2302.19 169.468 L2302.19 173.496 Q2299.89 174.468 2297.49 174.977 Q2295.08 175.487 2292.6 175.487 Q2286.4 175.487 2282.76 171.875 Q2279.15 168.264 2279.15 162.107 Q2279.15 155.741 2282.58 152.014 Q2286.03 148.264 2291.86 148.264 Q2297.09 148.264 2300.13 151.644 Q2303.18 155.001 2303.18 160.788 M2298.92 159.538 Q2298.88 156.042 2296.95 153.959 Q2295.06 151.876 2291.91 151.876 Q2288.34 151.876 2286.19 153.889 Q2284.06 155.903 2283.74 159.561 L2298.92 159.538 Z" fill="#000000" fill-rule="nonzero" fill-opacity="1" /><path clip-path="url(#clip510)" d="M2325.2 152.871 Q2324.48 152.454 2323.62 152.269 Q2322.79 152.061 2321.77 152.061 Q2318.16 152.061 2316.21 154.422 Q2314.29 156.76 2314.29 161.158 L2314.29 174.815 L2310.01 174.815 L2310.01 148.889 L2314.29 148.889 L2314.29 152.917 Q2315.63 150.556 2317.79 149.422 Q2319.94 148.264 2323.02 148.264 Q2323.46 148.264 2323.99 148.334 Q2324.52 148.38 2325.17 148.496 L2325.2 152.871 Z" fill="#000000" fill-rule="nonzero" fill-opacity="1" /><path clip-path="url(#clip510)" d="M2326.61 148.889 L2331.12 148.889 L2339.22 170.649 L2347.32 148.889 L2351.84 148.889 L2342.12 174.815 L2336.33 174.815 L2326.61 148.889 Z" fill="#000000" fill-rule="nonzero" fill-opacity="1" /><path clip-path="url(#clip510)" d="M2379.89 160.788 L2379.89 162.871 L2360.31 162.871 Q2360.59 167.269 2362.95 169.584 Q2365.33 171.875 2369.57 171.875 Q2372.02 171.875 2374.32 171.274 Q2376.63 170.672 2378.9 169.468 L2378.9 173.496 Q2376.61 174.468 2374.2 174.977 Q2371.79 175.487 2369.32 175.487 Q2363.11 175.487 2359.48 171.875 Q2355.87 168.264 2355.87 162.107 Q2355.87 155.741 2359.29 152.014 Q2362.74 148.264 2368.57 148.264 Q2373.81 148.264 2376.84 151.644 Q2379.89 155.001 2379.89 160.788 M2375.63 159.538 Q2375.59 156.042 2373.67 153.959 Q2371.77 151.876 2368.62 151.876 Q2365.06 151.876 2362.9 153.889 Q2360.77 155.903 2360.45 159.561 L2375.63 159.538 Z" fill="#000000" fill-rule="nonzero" fill-opacity="1" /><path clip-path="url(#clip510)" d="M2403.94 152.825 L2403.94 138.797 L2408.2 138.797 L2408.2 174.815 L2403.94 174.815 L2403.94 170.926 Q2402.6 173.241 2400.54 174.375 Q2398.5 175.487 2395.63 175.487 Q2390.94 175.487 2387.97 171.737 Q2385.03 167.987 2385.03 161.876 Q2385.03 155.764 2387.97 152.014 Q2390.94 148.264 2395.63 148.264 Q2398.5 148.264 2400.54 149.399 Q2402.6 150.51 2403.94 152.825 M2389.43 161.876 Q2389.43 166.575 2391.35 169.26 Q2393.3 171.922 2396.68 171.922 Q2400.06 171.922 2402 169.26 Q2403.94 166.575 2403.94 161.876 Q2403.94 157.176 2402 154.514 Q2400.06 151.829 2396.68 151.829 Q2393.3 151.829 2391.35 154.514 Q2389.43 157.176 2389.43 161.876 Z" fill="#000000" fill-rule="nonzero" fill-opacity="1" /><path clip-path="url(#clip510)" d="M2449.11 152.825 L2449.11 138.797 L2453.37 138.797 L2453.37 174.815 L2449.11 174.815 L2449.11 170.926 Q2447.76 173.241 2445.7 174.375 Q2443.67 175.487 2440.8 175.487 Q2436.1 175.487 2433.13 171.737 Q2430.19 167.987 2430.19 161.876 Q2430.19 155.764 2433.13 152.014 Q2436.1 148.264 2440.8 148.264 Q2443.67 148.264 2445.7 149.399 Q2447.76 150.51 2449.11 152.825 M2434.59 161.876 Q2434.59 166.575 2436.51 169.26 Q2438.46 171.922 2441.84 171.922 Q2445.22 171.922 2447.16 169.26 Q2449.11 166.575 2449.11 161.876 Q2449.11 157.176 2447.16 154.514 Q2445.22 151.829 2441.84 151.829 Q2438.46 151.829 2436.51 154.514 Q2434.59 157.176 2434.59 161.876 Z" fill="#000000" fill-rule="nonzero" fill-opacity="1" /><path clip-path="url(#clip510)" d="M2473.92 161.783 Q2468.76 161.783 2466.77 162.963 Q2464.78 164.144 2464.78 166.991 Q2464.78 169.26 2466.26 170.602 Q2467.76 171.922 2470.33 171.922 Q2473.87 171.922 2476 169.422 Q2478.16 166.899 2478.16 162.732 L2478.16 161.783 L2473.92 161.783 M2482.42 160.024 L2482.42 174.815 L2478.16 174.815 L2478.16 170.88 Q2476.7 173.241 2474.52 174.375 Q2472.35 175.487 2469.2 175.487 Q2465.22 175.487 2462.86 173.264 Q2460.52 171.019 2460.52 167.269 Q2460.52 162.894 2463.44 160.672 Q2466.37 158.45 2472.19 158.45 L2478.16 158.45 L2478.16 158.033 Q2478.16 155.093 2476.21 153.496 Q2474.29 151.876 2470.8 151.876 Q2468.57 151.876 2466.47 152.408 Q2464.36 152.94 2462.42 154.005 L2462.42 150.07 Q2464.75 149.167 2466.95 148.727 Q2469.15 148.264 2471.24 148.264 Q2476.86 148.264 2479.64 151.181 Q2482.42 154.098 2482.42 160.024 Z" fill="#000000" fill-rule="nonzero" fill-opacity="1" /><path clip-path="url(#clip510)" d="M2495.4 141.528 L2495.4 148.889 L2504.18 148.889 L2504.18 152.2 L2495.4 152.2 L2495.4 166.274 Q2495.4 169.445 2496.26 170.348 Q2497.14 171.25 2499.8 171.25 L2504.18 171.25 L2504.18 174.815 L2499.8 174.815 Q2494.87 174.815 2493 172.987 Q2491.12 171.135 2491.12 166.274 L2491.12 152.2 L2488 152.2 L2488 148.889 L2491.12 148.889 L2491.12 141.528 L2495.4 141.528 Z" fill="#000000" fill-rule="nonzero" fill-opacity="1" /><path clip-path="url(#clip510)" d="M2521.56 161.783 Q2516.4 161.783 2514.41 162.963 Q2512.42 164.144 2512.42 166.991 Q2512.42 169.26 2513.9 170.602 Q2515.4 171.922 2517.97 171.922 Q2521.51 171.922 2523.64 169.422 Q2525.8 166.899 2525.8 162.732 L2525.8 161.783 L2521.56 161.783 M2530.06 160.024 L2530.06 174.815 L2525.8 174.815 L2525.8 170.88 Q2524.34 173.241 2522.16 174.375 Q2519.99 175.487 2516.84 175.487 Q2512.86 175.487 2510.5 173.264 Q2508.16 171.019 2508.16 167.269 Q2508.16 162.894 2511.07 160.672 Q2514.01 158.45 2519.82 158.45 L2525.8 158.45 L2525.8 158.033 Q2525.8 155.093 2523.85 153.496 Q2521.93 151.876 2518.43 151.876 Q2516.21 151.876 2514.11 152.408 Q2512 152.94 2510.06 154.005 L2510.06 150.07 Q2512.39 149.167 2514.59 148.727 Q2516.79 148.264 2518.87 148.264 Q2524.5 148.264 2527.28 151.181 Q2530.06 154.098 2530.06 160.024 Z" fill="#000000" fill-rule="nonzero" fill-opacity="1" /></svg>
