<?xml version="1.0" encoding="utf-8"?>
<svg xmlns="http://www.w3.org/2000/svg" xmlns:xlink="http://www.w3.org/1999/xlink" width="672" height="480" viewBox="0 0 2688 1920">
<defs>
  <clipPath id="clip270">
    <rect x="0" y="0" width="2688" height="1920"/>
  </clipPath>
</defs>
<path clip-path="url(#clip270)" d="M0 1920 L2688 1920 L2688 0 L0 0  Z" fill="#ffffff" fill-rule="evenodd" fill-opacity="1"/>
<defs>
  <clipPath id="clip271">
    <rect x="537" y="0" width="1883" height="1883"/>
  </clipPath>
</defs>
<path clip-path="url(#clip270)" d="M216.65 1734.12 L2640.76 1734.12 L2640.76 127.792 L216.65 127.792  Z" fill="#ffffff" fill-rule="evenodd" fill-opacity="1"/>
<defs>
  <clipPath id="clip272">
    <rect x="216" y="127" width="2425" height="1607"/>
  </clipPath>
</defs>
<polyline clip-path="url(#clip272)" style="stroke:#000000; stroke-linecap:round; stroke-linejoin:round; stroke-width:2; stroke-opacity:0.1; fill:none" points="513.946,1734.12 513.946,127.792 "/>
<polyline clip-path="url(#clip272)" style="stroke:#000000; stroke-linecap:round; stroke-linejoin:round; stroke-width:2; stroke-opacity:0.1; fill:none" points="971.324,1734.12 971.324,127.792 "/>
<polyline clip-path="url(#clip272)" style="stroke:#000000; stroke-linecap:round; stroke-linejoin:round; stroke-width:2; stroke-opacity:0.1; fill:none" points="1428.7,1734.12 1428.7,127.792 "/>
<polyline clip-path="url(#clip272)" style="stroke:#000000; stroke-linecap:round; stroke-linejoin:round; stroke-width:2; stroke-opacity:0.1; fill:none" points="1886.08,1734.12 1886.08,127.792 "/>
<polyline clip-path="url(#clip272)" style="stroke:#000000; stroke-linecap:round; stroke-linejoin:round; stroke-width:2; stroke-opacity:0.1; fill:none" points="2343.46,1734.12 2343.46,127.792 "/>
<polyline clip-path="url(#clip270)" style="stroke:#000000; stroke-linecap:round; stroke-linejoin:round; stroke-width:4; stroke-opacity:1; fill:none" points="216.65,1734.12 2640.76,1734.12 "/>
<polyline clip-path="url(#clip270)" style="stroke:#000000; stroke-linecap:round; stroke-linejoin:round; stroke-width:4; stroke-opacity:1; fill:none" points="513.946,1734.12 513.946,1715.22 "/>
<polyline clip-path="url(#clip270)" style="stroke:#000000; stroke-linecap:round; stroke-linejoin:round; stroke-width:4; stroke-opacity:1; fill:none" points="971.324,1734.12 971.324,1715.22 "/>
<polyline clip-path="url(#clip270)" style="stroke:#000000; stroke-linecap:round; stroke-linejoin:round; stroke-width:4; stroke-opacity:1; fill:none" points="1428.7,1734.12 1428.7,1715.22 "/>
<polyline clip-path="url(#clip270)" style="stroke:#000000; stroke-linecap:round; stroke-linejoin:round; stroke-width:4; stroke-opacity:1; fill:none" points="1886.08,1734.12 1886.08,1715.22 "/>
<polyline clip-path="url(#clip270)" style="stroke:#000000; stroke-linecap:round; stroke-linejoin:round; stroke-width:4; stroke-opacity:1; fill:none" points="2343.46,1734.12 2343.46,1715.22 "/>
<path clip-path="url(#clip270)" d="M482.847 1781.99 L512.522 1781.99 L512.522 1785.93 L482.847 1785.93 L482.847 1781.99 Z" fill="#000000" fill-rule="nonzero" fill-opacity="1" /><path clip-path="url(#clip270)" d="M535.462 1768.34 L523.656 1786.78 L535.462 1786.78 L535.462 1768.34 M534.235 1764.26 L540.115 1764.26 L540.115 1786.78 L545.045 1786.78 L545.045 1790.67 L540.115 1790.67 L540.115 1798.82 L535.462 1798.82 L535.462 1790.67 L519.86 1790.67 L519.86 1786.16 L534.235 1764.26 Z" fill="#000000" fill-rule="nonzero" fill-opacity="1" /><path clip-path="url(#clip270)" d="M941.267 1781.99 L970.942 1781.99 L970.942 1785.93 L941.267 1785.93 L941.267 1781.99 Z" fill="#000000" fill-rule="nonzero" fill-opacity="1" /><path clip-path="url(#clip270)" d="M985.063 1794.89 L1001.38 1794.89 L1001.38 1798.82 L979.438 1798.82 L979.438 1794.89 Q982.1 1792.13 986.683 1787.5 Q991.29 1782.85 992.47 1781.51 Q994.715 1778.98 995.595 1777.25 Q996.498 1775.49 996.498 1773.8 Q996.498 1771.04 994.553 1769.31 Q992.632 1767.57 989.53 1767.57 Q987.331 1767.57 984.878 1768.34 Q982.447 1769.1 979.669 1770.65 L979.669 1765.93 Q982.493 1764.79 984.947 1764.21 Q987.401 1763.64 989.438 1763.64 Q994.808 1763.64 998.002 1766.32 Q1001.2 1769.01 1001.2 1773.5 Q1001.2 1775.63 1000.39 1777.55 Q999.6 1779.45 997.493 1782.04 Q996.915 1782.71 993.813 1785.93 Q990.711 1789.12 985.063 1794.89 Z" fill="#000000" fill-rule="nonzero" fill-opacity="1" /><path clip-path="url(#clip270)" d="M1428.7 1767.34 Q1425.09 1767.34 1423.26 1770.9 Q1421.46 1774.45 1421.46 1781.58 Q1421.46 1788.68 1423.26 1792.25 Q1425.09 1795.79 1428.7 1795.79 Q1432.34 1795.79 1434.14 1792.25 Q1435.97 1788.68 1435.97 1781.58 Q1435.97 1774.45 1434.14 1770.9 Q1432.34 1767.34 1428.7 1767.34 M1428.7 1763.64 Q1434.51 1763.64 1437.57 1768.24 Q1440.65 1772.83 1440.65 1781.58 Q1440.65 1790.3 1437.57 1794.91 Q1434.51 1799.49 1428.7 1799.49 Q1422.89 1799.49 1419.81 1794.91 Q1416.76 1790.3 1416.76 1781.58 Q1416.76 1772.83 1419.81 1768.24 Q1422.89 1763.64 1428.7 1763.64 Z" fill="#000000" fill-rule="nonzero" fill-opacity="1" /><path clip-path="url(#clip270)" d="M1880.73 1794.89 L1897.05 1794.89 L1897.05 1798.82 L1875.11 1798.82 L1875.11 1794.89 Q1877.77 1792.13 1882.35 1787.5 Q1886.96 1782.85 1888.14 1781.51 Q1890.39 1778.98 1891.27 1777.25 Q1892.17 1775.49 1892.17 1773.8 Q1892.17 1771.04 1890.22 1769.31 Q1888.3 1767.57 1885.2 1767.57 Q1883 1767.57 1880.55 1768.34 Q1878.12 1769.1 1875.34 1770.65 L1875.34 1765.93 Q1878.16 1764.79 1880.62 1764.21 Q1883.07 1763.64 1885.11 1763.64 Q1890.48 1763.64 1893.67 1766.32 Q1896.87 1769.01 1896.87 1773.5 Q1896.87 1775.63 1896.06 1777.55 Q1895.27 1779.45 1893.16 1782.04 Q1892.59 1782.71 1889.48 1785.93 Q1886.38 1789.12 1880.73 1794.89 Z" fill="#000000" fill-rule="nonzero" fill-opacity="1" /><path clip-path="url(#clip270)" d="M2346.47 1768.34 L2334.66 1786.78 L2346.47 1786.78 L2346.47 1768.34 M2345.24 1764.26 L2351.12 1764.26 L2351.12 1786.78 L2356.05 1786.78 L2356.05 1790.67 L2351.12 1790.67 L2351.12 1798.82 L2346.47 1798.82 L2346.47 1790.67 L2330.87 1790.67 L2330.87 1786.16 L2345.24 1764.26 Z" fill="#000000" fill-rule="nonzero" fill-opacity="1" /><path clip-path="url(#clip270)" d="M1410.53 1835.78 L1417.44 1835.78 L1429.24 1853.45 L1441.12 1835.78 L1448.02 1835.78 L1432.75 1858.6 L1449.04 1883.3 L1442.13 1883.3 L1428.77 1863.09 L1415.3 1883.3 L1408.36 1883.3 L1425.33 1857.93 L1410.53 1835.78 Z" fill="#000000" fill-rule="nonzero" fill-opacity="1" /><polyline clip-path="url(#clip272)" style="stroke:#000000; stroke-linecap:round; stroke-linejoin:round; stroke-width:2; stroke-opacity:0.1; fill:none" points="216.65,1545.47 2640.76,1545.47 "/>
<polyline clip-path="url(#clip272)" style="stroke:#000000; stroke-linecap:round; stroke-linejoin:round; stroke-width:2; stroke-opacity:0.1; fill:none" points="216.65,1231.82 2640.76,1231.82 "/>
<polyline clip-path="url(#clip272)" style="stroke:#000000; stroke-linecap:round; stroke-linejoin:round; stroke-width:2; stroke-opacity:0.1; fill:none" points="216.65,918.173 2640.76,918.173 "/>
<polyline clip-path="url(#clip272)" style="stroke:#000000; stroke-linecap:round; stroke-linejoin:round; stroke-width:2; stroke-opacity:0.1; fill:none" points="216.65,604.525 2640.76,604.525 "/>
<polyline clip-path="url(#clip272)" style="stroke:#000000; stroke-linecap:round; stroke-linejoin:round; stroke-width:2; stroke-opacity:0.1; fill:none" points="216.65,290.877 2640.76,290.877 "/>
<polyline clip-path="url(#clip270)" style="stroke:#000000; stroke-linecap:round; stroke-linejoin:round; stroke-width:4; stroke-opacity:1; fill:none" points="216.65,1734.12 216.65,127.792 "/>
<polyline clip-path="url(#clip270)" style="stroke:#000000; stroke-linecap:round; stroke-linejoin:round; stroke-width:4; stroke-opacity:1; fill:none" points="216.65,1545.47 235.547,1545.47 "/>
<polyline clip-path="url(#clip270)" style="stroke:#000000; stroke-linecap:round; stroke-linejoin:round; stroke-width:4; stroke-opacity:1; fill:none" points="216.65,1231.82 235.547,1231.82 "/>
<polyline clip-path="url(#clip270)" style="stroke:#000000; stroke-linecap:round; stroke-linejoin:round; stroke-width:4; stroke-opacity:1; fill:none" points="216.65,918.173 235.547,918.173 "/>
<polyline clip-path="url(#clip270)" style="stroke:#000000; stroke-linecap:round; stroke-linejoin:round; stroke-width:4; stroke-opacity:1; fill:none" points="216.65,604.525 235.547,604.525 "/>
<polyline clip-path="url(#clip270)" style="stroke:#000000; stroke-linecap:round; stroke-linejoin:round; stroke-width:4; stroke-opacity:1; fill:none" points="216.65,290.877 235.547,290.877 "/>
<path clip-path="url(#clip270)" d="M116.214 1545.92 L145.89 1545.92 L145.89 1549.86 L116.214 1549.86 L116.214 1545.92 Z" fill="#000000" fill-rule="nonzero" fill-opacity="1" /><path clip-path="url(#clip270)" d="M160.011 1558.81 L176.33 1558.81 L176.33 1562.75 L154.386 1562.75 L154.386 1558.81 Q157.048 1556.06 161.631 1551.43 Q166.237 1546.78 167.418 1545.44 Q169.663 1542.91 170.543 1541.18 Q171.446 1539.42 171.446 1537.73 Q171.446 1534.97 169.501 1533.24 Q167.58 1531.5 164.478 1531.5 Q162.279 1531.5 159.825 1532.26 Q157.395 1533.03 154.617 1534.58 L154.617 1529.86 Q157.441 1528.72 159.895 1528.14 Q162.348 1527.56 164.385 1527.56 Q169.756 1527.56 172.95 1530.25 Q176.145 1532.94 176.145 1537.43 Q176.145 1539.56 175.334 1541.48 Q174.547 1543.37 172.441 1545.97 Q171.862 1546.64 168.76 1549.86 Q165.659 1553.05 160.011 1558.81 Z" fill="#000000" fill-rule="nonzero" fill-opacity="1" /><path clip-path="url(#clip270)" d="M164.385 1217.62 Q160.774 1217.62 158.946 1221.19 Q157.14 1224.73 157.14 1231.86 Q157.14 1238.96 158.946 1242.53 Q160.774 1246.07 164.385 1246.07 Q168.02 1246.07 169.825 1242.53 Q171.654 1238.96 171.654 1231.86 Q171.654 1224.73 169.825 1221.19 Q168.02 1217.62 164.385 1217.62 M164.385 1213.92 Q170.196 1213.92 173.251 1218.52 Q176.33 1223.11 176.33 1231.86 Q176.33 1240.58 173.251 1245.19 Q170.196 1249.77 164.385 1249.77 Q158.575 1249.77 155.497 1245.19 Q152.441 1240.58 152.441 1231.86 Q152.441 1223.11 155.497 1218.52 Q158.575 1213.92 164.385 1213.92 Z" fill="#000000" fill-rule="nonzero" fill-opacity="1" /><path clip-path="url(#clip270)" d="M160.011 931.518 L176.33 931.518 L176.33 935.453 L154.386 935.453 L154.386 931.518 Q157.048 928.764 161.631 924.134 Q166.237 919.481 167.418 918.139 Q169.663 915.616 170.543 913.879 Q171.446 912.12 171.446 910.43 Q171.446 907.676 169.501 905.94 Q167.58 904.204 164.478 904.204 Q162.279 904.204 159.825 904.967 Q157.395 905.731 154.617 907.282 L154.617 902.56 Q157.441 901.426 159.895 900.847 Q162.348 900.268 164.385 900.268 Q169.756 900.268 172.95 902.954 Q176.145 905.639 176.145 910.129 Q176.145 912.259 175.334 914.18 Q174.547 916.078 172.441 918.671 Q171.862 919.342 168.76 922.56 Q165.659 925.754 160.011 931.518 Z" fill="#000000" fill-rule="nonzero" fill-opacity="1" /><path clip-path="url(#clip270)" d="M166.747 591.319 L154.941 609.768 L166.747 609.768 L166.747 591.319 M165.52 587.245 L171.399 587.245 L171.399 609.768 L176.33 609.768 L176.33 613.657 L171.399 613.657 L171.399 621.805 L166.747 621.805 L166.747 613.657 L151.145 613.657 L151.145 609.143 L165.52 587.245 Z" fill="#000000" fill-rule="nonzero" fill-opacity="1" /><path clip-path="url(#clip270)" d="M164.802 289.014 Q161.654 289.014 159.802 291.166 Q157.973 293.319 157.973 297.069 Q157.973 300.796 159.802 302.972 Q161.654 305.125 164.802 305.125 Q167.95 305.125 169.779 302.972 Q171.631 300.796 171.631 297.069 Q171.631 293.319 169.779 291.166 Q167.95 289.014 164.802 289.014 M174.085 274.361 L174.085 278.62 Q172.325 277.787 170.52 277.347 Q168.737 276.907 166.978 276.907 Q162.348 276.907 159.895 280.032 Q157.464 283.157 157.117 289.476 Q158.483 287.463 160.543 286.398 Q162.603 285.31 165.08 285.31 Q170.288 285.31 173.297 288.481 Q176.33 291.629 176.33 297.069 Q176.33 302.393 173.182 305.611 Q170.034 308.828 164.802 308.828 Q158.807 308.828 155.636 304.245 Q152.464 299.638 152.464 290.912 Q152.464 282.717 156.353 277.856 Q160.242 272.972 166.793 272.972 Q168.552 272.972 170.335 273.319 Q172.14 273.666 174.085 274.361 Z" fill="#000000" fill-rule="nonzero" fill-opacity="1" /><path clip-path="url(#clip270)" d="M14.1184 950.991 L14.1184 944.084 L33.6612 930.907 L14.1184 917.825 L14.1184 910.918 L39.0084 927.724 L61.6384 927.724 L61.6384 934.185 L39.0084 934.185 L14.1184 950.991 Z" fill="#000000" fill-rule="nonzero" fill-opacity="1" /><path clip-path="url(#clip270)" d="M993.555 17.6457 Q984.643 17.6457 979.377 24.2892 Q974.151 30.9327 974.151 42.3968 Q974.151 53.8203 979.377 60.4638 Q984.643 67.1073 993.555 67.1073 Q1002.47 67.1073 1007.65 60.4638 Q1012.88 53.8203 1012.88 42.3968 Q1012.88 30.9327 1007.65 24.2892 Q1002.47 17.6457 993.555 17.6457 M993.555 11.0023 Q1006.27 11.0023 1013.89 19.5497 Q1021.51 28.0566 1021.51 42.3968 Q1021.51 56.6965 1013.89 65.2439 Q1006.27 73.7508 993.555 73.7508 Q980.794 73.7508 973.138 65.2439 Q965.522 56.737 965.522 42.3968 Q965.522 28.0566 973.138 19.5497 Q980.794 11.0023 993.555 11.0023 Z" fill="#000000" fill-rule="nonzero" fill-opacity="1" /><path clip-path="url(#clip270)" d="M1066.55 49.9314 Q1066.55 41.7081 1063.15 37.0496 Q1059.79 32.3505 1053.87 32.3505 Q1047.96 32.3505 1044.56 37.0496 Q1041.19 41.7081 1041.19 49.9314 Q1041.19 58.1548 1044.56 62.8538 Q1047.96 67.5124 1053.87 67.5124 Q1059.79 67.5124 1063.15 62.8538 Q1066.55 58.1548 1066.55 49.9314 M1041.19 34.0924 Q1043.54 30.0415 1047.11 28.0971 Q1050.71 26.1121 1055.7 26.1121 Q1063.96 26.1121 1069.1 32.6746 Q1074.29 39.2371 1074.29 49.9314 Q1074.29 60.6258 1069.1 67.1883 Q1063.96 73.7508 1055.7 73.7508 Q1050.71 73.7508 1047.11 71.8063 Q1043.54 69.8214 1041.19 65.7705 L1041.19 72.576 L1033.7 72.576 L1033.7 9.54393 L1041.19 9.54393 L1041.19 34.0924 Z" fill="#000000" fill-rule="nonzero" fill-opacity="1" /><path clip-path="url(#clip270)" d="M1115.57 28.5427 L1115.57 35.5912 Q1112.41 33.9709 1109.01 33.1607 Q1105.6 32.3505 1101.96 32.3505 Q1096.41 32.3505 1093.61 34.0519 Q1090.86 35.7533 1090.86 39.156 Q1090.86 41.7486 1092.84 43.2475 Q1094.83 44.7058 1100.82 46.0426 L1103.37 46.6097 Q1111.31 48.3111 1114.64 51.4303 Q1118 54.509 1118 60.0587 Q1118 66.3781 1112.98 70.0644 Q1107.99 73.7508 1099.24 73.7508 Q1095.6 73.7508 1091.63 73.0216 Q1087.7 72.3329 1083.32 70.9151 L1083.32 63.2184 Q1087.45 65.3654 1091.47 66.4591 Q1095.48 67.5124 1099.4 67.5124 Q1104.67 67.5124 1107.51 65.73 Q1110.34 63.9071 1110.34 60.6258 Q1110.34 57.5877 1108.28 55.9673 Q1106.25 54.3469 1099.32 52.8481 L1096.73 52.2405 Q1089.8 50.7821 1086.73 47.7845 Q1083.65 44.7463 1083.65 39.4801 Q1083.65 33.0797 1088.18 29.5959 Q1092.72 26.1121 1101.07 26.1121 Q1105.2 26.1121 1108.84 26.7198 Q1112.49 27.3274 1115.57 28.5427 Z" fill="#000000" fill-rule="nonzero" fill-opacity="1" /><path clip-path="url(#clip270)" d="M1168.68 48.0275 L1168.68 51.6733 L1134.4 51.6733 Q1134.89 59.3701 1139.02 63.421 Q1143.2 67.4314 1150.61 67.4314 Q1154.9 67.4314 1158.91 66.3781 Q1162.96 65.3249 1166.93 63.2184 L1166.93 70.267 Q1162.92 71.9684 1158.71 72.8596 Q1154.5 73.7508 1150.16 73.7508 Q1139.31 73.7508 1132.95 67.4314 Q1126.63 61.1119 1126.63 50.3365 Q1126.63 39.1965 1132.62 32.6746 Q1138.66 26.1121 1148.87 26.1121 Q1158.02 26.1121 1163.33 32.0264 Q1168.68 37.9003 1168.68 48.0275 M1161.22 45.84 Q1161.14 39.7232 1157.78 36.0774 Q1154.46 32.4315 1148.95 32.4315 Q1142.71 32.4315 1138.94 35.9558 Q1135.21 39.4801 1134.65 45.8805 L1161.22 45.84 Z" fill="#000000" fill-rule="nonzero" fill-opacity="1" /><path clip-path="url(#clip270)" d="M1207.2 34.1734 Q1205.94 33.4443 1204.44 33.1202 Q1202.99 32.7556 1201.2 32.7556 Q1194.88 32.7556 1191.48 36.8875 Q1188.12 40.9789 1188.12 48.6757 L1188.12 72.576 L1180.63 72.576 L1180.63 27.2059 L1188.12 27.2059 L1188.12 34.2544 Q1190.47 30.1225 1194.24 28.1376 Q1198 26.1121 1203.39 26.1121 Q1204.16 26.1121 1205.09 26.2337 Q1206.02 26.3147 1207.16 26.5172 L1207.2 34.1734 Z" fill="#000000" fill-rule="nonzero" fill-opacity="1" /><path clip-path="url(#clip270)" d="M1209.67 27.2059 L1217.57 27.2059 L1231.75 65.2844 L1245.93 27.2059 L1253.83 27.2059 L1236.81 72.576 L1226.68 72.576 L1209.67 27.2059 Z" fill="#000000" fill-rule="nonzero" fill-opacity="1" /><path clip-path="url(#clip270)" d="M1302.92 48.0275 L1302.92 51.6733 L1268.65 51.6733 Q1269.14 59.3701 1273.27 63.421 Q1277.44 67.4314 1284.86 67.4314 Q1289.15 67.4314 1293.16 66.3781 Q1297.21 65.3249 1301.18 63.2184 L1301.18 70.267 Q1297.17 71.9684 1292.96 72.8596 Q1288.74 73.7508 1284.41 73.7508 Q1273.55 73.7508 1267.19 67.4314 Q1260.87 61.1119 1260.87 50.3365 Q1260.87 39.1965 1266.87 32.6746 Q1272.91 26.1121 1283.11 26.1121 Q1292.27 26.1121 1297.58 32.0264 Q1302.92 37.9003 1302.92 48.0275 M1295.47 45.84 Q1295.39 39.7232 1292.03 36.0774 Q1288.7 32.4315 1283.19 32.4315 Q1276.96 32.4315 1273.19 35.9558 Q1269.46 39.4801 1268.89 45.8805 L1295.47 45.84 Z" fill="#000000" fill-rule="nonzero" fill-opacity="1" /><path clip-path="url(#clip270)" d="M1345.01 34.0924 L1345.01 9.54393 L1352.46 9.54393 L1352.46 72.576 L1345.01 72.576 L1345.01 65.7705 Q1342.66 69.8214 1339.06 71.8063 Q1335.49 73.7508 1330.47 73.7508 Q1322.25 73.7508 1317.06 67.1883 Q1311.92 60.6258 1311.92 49.9314 Q1311.92 39.2371 1317.06 32.6746 Q1322.25 26.1121 1330.47 26.1121 Q1335.49 26.1121 1339.06 28.0971 Q1342.66 30.0415 1345.01 34.0924 M1319.61 49.9314 Q1319.61 58.1548 1322.97 62.8538 Q1326.38 67.5124 1332.29 67.5124 Q1338.21 67.5124 1341.61 62.8538 Q1345.01 58.1548 1345.01 49.9314 Q1345.01 41.7081 1341.61 37.0496 Q1338.21 32.3505 1332.29 32.3505 Q1326.38 32.3505 1322.97 37.0496 Q1319.61 41.7081 1319.61 49.9314 Z" fill="#000000" fill-rule="nonzero" fill-opacity="1" /><path clip-path="url(#clip270)" d="M1424.04 34.0924 L1424.04 9.54393 L1431.5 9.54393 L1431.5 72.576 L1424.04 72.576 L1424.04 65.7705 Q1421.69 69.8214 1418.09 71.8063 Q1414.52 73.7508 1409.5 73.7508 Q1401.28 73.7508 1396.09 67.1883 Q1390.95 60.6258 1390.95 49.9314 Q1390.95 39.2371 1396.09 32.6746 Q1401.28 26.1121 1409.5 26.1121 Q1414.52 26.1121 1418.09 28.0971 Q1421.69 30.0415 1424.04 34.0924 M1398.65 49.9314 Q1398.65 58.1548 1402.01 62.8538 Q1405.41 67.5124 1411.32 67.5124 Q1417.24 67.5124 1420.64 62.8538 Q1424.04 58.1548 1424.04 49.9314 Q1424.04 41.7081 1420.64 37.0496 Q1417.24 32.3505 1411.32 32.3505 Q1405.41 32.3505 1402.01 37.0496 Q1398.65 41.7081 1398.65 49.9314 Z" fill="#000000" fill-rule="nonzero" fill-opacity="1" /><path clip-path="url(#clip270)" d="M1467.47 49.7694 Q1458.44 49.7694 1454.95 51.8354 Q1451.47 53.9013 1451.47 58.8839 Q1451.47 62.8538 1454.06 65.2034 Q1456.69 67.5124 1461.19 67.5124 Q1467.39 67.5124 1471.12 63.1374 Q1474.88 58.7219 1474.88 51.4303 L1474.88 49.7694 L1467.47 49.7694 M1482.34 46.6907 L1482.34 72.576 L1474.88 72.576 L1474.88 65.6895 Q1472.33 69.8214 1468.52 71.8063 Q1464.72 73.7508 1459.21 73.7508 Q1452.24 73.7508 1448.11 69.8619 Q1444.02 65.9325 1444.02 59.3701 Q1444.02 51.7138 1449.12 47.825 Q1454.26 43.9361 1464.43 43.9361 L1474.88 43.9361 L1474.88 43.2069 Q1474.88 38.0623 1471.48 35.2672 Q1468.12 32.4315 1462 32.4315 Q1458.11 32.4315 1454.43 33.3632 Q1450.74 34.295 1447.34 36.1584 L1447.34 29.2718 Q1451.43 27.692 1455.28 26.9223 Q1459.13 26.1121 1462.77 26.1121 Q1472.61 26.1121 1477.48 31.2163 Q1482.34 36.3204 1482.34 46.6907 Z" fill="#000000" fill-rule="nonzero" fill-opacity="1" /><path clip-path="url(#clip270)" d="M1505.06 14.324 L1505.06 27.2059 L1520.42 27.2059 L1520.42 32.9987 L1505.06 32.9987 L1505.06 57.6282 Q1505.06 63.1779 1506.56 64.7578 Q1508.1 66.3376 1512.76 66.3376 L1520.42 66.3376 L1520.42 72.576 L1512.76 72.576 Q1504.13 72.576 1500.85 69.3758 Q1497.57 66.1351 1497.57 57.6282 L1497.57 32.9987 L1492.1 32.9987 L1492.1 27.2059 L1497.57 27.2059 L1497.57 14.324 L1505.06 14.324 Z" fill="#000000" fill-rule="nonzero" fill-opacity="1" /><path clip-path="url(#clip270)" d="M1550.84 49.7694 Q1541.8 49.7694 1538.32 51.8354 Q1534.84 53.9013 1534.84 58.8839 Q1534.84 62.8538 1537.43 65.2034 Q1540.06 67.5124 1544.56 67.5124 Q1550.76 67.5124 1554.48 63.1374 Q1558.25 58.7219 1558.25 51.4303 L1558.25 49.7694 L1550.84 49.7694 M1565.7 46.6907 L1565.7 72.576 L1558.25 72.576 L1558.25 65.6895 Q1555.7 69.8214 1551.89 71.8063 Q1548.08 73.7508 1542.57 73.7508 Q1535.61 73.7508 1531.47 69.8619 Q1527.38 65.9325 1527.38 59.3701 Q1527.38 51.7138 1532.49 47.825 Q1537.63 43.9361 1547.8 43.9361 L1558.25 43.9361 L1558.25 43.2069 Q1558.25 38.0623 1554.85 35.2672 Q1551.49 32.4315 1545.37 32.4315 Q1541.48 32.4315 1537.79 33.3632 Q1534.11 34.295 1530.7 36.1584 L1530.7 29.2718 Q1534.8 27.692 1538.64 26.9223 Q1542.49 26.1121 1546.14 26.1121 Q1555.98 26.1121 1560.84 31.2163 Q1565.7 36.3204 1565.7 46.6907 Z" fill="#000000" fill-rule="nonzero" fill-opacity="1" /><path clip-path="url(#clip270)" d="M1625.33 9.62495 Q1619.91 18.942 1617.27 28.0566 Q1614.64 37.1711 1614.64 46.5287 Q1614.64 55.8863 1617.27 65.0818 Q1619.95 74.2369 1625.33 83.5134 L1618.85 83.5134 Q1612.78 73.9938 1609.74 64.7983 Q1606.74 55.6027 1606.74 46.5287 Q1606.74 37.4952 1609.74 28.3401 Q1612.74 19.1851 1618.85 9.62495 L1625.33 9.62495 Z" fill="#000000" fill-rule="nonzero" fill-opacity="1" /><path clip-path="url(#clip270)" d="M1639.8 9.54393 L1647.25 9.54393 L1647.25 72.576 L1639.8 72.576 L1639.8 9.54393 Z" fill="#000000" fill-rule="nonzero" fill-opacity="1" /><path clip-path="url(#clip270)" d="M1662.85 27.2059 L1670.3 27.2059 L1670.3 72.576 L1662.85 72.576 L1662.85 27.2059 M1662.85 9.54393 L1670.3 9.54393 L1670.3 18.9825 L1662.85 18.9825 L1662.85 9.54393 Z" fill="#000000" fill-rule="nonzero" fill-opacity="1" /><path clip-path="url(#clip270)" d="M1723.61 45.1919 L1723.61 72.576 L1716.16 72.576 L1716.16 45.4349 Q1716.16 38.994 1713.64 35.7938 Q1711.13 32.5936 1706.11 32.5936 Q1700.07 32.5936 1696.59 36.4419 Q1693.11 40.2903 1693.11 46.9338 L1693.11 72.576 L1685.61 72.576 L1685.61 27.2059 L1693.11 27.2059 L1693.11 34.2544 Q1695.78 30.163 1699.38 28.1376 Q1703.03 26.1121 1707.77 26.1121 Q1715.59 26.1121 1719.6 30.9732 Q1723.61 35.7938 1723.61 45.1919 Z" fill="#000000" fill-rule="nonzero" fill-opacity="1" /><path clip-path="url(#clip270)" d="M1777.28 48.0275 L1777.28 51.6733 L1743.01 51.6733 Q1743.5 59.3701 1747.63 63.421 Q1751.8 67.4314 1759.22 67.4314 Q1763.51 67.4314 1767.52 66.3781 Q1771.57 65.3249 1775.54 63.2184 L1775.54 70.267 Q1771.53 71.9684 1767.32 72.8596 Q1763.11 73.7508 1758.77 73.7508 Q1747.91 73.7508 1741.55 67.4314 Q1735.23 61.1119 1735.23 50.3365 Q1735.23 39.1965 1741.23 32.6746 Q1747.27 26.1121 1757.47 26.1121 Q1766.63 26.1121 1771.94 32.0264 Q1777.28 37.9003 1777.28 48.0275 M1769.83 45.84 Q1769.75 39.7232 1766.39 36.0774 Q1763.06 32.4315 1757.56 32.4315 Q1751.32 32.4315 1747.55 35.9558 Q1743.82 39.4801 1743.26 45.8805 L1769.83 45.84 Z" fill="#000000" fill-rule="nonzero" fill-opacity="1" /><path clip-path="url(#clip270)" d="M1810.14 49.7694 Q1801.1 49.7694 1797.62 51.8354 Q1794.13 53.9013 1794.13 58.8839 Q1794.13 62.8538 1796.73 65.2034 Q1799.36 67.5124 1803.86 67.5124 Q1810.06 67.5124 1813.78 63.1374 Q1817.55 58.7219 1817.55 51.4303 L1817.55 49.7694 L1810.14 49.7694 M1825 46.6907 L1825 72.576 L1817.55 72.576 L1817.55 65.6895 Q1815 69.8214 1811.19 71.8063 Q1807.38 73.7508 1801.87 73.7508 Q1794.9 73.7508 1790.77 69.8619 Q1786.68 65.9325 1786.68 59.3701 Q1786.68 51.7138 1791.79 47.825 Q1796.93 43.9361 1807.1 43.9361 L1817.55 43.9361 L1817.55 43.2069 Q1817.55 38.0623 1814.15 35.2672 Q1810.78 32.4315 1804.67 32.4315 Q1800.78 32.4315 1797.09 33.3632 Q1793.41 34.295 1790 36.1584 L1790 29.2718 Q1794.09 27.692 1797.94 26.9223 Q1801.79 26.1121 1805.44 26.1121 Q1815.28 26.1121 1820.14 31.2163 Q1825 36.3204 1825 46.6907 Z" fill="#000000" fill-rule="nonzero" fill-opacity="1" /><path clip-path="url(#clip270)" d="M1866.65 34.1734 Q1865.39 33.4443 1863.89 33.1202 Q1862.43 32.7556 1860.65 32.7556 Q1854.33 32.7556 1850.93 36.8875 Q1847.57 40.9789 1847.57 48.6757 L1847.57 72.576 L1840.07 72.576 L1840.07 27.2059 L1847.57 27.2059 L1847.57 34.2544 Q1849.92 30.1225 1853.68 28.1376 Q1857.45 26.1121 1862.84 26.1121 Q1863.61 26.1121 1864.54 26.2337 Q1865.47 26.3147 1866.61 26.5172 L1866.65 34.1734 Z" fill="#000000" fill-rule="nonzero" fill-opacity="1" /><path clip-path="url(#clip270)" d="M1873.29 9.62495 L1879.77 9.62495 Q1885.85 19.1851 1888.85 28.3401 Q1891.88 37.4952 1891.88 46.5287 Q1891.88 55.6027 1888.85 64.7983 Q1885.85 73.9938 1879.77 83.5134 L1873.29 83.5134 Q1878.68 74.2369 1881.31 65.0818 Q1883.98 55.8863 1883.98 46.5287 Q1883.98 37.1711 1881.31 28.0566 Q1878.68 18.942 1873.29 9.62495 Z" fill="#000000" fill-rule="nonzero" fill-opacity="1" /><circle clip-path="url(#clip272)" cx="285.257" cy="173.254" r="14.4" fill="#000000" fill-rule="evenodd" fill-opacity="1" stroke="none"/>
<circle clip-path="url(#clip272)" cx="513.946" cy="266.287" r="14.4" fill="#000000" fill-rule="evenodd" fill-opacity="1" stroke="none"/>
<circle clip-path="url(#clip272)" cx="742.635" cy="563.102" r="14.4" fill="#000000" fill-rule="evenodd" fill-opacity="1" stroke="none"/>
<circle clip-path="url(#clip272)" cx="971.324" cy="941.863" r="14.4" fill="#000000" fill-rule="evenodd" fill-opacity="1" stroke="none"/>
<circle clip-path="url(#clip272)" cx="1200.01" cy="746.159" r="14.4" fill="#000000" fill-rule="evenodd" fill-opacity="1" stroke="none"/>
<circle clip-path="url(#clip272)" cx="1428.7" cy="927.542" r="14.4" fill="#000000" fill-rule="evenodd" fill-opacity="1" stroke="none"/>
<circle clip-path="url(#clip272)" cx="1657.39" cy="1017.9" r="14.4" fill="#000000" fill-rule="evenodd" fill-opacity="1" stroke="none"/>
<circle clip-path="url(#clip272)" cx="1886.08" cy="1363.49" r="14.4" fill="#000000" fill-rule="evenodd" fill-opacity="1" stroke="none"/>
<circle clip-path="url(#clip272)" cx="2114.77" cy="1384.88" r="14.4" fill="#000000" fill-rule="evenodd" fill-opacity="1" stroke="none"/>
<circle clip-path="url(#clip272)" cx="2343.46" cy="1535.06" r="14.4" fill="#000000" fill-rule="evenodd" fill-opacity="1" stroke="none"/>
<circle clip-path="url(#clip272)" cx="2572.15" cy="1688.65" r="14.4" fill="#000000" fill-rule="evenodd" fill-opacity="1" stroke="none"/>
</svg>
